<?xml version="1.0" encoding="UTF-8" standalone="no"?>
<svg
   version="1.1"
   x="0px"
   y="0px"
   viewBox="0 0 504 504"
   xml:space="preserve"
   id="svg6"
   sodipodi:docname="adv-workbench.svg"
   width="504"
   height="504"
   inkscape:version="1.4 (e7c3feb100, 2024-10-09)"
   xmlns:inkscape="http://www.inkscape.org/namespaces/inkscape"
   xmlns:sodipodi="http://sodipodi.sourceforge.net/DTD/sodipodi-0.dtd"
   xmlns="http://www.w3.org/2000/svg"
   xmlns:svg="http://www.w3.org/2000/svg"><defs
     id="defs6" /><sodipodi:namedview
     id="namedview6"
     pagecolor="#ffffff"
     bordercolor="#000000"
     borderopacity="0.25"
     inkscape:showpageshadow="2"
     inkscape:pageopacity="0.0"
     inkscape:pagecheckerboard="0"
     inkscape:deskcolor="#d1d1d1"
     inkscape:zoom="1.2873016"
     inkscape:cx="252.8545"
     inkscape:cy="315"
     inkscape:window-width="1920"
     inkscape:window-height="1043"
     inkscape:window-x="0"
     inkscape:window-y="0"
     inkscape:window-maximized="1"
     inkscape:current-layer="svg6" /><g
     id="g5"
     transform="matrix(0.86898928,0,0,0.86898928,33.014267,33.014701)"
     style="fill:#000000;fill-opacity:1;stroke:none;stroke-opacity:1"><path
       d="M 493.177,275.839 H 188.355 v -48.135 c 13.194,-1.942 23.354,-13.334 23.354,-27.059 v -18.613 c 0,-2.209 -1.791,-4 -4,-4 h -19.354 v -23.409 c 16.175,-7.189 23.603,2.458 34.085,18.48 7.525,11.501 15.306,23.394 28.942,25.525 1.465,0.229 2.915,0.343 4.344,0.343 6.362,0 12.324,-2.254 17.441,-6.633 15.516,-13.279 23.903,-46.519 24.328,-96.242 h 29.021 c 8.377,0 15.193,-6.816 15.193,-15.193 V 64.193 C 341.709,55.816 334.893,49 326.516,49 h -34.402 c -5.92,-3.248 -37.33,-19.147 -90.775,-22.83 -27.209,-1.875 -50.41,0.595 -66.533,3.433 v -16.2 C 134.807,6.013 128.794,0 121.403,0 114.012,0 108,6.013 108,13.403 v 25.073 l -4.787,15.939 -10.858,3.18 V 41.118 c 0,-6.042 -4.916,-10.957 -10.957,-10.957 h -9.032 c -6.042,0 -10.957,4.916 -10.957,10.957 v 36.151 c 0,6.042 4.915,10.957 10.957,10.957 h 15.39 l 22.242,6.818 c -0.712,30.603 -12.418,44.194 -15.695,47.409 -14.828,0.348 -29.258,5.606 -40.79,14.922 -10.932,8.831 -18.879,20.951 -22.626,34.388 l -3.595,0.001 c -1.9,0 -3.537,1.337 -3.918,3.198 -0.997,4.875 -1.503,9.892 -1.503,14.909 0,28.764 16.507,53.728 40.535,65.968 H 10.823 C 4.855,275.839 0,280.694 0,286.661 v 12.678 c 0,5.967 4.855,10.822 10.823,10.822 h 4.043 l 22.55,190.31 c 0.238,2.013 1.945,3.529 3.972,3.529 h 24.774 c 2.209,0 4,-1.791 4,-4 V 379.63 H 258.42 V 500 c 0,2.209 1.791,4 4,4 h 24.774 c 2.027,0 3.734,-1.516 3.972,-3.529 l 22.55,-190.31 h 179.462 c 5.968,0 10.823,-4.855 10.823,-10.822 V 286.661 C 504,280.694 499.145,275.839 493.177,275.839 Z M 84.355,80.226 H 72.366 c -1.63,0 -2.957,-1.326 -2.957,-2.957 V 41.118 c 0,-1.63 1.326,-2.957 2.957,-2.957 h 9.032 c 1.63,0 2.957,1.327 2.957,2.957 z m 119.354,105.806 v 14.613 c 0,9.301 -6.596,17.086 -15.354,18.934 v -33.547 z m 64.257,0.229 c -4.563,3.905 -9.583,5.364 -15.348,4.464 -10.124,-1.582 -16.612,-11.5 -23.483,-22.001 -8.838,-13.509 -19.672,-30.034 -40.78,-22.688 v -21.81 c 0,-2.209 -1.791,-4 -4,-4 H 161 V 96.097 h 128.496 c -0.409,46.652 -8.017,78.598 -21.53,90.164 z M 256,88.097 V 77.903 h 21.258 V 88.096 H 256 Z M 116,13.403 C 116,10.424 118.424,8 121.403,8 c 2.979,0 5.403,2.424 5.403,5.403 v 17.744 c -4.497,0.949 -8.129,1.855 -10.807,2.579 V 13.403 Z M 92.355,81.268 V 65.932 l 15.188,-4.448 c 1.299,-0.38 2.317,-1.392 2.707,-2.688 l 4.963,-16.526 c 8.28,-2.399 42.008,-11.118 85.576,-8.117 56.289,3.877 87.933,22.112 88.243,22.293 L 326.516,57 c 3.966,0 7.193,3.227 7.193,7.193 v 16.71 c 0,3.966 -3.227,7.193 -7.193,7.193 H 285.258 V 73.903 c 0,-2.209 -1.791,-4 -4,-4 H 252 c -2.209,0 -4,1.791 -4,4 V 88.096 H 114.631 Z m 25.617,14.829 H 153 v 28.129 c 0,2.209 1.791,4 4,4 h 23.355 v 94.955 c -0.787,1.539 -3.952,6.268 -13.527,7.654 1.969,-6.651 3.043,-13.683 3.043,-20.964 0,-5.028 -0.508,-10.056 -1.51,-14.943 -0.382,-1.861 -2.02,-3.197 -3.919,-3.196 l -3.595,0.001 c -3.75,-13.425 -11.694,-25.534 -22.617,-34.358 -9.729,-7.859 -21.521,-12.839 -33.874,-14.414 5.515,-7.575 12.888,-22.205 13.616,-46.864 z m 62.383,138.266 v 41.476 h -14.998 v -36.807 c 6.742,-0.568 11.579,-2.452 14.998,-4.669 z M 95.871,150.419 c 26.236,0 48.853,16.751 56.641,41.315 l -28.298,0.007 c -6.162,-9.627 -16.809,-15.516 -28.343,-15.516 -11.541,0 -22.192,5.894 -28.352,15.529 l -28.297,0.007 c 7.781,-24.578 30.404,-41.342 56.649,-41.342 z M 114,191.744 77.733,191.752 c 4.744,-4.748 11.229,-7.526 18.138,-7.526 6.904,0 13.386,2.775 18.129,7.518 z m -84.129,18.127 c 0,-3.389 0.258,-6.776 0.769,-10.108 l 130.457,-0.03 c 0.514,3.341 0.774,6.739 0.774,10.138 0,35.967 -28.923,65.286 -64.73,65.968 h -2.54 c -35.807,-0.682 -64.73,-30.001 -64.73,-65.968 z m 127.486,41.125 v 24.843 h -28.021 c 11.324,-5.768 20.982,-14.352 28.021,-24.843 z M 180.355,371.63 H 66.161 c -2.209,0 -4,1.791 -4,4 V 496 H 44.941 L 22.921,310.161 H 180.355 Z M 283.639,496 h -17.22 V 379.63 h 31.008 z M 298.376,371.63 H 188.355 V 310.161 H 305.659 Z M 496,299.339 c 0,1.556 -1.266,2.822 -2.823,2.822 H 10.823 C 9.266,302.161 8,300.895 8,299.339 v -12.678 c 0,-1.556 1.266,-2.822 2.823,-2.822 h 482.354 c 1.557,0 2.823,1.266 2.823,2.822 z"
       id="path1"
       style="fill:#000000;fill-opacity:1;stroke:none;stroke-opacity:1" /><path
       d="m 260.871,360.767 c 10.957,0 19.871,-8.914 19.871,-19.871 0,-10.957 -8.914,-19.871 -19.871,-19.871 -10.957,0 -19.871,8.914 -19.871,19.871 0,10.957 8.914,19.871 19.871,19.871 z m 0,-31.743 c 6.545,0 11.871,5.325 11.871,11.871 0,6.546 -5.325,11.871 -11.871,11.871 -6.546,0 -11.871,-5.325 -11.871,-11.871 0,-6.546 5.325,-11.871 11.871,-11.871 z"
       id="path2"
       style="fill:#000000;fill-opacity:1;stroke:none;stroke-opacity:1" /><path
       d="m 218.936,354.831 c 7.684,0 13.936,-6.251 13.936,-13.936 0,-7.685 -6.251,-13.936 -13.936,-13.936 -7.685,0 -13.936,6.252 -13.936,13.937 0,7.685 6.251,13.935 13.936,13.935 z m 0,-19.871 c 3.273,0 5.936,2.663 5.936,5.936 0,3.273 -2.663,5.936 -5.936,5.936 -3.273,0 -5.936,-2.664 -5.936,-5.936 0,-3.272 2.663,-5.936 5.936,-5.936 z"
       id="path3"
       style="fill:#000000;fill-opacity:1;stroke:none;stroke-opacity:1" /><path
       d="m 51.871,203.871 c -6.617,0 -12,5.383 -12,12 0,6.617 5.383,12 12,12 6.617,0 12,-5.383 12,-12 0,-6.617 -5.383,-12 -12,-12 z m 0,16 c -2.206,0 -4,-1.794 -4,-4 0,-2.206 1.794,-4 4,-4 2.206,0 4,1.794 4,4 0,2.206 -1.794,4 -4,4 z"
       id="path4"
       style="fill:#000000;fill-opacity:1;stroke:none;stroke-opacity:1" /><path
       d="m 139.871,227.871 c 6.617,0 12,-5.383 12,-12 0,-6.617 -5.383,-12 -12,-12 -6.617,0 -12,5.383 -12,12 0,6.617 5.383,12 12,12 z m 0,-16 c 2.206,0 4,1.794 4,4 0,2.206 -1.794,4 -4,4 -2.206,0 -4,-1.794 -4,-4 0,-2.206 1.795,-4 4,-4 z"
       id="path5"
       style="fill:#000000;fill-opacity:1;stroke:none;stroke-opacity:1" /></g><path
     style="fill:#ffffff;fill-opacity:1;stroke:none;stroke-width:3.10728;stroke-opacity:1"
     d="M 72.290159,462.78977 C 72.12866,462.2557 67.927703,427.03668 62.954697,384.52528 57.981692,342.01387 53.727418,306.2705 53.500754,305.09556 l -0.412115,-2.13625 H 121.122 189.15536 v 26.41184 26.41183 h -50.04932 c -44.463623,0 -50.185556,0.13624 -51.270035,1.22072 -1.08578,1.08578 -1.220715,7.05358 -1.220715,53.9889 v 52.76819 h -7.015749 c -4.938116,0 -7.102705,-0.28756 -7.309382,-0.97102 z"
     id="path6" /><path
     style="fill:#ffffff;fill-opacity:1;stroke:none;stroke-width:3.10728;stroke-opacity:1"
     d="m 196.92355,329.37712 v -26.41781 h 50.49322 50.49322 l -0.0445,2.13625 c -0.0245,1.17494 -1.33775,12.97287 -2.91839,26.21763 l -2.87389,24.08138 -47.57483,0.20018 -47.57483,0.20018 z m 69.74443,15.8776 c 6.45688,-2.69719 10.22244,-8.61741 10.25084,-16.11635 0.0522,-13.77163 -14.92962,-21.96474 -26.61423,-14.55459 -11.56911,7.33691 -10.3916,24.00222 2.1615,30.59183 3.0183,1.58442 10.49854,1.62609 14.20189,0.0791 z m -37.86526,-5.20232 c 4.52621,-2.28243 7.22618,-7.16385 6.70894,-12.12943 -0.6333,-6.07965 -5.12646,-10.27275 -11.56144,-10.78933 -4.5688,-0.36677 -7.92471,1.30574 -11.03046,5.49731 -2.26491,3.05677 -2.27903,10.39025 -0.0259,13.4804 1.87973,2.57808 7.58941,5.6889 10.44158,5.6889 1.10069,0 3.56099,-0.78653 5.46733,-1.74785 z"
     id="path7" /><path
     style="fill:#ffffff;fill-opacity:1;stroke:none;stroke-width:3.10728;stroke-opacity:1"
     d="m 264.50678,413.65598 v -50.10481 h 13.20592 c 7.32841,0 13.20592,0.31182 13.20592,0.70061 0,0.38534 -2.62176,22.79201 -5.82614,49.79261 -3.20438,27.0006 -5.82614,49.23249 -5.82614,49.4042 0,0.17171 -3.3209,0.3122 -7.37978,0.3122 h -7.37978 z"
     id="path8" /><path
     style="fill:#ffffff;fill-opacity:1;stroke:none;stroke-width:3.10728;stroke-opacity:1"
     d="m 40.478226,293.96377 c -0.259633,-0.6766 -0.472061,-3.81105 -0.472061,-6.96545 0,-4.87526 0.225313,-5.85586 1.502568,-6.53942 1.829287,-0.97901 419.383417,-1.1218 420.924747,-0.14395 0.72663,0.46099 0.94075,2.54544 0.77682,7.56209 l -0.22633,6.92567 -211.01684,0.19562 c -191.919118,0.1779 -211.059567,0.0843 -211.488904,-1.03456 z"
     id="path9" /><path
     style="fill:#ffffff;fill-opacity:1;stroke:none;stroke-width:3.10728;stroke-opacity:1"
     d="m 108.73641,271.89593 c -12.623991,-1.85567 -23.092249,-7.15015 -32.231892,-16.30177 -11.021804,-11.03624 -16.06683,-22.10911 -16.86859,-37.02334 -0.232746,-4.32951 -0.193607,-8.78651 0.08698,-9.90444 l 0.51015,-2.03259 h 56.204222 56.20421 l 0.52663,4.65476 c 0.66634,5.8896 -0.67218,15.93317 -3.03476,22.77148 -8.7256,25.25556 -35.35241,41.66434 -61.39695,37.8359 z M 84.21758,229.35741 c 6.596074,-4.83075 5.785976,-14.44595 -1.541604,-18.29759 -7.171365,-3.76953 -16.182463,2.55097 -15.190313,10.65468 0.985451,8.04901 10.341765,12.32284 16.731917,7.64291 z m 74.08419,1.06946 c 1.37484,-0.58581 3.37363,-2.01225 4.44176,-3.16986 1.62159,-1.75744 1.94204,-2.87335 1.94204,-6.76276 0,-4.37192 -0.17507,-4.81846 -2.85042,-7.27024 -3.90409,-3.57783 -7.73814,-4.22694 -11.90627,-2.01576 -3.93834,2.08929 -5.829,5.14091 -5.829,9.40827 0,4.28427 1.94905,7.41695 5.80083,9.3236 3.70302,1.83301 5.05737,1.91148 8.40106,0.48675 z"
     id="path10" /><path
     style="fill:#ffffff;fill-opacity:1;stroke:none;stroke-width:3.10728;stroke-opacity:1"
     d="m 69.178839,195.17571 c 15.1266,-34.39482 60.198611,-41.82992 85.316421,-14.07384 3.88556,4.29369 8.8587,12.51842 10.15382,16.7927 l 0.5296,1.74785 h -11.76184 -11.76185 l -3.75592,-4.10958 c -11.6804,-12.78022 -30.94038,-12.81196 -43.182247,-0.0712 l -4.017013,4.18074 H 78.957111 67.214412 Z"
     id="path11" /><path
     style="fill:#ffffff;fill-opacity:1;stroke:none;stroke-width:3.10728;stroke-opacity:1"
     d="m 179.62178,228.19051 c 1.36832,-5.85886 1.07286,-24.05905 -0.43506,-26.80025 -0.6966,-1.26632 -1.66911,-1.74784 -3.53005,-1.74784 -2.32473,0 -2.65719,-0.29575 -3.50192,-3.11523 -1.43805,-4.79977 -5.77703,-12.65849 -9.85466,-17.84867 -8.31066,-10.57814 -20.80541,-18.08949 -35.44989,-21.31105 l -2.10171,-0.46234 2.66,-5.2374 c 4.88209,-9.61258 8.14638,-22.17969 8.14638,-31.36258 v -3.78234 h 15.14797 15.14796 v 13.05056 c 0,9.11467 0.28114,13.33169 0.93218,13.98273 0.63497,0.63497 4.35019,0.93219 11.65229,0.93219 h 10.72009 v 41.41446 41.41447 l -2.13625,1.94084 c -2.2174,2.01456 -5.7313,3.78756 -7.50654,3.78756 -0.83671,0 -0.81668,-0.89062 0.10921,-4.85511 z"
     id="path12" /><path
     style="fill:#ffffff;fill-opacity:1;stroke:none;stroke-width:3.10728;stroke-opacity:1"
     d="m 176.72626,256.73859 v -15.92478 h 1.93372 c 1.06354,0 3.7727,-0.69896 6.02034,-1.55325 2.24765,-0.85428 4.17403,-1.55342 4.28084,-1.55363 0.10681,-2.2e-4 0.1942,7.86489 0.1942,17.47803 v 17.47842 h -6.21455 -6.21455 z"
     id="path13" /><path
     style="fill:#ffffff;fill-opacity:1;stroke:none;stroke-width:3.10728;stroke-opacity:1"
     d="m 196.92355,209.336 v -14.3545 h 6.21455 6.21455 v 8.29975 c 0,6.77999 -0.29164,8.9022 -1.59274,11.58991 -1.60566,3.31684 -4.76341,6.18102 -8.70011,7.89127 l -2.13625,0.92806 z"
     id="path14" /><path
     style="fill:#ffffff;fill-opacity:1;stroke:none;stroke-width:3.10728;stroke-opacity:1"
     d="m 123.51418,106.498 -9.32182,-2.90193 -0.22273,-6.624474 -0.22273,-6.624474 6.60442,-1.774849 c 3.63244,-0.976166 7.09775,-2.340182 7.7007,-3.031144 0.60295,-0.690963 2.01189,-4.380846 3.13098,-8.199742 1.11908,-3.818896 2.40656,-7.17327 2.86106,-7.454166 1.23215,-0.761513 15.56629,-3.702833 24.45691,-5.018481 39.21393,-5.802938 87.92795,0.07429 118.84816,14.338747 l 6.23939,2.878424 17.84199,0.492195 17.84199,0.492196 1.74785,2.010016 c 1.58268,1.820081 1.74784,2.809934 1.74784,10.475154 0,9.570878 -0.75563,11.992158 -4.10709,13.160488 -1.36234,0.47491 -9.55812,0.81548 -19.62452,0.81548 h -17.2852 l -0.2715,-7.05445 c -0.36719,-9.540988 0.13764,-9.258741 -16.56031,-9.258741 -17.05063,0 -16.72598,-0.181789 -16.72598,9.365871 v 6.94732 l -57.67879,-0.0658 -57.6788,-0.0658 z"
     id="path16" /><path
     style="fill:#ffffff;fill-opacity:1;stroke:none;stroke-width:3.10728;stroke-opacity:1"
     d="m 134.00123,52.972141 c 0,-7.001218 0.28141,-9.526367 1.20928,-10.851082 1.30557,-1.863956 3.4424,-2.20183 5.83316,-0.922334 1.35096,0.723011 1.50257,1.69975 1.50257,9.680293 v 8.876142 l -3.30148,0.845113 c -1.81581,0.464813 -3.73844,0.991668 -4.2725,1.17079 -0.74019,0.248256 -0.97103,-1.843429 -0.97103,-8.798922 z"
     id="path17" /><path
     style="fill:#ffffff;fill-opacity:1;stroke:none;stroke-width:3.10728;stroke-opacity:1"
     d="m 94.462867,101.4705 c -0.61976,-0.74676 -0.824305,-6.080486 -0.677731,-17.672622 l 0.209932,-16.603057 h 5.82614 5.826142 l 0.20879,17.672627 0.20879,17.672622 h -5.3572 c -3.601327,0 -5.648139,-0.35056 -6.244863,-1.06957 z"
     id="path18" /><path
     style="fill:#ffffff;fill-opacity:1;stroke:none;stroke-width:3.10728;stroke-opacity:1"
     d="m 255.96178,105.25894 v -4.2725 h 8.93341 8.93342 v 4.2725 4.2725 h -8.93342 -8.93341 z"
     id="path19" /><path
     style="fill:#d5fff6;fill-opacity:1;stroke:none;stroke-width:3.10728;stroke-opacity:1"
     d="m 67.953189,197.7489 c 4.722284,-12.42055 14.105936,-22.64281 26.041879,-28.36921 8.488492,-4.07245 13.237362,-5.09007 23.304562,-4.99387 10.61622,0.10145 18.44447,2.40906 26.9019,7.93013 8.97781,5.86077 17.82727,16.9309 20.44755,25.57862 l 0.5296,1.74785 h -11.78017 -11.78016 l -3.48104,-3.87176 c -2.33433,-2.59633 -5.40503,-4.82264 -9.32162,-6.75832 -5.33716,-2.63777 -6.38647,-2.8828 -12.174,-2.84283 -8.89778,0.0615 -13.91316,2.12473 -20.678754,8.50706 l -5.264062,4.96585 h -11.7328 -11.732799 z"
     id="path20" /><path
     style="fill:#d5fff6;fill-opacity:1;stroke:none;stroke-width:3.10728;stroke-opacity:1"
     d="m 196.92355,329.37712 v -26.41781 h 50.49322 50.49322 l -0.0578,2.52466 c -0.0318,1.38856 -1.34267,13.1865 -2.91307,26.21763 l -2.85529,23.69297 -47.58015,0.20018 -47.58015,0.20018 z m 72.12916,14.53348 c 4.64465,-3.07369 7.15906,-7.28138 7.66135,-12.82079 0.50377,-5.55562 -0.63602,-9.41714 -3.86516,-13.09493 -6.80494,-7.75039 -17.94293,-8.23081 -25.29975,-1.09127 -8.73494,8.47698 -5.96025,23.30941 5.30535,28.36041 4.3352,1.94371 12.21018,1.28573 16.19821,-1.35342 z m -39.05527,-4.56748 c 2.89882,-1.96154 5.77745,-6.97938 5.74999,-10.02303 -0.0285,-3.15318 -2.75426,-8.14876 -5.52436,-10.12444 -3.50114,-2.49707 -10.40877,-2.63114 -13.57988,-0.26356 -5.58773,4.17185 -7.07375,10.00039 -4.03922,15.8428 3.47677,6.69383 11.23928,8.73258 17.39347,4.56823 z"
     id="path21" /><path
     style="fill:#80ffe6;fill-opacity:1;stroke:none;stroke-width:3.10728;stroke-opacity:1"
     d="M 108.00556,271.84877 C 95.867661,269.9501 85.497802,264.59923 76.504518,255.59416 69.008959,248.08878 64.963811,241.68212 62.022196,232.65721 c -1.710187,-5.24687 -2.039731,-7.72655 -2.116374,-15.92478 l -0.09078,-9.71024 56.436708,-0.19925 56.4367,-0.19926 0.52354,4.51086 c 1.02883,8.8645 -1.81337,22.11506 -6.72895,31.37078 -10.87227,20.4718 -35.664,32.91205 -58.47748,29.34345 z M 83.956019,229.43946 c 2.9148,-1.90985 4.508063,-5.04754 4.509943,-8.88163 0.0047,-9.49965 -10.992078,-14.05268 -17.711556,-7.3332 -5.440714,5.44072 -3.98168,13.5982 3.010817,16.83355 3.443642,1.59333 7.159054,1.36775 10.190796,-0.61872 z m 76.187891,0.10378 c 7.49624,-4.91173 5.90431,-16.26829 -2.67745,-19.10052 -3.57146,-1.17869 -7.64462,0.0479 -10.67998,3.2161 -2.01145,2.09952 -2.29819,2.96616 -2.29819,6.94613 0,3.77161 0.33128,4.90617 1.94204,6.65099 3.90665,4.23177 9.35821,5.14104 13.71358,2.2873 z"
     id="path22" /><path
     style="fill:#80ffe6;fill-opacity:1;stroke:none;stroke-width:3.10728;stroke-opacity:1"
     d="m 94.462867,101.4705 c -0.61976,-0.74676 -0.824305,-6.080486 -0.677731,-17.672622 l 0.209932,-16.603057 h 5.82614 5.826142 l 0.20879,17.672627 0.20879,17.672622 h -5.3572 c -3.601327,0 -5.648139,-0.35056 -6.244863,-1.06957 z"
     id="path23" /><path
     style="fill:#80ffe6;fill-opacity:1;stroke:none;stroke-width:3.10728;stroke-opacity:1"
     d="m 134.00123,52.972141 c 0,-7.001218 0.28141,-9.526367 1.20928,-10.851082 1.30557,-1.863956 3.4424,-2.20183 5.83316,-0.922334 1.35096,0.723011 1.50257,1.69975 1.50257,9.680293 v 8.876142 l -3.30148,0.845113 c -1.81581,0.464813 -3.73844,0.991668 -4.2725,1.17079 -0.74019,0.248256 -0.97103,-1.843429 -0.97103,-8.798922 z"
     id="path24" /><path
     style="fill:#80ffe6;fill-opacity:1;stroke:none;stroke-width:3.10728;stroke-opacity:1"
     d="m 255.96178,105.25894 v -4.2725 h 8.93341 8.93342 v 4.2725 4.2725 h -8.93342 -8.93341 z"
     id="path25" /><path
     style="fill:#80ffe6;fill-opacity:1;stroke:none;stroke-width:3.10728;stroke-opacity:1"
     d="M 196.92355,209.33342 V 194.9815 h 6.21455 6.21455 v 8.29975 c 0,6.84678 -0.2859,8.89034 -1.63316,11.6734 -1.69797,3.50755 -5.00156,6.52768 -8.66313,7.9198 l -2.13281,0.81089 z"
     id="path26" /></svg>
