<?xml version="1.0" encoding="UTF-8" standalone="no"?>
<svg
   style="height: 512px; width: 512px;"
   viewBox="0 0 512 512"
   version="1.1"
   id="svg6"
   sodipodi:docname="alien-parts.svg"
   inkscape:version="1.2.1 (9c6d41e410, 2022-07-14)"
   xmlns:inkscape="http://www.inkscape.org/namespaces/inkscape"
   xmlns:sodipodi="http://sodipodi.sourceforge.net/DTD/sodipodi-0.dtd"
   xmlns="http://www.w3.org/2000/svg"
   xmlns:svg="http://www.w3.org/2000/svg">
  <defs
     id="defs10" />
  <sodipodi:namedview
     id="namedview8"
     pagecolor="#ffffff"
     bordercolor="#111111"
     borderopacity="1"
     inkscape:showpageshadow="0"
     inkscape:pageopacity="0"
     inkscape:pagecheckerboard="1"
     inkscape:deskcolor="#d1d1d1"
     showgrid="false"
     inkscape:zoom="1.1464844"
     inkscape:cx="233.32198"
     inkscape:cy="256.87223"
     inkscape:window-width="1600"
     inkscape:window-height="829"
     inkscape:window-x="0"
     inkscape:window-y="0"
     inkscape:window-maximized="1"
     inkscape:current-layer="svg6" />
  <g
     class=""
     transform="matrix(0.70664177,0,0,0.70664177,75.099742,75.099011)"
     id="g4">
    <path
       d="m 257.0263,21.0016 c -0.05,0.4061 -0.084,0.6004 -0.1456,1.0281 -0.9611,6.4481 -2.7109,15.4196 -4.4062,26.7311 -1.6948,11.3115 -3.3271,25.0067 -4.2596,40.6841 -0.9325,15.6774 -1.1722,33.4094 0.2962,51.9934 1.088,14.8826 3.3013,30.5151 6.3154,46.9997 3.0141,16.4846 6.9221,33.7488 10.8686,51.9934 0.5449,2.443 1.0637,4.8583 1.6159,7.3438 3.7078,16.8351 7.1571,33.8909 9.9874,50.9653 2.8303,17.0744 4.9514,34.2857 6.0216,51.1122 1.4867,24.794 0.5412,47.7377 -1.7624,67.5621 -2.3036,19.8244 -5.86,36.4357 -9.5467,49.3496 -2.9703,10.386 -6.0351,18.3615 -8.6657,24.0874 64.4714,-0.379 125.4041,-5.5764 179.6272,-14.8343 v -29.5217 c 0,-10.31 8.2592,-18.5061 18.5056,-18.5061 H 491 v -34.956 c -35.3598,-6.1472 -62.2747,-36.8937 -62.2747,-74.0245 0,-37.1308 26.9149,-67.9992 62.2747,-74.1714 V 84.0107 h -29.522 c -10.2464,0 -18.5056,-8.1961 -18.5056,-18.5061 V 35.9829 C 419.6939,32.0086 395.1718,28.7334 369.682,26.2892 v 79.4589 c 26.5962,9.1828 45.6781,34.3203 45.6781,64.0371 0,23.8014 -12.2985,44.7283 -30.8441,56.8402 V 337.5153 H 367.332 V 234.7035 c -2.9972,0.9166 -6.0944,1.5594 -9.2533,2.0562 V 407.868 H 340.7481 V 237.3473 c -3.1571,-0.3135 -6.2398,-0.8844 -9.2534,-1.6157 v 67.2683 h -17.3311 v -74.1714 c -20.5807,-11.6537 -34.5152,-33.7046 -34.5152,-59.0434 0,-29.2442 18.5668,-54.0596 44.5026,-63.5965 V 22.911 c -21.8643,-1.2179 -44.2479,-1.8906 -67.1217,-1.9094 z m -8.3716,0.1467 C 184.1834,21.5272 123.2506,26.7247 69.0275,35.9826 v 29.5217 c 0,10.31 -8.2593,18.5061 -18.5057,18.5061 H 20.9999 v 34.956 c 35.3146,6.2304 62.2746,37.0905 62.2746,74.1714 0,37.0809 -26.96,67.8193 -62.2746,74.0245 v 160.8271 h 29.5219 c 10.2464,0 18.5057,8.1961 18.5057,18.5061 v 29.5217 c 56.0847,9.5759 119.3003,14.9419 186.2363,14.9811 0.1081,-0.8685 0.16,-1.3796 0.2962,-2.3499 0.9955,-7.2602 2.7204,-17.3503 4.4057,-30.1092 1.2432,-9.3734 2.4126,-20.1464 3.2318,-32.1654 H 156.2731 c -13.6736,0 -24.6748,-10.1213 -24.6748,-22.7654 0,-11.854 9.7045,-21.6008 22.1777,-22.7655 0.831,-0.0778 1.6412,0 2.4971,0 h 107.8052 c -0.155,-4.4852 -0.5658,-9.0457 -0.8808,-13.6593 H 156.2731 c -13.6736,0 -24.6748,-10.1213 -24.6748,-22.7655 0,-11.854 9.7045,-21.6008 22.1777,-22.7655 0.831,-0.0778 1.6412,0 2.4971,0 h 101.4898 c -0.5938,-3.4522 -1.237,-6.9032 -1.9096,-10.4281 -0.2069,-1.1012 -0.5182,-2.2698 -0.7342,-3.3781 h -98.846 c -13.6736,0 -24.6748,-10.1213 -24.6748,-22.7655 0,-11.854 9.7045,-21.6008 22.1777,-22.7654 0.831,-0.0778 1.6412,0 2.4971,0 h 89.2995 c -0.4511,-2.198 -0.8545,-4.423 -1.3221,-6.6093 -4.0523,-18.3911 -7.8696,-37.0288 -10.722,-55.6653 -2.8524,-18.6365 -4.8132,-37.2329 -5.4342,-55.2246 -0.6918,-22.6816 0.8033,-43.4123 3.3784,-61.0996 2.5671,-17.6873 6.2293,-32.3435 9.8403,-43.6216 2.5596,-7.9943 5.0694,-14.2033 7.3437,-18.9468 z m -94.8806,32.606 c 25.8916,0 46.9997,21.1082 46.9997,46.9997 0,25.8915 -21.108,46.8528 -46.9997,46.8528 -25.8917,0 -46.8526,-20.9613 -46.8526,-46.8528 0,-25.8915 20.961,-46.9997 46.8526,-46.9997 z m -16.0095,29.6686 c -10.9016,0 -19.6806,8.7795 -19.6806,19.6811 0,10.9016 8.779,19.828 19.6806,19.828 10.9016,0 19.8282,-8.9263 19.8282,-19.828 0,-10.9017 -8.9262,-19.6811 -19.8282,-19.6811 z m 209.7361,34.5154 c -28.6153,0 -51.8463,23.2296 -51.8463,51.8465 0,28.6169 23.2315,51.8466 51.8463,51.8466 28.6172,0 51.8468,-23.2297 51.8468,-51.8466 0,-28.6169 -23.2296,-51.8465 -51.8468,-51.8465 z m -13.5124,21.003 c 12.265,0 22.1782,9.9136 22.1782,22.178 0,12.2644 -9.9132,22.178 -22.1782,22.178 -12.2636,0 -22.1777,-9.9136 -22.1777,-22.178 0,-12.2644 9.9141,-22.178 22.1777,-22.178 z"
       fill="#ffffff"
       fill-opacity="1"
       stroke="#000000"
       stroke-opacity="1"
       stroke-width="8"
       id="path2" />
  </g>
</svg>
