<?xml version="1.0" encoding="UTF-8" standalone="no"?>
<!-- Generator: Adobe Illustrator 22.1.0, SVG Export Plug-In . SVG Version: 6.00 Build 0)  -->

<svg
   version="1.1"
   id="Пришелец-5"
   x="0px"
   y="0px"
   viewBox="0 0 842.1 842.2"
   style="enable-background:new 0 0 842.1 842.2;"
   xml:space="preserve"
   sodipodi:docname="alien-bug.svg"
   inkscape:version="1.2.1 (9c6d41e410, 2022-07-14)"
   xmlns:inkscape="http://www.inkscape.org/namespaces/inkscape"
   xmlns:sodipodi="http://sodipodi.sourceforge.net/DTD/sodipodi-0.dtd"
   xmlns="http://www.w3.org/2000/svg"
   xmlns:svg="http://www.w3.org/2000/svg"><defs
   id="defs905" /><sodipodi:namedview
   id="namedview903"
   pagecolor="#ffffff"
   bordercolor="#111111"
   borderopacity="1"
   inkscape:showpageshadow="0"
   inkscape:pageopacity="0"
   inkscape:pagecheckerboard="1"
   inkscape:deskcolor="#d1d1d1"
   showgrid="false"
   inkscape:zoom="0.69698408"
   inkscape:cx="415.36099"
   inkscape:cy="422.53476"
   inkscape:window-width="1600"
   inkscape:window-height="829"
   inkscape:window-x="0"
   inkscape:window-y="0"
   inkscape:window-maximized="1"
   inkscape:current-layer="Пришелец-5" />
<style
   type="text/css"
   id="style893">
	.st0{fill:none;stroke:#000000;stroke-width:10;stroke-miterlimit:10;}
</style>




<g
   id="g1030"
   transform="matrix(1.1343325,0,0,1.1343325,-55.823395,-22.691664)"><path
     id="_x35__1_"
     class="st0"
     d="m 364.1,475.2 c 1.6,3.2 1.7,7 0.2,10.3 -3,6.4 -6.9,12.7 -10.8,18 -15.8,21.2 -29.7,21.4 -50,41.3 -4.5,4.4 -8.4,9 -11.9,13.5 1.3,-10.2 2.8,-19.8 4.5,-28.8 -4.4,-13.1 -8.9,-26.2 -13.3,-39.3 -8.5,6 -17.1,12.1 -25.6,18.1 1.5,-11.7 4.1,-24.8 8.3,-36.8 0,0 4.5,-12.9 15.3,-26 4.4,-5.3 8.9,-9.5 15.3,-10.7 3.2,-0.6 5.8,-0.2 7.3,0 1.3,0.2 2.6,0.4 3.9,0.7 3.4,0.6 6.2,2.8 7.8,5.8 1.6,3 3.6,5.7 6.3,8.1 9.2,8.6 21.1,10.3 29.1,10.3 4.2,0 8,2.6 9.6,6.5 1.2,3.2 2.6,6.2 4,9 z M 626.7,308.8 C 615,291.7 602.9,278 592,267.5 c 5.3,-4.9 10.6,-9.7 16,-14.6 -0.9,-0.9 -1.7,-1.8 -2.6,-2.7 -10,-10 -26,-25.8 -44.7,-23.3 -3.7,-0.2 -15.1,7 -20.2,10.4 -1.4,0.9 -1.8,2.8 -0.9,4.2 6.8,10.5 10.4,20 12.4,25.4 2.3,6.5 8.1,22.2 8.3,42 0,2 1.9,3.6 3.9,3.2 15.3,-3.1 35.3,-3.6 55.2,6.2 9.3,4.6 16.6,10.5 22,16.1 0.2,0.2 0.6,0 0.5,-0.3 -4.4,-8.3 -9.4,-16.8 -15.2,-25.3 z M 276.8,312 c 1.7,0.4 3.3,-0.9 3.3,-2.7 -0.1,-11.8 1.5,-21.8 3.3,-29.1 1.7,-6.9 5.4,-21.9 16,-37.9 1.5,-2.3 0.9,-5.3 -1.4,-6.9 -10.8,-7.5 -16,-8.4 -17.9,-8.7 -18.6,-2.5 -34.7,13.3 -44.7,23.3 -0.9,0.9 -1.8,1.8 -2.6,2.7 5.3,4.9 10.6,9.7 16,14.6 -10.8,10.6 -23,24.2 -34.7,41.3 -6.3,9.2 -11.6,18.2 -16.2,26.9 5.6,-6 13.3,-12.6 23.5,-17.6 20,-9.6 40.2,-9 55.4,-5.9 z m 29.8,101.9 c -2,-9.2 -3.6,-21.3 -3.2,-35.7 -5.8,-7.9 -15.8,-21.4 -20.7,-40 -0.2,-0.9 -1.2,-5.6 -2.9,-5.5 -7.6,0.5 -17.8,2.1 -28.3,6.9 -16.4,7.3 -30,24.3 -38.8,47.3 12.5,-3.4 24.9,-6.9 37.4,-10.3 -13,25.4 -25.9,50.9 -38.9,76.3 30.9,-11.5 61.9,-22.9 92.9,-34.4 1.9,-0.7 3,-2.6 2.5,-4.6 z m 253.5,31.6 c -4.4,-5.3 -8.9,-9.5 -15.3,-10.7 -3.2,-0.6 -5.8,-0.2 -7.3,0 -2.6,0.4 -5.2,0.9 -7.8,1.4 -1.2,2.7 -2.6,5 -4.2,7.2 -3,4.1 -6.8,9.3 -14,12.7 -11,5.2 -21.8,2.4 -25.3,1.3 -3.4,9.7 -7.5,17.6 -11.3,23.8 3.2,7.8 7.8,15.7 12.6,22.2 15.8,21.2 29.7,21.4 50,41.3 4.5,4.4 8.4,9 11.9,13.5 -1.3,-10.2 -2.8,-19.8 -4.5,-28.8 4.4,-13.1 8.9,-26.2 13.3,-39.3 8.5,6 17.1,12.1 25.6,18.1 -1.5,-11.7 -4.1,-24.8 -8.3,-36.8 -0.1,0.1 -4.6,-12.8 -15.4,-25.9 z m 68.1,-58.7 c -8.8,-23 -22.4,-40 -38.8,-47.3 -10.8,-4.8 -21.3,-6.4 -29,-6.9 -1.5,-0.1 -2.9,0.9 -3.3,2.4 -0.8,3 -1.8,6.1 -3.1,9.1 -4.1,10.5 -9.4,18.3 -13.3,23.3 -0.9,15.8 -2.5,29.1 -4,39.3 -0.4,2.6 -0.8,5 -1.1,7.3 -0.4,2.2 0.9,4.3 2.9,5 30.4,11.3 60.8,22.4 91.2,33.7 -13,-25.4 -25.9,-50.9 -38.9,-76.3 12.5,3.6 24.9,7 37.4,10.4 z"
     style="fill:#d4aa00" /><path
     id="_x34__2_"
     class="st0"
     d="m 205.4,266.2 c 3.8,-9.7 7.8,-18.8 12,-27.3 10.4,9.6 20.9,19.1 31.3,28.7 -10.8,10.6 -23,24.2 -34.7,41.3 -17,25 -27.2,48.9 -33.3,67.3 2.3,-31.8 8.9,-69.7 24.7,-110 z m 430,0 c -3.8,-9.7 -7.8,-18.8 -12,-27.3 -10.4,9.6 -20.9,19.1 -31.3,28.7 10.8,10.6 23,24.2 34.7,41.3 17,25 27.2,48.9 33.3,67.3 -2.3,-31.8 -8.9,-69.7 -24.7,-110 z m 23.4,243.7 c -2.4,-38.9 -4.9,-77.8 -7.3,-116.7 -20.2,-5.6 -40.4,-11.1 -60.7,-16.7 22.7,44.5 45.3,88.9 68,133.4 z M 250,376.5 c -20.2,5.6 -40.4,11.1 -60.7,16.7 -2.4,38.9 -4.9,77.8 -7.3,116.7 22.7,-44.5 45.3,-88.9 68,-133.4 z m 308.1,113.7 c -4.4,13.1 -8.9,26.2 -13.3,39.3 3.3,17.4 6,37.1 7.3,58.7 0.9,14.4 1,28 0.7,40.7 8.2,-8.3 17.6,-19.5 26,-34 16.9,-29.1 21.4,-57 22.7,-74 -14.6,-10.3 -29,-20.5 -43.4,-30.7 z m -318.7,30.6 c 1.3,17 5.8,44.9 22.7,74 8.4,14.5 17.8,25.7 26,34 -0.3,-12.6 -0.2,-26.2 0.7,-40.7 1.3,-21.6 4,-41.2 7.3,-58.7 -4.4,-13.1 -8.9,-26.2 -13.3,-39.3 -14.5,10.3 -28.9,20.5 -43.4,30.7 z"
     style="fill:#aade87" /><path
     id="_x33__4_"
     class="st0"
     d="m 357.4,459.5 c 5.3,14.9 12.1,26 17.3,33.3 11.1,15.5 21.3,22.8 24,24.7 7.9,5.4 13.9,9.5 22,9.3 3.4,-0.1 9.4,-0.9 22.7,-11.3 15.8,-12.4 25.1,-24.8 27.3,-28 4.7,-6.7 10.7,-16.7 15.3,-30 3.6,1.1 14.4,3.9 25.3,-1.3 7.2,-3.4 11,-8.6 14,-12.7 5.5,-7.6 8.2,-15.8 11.3,-36.7 1.5,-10.3 3.1,-23.6 4,-39.3 3.9,-5.1 9.2,-12.9 13.3,-23.3 13.6,-34.7 1.7,-67.3 -2,-77.3 -2.8,-7.6 -8.5,-22.9 -22,-38 -28,-31.4 -66.6,-36.3 -78.7,-37.3 -10.2,-14 -20.4,-28 -30.7,-42 -10.2,14.2 -20.4,28.4 -30.7,42.7 -8.8,0.6 -21.6,2.5 -36,8 -9,3.4 -27.8,10.9 -44.7,29.3 -18.5,20.2 -23.9,41.8 -26,50.7 -3,12.8 -5.8,33.7 0.7,58 5,18.6 13.5,32.1 19.3,40 -0.5,18 2.2,32.3 4.7,42 3.6,14 5.9,22.4 13.3,29.3 12.9,11.7 30.8,10.5 36.3,9.9 z"
     style="fill:#55d400" /><path
     id="_x32__4_"
     class="st0"
     d="m 438.1,432.8 c 0.8,-11.8 4.6,-56.3 30,-82 2.5,-2.5 7.4,-7.5 15.3,-12 19.2,-11 38.9,-9.9 48,-8.7 -4.7,21.8 -9.3,43.6 -14,65.3 -0.3,1.8 -0.9,4.4 -2,7.3 -4.9,12.8 -15.7,19.3 -21.3,22.7 -22.3,13.5 -50.8,8.5 -56,7.4 z m -34.8,0.7 c -0.8,-11.8 -4.6,-56.3 -30,-82 -2.5,-2.5 -7.4,-7.5 -15.3,-12 -19.2,-11 -38.9,-9.9 -48,-8.7 4.7,21.8 9.3,43.6 14,65.3 0.3,1.8 0.9,4.4 2,7.3 4.9,12.8 15.7,19.3 21.3,22.7 22.3,13.5 50.7,8.4 56,7.4 z"
     style="fill:#ff5555" /><g
     id="_x31__4_">
	<path
   class="st0"
   d="m 392.1,299.5 c 9.6,-13.1 19.1,-26.2 28.7,-39.3 9.1,12.9 18.2,25.8 27.3,38.7 m 5.3,-55.4 c -11.1,-14.7 -22.2,-29.3 -33.3,-44 -10.9,14.2 -21.8,28.4 -32.7,42.7 m 44,80 c -3.6,-6.4 -7.1,-12.9 -10.7,-19.3 -3.1,6.4 -6.2,12.9 -9.3,19.3"
   id="path899" />
</g></g>
</svg>
