<?xml version="1.0" encoding="UTF-8" standalone="no"?>
<!-- Generator: Adobe Illustrator 22.1.0, SVG Export Plug-In . SVG Version: 6.00 Build 0)  -->

<svg
   version="1.1"
   id="Астронавт-1"
   x="0px"
   y="0px"
   viewBox="0 0 842.1 842.2"
   style="enable-background:new 0 0 842.1 842.2;"
   xml:space="preserve"
   sodipodi:docname="astronaut.svg"
   inkscape:version="1.2.1 (9c6d41e410, 2022-07-14)"
   xmlns:inkscape="http://www.inkscape.org/namespaces/inkscape"
   xmlns:sodipodi="http://sodipodi.sourceforge.net/DTD/sodipodi-0.dtd"
   xmlns="http://www.w3.org/2000/svg"
   xmlns:svg="http://www.w3.org/2000/svg"><defs
   id="defs19"><linearGradient
     id="linearGradient945"
     inkscape:swatch="solid"><stop
       style="stop-color:#e6e6e6;stop-opacity:1;"
       offset="0"
       id="stop943" /></linearGradient></defs><sodipodi:namedview
   id="namedview17"
   pagecolor="#ffffff"
   bordercolor="#111111"
   borderopacity="1"
   inkscape:showpageshadow="0"
   inkscape:pageopacity="0"
   inkscape:pagecheckerboard="1"
   inkscape:deskcolor="#d1d1d1"
   showgrid="false"
   inkscape:zoom="0.69698408"
   inkscape:cx="261.12505"
   inkscape:cy="365.86202"
   inkscape:window-width="1600"
   inkscape:window-height="829"
   inkscape:window-x="0"
   inkscape:window-y="0"
   inkscape:window-maximized="1"
   inkscape:current-layer="Астронавт-1" />
<style
   type="text/css"
   id="style2">
	.st0{fill:none;stroke:#000000;stroke-width:10;stroke-miterlimit:10;}
	.st1{fill:none;stroke:#000000;stroke-width:5;stroke-miterlimit:10;}
</style>
<path
   id="Ноги"
   class="st0"
   d="M283.7,761.4c2.9-5,7-12.1,9.9-17.1c5.8-4.8,13.5-10.2,23.4-14.5c3.7-1.6,7.3-2.9,10.6-3.8  c6.4-0.1,11.7,0.8,15.4,1.8c8.4,2.1,14.2,5.5,17.6,7.5c3.8,2.3,7,4.2,10.5,7.7c5.7,5.8,8.1,12.1,9.5,16c2,5.5,2.6,9.9,3.5,16.5  c0.6,4.5,0.9,8.3,1,11H278.6C280.3,778.1,282.1,769.7,283.7,761.4z M492.1,734c-3.6-1.4-7.7-0.7-10.5,2s-3.8,6.8-2.5,10.5  c1.3,9.3,2.7,18.7,4,28c0.5,3.7,1,7.3,1.5,11c44,0,88,0,132,0c1.1,0,5.3,0.1,9-3c2.6-2.2,3.6-4.8,4-6c3.5-7,2.9-15.3-1.5-21.5  c-5.6-7.9-14.8-8.4-16-8.5c-11.2-4.2-22.3-8.3-33.5-12.5H492.1z M296.6,648c6.8-7.3,9.8-13.6,18.7-23.4c3.5-3.9,4.6-4.6,5.8-4.6  c2.1-0.1,4.2,1.3,15.4,16.9c5.8,8.1,4,5.7,12.8,16.8c9.8,12.5,13.2,16,15.2,17.9c5.3,5.3,10.3,9,13.7,11.5c0,0,0,0,0,0  c3.4,2,6.7,4,10.1,6.1c0.2,0.1,0.3,0.4,0.3,0.7l-7.4,23.6c-3.2,9.5-6.5,19.1-9.7,28.7c-0.1,0.4-0.6,0.5-0.9,0.2  c-1.6-1.5-3.8-3.1-6.3-4.9c-3.2-2.2-8.6-5.4-16-8c-6.5-2.3-12.8-4.5-20.5-3.5c-1.7,0.2-5.7,0.9-16.5,7c-5.3,3-12.2,7.3-20.1,13.3  c-0.4,0.3-0.9,0-0.9-0.5c0.1-13.9-0.6-25.2-1.5-33.3c-3-28.5,0.5-53,0.5-57.5C289.1,651.1,291.8,653.1,296.6,648z M481.9,689.7  c3.3,14.3,6.6,28.5,9.9,42.7c0.2,0.9,1,1.6,2,1.6h83c1.1,0,2-0.8,2-1.9c0.5-8.2,1-16.6,1.4-25.1c1.6-38,1.4-45.8,1-50  c-0.8-9.1-2.8-22.2-8.1-37.9c-0.4-1.2-1.8-1.7-2.9-1.1c-4.6,2.7-9.2,5.3-13.8,8c0,0-0.1,0.1-0.1,0.1c-8.1,5.6-16.5,11.8-25.1,18.9  c-8,6.4-15.2,12.8-21.9,19c-8.9,7.9-17.7,15.8-26.6,23.7C481.9,688.2,481.7,689,481.9,689.7z M317.5,552.1  c5.2,2.7,49.6,23.7,59.6,29.4c17.5,10.1,26.1,17.5,32.3,25.3c4.7,5.9,7.2,11,8.6,15.7c0.9,2.9,2.2,8.1,2.1,14  c-0.3,12.8-7.3,22.3-20,39c-4.1,5.5-8,10.1-11.3,13.7c-0.1,0.2-0.4,0.2-0.6,0.1c-14.2-7.6-22.9-16.1-28.2-22.3  c-21.4-25.3-29-38-29-38c-1.4-2.3-5.5-9.5-10-9c-1.6,0.2-2.7,1.2-9,8c-2.2,2.4-4,4.4-5.5,6c0,0,0,0,0,0.1  c-5.5,8.1-11.1,16.2-16.7,24.3c-0.3,0.4-0.8,0.2-0.8-0.3c-0.1-4.9,0.1-11.4,0.5-19c0.5-8.7,1.3-20.8,4.5-36  c2.4-11.6,5.1-19.1,8-27.5c7.9-22.5,11.6-24,13.5-24C316.3,551.5,316.9,551.8,317.5,552.1z M452.6,632.4c-0.6,0.6-0.8,1.5-0.5,2.3  c3.9,10.1,9.1,21.4,16,33.3c4,6.8,8.1,13,12.1,18.6c0.7,1,2.2,1.2,3.1,0.3c8.3-7.6,16.9-15.3,25.8-22.9  c22.6-19.6,28.5-25.1,37.5-31.5c10.2-7.3,19.2-12.4,25.6-15.8c0.8-0.4,1.3-1.4,1.1-2.3c-1.6-7.5-3.8-16.2-7.2-25.4  c-4-10.9-8.5-20.3-12.9-27.9c-0.1-0.1-0.1-0.2-0.2-0.3c-1.7-2.1-3.5-4.2-5.2-6.4c-0.7-0.9-2-1-2.9-0.3c-3.8,3-7.6,5.9-11.4,8.9  c-10.7,8.4-16.6,12.3-23.2,17.3c-2.6,2-13.1,10.1-25.9,21.4c-6.5,5.8-13.6,12.5-21.1,20C459.7,625.3,456.1,628.9,452.6,632.4z"
   style="fill:#afdde9" />
<path
   id="Нагрудник"
   class="st0"
   d="M336.1,517.4c-0.9-0.6-2.1-0.5-2.9,0.4c-6.6,7.2-11.6,13.7-15.1,18.8  c-3.4,4.9-5.3,8.1-4.5,11.5c1.1,4.8,7.1,7.1,10.5,8.5c14.7,5.9,29.7,13.4,36.5,16.5c4.8,2.2,9.9,4.6,16.5,8.5  c11.5,6.8,18.9,13.1,20.5,14.5c8.2,7.1,12.4,10.6,16,16.5c2.4,4,6,11.5,6.5,22.5c0,0.9,0.6,1.7,1.5,2c4,1.4,13.9,4,24.6-0.5  c7.2-3.1,11.5-8.1,13.4-10.9c0.1-0.1,0.1-0.2,0.2-0.3c12.4-12.7,23.4-22.6,31.9-29.9c10.6-9,20-16.2,29-23c3.7-2.8,9.7-6.8,21-15.5  c4.2-3.2,6.8-5.3,8-9c2.5-7.9-4.4-16.5-6-18.5c-3.7-4.6-8.1-7.1-11.2-8.5c-0.7-0.3-1.6-0.2-2.3,0.3c-1.7,1.3-3.4,2.5-5,3.8  c-0.1,0.1-0.2,0.1-0.3,0.2c-2.9,1.7-7.3,3.9-12.7,5.9c-8.8,3.4-16.1,4.6-21.8,5.5c-16.6,2.5-29.5,4.4-48.3,4.6  c-6.9,0.1-23.3,0-44-2.9c-15.5-2.2-26.5-3.8-40.2-9.4C348.7,525.2,341.4,520.9,336.1,517.4z M311.1,457.6c-0.3,0.2-0.4,0.6-0.3,1  c4.8,12.5,8.1,22.9,10.3,30.4c3.5,12.1,7.1,20.3,9,23c5.8,8.1,28.5,17.8,36,20c11.4,3.4,25.9,6,44.5,7.8c33.1,3.1,52.9,1.1,75-2.3  c29.9-4.6,41.7-12.2,49-20.5c4.7-5.3,7.6-11.3,11-23.5c1.6-5.7,9.6-30.3,8-69c-0.4-9.4-1.5-22.6-4.4-38.2c0-0.2,0-0.4,0.1-0.6  c2.4-4.4,4.5-7.9,5.9-10.2c4.5-7.6,5.8-9.1,7-13c0.3-1,1.6-5.3,1.5-11c0-2.4-0.2-9.1-4-16c-5.5-10.1-17.2-17.7-22-15  c-1.2,0.7-8.1,9.1-10.5,11c-12.5,9.8-22,14-22,14c-8,3.6-15.7,5.4-28.5,7c-11.8,1.5-33.7,3.4-65,1c-15.9-1.2-28.3-3.1-39.5-5.5  c-14.7-3.1-22.1-4.7-30-9.5c-10.3-6.2-19.1-15.7-24.5-21.5c-4.5-4.9-4.5-7-7-8c-11.2-4.4-29.7,17.1-38.5,30.5  c-3.6,5.5-6.2,10.6-8.1,14.9c-0.4,0.8,0.7,1.6,1.3,0.9c2.6-2.8,6-6.1,10.3-9.2c7.9-5.8,15.4-11.4,24.5-10c3.4,0.5,7.9,2.1,15,9.5  c21.6,22.4,23.5,52,23.5,52c0.5,8.5,1.3,22.8-7,38C325.2,447.2,316.4,454.1,311.1,457.6z"
   style="fill:#afdde9" />
<path
   id="Руки"
   class="st0"
   d="M237.4,485.2c1.9,1,14.5,8,27.2,17.8c2.2,1.7,4.8,3.8,7,7.5c2,3.5,2.6,6.6,3.5,11.5  c1.7,9.3,0,10.3,2,14.5c2.2,4.8,4.6,4.3,7,9.5c0.9,2.1,3.5,7.8,1,11.5c-2.8,4.1-10.8,4-15.5,1c-1.7-1.1-3.3-3.6-6.5-8.5  c-4-6.2-5.3-9.2-6-9c-0.8,0.3,0.3,4.6,1,12c0.8,8.8,1.1,13.3-1.5,16.5c-1.7,2.1-4,2.7-8.5,4c-9.3,2.6-16.8,0.9-18.5,0.5  c-2.9-0.7-6.2-1.5-9.5-4c-4.9-3.6-6.6-8.9-8.5-13.5c-3.3-7.9-3-14.9-3.5-33c-0.4-12.2,0.4-23.2,1.5-32.5c-0.1-1-0.4-5.2,2.5-9  c3.6-4.7,9.2-4.9,9.9-4.9C228.3,480.2,233.5,483,237.4,485.2z M618.3,473.7c-5.6,4.7-11.3,9.3-16.9,14c-4.3,4.4-8.6,8.9-12.8,13.3  c-1.2,0.7-9.3,5.9-10.4,15.5c-0.5,4.4,0.7,8,1.5,10c-0.3,4.5-0.7,9-1,13.5c-3.7,5.4-3.4,11.7,0,15c2.4,2.4,5.8,2.5,7,2.5  c1.4,0,4.9-0.2,8.5-2.5c3.8-2.4,5.4-5.7,6-7c1.8-5.7,3.7-11.3,5.5-17c0,1.7,0,3.3,0,5c1.3,4.5,2.7,9,4,13.5c0.6,2.6,1.9,7.3,5.5,12  s7.7,7.3,10,8.5c3.4,0.1,8.3-0.4,12.5-3.5c5.5-4,5.5-10.6,9-20.5c3.9-11.3,6-21.6,7-30c-3-13.8-6-27.7-9-41.5  c-0.4-1.8-1.5-4.9-4.5-7c-3.6-2.5-8-2-10.2-1.6C626,468.5,622.1,471.1,618.3,473.7z M291.6,337c2.5-0.3,9.1-0.8,16,2.5  c6.1,3,9.3,7.4,14,14c5.9,8.4,9,16,10.5,20c2.5,6.7,6.3,17.3,6,31.5c-0.2,7.1-0.6,25.5-13.5,40.5c-3,3.5-5.9,5.9-8,7.5  c-5.4,4.1-10.9,8.6-16.5,13.5c-12.8,11.2-23.6,22.5-32.8,33.2c-1.5,1.8-4.1,2-5.9,0.5c-10.6-8.8-19.8-13.5-26.8-16.3  c-4.6-1.8-13.1-4.6-16-12c-1.2-3-1.1-5.6-1-7c1.4-25.8,13.5-53,13.5-53c3-6.7,6-13.5,10.1-21.2c0.9-1.7,2.8-5,5.4-9.3  c9.6-15.8,15.4-25.4,25.5-34C278,342.5,283.3,338.1,291.6,337z M563.6,351.4c0,0.1,0,0.2,0,0.3c-0.4,4.3-1.4,9.8-3.8,16  c-3,8.1-7.2,14.2-10.5,18.2c-0.1,0.2-0.2,0.4-0.2,0.6c1.4,10.2,2.7,20.4,4.1,30.7c0,0,0,0,0,0c0.7,8.9,0.9,19,0.3,30.1  c-0.6,10.3-1.9,19.8-3.3,28c0,0.2,0,0.5,0.2,0.7c10.7,10.4,21.4,20.7,32.2,31.1c0.3,0.3,0.8,0.3,1.1-0.1c7.1-8.9,16.6-19,29-28.9  c6.9-5.5,13.7-10,20-13.7c0.3-0.2,0.4-0.5,0.3-0.9c-6.1-19.1-12.2-38.3-18.3-57.4c-5.8-18.1-14.3-32.3-28.5-48  c-9-9.9-18-16.8-24.9-21.5c-0.6-0.4-1.3,0.1-1.2,0.8C561.2,342,562.4,346.7,563.6,351.4z"
   style="fill:#afdde9" />
<path
   id="Короб_1_"
   class="st0"
   d="M380.5,393.5c0,0,76.1-5,114.1-6.5c11,2.5,22,5,33,7.5c0.2,29.2,0.3,58.3,0.5,87.5  c-39.7,3-79.3,6-119,9c-9.5-2.8-17-6.7-26.5-9.5c0-28.7-2-56.3-2-85c9.7,2.3,17.6,1.7,27.3,4c-0.3,27.3,1.1,57.7,0.8,85  c0-2.5-0.8-85-0.8-85c35.2-1.7,84.6-4.3,119.8-6c-36-0.3-119.8,6-119.8,6S379.2,396.8,380.5,393.5z M496.1,419.9  c-9.1,0-16.5,9.5-16.5,21.3s7.4,21.3,16.5,21.3s16.5-9.5,16.5-21.3S505.2,419.9,496.1,419.9z M443.1,455.3c-3.6,0-6.5,4.1-6.5,9.1  s2.9,9.1,6.5,9.1s6.5-4.1,6.5-9.1S446.7,455.3,443.1,455.3z M466.1,415.9l-42.9,2.3l0.5,9.1l42.9-2.3L466.1,415.9z"
   style="fill:#cccccc" />
<path
   id="Шлем_2_"
   class="st0"
   d="M329.7,294.1c3,2.2,16.2,11.4,36.7,18.3c28.3,9.6,55.4,9.6,69.7,9.5c19.6-0.1,40-0.4,63.2-9.3  c19.3-7.4,29.9-16.6,33.9-20.3c2.8-2.6,5.2-5.2,7.3-7.5c1.5-1.8,4.5-0.5,4.2,1.8c-1.1,8.8-2.8,15.9-4.4,21.2  c-2.3,7.9-4.4,11.9-7,15.5c-2.4,3.4-5.5,6.6-10.9,10.5c-13,9.5-26,13.6-28.8,14.4c-13.7,4.1-24.1,4.6-41.6,5.1  c-26.2,0.9-44.9-1.3-62.9-3.4c-9.6-1.1-20.5-2.7-33.3-7.1c-8.2-2.8-14.6-5.9-20.6-9.9c-5.9-4-9.8-7.9-11.7-9.8  c-3.3-3.3-4.7-5.2-5.2-6c-1.9-2.8-4.1-5.8-4.9-10.4c-1-5.5,0.3-9.9,0.9-11.7c1.2-3.3,2.9-5.7,4.3-7.3c0.8-0.9,2.1-1,3-0.2  C323.7,289.5,326.4,291.7,329.7,294.1z M565,177.2c-2-12.9-6.4-39.5-25.5-66c-10-13.9-20.2-22.5-23.7-25.3  c-13.1-10.6-25-15.7-31.8-18.6c-23.5-10-44.8-12-57.5-12.3c-10.4-0.2-33.1,0.4-59.5,10.5c-10.9,4.2-29.7,11.6-48.1,29.2  c-4.9,4.7-19,19-29.2,42.3c-1.1,2.5-2.3,5.5-3.6,9c-4.6,0.9-9.6,2.7-14.3,6.3c-0.8,0.6-4.3,3.4-7.5,8.7c-8.3,13.2-6.6,28.3-2.8,57.8  c0.7,5.2,1.3,9.5,3.8,14.7c1.6,3.4,5.9,12.3,15.8,17.6c4.5,2.4,9.1,3.4,13.1,3.6c4.2,7.4,9.9,15.7,17.5,23.8  c24.6,26.2,53.4,34.1,71.8,39.1c16.1,4.4,58.7,15.4,106.4-2.1c15.3-5.6,38.2-14,55.3-36.9c15.9-21.3,19-44.6,20.6-57.2  C568.6,201.3,566.4,185.8,565,177.2z"
   style="fill:#afdde9" />
<path
   id="Стекло"
   class="st0"
   d="M566.4,194.6c-0.5-12.4-1.1-22.7-6.1-35.4c-1.1-2.8-6.8-16.9-20.6-30.8  c-16.6-16.8-34.8-23.1-46.2-27c-6.2-2.1-24.3-7.7-48.4-7c-28.2,0.8-48.5,9.9-54,12.5c-8.2,3.9-26.7,12.8-42.9,32.5  c-7.6,9.2-12.4,18.1-15.4,24.4c-0.2,2.6-0.3,5.1-0.4,7.4c1.2,4.1,1.4,6.9,1.9,13.2c2.3,27.7,3,29.9,2.1,37c0,0,0,0,0,0  c-0.1,3.4-0.5,6.2-0.9,8.4c-0.3,0.8-0.7,1.5-1,2.3c-0.6,2.2-1.5,4.1-2.8,6.2c-0.1,0.2-0.2,0.5-0.3,0.7c2,6.5,5.3,15.4,10.9,25.2  c11.5,20.2,25.4,31.6,28.3,33.9c5,4,13.8,10.3,26,15.4c17.3,7.2,31.9,8.1,42,8.6c10.8,0.5,34,1.4,60.7-9.5c10.1-4.2,24-10,37.3-23.6  c14.3-14.6,19.9-30,23.3-39.8C567.7,226.8,567,208.1,566.4,194.6z"
   style="fill:#d7eef4" />
<g
   id="Детали">
	<path
   class="st0"
   d="M286.8,253.7c2,0.1,8.1,0.1,13.3-4.2c6.6-5.4,6.3-15.1,6-22.5c-0.5-12.2-1.8-31.4-6-57   c-0.1-1.9-0.6-7.7-5-12.5c-5-5.4-13.1-7.4-20.9-5.2"
   id="path10" />
	<path
   class="st0"
   d="M264.4,161c3.3-5.2,6.7-8,7.5-8.7c9.8-7.8,21.6-7.2,26.5-6.9c6.3,0.3,16.8,0.8,24.8,8.7   c5.8,5.7,7.9,12.9,9.1,17.1c1.2,4.1,1.4,6.9,1.9,13.2c2.3,27.7,3,29.9,2.1,37c-1,7.8-1.6,12-4.6,16.9c-6.9,11-19.4,13.9-23.7,14.9   c-4.7,1.1-15.7,3.7-26.8-2.2c-9.9-5.2-14.2-14.1-15.8-17.6c-2.4-5.2-3.1-9.5-3.8-14.7C257.9,189.3,256.1,174.2,264.4,161z"
   id="path12" />
</g>
<path
   id="Блики_1_"
   class="st1"
   d="M356.4,179c4.6-14.5,11.8-23.9,16.3-29c17.5-19.7,40.2-25.4,50-27c12.4-2,23.4-2.9,30-3  c11.2-0.2,21.9,0.8,26.7,1.3c2.3,0.2,4.3,0.5,5.7,0.7c-20.7,7.9-36.5,16.3-47.3,22.7c-18,10.7-26.1,18-43.3,25  C379.2,175.8,365.7,178.1,356.4,179z M389.4,189c-8.4,0-15.3,6.8-15.3,15.3s6.8,15.3,15.3,15.3s15.3-6.8,15.3-15.3  S397.8,189,389.4,189z"
   style="fill:#ffffff" />
<g
   id="g345"
   transform="matrix(1.0264745,-0.08463882,0.06513841,0.78997925,95.431722,-61.051242)"
   style="fill:#afe9dd;fill-opacity:1"><rect
     style="fill:#afe9dd;fill-opacity:1;stroke:#010101;stroke-width:7.55906;stroke-dasharray:none"
     id="rect386"
     width="12.157157"
     height="131.27527"
     x="161.71185"
     y="150.90077" /><rect
     style="fill:#afe9dd;stroke:#010101;stroke-width:7.55906;stroke-dasharray:none;fill-opacity:1"
     id="rect1003"
     width="24.335814"
     height="25.574411"
     x="155.62253"
     y="129.78017"
     ry="12.787206" /></g><path
   style="fill:#d7eef4;stroke-width:10.8454"
   d="m 294.53304,709.84405 c -0.82713,-13.61222 -1.17978,-29.89401 -0.78366,-36.18176 0.61707,-9.7948 1.36338,-12.37397 5.21055,-18.00698 9.181,-13.44279 21.54404,-28.49518 22.77779,-27.73267 0.70103,0.43325 4.90349,5.72651 9.33881,11.76279 18.41334,25.05978 32.38505,40.5008 43.394,47.95745 3.55102,2.40519 6.65419,4.52005 6.89594,4.69968 0.24175,0.17963 -2.5396,9.44207 -6.18078,20.5832 l -6.62033,20.2566 -6.01462,-3.49078 c -8.66478,-5.02889 -22.83579,-9.44557 -30.30634,-9.44557 -7.61375,0 -19.08555,4.0328 -28.55533,10.03836 -3.73717,2.37004 -6.98775,4.30917 -7.2235,4.30917 -0.23576,0 -1.1054,-11.13727 -1.93253,-24.74949 z"
   id="path9188" /><path
   style="fill:#d7eef4;stroke-width:10.8454"
   d="m 286.06004,777.99481 c 0.40566,-1.38095 1.19095,-5.0614 1.74508,-8.17879 0.55413,-3.11738 3.20412,-9.41591 5.88886,-13.99672 4.1302,-7.04713 6.5811,-9.32649 15.92733,-14.81265 15.16236,-8.90018 19.88219,-10.16992 29.66525,-7.98056 14.7578,3.30265 28.34134,12.60959 33.69817,23.08874 2.41753,4.72922 5.79006,17.7237 5.79006,22.30929 0,1.77624 -6.85287,2.08151 -46.72616,2.08151 -43.82557,0 -46.68037,-0.15586 -45.98859,-2.51082 z"
   id="path9190" /><path
   style="fill:#d7eef4;stroke-width:10.8454"
   d="m 492.48345,709.84405 -4.46674,-19.01048 8.78206,-7.89114 c 33.35628,-29.97235 57.92681,-49.8508 67.97266,-54.99235 l 4.50038,-2.30333 2.50324,9.63736 c 3.25748,12.54116 4.17142,33.86746 2.86735,66.90822 l -1.05231,26.66219 H 535.27014 496.9502 Z"
   id="path9192" /><path
   style="fill:#d7eef4;stroke-width:10.8454"
   d="m 487.12917,762.07615 c -1.3982,-10.18209 -2.27749,-19.30697 -1.95398,-20.27751 0.45147,-1.35439 11.49821,-1.71377 47.51704,-1.54588 l 46.92883,0.21876 14.71579,5.50105 c 8.09369,3.02557 16.76704,5.94064 19.27412,6.47792 2.50707,0.53728 6.21949,2.63805 8.24983,4.66838 4.64654,4.64654 5.11399,14.13785 0.94966,19.28224 l -2.74186,3.38715 -65.19862,0.40038 -65.19863,0.40039 z"
   id="path9194" /><path
   style="fill:#d7eef4;stroke-width:10.8454"
   d="m 622.96867,560.94681 c -8.02134,-7.47301 -11.75174,-21.80817 -11.80752,-45.37392 -0.0244,-10.31249 -0.55807,-17.483 -1.21154,-16.27885 -0.64235,1.18368 -4.2677,12.15954 -8.05633,24.39081 -3.78864,12.23126 -7.92432,23.34859 -9.19042,24.70515 -1.2661,1.35657 -3.9161,2.64785 -5.88888,2.86951 -3.28134,0.36869 -3.55334,-0.0247 -3.19308,-4.61862 0.21659,-2.7619 0.53941,-11.30193 0.71738,-18.97785 l 0.32357,-13.95623 13.29895,-13.5095 c 12.26173,-12.45585 22.75557,-21.39417 31.99081,-27.24874 6.23696,-3.95385 8.17594,-0.95 12.86701,19.93334 2.29892,10.23414 4.19675,21.29987 4.21742,24.59049 0.0563,8.9734 -9.42909,40.83553 -13.06161,43.87471 -3.93258,3.29023 -7.17087,3.17245 -11.00576,-0.4003 z"
   id="path9196" /><path
   style="fill:#d7eef4;stroke-width:10.8454"
   d="m 228.8431,567.40344 c -3.15645,-1.13715 -5.93614,-2.07728 -6.17707,-2.08916 -0.24094,-0.0119 -2.17785,-3.73402 -4.30426,-8.27143 -3.81768,-8.1463 -3.8662,-8.63179 -3.8662,-38.68734 0,-37.77988 -0.1386,-37.48931 14.56793,-30.54135 11.8647,5.60535 34.39877,20.81176 37.21911,25.11613 1.55883,2.37908 4.44773,17.45397 4.84141,25.26349 0.0244,0.48333 1.98121,3.31607 4.34856,6.29498 4.2927,5.40167 5.67479,10.76065 2.77518,10.76065 -3.57812,0 -7.22714,-3.38654 -11.66849,-10.82914 -4.94595,-8.28818 -9.54483,-10.97681 -13.35991,-7.81058 -1.73818,1.44256 -1.96139,4.33104 -1.21493,15.72151 l 0.91448,13.95426 -6.57554,1.65574 c -8.27865,2.08459 -10.40242,2.01933 -17.50027,-0.53776 z"
   id="path9198" /><path
   style="fill:#d7eef4;stroke-width:10.8454"
   d="m 284.79847,245.95599 c -11.79754,-6.13579 -15.65731,-14.09912 -18.72571,-38.63418 -2.52896,-20.22164 -2.01259,-32.59211 1.66345,-39.85038 4.01359,-7.92476 6.28405,-9.65219 12.62168,-9.60297 11.23959,0.0873 12.92756,3.35419 16.62932,32.18441 2.80659,21.85846 3.77227,46.98098 1.98493,51.63873 -0.70993,1.85003 -7.52468,6.5512 -9.43947,6.51183 -0.23647,-0.005 -2.36686,-1.01621 -4.7342,-2.24744 z"
   id="path9200" /></svg>
