<?xml version="1.0" encoding="UTF-8" standalone="no"?>
<!-- Generator: Adobe Illustrator 22.1.0, SVG Export Plug-In . SVG Version: 6.00 Build 0)  -->

<svg
   version="1.1"
   id="Биомасса"
   x="0px"
   y="0px"
   viewBox="0 0 842.1 842.2"
   style="enable-background:new 0 0 842.1 842.2;"
   xml:space="preserve"
   sodipodi:docname="biomass.svg"
   inkscape:version="1.2.1 (9c6d41e410, 2022-07-14)"
   xmlns:inkscape="http://www.inkscape.org/namespaces/inkscape"
   xmlns:sodipodi="http://sodipodi.sourceforge.net/DTD/sodipodi-0.dtd"
   xmlns="http://www.w3.org/2000/svg"
   xmlns:svg="http://www.w3.org/2000/svg"><defs
   id="defs126" /><sodipodi:namedview
   id="namedview124"
   pagecolor="#ffffff"
   bordercolor="#111111"
   borderopacity="1"
   inkscape:showpageshadow="0"
   inkscape:pageopacity="0"
   inkscape:pagecheckerboard="1"
   inkscape:deskcolor="#d1d1d1"
   showgrid="false"
   inkscape:zoom="0.69698408"
   inkscape:cx="375.18791"
   inkscape:cy="564.57531"
   inkscape:window-width="1600"
   inkscape:window-height="829"
   inkscape:window-x="0"
   inkscape:window-y="0"
   inkscape:window-maximized="1"
   inkscape:current-layer="Биомасса" />
<style
   type="text/css"
   id="style2">
	.st0{fill:none;stroke:#000000;stroke-width:10;stroke-miterlimit:10;}
</style>




<g
   id="g1389"
   transform="matrix(0.75727276,0,0,0.75727276,97.67757,110.85427)"><path
     id="Основа"
     class="st0"
     d="m 155.9,614.8 c 2.1,10.2 -1.6,22.7 -8.1,29.8 -7.8,8.5 -23.1,12.8 -35.8,6.6 -0.7,-0.4 -15.4,-7.9 -16.5,-23.5 -0.7,-10.9 5.5,-20.8 13.2,-25.7 13,-8.3 23.2,2 36.8,-5.7 10.6,-6 16.6,-19.1 16.4,-30.7 -0.2,-13.5 -8.7,-22.7 -13.2,-27.6 -10.9,-11.8 -23,-15.3 -31.9,-19.1 C 91.3,508.1 70.4,486.5 61,468.6 44.9,438 52.7,399.1 67.8,373.4 c 16.5,-28 44.8,-45.9 70.4,-51.4 11.6,-2.5 15.6,-1 48.9,-6.1 29.8,-4.5 36.8,-7.1 41.1,-9 9.9,-4.3 26.6,-13.9 41.9,-37.1 -2.9,3.4 -7.4,8.1 -13.6,12.7 -7.9,5.8 -12.6,14.4 -31,19.5 -11.6,3.2 -31.8,6.6 -50.5,9.2 3.1,-7.1 8.3,-22.2 12.6,-35.5 7.5,-23.3 9.2,-36.7 12.5,-50 2.3,-9.2 10.6,-41.8 32.3,-66.1 33.7,-37.6 85.3,-39.5 94,-39.8 20.1,-0.7 43.2,6.7 89.2,21.5 30.1,9.7 41.1,14.9 82.6,29.7 30.4,10.8 55.4,19 71.8,24.3 -3.8,-3.4 -9.6,-8.2 -17.3,-13.1 -16.5,-10.6 -31.9,-12.7 -70.3,-23.2 -17.4,-4.8 -30.8,-10.9 -41.2,-13.7 3.1,-7.1 15.7,-34 46.4,-47.9 31.5,-14.3 60.6,-5.3 68.9,-2.6 18.7,6.1 31.6,17.6 57.6,40.7 25.2,22.4 25,27.9 43.4,39.4 18.5,11.5 24.5,9.5 43.5,22.6 19.8,13.6 31.3,28.1 34.2,31.9 16.6,21.6 22.8,42.7 25.1,51.6 9.4,37.5 0.4,68 -2.9,78.9 -4.9,15.8 -11.7,32.8 -16.9,41.1 -11.5,-8.5 -28.4,-21.6 -53.6,-29.3 -13.7,-4.2 -37.7,-10.3 -65.8,-6.7 -35.2,4.5 -63.1,19.3 -61.9,22.3 1.2,3.2 32.8,-17 76.9,-15.6 7.5,0.2 93.7,6.2 125.7,65.4 32.5,60.2 -12.4,189.7 -118.6,206.1 -49.2,7.6 -61.8,13 -88.3,23.3 -0.2,0.1 -0.5,0.2 -0.7,0.3 -21.2,8.3 -38.1,24.6 -47.9,45.1 -1.4,2.9 -2.9,5.8 -4.6,8.8 -2.3,4.1 -9.5,16.3 -22.2,29.5 -21.6,22.4 -44.9,32.6 -54.1,36.6 -56.8,24.5 -108.7,10.7 -123.7,6.5 -23,-6.5 -58.1,-16.4 -81.9,-49.4 -5.4,-7.4 -23.8,-33.1 -22.8,-65.9 0.4,-11.6 3.1,-21.3 4.7,-52.9 1,-18.9 0.9,-27.4 -5.4,-33.1 -6.9,-6.3 -19.7,-9.4 -29.5,-4.4 -3.1,1.6 -5.3,3.6 -6.7,5.3 -1.6,1.7 -3.8,4.4 -5,8.1 -1.6,5.7 0.1,10.5 0.8,13.8 z m 414,176.1 c 1.1,0.5 13,5.7 26.4,1.1 7.5,-2.6 7.8,-5.6 19.9,-14.8 5.8,-4.4 17.9,-13.5 34.1,-19.2 10.8,-3.8 10.5,-1.6 20.9,-5.1 11.6,-4 29.7,-10.1 34.5,-24.1 4.5,-13.1 -4.5,-28.6 -13.7,-37.6 -18.7,-18.3 -49.1,-11.2 -70.9,-6.2 -20.4,4.7 -55.8,13 -68.6,43.3 -6.3,14.9 -4.7,29.5 -2.8,38.3 0.7,2.2 5,17.4 20.2,24.3 z M 149.8,232.8 c 5,-11.6 -3.5,-22.2 -3.9,-22.7 -8.1,-9.8 -24.7,-11.7 -35.1,-3.3 -6.5,5.2 -11.2,14.8 -8.5,23.7 3.4,11.1 17.8,18.8 33,14.4 1.3,-0.4 10.5,-3 14.5,-12.1 z"
     style="fill:#b3ff80" /><path
     id="Глаза"
     class="st0"
     d="m 435.9,63 c -0.3,16.6 -9.9,32.3 -25.1,39.7 -16.8,8.2 -39.4,5.8 -52.7,-10.1 -13.7,-16.3 -10.7,-39 -0.8,-53.5 10.6,-15.4 31.9,-25.7 51.7,-18.1 17.7,6.8 27.2,25 26.9,42 z m 127.3,509.9 c 39.6,-5.3 77.2,-31.9 92,-69.9 45.6,-117.7 -161.1,-99.5 -177.7,-3.1 -9.5,54.9 37.9,79.4 85.7,73 z M 425,653.6 c -33.2,-2.4 -72.3,9.2 -93.8,36.1 -21.6,27.1 -22.1,61.6 17.3,67.3 29.7,4.3 60.8,-9.5 80.2,-32 17.6,-20.6 31.7,-60.9 -3.7,-71.4 z M 274,328.5 c -21,1.6 -46.3,15.2 -52.4,40.4 -8.1,33.8 25.8,58.2 28,59.7 19.1,13.3 51.8,20.7 73.7,1.9 16.2,-14 19.7,-36.6 16.1,-53.5 -6.3,-28.9 -35.3,-50.8 -65.4,-48.5 z"
     style="fill:#ddafe9" /><path
     id="Червяк"
     class="st0"
     d="m 524,347.1 c -8.4,25.1 -42,42.5 -65.5,25.8 -25.7,-18.4 -20.5,-53.6 -5.7,-76.1 15.6,-23.8 15.8,-30.1 -8.1,-43.5 -17.5,-9.7 -49.1,-50.6 -8.4,-51.4 18.1,-0.4 38.5,17.3 52.7,27 21.3,14.5 35.9,34.8 20.4,59.3 -6.6,10.4 -18,17.4 -24.4,27.6 -3.6,5.8 -10,27.7 2.9,25.4 7.5,-1.3 13,-17.3 23.1,-19.2 16.2,-3.1 17.6,11.6 13,25.1 z"
     style="fill:#ffaaaa" /><g
     id="Детали">
	<g
   id="g11">
		<g
   id="g9">
			<path
   d="m 398.4,82.5 c 1.6,-2.9 2.6,-6.1 3.7,-9.2 0.5,-1.3 1.8,-5.5 2.9,-6 -1.5,0.4 -2.9,0.8 -4.4,1.2 -3.7,-4.3 -5.1,-5.1 -4.2,-2.5 0,0 0,0 0,0 -0.1,0.5 -0.2,4.2 0,4.5 0.3,0.7 -0.5,0.1 -0.2,0.2 0.1,-0.1 0.2,-0.2 0.3,-0.3 1.2,-0.4 2.2,-0.2 3,0.7 2.4,0.1 0.5,2.1 1.2,-0.2 0.1,-0.2 0.3,-2.9 0.1,-1.8 0,-0.2 0.6,-2.8 0.5,-1.7 0.2,-1.5 1.5,-0.1 -1.5,0.5 -0.3,0.1 -3.8,-0.4 -3.1,-1.1 0.4,-0.4 0.7,1.6 0.8,1.8 0.4,1.5 -0.3,3.1 0,4.6 0.6,2.8 -0.6,0 0.8,0 -0.2,0 3.8,-2.1 5,-0.9 0.8,0.8 0,1.4 0.5,1 0.4,-0.3 1.2,-3.4 1.5,-3.9 0.3,-0.6 0.7,-1.3 1.1,-1.9 0.3,-1.1 0.5,-1.3 0.7,-0.7 -1.4,0.8 -2.7,1.6 -4.1,2.4 -1.7,0.7 -3.5,-2.2 -4.4,-1.9 -0.1,0 0.3,1.1 0.2,1.2 0.1,-0.8 0.1,3 0.1,2.5 0,1.1 -0.5,0.1 0.7,-0.3 1.5,-0.5 3.4,-1 4.8,-0.1 -0.5,-0.3 1.8,1.6 1.3,1.5 -0.1,0 -0.4,-1.6 -0.3,-0.5 -0.1,-0.4 -0.3,-1.4 -0.1,-0.6 0,0 0.2,-1.1 0.3,-0.9 -0.1,-0.1 -5.2,0.6 -5.5,0.5 -0.4,-0.2 -1.6,-1.9 -1.9,-2 0.4,0 0.2,1.1 0.2,1.1 0,0.6 -0.3,3.1 0.1,2.2 1,-1 2.1,-2.1 3.1,-3.1 -0.9,0.6 -0.9,0.6 0.2,0 1.9,0.2 3.8,0.5 5.7,0.7 -0.1,-0.1 -0.3,-0.2 -0.4,-0.3 -3.3,-1.9 -7.4,-0.7 -9.4,2.5 -4.8,7.5 4.2,15.4 11.6,12.4 7,-2.8 8.2,-11.7 7.3,-18.3 -1,-7 -6,-13.2 -13.5,-13.4 -7.8,-0.2 -13.8,6 -15.7,13.1 -3.6,13 8.8,29 22.4,20.5 10.8,-6.7 10.1,-27.6 -0.9,-33.7 -15.7,-8.8 -28.1,16.7 -21.3,28.9 3.2,5.8 10.2,9.8 16.9,8.3 7.9,-1.8 10.7,-9 11.3,-16.3 0.6,-7.5 -0.7,-15.4 -6.9,-20.3 -5.9,-4.7 -14.2,-4.8 -20,0.2 -9.3,8.2 -10.1,28.4 2.4,34 7.1,3.2 15.8,-0.1 19.8,-6.5 4,-6.4 4.3,-16.6 0.6,-23.2 -4.5,-8.1 -15.6,-8.1 -20.4,-0.3 -4,6.4 -5.8,17.1 -3.5,24.2 1.7,4.3 8.2,5.6 10.6,1.2 z"
   id="path7" />
		</g>
	</g>
	<g
   id="g17">
		<g
   id="g15">
			<path
   d="M 372.7,103.5 C 353.4,112 332.7,96 330.4,76.6 329.2,66.5 331.7,56 337,47.4 c 2.9,-4.7 6.7,-8.9 11.6,-11.6 5.3,-2.9 10.7,-2.4 16.3,-3.4 3.9,-0.6 4,-6.2 1.1,-8.1 -12.7,-7.6 -28.8,4.4 -35.9,14.3 -8.1,11.4 -11.5,26.1 -9.3,39.9 4,24.9 31.5,43.5 55.3,30.8 4.1,-1.9 0.6,-7.6 -3.4,-5.8 z"
   id="path13" />
		</g>
	</g>
	<g
   id="g23">
		<g
   id="g21">
			<path
   d="m 322.1,703.9 c -1.7,-11.9 -0.4,-23.5 6.3,-33.7 6.3,-9.7 16.7,-16.6 27.3,-20.8 11.6,-4.5 24.5,-6.7 36.8,-4.2 6,1.2 11.7,3.2 17.2,5.7 2.6,1.2 5.2,2.3 7.9,3.5 3,1.3 5.5,3.4 8.7,3.9 3.1,0.5 6.1,-2.5 4.2,-5.5 -3.3,-5.5 -11.1,-9.7 -16.7,-12.4 -6.6,-3.1 -13.6,-5.3 -20.9,-6.5 -15.1,-2.3 -30.5,0.7 -44.3,6.9 -12.2,5.5 -23.2,14.8 -29.1,27 -5.6,11.4 -7.6,26.2 -0.4,37.3 1.2,1.6 3.3,0.5 3,-1.2 z"
   id="path19" />
		</g>
	</g>
	<g
   id="g29">
		<g
   id="g27">
			<path
   d="m 398.1,695.2 c -11.6,0.7 -27.4,7.8 -32.5,19 -4.8,10.4 -0.7,19.7 9.7,23.9 7.4,3 17.3,0.5 23.7,-3.7 6.9,-4.5 12.7,-10.2 14.9,-18.4 2.7,-9.8 -5,-21.4 -15.8,-20.8 z"
   id="path25" />
		</g>
	</g>
	<g
   id="Слой_5">
	</g>
	<g
   id="g36">
		<g
   id="g34">
			<path
   d="m 541.2,577.1 c 4,4 10.9,6.6 16.3,8.3 6.3,2 12.8,3.1 19.4,3.7 13.1,1.2 26.6,-0.5 38.9,-5.2 23.3,-9 41.2,-28.6 47.5,-52.8 1.7,-6.4 2.4,-13.2 2.1,-19.8 -0.1,-3.3 -0.9,-6.8 -1.9,-9.9 -1,-3.1 -3.5,-5.7 -5.5,-8.2 -1.9,-2.4 -5.7,-0.3 -5.8,2.4 -0.1,3.3 -0.8,6.2 -0.6,9.5 0.2,3.2 0.2,6.5 0.2,9.7 -0.1,6.4 -1.3,12.7 -3.3,18.8 -4,12.1 -11.8,23.2 -21.9,30.9 -11.5,8.8 -25.9,13.2 -40.2,14.2 -7.6,0.5 -15.1,0 -22.6,-1.2 -3.7,-0.6 -7.4,-1.3 -11.1,-2.1 -3.3,-0.7 -6.5,-2.1 -9.9,-2.3 -2,-0.2 -3,2.6 -1.6,4 z"
   id="path32" />
		</g>
	</g>
	<g
   id="g42">
		<g
   id="g40">
			<path
   d="m 549.5,517.9 c 0.4,0 0.9,0 1.3,0 -4.2,-1.1 -8.4,-2.3 -12.6,-3.4 8.5,5.6 18.1,4.1 27.4,2.8 -2.6,0.4 -5.2,0.7 -7.9,1.1 10.2,-1.2 20.6,-1.9 29.7,-7 10.9,-6.2 16.6,-19 15,-31.2 -0.8,-5.6 -2.7,-10.3 -6.2,-14.8 -3.8,-4.9 -9.9,-10.3 -16.3,-11.2 -7.7,-1.2 -14.9,-1.7 -22.3,1.1 -7.1,2.7 -13,5.6 -18.7,10.6 -9.6,8.7 -15.4,20.9 -12.3,33.9 0,-4.4 0,-8.8 0,-13.3 -0.1,0.4 -0.2,0.8 -0.3,1.2 -4,15 7.8,30.1 23.2,30.2 z"
   id="path38" />
		</g>
	</g>
	<g
   id="g48">
		<g
   id="g46">
			<path
   d="m 341.9,395.7 c 19.1,-7.6 31.2,-32 18.5,-50.1 -6.5,-9.3 -16.5,-16.1 -27.1,-20 -9,-3.3 -25.5,-5.9 -31.8,3.5 -1.7,2.6 0.1,5.8 2.7,6.7 3.6,1.2 8,0.2 11.9,0.3 4.1,0.2 8.1,0.9 12.1,2.2 7.5,2.5 15.3,7.4 20.3,13.6 10.8,13.2 1.6,29.3 -9.8,38.3 -2.6,2.1 0.2,6.7 3.2,5.5 z"
   id="path44" />
		</g>
	</g>
	<g
   id="g54">
		<g
   id="g52">
			<path
   d="m 245,373.8 c -2.7,2.6 -4.4,5.5 -4.9,9.3 -0.2,1.1 -0.3,2.2 -0.4,3.3 0.4,-2.7 0.4,-2.6 0,0.3 -0.8,5.9 1.9,11.3 4.4,16.6 4.6,9.2 13.1,18.7 24.3,17.9 9.4,-0.7 16.5,-7.2 16.9,-16.9 0.4,-10.4 -7.4,-17 -13.6,-24.1 -1.1,-1.3 -1.2,-1.5 -0.4,-0.5 1.4,1.8 0.6,0.8 -2.2,-2.9 -1.7,-1.7 -3.7,-2.8 -5.7,-3.9 -6.1,-3.1 -13.1,-4.2 -18.4,0.9 z"
   id="path50" />
		</g>
	</g>
	<g
   id="g60">
		<g
   id="g58">
			<path
   d="m 137,635.8 c 0.8,-2.4 1.4,-4.3 1.4,-7 0,-1.8 -0.3,-3.6 -0.8,-5.4 -0.9,-3.3 -2.4,-5 -4.4,-7.6 -1,-0.8 -2,-1.6 -3,-2.4 -1.2,-0.5 -2.4,-1 -3.6,-1.5 -3.3,-0.9 -6.7,-0.5 -9.8,0.8 -5.3,2.2 -9.5,7.8 -9.3,13.8 0.2,4.5 1.6,8.2 4.3,11.7 1.8,2.3 4.1,3.8 6.6,5.2 3.5,2 7.6,2.2 11.3,0.6 3.7,-1.6 6,-4.4 7.3,-8.2 z"
   id="path56" />
		</g>
	</g>
	<g
   id="g66">
		<g
   id="g64">
			<path
   d="m 790.4,389.1 c -0.2,0.6 -0.3,1.1 -0.6,1.7 -1.6,2.6 -0.6,6.3 2,7.8 2.1,1.2 4.4,1.3 6.7,0.7 4.1,-1.1 6.9,-6 5.5,-10.1 -1.3,-4.1 -5.3,-6.7 -9.6,-6.8 -3.5,0 -7.7,2.2 -9.2,5.6 -0.8,1.8 -1.3,3.4 -1,5.5 0.3,2 1.1,3.3 2.4,4.9 2.7,3.3 7.5,5.3 11.8,5.1 2.2,-0.1 4.6,-0.9 6.1,-2.5 1.4,-1.6 2.8,-3.9 2.5,-6.1 -0.3,-2.1 -0.5,-3.7 -1.5,-5.6 -0.6,-1.1 -1.4,-2.1 -2.4,-2.9 -3,-2.6 -6.8,-3.9 -10.8,-2.9 -3.5,0.9 -6.5,4.6 -6.3,8.3 0.2,3.8 2.6,7.3 6.3,8.3 0.9,0.2 2,0.3 2.9,0.4 -0.8,-0.1 -1.5,-0.2 -2.3,-0.3 0.3,0.1 0.6,0.1 0.9,0.2 -0.7,-0.3 -1.4,-0.6 -2.1,-0.9 0.4,0.2 0.7,0.4 1.1,0.6 -0.6,-0.5 -1.2,-0.9 -1.8,-1.4 0.2,0.2 0.4,0.4 0.6,0.7 -0.5,-0.6 -0.9,-1.2 -1.4,-1.8 0.1,0.2 0.2,0.4 0.3,0.5 -0.3,-0.7 -0.6,-1.4 -0.9,-2.1 0.1,0.3 0.2,0.6 0.2,0.9 2.8,-3.6 5.6,-7.3 8.3,-10.9 -0.5,0 -1,0 -1.5,0 0.8,0.1 1.5,0.2 2.3,0.3 -0.6,-0.1 -1.2,-0.3 -1.8,-0.5 0.7,0.3 1.4,0.6 2.1,0.9 -0.5,-0.2 -0.9,-0.5 -1.3,-0.8 0.6,0.4 1.2,0.9 1.7,1.3 -0.4,-0.3 -0.8,-0.7 -1.1,-1.1 0.7,2.8 1.5,5.6 2.2,8.3 0,-0.1 0.1,-0.2 0.1,-0.3 -0.3,0.7 -0.6,1.4 -0.9,2 0.1,-0.1 0.1,-0.2 0.2,-0.3 -0.4,0.6 -0.9,1.2 -1.3,1.7 0.1,-0.2 0.2,-0.3 0.4,-0.4 -0.6,0.4 -1.2,0.9 -1.7,1.3 0.4,-0.3 0.8,-0.5 1.3,-0.8 -0.7,0.3 -1.3,0.6 -2,0.8 0.2,-0.1 0.4,-0.1 0.6,-0.2 -0.7,0.1 -1.5,0.2 -2.2,0.3 0.2,0 0.4,0 0.6,0 -0.7,-0.1 -1.4,-0.2 -2.1,-0.3 0.3,0 0.5,0.1 0.8,0.2 -0.6,-0.3 -1.2,-0.5 -1.8,-0.8 -2.9,-1.5 -3.7,-5.6 -2.4,-7.9 -0.2,0.4 0,0.2 0.6,-0.8 1,-0.7 1.1,-0.9 0.2,-0.3 1,0.1 2,0.3 3,0.4 -0.4,-0.3 -0.7,-0.7 -1,-1.1 -0.7,-0.6 -2.3,0.1 -2.7,1.2 z"
   id="path62" />
		</g>
	</g>
	<g
   id="g72">
		<g
   id="g70">
			<path
   d="m 263.3,624.4 c -13,1.6 -27.4,-7.9 -37,-16 -9.5,-8.1 -17,-18.1 -22.3,-29.3 -10.7,-22.7 -9.3,-49.9 2.6,-71.9 3.4,-6.2 6.8,-12.1 11.4,-17.6 2.2,-2.6 3.6,-5.4 6,-7.9 2.6,-2.7 5.6,-4.9 8.1,-7.7 1.9,-2.2 0.1,-6.2 -3,-5.2 -6.2,2 -12,6.6 -17.4,10.2 -5.6,3.7 -10.9,11 -14.6,16.5 -8.3,12.4 -12.9,27.7 -14.2,42.5 -2.7,29.3 11.3,59.4 33.8,77.9 12.5,10.2 30.9,21.3 47.4,14.6 2.9,-1.2 3,-6.6 -0.8,-6.1 z"
   id="path68" />
		</g>
	</g>
	<g
   id="g78">
		<g
   id="g76">
			<path
   d="m 478.2,218.6 c -9.5,-5.9 -22.6,1.7 -28.2,9.7 -5.8,8.4 -8.4,24.9 2,30.9 1.5,0.9 3.6,-0.2 3.5,-2 -0.2,-8.4 -3.7,-16.1 1.5,-23.9 5,-7.6 12.9,-8.1 20.7,-10.7 1.8,-0.6 2.1,-3 0.5,-4 z"
   id="path74" />
		</g>
	</g>
	<g
   id="g84">
		<g
   id="g82">
			<path
   d="m 464.8,284.6 c 3.6,-11.6 8.7,-25.7 20.4,-31.4 5.2,-2.5 11,-2.7 16,0.1 5.2,2.9 7.6,8.3 12.2,11.8 3.5,2.6 7,-1.7 6.5,-5 -1.1,-6.9 -9,-13.1 -15,-15.9 -7,-3.3 -14.7,-3.2 -21.7,-0.2 -7.3,3.2 -13.1,8.9 -16.9,15.9 -4.1,7.8 -5.1,15.5 -5.8,24.1 -0.2,2.5 3.6,2.9 4.3,0.6 z"
   id="path80" />
		</g>
	</g>
	<g
   id="g90">
		<g
   id="g88">
			<path
   d="m 457,293.3 c 3,-2.2 5.1,-5.1 8.3,-7.2 3.8,-2.4 7.6,-3.9 12.2,-3.8 4.1,0.1 8.1,1.7 11.2,4.4 3.2,2.7 4.6,6.7 7.5,9.7 2.6,2.7 6.4,0.4 6.7,-2.8 1.2,-11.8 -14.7,-20.5 -24.7,-20.7 -9.5,-0.2 -24.7,7.8 -23.3,19.2 0.1,0.9 1.2,1.9 2.1,1.2 z"
   id="path86" />
		</g>
	</g>
	<g
   id="g96">
		<g
   id="g94">
			<path
   d="m 444.9,321.8 c 5.7,-3.1 10.9,-5.8 17.7,-5 2.9,0.3 5.9,1.3 8.4,2.9 2.8,1.8 4.2,4.4 7.8,4.5 1.6,0.1 3.5,-1.2 3.8,-2.9 1.6,-9.3 -12.9,-13.5 -20,-13.5 -7.9,0.1 -17.8,3.9 -20.1,12.2 -0.5,1.4 1.1,2.5 2.4,1.8 z"
   id="path92" />
		</g>
	</g>
	<g
   id="g102">
		<g
   id="g100">
			<path
   d="m 483,340.2 c -9.8,-9.5 -27.4,-7.4 -33.9,5 -3.2,6 -3.2,13.3 -0.8,19.6 1.9,4.9 7.9,13.2 14.1,9.6 0.9,-0.5 1.4,-1.5 1.4,-2.5 0,-3.7 -3.7,-6.4 -5.3,-9.5 -1.9,-3.5 -2.5,-7.9 -1,-11.7 3.4,-8.2 14.7,-9.9 21.6,-5.6 3.1,1.9 6.4,-2.4 3.9,-4.9 z"
   id="path98" />
		</g>
	</g>
	<g
   id="g108">
		<g
   id="g106">
			<path
   d="m 493.7,334.9 c -7,-1.4 -11.9,4.6 -12.8,11 -1.1,8.1 2.4,17.3 7.8,23.3 4.9,5.4 12.3,8 19.3,5.2 5.6,-2.3 12,-9.2 7.3,-15.3 -1,-1.4 -3.4,-1.9 -4.4,0 -1.5,3 -2.9,6.2 -6.2,7.5 -4.1,1.6 -8,-0.5 -10.8,-3.6 -6,-6.9 -8.7,-19 0.3,-24.3 1.4,-1 1.2,-3.5 -0.5,-3.8 z"
   id="path104" />
		</g>
	</g>
	<g
   id="g114">
		<g
   id="g112">
			<path
   d="m 510.5,326 c -1.5,-2.9 -5.1,-2.6 -7,-0.2 -2.2,2.7 -2.2,6.5 -1.3,9.7 2,7 8,13.3 15.4,13.9 1.3,0.1 3,-0.8 3.6,-2 0.3,-0.7 0.6,-1.3 0.6,-2.1 -0.1,-1.4 -0.7,-2.9 -2,-3.6 -2.8,-1.4 -5.6,-2.6 -7.5,-5.2 -0.9,-1.2 -1.5,-2.5 -1.9,-3.9 -0.2,-0.6 -0.2,-1.3 -0.4,-1.9 -0.3,-1.4 0,-1.5 -0.9,-1.2 1.5,-0.5 2.2,-2 1.4,-3.5 z"
   id="path110" />
		</g>
	</g>
	<g
   id="g120">
		<g
   id="g118">
			<path
   d="m 442.3,202.3 c -7,-0.3 -13.5,6.7 -16.4,12.4 -2.8,5.5 -4.9,15 0.2,19.8 1.3,1.2 4,0.9 4.3,-1.1 0.8,-5.2 -0.6,-9.9 1.7,-15 2.6,-5.6 6.9,-7.2 11.6,-10.6 2.4,-1.7 1.7,-5.3 -1.4,-5.5 z"
   id="path116" />
		</g>
	</g>
</g><path
     style="fill:#b3ff80;fill-opacity:1;stroke:none;stroke-width:8.134;stroke-dasharray:none"
     d="m 350.79711,102.44954 c -17.82776,-7.722076 -24.83318,-30.345859 -15.36608,-49.624234 3.68556,-7.505109 12.23404,-16.956481 15.33663,-16.956481 0.718,0 -0.43434,3.712423 -2.56075,8.24983 -3.39068,7.235178 -3.86619,10.014439 -3.86619,22.59736 0,13.200521 0.33796,14.957607 4.22736,21.978768 2.32505,4.197181 6.38276,9.523702 9.01713,11.836717 4.46765,3.92264 4.56931,4.20169 1.51165,4.14931 -1.80296,-0.0309 -5.53785,-1.03496 -8.29975,-2.23127 z"
     id="path769" /></g></svg>
