<?xml version="1.0" encoding="UTF-8" standalone="no"?>
<svg
   xmlns:dc="http://purl.org/dc/elements/1.1/"
   xmlns:cc="http://creativecommons.org/ns#"
   xmlns:rdf="http://www.w3.org/1999/02/22-rdf-syntax-ns#"
   xmlns:svg="http://www.w3.org/2000/svg"
   xmlns="http://www.w3.org/2000/svg"
   xmlns:sodipodi="http://sodipodi.sourceforge.net/DTD/sodipodi-0.dtd"
   xmlns:inkscape="http://www.inkscape.org/namespaces/inkscape"
   style="height: 512px; width: 512px;"
   viewBox="0 0 512 512"
   version="1.1"
   id="svg6"
   sodipodi:docname="cactus.svg"
   inkscape:version="0.92.3 (2405546, 2018-03-11)">
  <metadata
     id="metadata12">
    <rdf:RDF>
      <cc:Work
         rdf:about="">
        <dc:format>image/svg+xml</dc:format>
        <dc:type
           rdf:resource="http://purl.org/dc/dcmitype/StillImage" />
      </cc:Work>
    </rdf:RDF>
  </metadata>
  <defs
     id="defs10" />
  <sodipodi:namedview
     pagecolor="#ffffff"
     bordercolor="#666666"
     borderopacity="1"
     objecttolerance="10"
     gridtolerance="10"
     guidetolerance="10"
     inkscape:pageopacity="0"
     inkscape:pageshadow="2"
     inkscape:window-width="1600"
     inkscape:window-height="829"
     id="namedview8"
     showgrid="false"
     inkscape:zoom="0.4609375"
     inkscape:cx="256"
     inkscape:cy="256"
     inkscape:window-x="0"
     inkscape:window-y="34"
     inkscape:window-maximized="1"
     inkscape:current-layer="svg6" />
  <g
     class=""
     style="fill:#53c64b;fill-opacity:1;stroke:#000000;stroke-width:8;stroke-miterlimit:4;stroke-dasharray:none;stroke-opacity:1"
     transform="translate(-46.5255,2.210918)"
     id="g4">
    <path
       d="m 348.77,14.06 -5.854,17.163 C 332.126,22.93 318.623,18.01 304,18 c -15.35,0.016 -29.457,5.454 -40.496,14.512 l -15.602,-13.567 -11.81,13.584 15.228,13.238 c -5.303,7.707 -8.958,16.64 -10.465,26.306 h -23.263 v 18 H 240 V 192 H 223.977 C 199.557,192 192,186.233 192,160.143 v -26.127 h 9.064 v -18 h -10.59 c -1.455,-5.342 -3.874,-9.798 -6.947,-13.358 l -7.373,13.358 h -3.334 l -13.203,-7.286 8.63,-15.636 c -9.775,-2.624 -20.645,-0.482 -28.624,6.412 l -13.264,-11.53 -11.81,13.583 15.31,13.31 c -1.187,3.886 -1.86,8.254 -1.86,13.13 v 21.71 h -19.46 v 18 H 128 V 192 c 0,31.09 6.727,48.742 24.484,57.33 l -10.984,17.738 15.303,9.477 13.62,-21.99 c 6.328,0.98 13.464,1.445 21.522,1.445 21.323,-0.077 42.648,0.162 63.97,0 l 0.17,18 c 0,0 -8.49,0.07 -16.085,0.137 v 75.052 h -25.68 v 18 H 240 v 60.587 h -15.488 v 18 H 240 v 49.368 h 128 v -12.057 h 13.7 v -18 H 368 v -26.48 h 23.572 v -18 H 368 V 316.62 h -25.99 v -18 H 368 v -15.71 h 14.97 v -18 H 368 v -28.89 h 25.504 v -18 H 368 V 137 h 16 V 119 H 368 V 88.008 h -23.488 v -18 h 22.314 c -1.662,-8.766 -5.116,-16.88 -9.945,-23.975 l 8.927,-26.16 -17.036,-5.812 z m -39.42,29.033 0.875,31.986 -17.994,0.492 -0.876,-31.988 17.994,-0.49 z m -46.627,61.306 h 32 v 18 h -32 z m 53.852,69.182 h 32 v 18 h -32 z m -169.717,11.035 h 32 v 18 h -32 z m 88.553,30.184 h 32 v 18 h -32 z m 230.022,12.733 -9.116,20.48 c -0.105,0 -0.21,-0.013 -0.314,-0.013 -6.622,0 -13.238,2.44 -17.844,7.313 l -12.76,-11.094 -11.81,13.583 18.411,16.011 v 46.275 C 432,332.268 424.03,336 415.605,336 H 386 v 48 h 32.994 l 0.12,19.742 18,-0.11 -0.12,-19.786 C 465.712,382.176 480,366.232 480,336 v -18.223 h 16.512 v -18 H 480 V 272 c 0,-7.636 -2.736,-13.446 -6.898,-17.438 l 8.773,-19.71 -16.445,-7.32 z m -19.61,83.985 18,0.113 -0.2,32 -18,-0.112 0.2,-32 z m -152.472,19.574 0.875,31.986 -17.994,0.492 -0.876,-31.988 17.994,-0.49 z m 26.312,49.496 h 32 v 18 h -32 z m -62.574,32.453 h 32 v 18 h -32 z"
       id="path2"
       style="fill:#53c64b;fill-opacity:1;stroke:#000000;stroke-width:8;stroke-miterlimit:4;stroke-dasharray:none;stroke-opacity:1"
       inkscape:connector-curvature="0" />
  </g>
</svg>
