<?xml version="1.0" encoding="UTF-8" standalone="no"?>
<!-- Generator: Adobe Illustrator 22.1.0, SVG Export Plug-In . SVG Version: 6.00 Build 0)  -->

<svg
   version="1.1"
   id="Камера_клонирования_астронавтов"
   x="0px"
   y="0px"
   viewBox="0 0 842.1 842.2"
   style="enable-background:new 0 0 842.1 842.2;"
   xml:space="preserve"
   sodipodi:docname="cloning-chamber.svg"
   inkscape:version="1.2.1 (9c6d41e410, 2022-07-14)"
   xmlns:inkscape="http://www.inkscape.org/namespaces/inkscape"
   xmlns:sodipodi="http://sodipodi.sourceforge.net/DTD/sodipodi-0.dtd"
   xmlns="http://www.w3.org/2000/svg"
   xmlns:svg="http://www.w3.org/2000/svg"><defs
   id="defs19" /><sodipodi:namedview
   id="namedview17"
   pagecolor="#ffffff"
   bordercolor="#111111"
   borderopacity="1"
   inkscape:showpageshadow="0"
   inkscape:pageopacity="0"
   inkscape:pagecheckerboard="1"
   inkscape:deskcolor="#d1d1d1"
   showgrid="false"
   inkscape:zoom="0.69698408"
   inkscape:cx="420.38263"
   inkscape:cy="422.53476"
   inkscape:window-width="1600"
   inkscape:window-height="829"
   inkscape:window-x="0"
   inkscape:window-y="0"
   inkscape:window-maximized="1"
   inkscape:current-layer="Камера_клонирования_астронавтов" />
<style
   type="text/css"
   id="style2">
	.st0{fill:none;stroke:#231F20;stroke-width:10;stroke-miterlimit:10;}
	.st1{fill:none;stroke:#231F20;stroke-width:5;stroke-miterlimit:10;}
</style>
<g
   id="Колба"
   style="fill:#fefefe;fill-opacity:1">
	<path
   id="Основа"
   class="st0"
   d="M769.3,689.7l-0.8,67c-0.1,10.4-4.2,20.4-11.5,27.9c-3.5,3.6-7.5,7.3-12.2,10.9   c-10.2,7.8-20.5,12.8-29.8,16.1V698.9c0-9.9-8.1-18-18-18h-7.5c6.7-1.6,12.2-3.5,18.3-7.3c4.5-2.8,12.3-7.9,17.9-17.9   c2.7-4.9,4.1-9.7,4.9-13.8c2,0.7,4.1,1.6,6.3,2.7c15.5,7.6,23.5,19.1,25.7,22.3c0,0.1,0.1,0.1,0.1,0.2   C767.2,673.8,769.4,681.7,769.3,689.7z M697.1,680.9h-7.5c-2.3,0.6-4.7,1.1-7.4,1.6c-1.3,0.3-2.8,0.6-4.3,0.8   c-7.8,1.4-18.1,2.7-30.3,2.5c-14.9,0-29.8,0-44.7,0c-1.1,0-2.2,0-3.3,0c6.4,0.3,11.5,5.5,11.5,12v122.5c19.3,0.2,33.1,0.4,40.9,0.7   c2.1,0.1,8.2,0.4,16.9-0.1c6.5-0.4,14.5-1.3,23.3-3.2c5.9-1.3,13.9-3,22.8-6.2V698.9C715.1,689,707,680.9,697.1,680.9z    M330.3,684.8c-6,0-12.6,0.1-20.1,0.1c-8.6,0-18.4-0.1-29.4-0.5c-4.8-0.1-9,3.6-9,8.4v0.1v124.8c0,1.1,0.2,2.1,0.4,3.1   c13.9-0.1,27.4-0.1,40.7-0.2c23.8-0.1,46.7-0.2,68.5-0.3V685C367.7,684.7,356.9,684.6,330.3,684.8z M599.6,685.9   c-3.6,0-7.1,0-10.4,0c-49.9,0-74.5,0-86.9,0v134.2c28.7,0,54,0,75.4,0.1c12.5,0,23.7,0.1,33.5,0.2V697.9   C611.2,691.4,606,686.1,599.6,685.9z M487.8,685.9c-66.5-0.1-88.8-0.6-106.4-0.9v135.4c45-0.2,85.5-0.2,120.8-0.3V685.9   C489.7,685.9,489.4,685.9,487.8,685.9z M271.8,692.9c0-3.4,1.4-6.5,3.8-8.7c-4.3-0.2-8.7-0.3-13.4-0.6c-23.4-1.1-43.4-2.9-58.5-4.5   c-3.5-0.4-6.7-0.7-9.7-1.1c-2.8-0.9-8.3-2.9-14.5-6.8c-13.2,2.2-23.3,13.7-23.3,27.5v108c0.7,0.3,1.4,0.6,2.1,1   c10.3,4.6,26,10.4,46.5,13.1c1.7,0.2,3.5,0.3,5.3,0.3c0.6,0,1.1,0,1.7,0c20.7-0.1,40.8-0.2,60.4-0.3c-0.3-1-0.4-2-0.4-3.1V692.9z    M179.5,671.3c-6.2-3.8-13.1-9.5-19-17.8c-3.7-5.2-6.3-10.5-8.2-15.3c-4.9,0.7-8.5,2.1-10.8,3.1c-15.9,6.8-23.3,21.1-26.8,27.9   c-1,2-1.9,4-2.7,5.8c-2,4.8-2.9,10-2.9,15.2v22.2c0.8,1,1.5,1.8,2.3,2.8c6.9,1.3,12.3,10.5,12.3,21.6c0,10.1-4.4,18.7-10.4,21.1   c-1.9,0.8-3,2.9-2.3,4.9l0,0c0.9,2.8,2.1,5.9,3.8,9.2c2.2,4.1,5.4,8.8,11.2,14.5c7.1,7,16.6,13.9,30.3,20.3v-108   C156.1,684.9,166.3,673.4,179.5,671.3z"
   style="fill:#fefefe;fill-opacity:1" />
	<path
   id="Трубка_1_"
   class="st0"
   d="M123.6,736.7c0,12-6.3,21.8-14,21.8c-4.5,1.2-13.1,2.8-22.9,0   c-11.7-3.3-18.4-11-23.5-16.8c-8-9.2-12.3-18.6-15.6-27.9c-0.4-1.1,9.3,2.9,16.3,2.9c10.5,0,19.6-7.2,23.9-17.6   c1.5,2.4,3.4,4.7,5.6,6.8c5.7,5.4,12.1,7.8,16.2,8.9C117.3,714.9,123.6,724.7,123.6,736.7z M78.4,660.1   c-0.7-16.4,1.6-29.8,2.7-35.7c1-5.3,2.2-10.2,3.6-15.4c1.9-6.8,4.3-14,7.3-22.5c-1.4-7-5.5-14.1-12.1-19.4   c-10.2-8.3-23.1-10.1-32.6-5.5c-2.6,8.9-5.4,20.4-7.6,33.7c-0.1,0.4-0.1,0.9-0.2,1.4c-1.8,11.3-3.8,29.1-3.1,51.1   c0.3,10.6,1.2,20,2.3,28.3c2.1,15,5,25.9,7,32.2c4.7,5.2,11.1,8.4,18.1,8.4c10.5,0,19.6-7.2,23.9-17.6c-3.3-5.3-5.2-11.2-6.6-17.8   C79.5,674,78.7,666.8,78.4,660.1z M119.1,511.6c2.9-10.2,6.5-22.9,8.9-40.2c0.6-4.5,1.3-9.4,1.8-14.8c-6.6,2.4-16,3.9-26.5,3.9   c-7.6,0-14.6-0.8-20.4-2.1c-0.8,5.7-2.1,12.5-4,19.8c-2.4,9.2-6.5,19.3-14.5,39.1c-7.9,19.6-8,18.3-11.2,26.8   c-1.1,3-3.4,9.2-5.8,17.7c9.5-4.6,22.4-2.8,32.6,5.5c6.5,5.3,10.7,12.4,12.1,19.4c2.3-6.5,5-13.8,8.1-22.4   C110,537.1,113.3,532,119.1,511.6z M130.3,432.3c-0.8-13.4-3.1-23.4-4.5-29.1c-8.4-35.6-12.7-53.8-20.7-84.9   c-0.4,4.3-1.7,8.7-3.8,13.1c-6.9,14.2-20.6,21.9-30.5,17c-3.1-1.5-5.4-4-7-7.2c4.9,17.1,9,30.8,13.9,52c5.7,24.7,6.8,35.4,6.7,45.4   c0,0.5,0,1,0,1.5c0,2-0.2,8.7-1.6,18.2c5.8,1.3,12.8,2.1,20.4,2.1c10.5,0,20-1.5,26.5-3.9c0.4-4.8,0.7-9.9,0.7-15.6   C130.6,438.2,130.5,435.3,130.3,432.3z M104.6,316.1c-1.4-5.3-2.7-10.5-4-15.6c-5.4-21.1-10.2-41.3-13.9-68.2   c-0.7-5.3-1.3-9.8-1.8-14c-3.9,6.5-14.9,11.3-28,11.3c-6.5,0-12.5-1.2-17.4-3.2c0.8,11.7,2.5,27.3,5.9,45   c2.3,12.1,6.3,26.7,14.5,55.9c0.6,2.3,1.3,4.5,1.9,6.7c0.7,2.5,1.4,4.9,2.1,7.3c1.6,3.2,3.9,5.7,7,7.2c9.9,4.8,23.5-2.8,30.5-17   c2.1-4.4,3.4-8.9,3.8-13.1C105,317.5,104.8,316.8,104.6,316.1z M96.5,115.9c-4.3,5.4-13.3,9.1-23.7,9.1c-10.6,0-19.8-3.9-24-9.4   c-1.9,7.3-3.4,13.8-4.5,19.5c-5.2,26.8-5.9,50.3-5.8,65.3c0,3.8,0.1,7,0.2,9.6c0.1,4,0.3,9.6,0.8,16.4c4.9,2,10.9,3.2,17.4,3.2   c13,0,24.1-4.7,28-11.3c-0.5-4.1-0.9-7.9-1.1-11.8c-0.2-3.1-0.3-6.4-0.4-9.9c-0.4-30.2,5.5-52.8,11.2-73.7   C95.2,120.4,95.8,118.1,96.5,115.9z M90.1,24.4C72.7,50.9,61.6,75.8,54.4,96.9c-2.2,6.6-4.1,12.8-5.6,18.6c4.2,5.6,13.4,9.4,24,9.4   c10.4,0,19.4-3.7,23.7-9.1c0.9-3,15.1-42.6,20.4-54.6c6.6-15.1,13-27.6,17.9-36.9C119.9,24.4,105,24.4,90.1,24.4z"
   style="fill:#fefefe;fill-opacity:1" />
	<path
   id="Колба_1_"
   class="st0"
   d="M731.4,597.6c0-249.2,0-249.2,0-249.2c0.7-32.2,1.7-54.7,0-90.5c-1.9-39.9-2.7-59.8-6.7-76   c-3.4-13.9-10.2-41.3-33.5-64.8c-21.6-21.8-46.6-29.5-59.2-32.4c-11.3-1.6-27-3.7-45.8-5.6c-22.2-2.2-43-3.5-69.3-4.5   c-38.6-1.4-89.3-3.3-157.5-1.1c-22.3,0.7-51.1,2-84.9,4.5c-8.9,0.9-19.1,2.5-30.2,5.6c-14.6,4-29.3,7.8-44.7,19   c-2.6,1.9-10.7,7.9-19,17.9c-10,12-14.9,23.1-19,32.4c-5.7,13-8.2,23.5-10.1,31.3c-3.6,15.1-4.7,27-5.6,36.9   c-0.9,10.3-0.7,13.1-2.2,38c-0.6,9,0,150.8,1.1,227.9c0,0-0.6,70,3.4,131.8c0.4,6.1,2.1,20.4,12.3,34.6   c11.9,16.6,27.9,22.7,33.5,24.6c15.6,1.8,39.3,4.2,68.2,5.6c30,1.5,51.6,1.2,68.2,1.1c60.8-0.4,39.2,0.9,157.5,1.1   c3.2,0,1,0,115.1,0c14.9,0,29.8,0,44.7,0c14.6,0.2,26.4-1.6,34.6-3.4c10.2-2.2,17.5-3.8,25.7-8.9c4.5-2.8,12.3-7.9,17.9-17.9   c5.7-10.3,5.8-20.1,5.6-24.6C731.4,620,731.4,608.8,731.4,597.6z M652.1,677.8c-8.2,7.6-18.9,8-22.9,7.9   c-22.9,0.1-45.7,0.2-68.6,0.2c-112.7,0-225.3-1.6-338-5c-0.5,0-1-0.2-1.4-0.5c-2-1.5-7.2-5.9-8-13.2c-0.9-8.3,4.5-14,6.2-15.8   c5-5.6,11.5-7.1,15-7.9c9.5-2.3,17.2-3.9,23.2-5c-2.4-3.2-4.4-7.1-5.6-11.7c-3.2-12.8,2.3-23.6,4.4-27.3   c7.3-12.5,19.1-16.7,22-17.6c4-2.3,11-5.6,20.2-6.2c3.2-0.2,15.7-0.8,27.3,7c3.5,2.4,6.1,5.4,11.4,11.4   c6.8,7.8,10.7,12.2,13.2,19.3c1.3,3.7,3.5,10,1.8,17.4l0,0c14.2-0.1,31.8-0.2,52.4-0.2c1.1,0,2.1,0.7,2.4,1.8l0,0   c0.6,1.8,1.3,3.6,2,5.4c0.3,0.7,0.8,1.5,1,2.2c0.1,0.4,0,0.4-0.2,0.8c-1.3,2.1-2.1,4.5-2.2,7c-0.3,4.4,1.6,8.9,4.9,11.9   c4.5,4.1,10.7,3.1,15.9,1c2.3-0.9,4.4-2.1,6.5-3.4c0.6-0.4,1.2-0.8,1.8-1.2c0.7-0.5,0.6-0.2,1.4,0.4c2.5,2,5.8,3.5,9,2.8   c2.9-0.6,4.7-2.9,5.6-5.6c2-5.8,1.3-12.3-1.3-17.7c-0.2-0.5-0.5-1-0.8-1.4c-1-1.7,0.2-3.8,2.2-3.7c26.6,0.2,56.3,0.5,88.6,1.1   c14.5,0.7,26.6,1.8,35.2,2.6c5.7,0.6,10.9,1.2,15.5,1.8c2.4-4.2,6-7.6,10-9.7c10.1-5.4,20.1-1.6,22-0.9c2.2,0.8,13.1,5,15,14.1   c0.5,2.4,0.3,5-0.6,7.6c6.2,2.7,11.1,5.3,14.6,7.3c0,0,0.1,0,0.1,0.1c0.9,0.6,5.5,3.8,6.1,9.6C659.8,670.7,654.5,675.5,652.1,677.8   z M652.1,677.8c-8.2,7.6-18.9,8-22.9,7.9c-22.9,0.1-45.7,0.2-68.6,0.2c-112.7,0-225.3-1.6-338-5c-0.5,0-1-0.2-1.4-0.5   c-2-1.5-7.2-5.9-8-13.2c-0.9-8.3,4.5-14,6.2-15.8c5-5.6,11.5-7.1,15-7.9c9.5-2.3,17.2-3.9,23.2-5c5.5,7.3,13,11.5,17.3,13.8   c15.5,8.6,30.8,7.1,36.9,6.2c5.6-0.3,14.2-1.7,22.9-7c5.2-3.2,15-9.2,17.6-20.4c14.2-0.1,31.8-0.2,52.4-0.2c1.1,0,2.1,0.7,2.4,1.8   l0,0c0.6,1.8,1.3,3.6,2,5.4c0.3,0.7,0.8,1.5,1,2.2c0.1,0.4,0,0.4-0.2,0.8c-1.3,2.1-2.1,4.5-2.2,7c-0.3,4.4,1.6,8.9,4.9,11.9   c4.5,4.1,10.7,3.1,15.9,1c2.3-0.9,4.4-2.1,6.5-3.4c0.6-0.4,1.2-0.8,1.8-1.2c0.7-0.5,0.6-0.2,1.4,0.4c2.5,2,5.8,3.5,9,2.8   c2.9-0.6,4.7-2.9,5.6-5.6c2-5.8,1.3-12.3-1.3-17.7c-0.2-0.5-0.5-1-0.8-1.4c-1-1.7,0.2-3.8,2.2-3.7c26.6,0.2,56.3,0.5,88.6,1.1   c14.5,0.7,26.6,1.8,35.2,2.6c5.7,0.6,10.9,1.2,15.5,1.8c-2.1,3.6-3.4,7.8-3.2,12.3c0.1,1.6,0.5,10.5,7.9,15.8   c6.4,4.5,15.4,4.6,22.9,0c9.9-3.2,16.6-10.1,18.8-17c6.2,2.7,11.1,5.3,14.6,7.3c0,0,0.1,0,0.1,0.1c0.9,0.6,5.5,3.8,6.1,9.6   C659.8,670.7,654.5,675.5,652.1,677.8z"
   style="fill:#d5f6ff;fill-opacity:1" />
	<path
   id="Пузыри"
   class="st0"
   d="M311.7,658.4c-6.1,0.9-21.5,2.4-36.9-6.2c-6.2-3.4-19.1-10.6-22.9-25.5   c-3.2-12.8,2.3-23.6,4.4-27.3c7.3-12.5,19.1-16.7,22-17.6c4-2.3,11-5.6,20.2-6.2c3.2-0.2,15.7-0.8,27.3,7   c3.5,2.4,6.1,5.4,11.4,11.4c6.8,7.8,10.7,12.2,13.2,19.3c1.3,3.7,3.5,10,1.8,17.4c-2.6,11.3-12.4,17.3-17.6,20.4   C325.9,656.7,317.3,658.1,311.7,658.4z M638.9,639.9c-1.8-9-12.8-13.2-15-14.1c-1.9-0.7-11.9-4.6-22,0.9c-7.4,4-13.6,12.4-13.2,22   c0.1,1.6,0.5,10.5,7.9,15.8c6.4,4.5,15.4,4.6,22.9,0C633.2,660.1,640.7,648.9,638.9,639.9z M671.4,593.3c-1-5.7-8.2-8.2-15-10.6   c-5.3-1.9-11.5-4-18.5-1.8c-5.5,1.8-8.6,5.6-15,13.2c-4.6,5.5-6.8,8.3-6.2,11.4c1.1,4.9,8.5,7.1,11.4,7.9c14.1,4,27.7-2.4,34.3-6.2   C668.5,603.7,672.3,598.2,671.4,593.3z M652.1,532.6c-5.2-1.4-11.8,1.3-14.1,7c-1.9,4.8,0,10.3,3.5,13.2c4.9,4,13.2,3.3,18.5-2.6   C662.8,542.4,658.5,534.4,652.1,532.6z M657.4,456.1c-1.7-3.5-6.2-6.3-9.7-5.3c-4.6,1.4-6,8.9-4.4,14.1c0.8,2.6,3.1,6.9,6.2,7   C654.1,472.1,660.5,462.7,657.4,456.1z M290.6,533.5c-8.2-5.6-25.3,2.7-28.1,14.1c-0.9,3.7-0.7,9.2,2.6,12.3c6,5.5,18-0.6,20.2-1.8   c3.8-1.9,7.9-4.1,9.7-8.8C297.1,543.7,295,536.5,290.6,533.5z M292.4,486.9c-5.2-3.9-14-1-16.7,5.3c-2,4.6-0.8,11.3,4.4,14.1   c4.2,2.2,9.7,1.2,13.2-2.6C297.8,497.9,296.8,490.2,292.4,486.9z M248.4,192.3c-2.1-9.5-11.1-15.2-19.3-15   c-7.9,0.2-12.9,5.7-14.1,7c-4.8,5.3-8.7,15.1-4.4,22.9c4.6,8.2,17.1,11.9,28.1,6.2C246.3,209.2,250.2,200.5,248.4,192.3z    M234.3,126.3c-4.5,0.7-9.5,9.4-6.2,15.8c3.9,7.4,15.9,6.5,18.5,2.6C250,139.8,240.8,125.3,234.3,126.3z M656.5,267.9   c-5.4-6-21.2-1.5-22.9,6.2c-0.9,4,2.1,8.3,5.3,10.6c4.9,3.4,12.4,3.2,16.7-1.8C659.5,278.3,659.6,271.3,656.5,267.9z M667.9,215.1   c-1.5-14.6-14.1-21.5-16.7-22.9c-2.2-1.1-15.1-7.7-26.4-0.9c-10.4,6.3-11.3,19.1-11.4,22c-0.1,2.3-0.9,17.5,11.4,26.4   c8.7,6.3,21.7,7.7,31.7,0.9C665.2,234.7,668.9,224.4,667.9,215.1z"
   style="fill:#fefefe;fill-opacity:1" />
</g>
<g
   id="Малыш-астронавт"
   style="fill:#ffffff;fill-opacity:1">
	<path
   id="Трубка"
   class="st0"
   d="M565.4,163.1c-3.7,9.3-3.4,13.5-5.2,19.7c-1.7,6-5.5,13.9-14.4,23c-2.2,2.3-6,1.9-7.7-0.8   c-2.5-3.8-5-7.3-7.3-10.3c-4.5-5.9-9-10.9-13.1-15c-4-4.1-7.7-7.4-10.8-10c4.1-6.5,5.9-12.4,6.7-17c1.4-7.8-0.1-11.9,3.1-15.5   c3.2-3.7,8.5-3.9,14.5-4.1c0.2,0,0.5,0,0.7,0c-1.7,7.9-3.7,16-3.7,17.6c0,7.2,5.9,13.1,13.1,13.1c3.6,0,7.7-3.5,10.1-6   c1.4-1.4,2.4-3.2,2.9-5.1c0.8-3.1,2-6.9,3.3-12c5.6,3.4,9.9,6,10.9,11.1C569.2,155.3,567.6,157.7,565.4,163.1z M563.3,109.2   c1.4-11.7,1.4-22.5,1-31.9c-9.6-0.6-19.2-1.2-28.8-1.8c0.9,13,0.9,28.2-1.2,45.1c-1,8.2-6.1,27.4-6.1,30c0,7.2,5.9,13.1,13.1,13.1   c3.6,0,7.7-3.5,10.1-6c1.4-1.4,2.4-3.2,2.9-5.1C556.3,145.1,560.4,133,563.3,109.2z M550.4,76.3c13.9,0.9,27.3,2,40.3,3.4   c0-19.9,0-39.8,0-59.7c-23.5,0-47,0-70.4,0c-1.1,18.2-2.2,36.5-3.4,54.7C527.8,75.1,538.9,75.6,550.4,76.3z"
   style="fill:#ffffff;fill-opacity:1" />
	<path
   id="Памперс"
   class="st0"
   d="M491.4,583.2c1,1.4-0.2,3.4-1.9,3.2c-5.2-0.5-10.6-1.3-16.2-2c-9-1.2-20.8-3.4-34.4-7.8   c1.1-3.6,2.8-7.4,3.4-14.9c3.4,0.2,17.1-0.9,28.2-4.4c3.3,3.4,7.2,7.3,12.2,13.7C486.1,575.4,489,579.6,491.4,583.2z M603.7,478.8   c-2.9-15.3-11.4-26.4-18.9-33.6c0.1,1.2,0.2,2.3,0.3,3.5c-2.8,6.9-6.8,15.1-12.4,23.8c-2.2,3.4-4,6.1-5.6,8.4l0,0   c1.3,4,2.3,8.5,2.5,13.3c0.3,4.6,0.8,17.5-7.2,30c-6.2,9.5-14.4,14.3-16.6,15.5c-4,2.2-7.7,3.4-10.4,4.1   c2.6,10.3,5.3,20.6,7.9,30.9c6-3.8,13.2-9.4,20-17.4c9.4-11,14.1-21.9,16.6-29c4.2-1.7,13.5-6.4,19.7-16.6   C607.5,498.9,604.9,485.4,603.7,478.8z"
   style="fill:#ffffff;fill-opacity:1" />
	<path
   id="Тело"
   class="st0"
   d="M569.5,494.4c0.3,4.6,0.8,17.5-7.2,30c-6.2,9.5-14.4,14.3-16.6,15.5c-4,2.2-7.7,3.4-10.4,4.1   c3.1,12.1,6.2,24.2,9.3,36.2c1,0.9,6.5,6,6.2,13.5c-0.3,7.7-6.5,12.4-9.3,14.5c-5.7,4.3-11.8,5-14.5,5.2   c-2.9,3.3-8.7,8.8-17.6,11.4c-4.4,1.3-14,4-20.7-1c-3.3-2.5-4.6-6.5-7.2-14.5c-2.5-7.7-3.8-11.5-2.1-14.5c2.4-4.1,9.2-5.4,16.6-4.1   c-2.7-4.6-7.1-11.6-13.5-19.7c-11.8-15-17.1-16.6-24.8-29c-1.5-2.4-7.6-12.4-11.4-26.9c-3.3-12.7-3.5-23.6-3.1-31.1   c5.3-13.7,13.2-21.3,17.6-24.8c13.7-11,29.3-12.3,42.4-13.5c7.3-0.6,13.8-0.5,19.3,0c-1.9,5.1-3.5,11.4-3.8,18.6   c-0.3,7.6,0.8,14,2.1,18.6c-3.8,1.7-7.6,3.5-11.4,5.2h-18c-2.5,0-4.4,2.3-3.9,4.7c0.7,3.5,1.1,5.6,1.1,5.6l15.5,10.4   c-13.5,1.7-23.3,6.1-23.8,11.4c-0.3,3.5,3.8,6.3,9.3,11.4c4.4,4,11,10.1,20.7,11.4c14.1,1.9,24.9-7.5,26.9-9.3   c3.2-2.8,10.9-10.6,12.4-22.8c0.7-5.8-0.2-10.5-1-13.5c2.4-1.2,5.7-3.2,9.3-6.2c2.8-2.3,5.3-5.2,8.9-10.2   C568.3,485,569.3,489.5,569.5,494.4z M446.3,615.5c-0.9-5.7-2.7-11.2-4.7-16.6c-1.7-4.5-3.3-9-3.7-13.8c-0.4-4.1,0.7-7.8,1.9-11.7   c1.8-5.6,2.6-11.5,2.6-17.4c0-6.5-0.8-13-2.3-19.3c2,3.4,2.5,7.7,2.6,11.6c0.2,3.7,0,7.3-0.3,11c-0.1,0.7-0.2,1.5-0.3,2.2   c3.7,0.2,7.6-0.3,11.2-0.8c5.7-0.7,11.5-1.8,17-3.6c-4.7-4.8-9.1-9.6-12.7-15.3c-2-3.2-3.7-6.5-5.3-9.9c-6-12.9-9.2-27.1-9.4-41.3   c0-1.6,0-3.1,0.1-4.7c0-0.7,0-1.4,0.1-2.1c0.2-1,0.9-2.2,1.3-3.1c1.6-3.6,3.5-7.1,5.8-10.3c-5.5-1.2-11.3-1.6-16.9-0.8   c-4.7,0.7-9.3,2-13.9,3.3c-7.5,2.1-15,4.3-22.4,6.5c-1.6,0.5-3.8,0.7-5,1.9c-1.3,1.3-2.5,2.8-3.7,4.3c-2.2,2.7-4.2,5.5-5.9,8.5   c-3.5,5.7-6.2,11.9-8.1,18.3c-0.5,1.7-1,3.5-1.4,5.2c-0.1,0.6-0.6,1.7-0.5,2.3c0.1,0.7,1.4,1.7,1.9,2.2c2.1,2.4,4.3,4.7,6.4,7.1   c0.4,0.5,0.6,0.4,1.2,0.4c0.5,0,1-0.1,1.6-0.1c1-0.1,2.1-0.2,3.1-0.3c2.1-0.2,4.2-0.4,6.2-0.6c1.5-0.1,3.2-0.4,4.1,1.2   c0.6,1.2,0.4,3,0.2,4.2c-0.6,3.3-2.6,6.2-5.5,7.9c-1.1,0.7-2.5,1-3,2.3c-0.5,1.4,0.4,2.4,1,3.5c2.8,4.7,3.9,10.1,2.9,15.5   c-0.8,4.8-3.1,10-7.8,11.9c-1.7,0.7-3.5,0.9-5.3,0.7c5.6,12.8,13.8,24.7,22.8,35.4c0.5,0.5,0.9,1.1,1.4,1.6   c0.5,0.6,0.3,1.5,0.4,2.3c0.1,1.8,0.2,3.5,0.4,5.3c0.5,4,1.4,8,2.6,11.9c0.6,1.8,1.3,3.6,2,5.4c0.3,0.7,0.8,1.5,1,2.2   c0.1,0.4,0,0.4-0.2,0.8c-1.3,2.1-2.1,4.5-2.2,7c-0.3,4.4,1.6,8.9,4.9,11.9c4.5,4.1,10.7,3.1,15.9,1c2.3-0.9,4.4-2.1,6.5-3.4   c0.6-0.4,1.2-0.8,1.8-1.2c0.7-0.5,0.6-0.2,1.4,0.4c2.5,2,5.8,3.5,9,2.8c2.9-0.6,4.7-2.9,5.6-5.6c2-5.8,1.3-12.3-1.3-17.7   c-1-2.1-2.4-3.9-3.7-5.8c-0.5-0.9-0.2-2.5-0.2-3.6c0-1.7-0.1-3.5-0.3-5.2C446.9,619.5,446.7,617.5,446.3,615.5z M580.9,421.9   c-3.3-13-5.3-21.2-12.4-29c-7.2-7.9-15.4-11.2-18.6-12.4c-4.1-1.5-8.1-2.4-11.7-2.9c-0.7-0.1-1.3,0.2-1.7,0.8   c-0.9,1.3-1.7,2.5-2.6,3.8c-2.5,8-7.4,20.1-17.1,32.5c-1.1,1.5-2.3,2.8-3.4,4.2c4.1,8.9,11.3,13.6,14.8,15.5   c-3.3,5.4-8.7,15.9-9.3,30c-0.3,7.6,0.8,14,2.1,18.6c-3.8,1.7-7.6,3.5-11.4,5.2h-16.3c-3.4,0-5.9,3.1-5.2,6.4c0.5,2.5,0.8,4,0.8,4   l15.5,10.4c-13.5,1.7-23.3,6.1-23.8,11.4c-0.3,3.5,3.8,6.3,9.3,11.4c4.4,4,11,10.1,20.7,11.4c14.1,1.9,24.9-7.5,26.9-9.3   c3.2-2.8,10.9-10.6,12.4-22.8c0.7-5.8-0.2-10.5-1-13.5c2.4-1.2,5.7-3.2,9.3-6.2c4.1-3.4,7.5-7.9,14.5-18.6   c5.6-8.7,9.6-16.9,12.4-23.8C584.4,437.4,582.5,428.2,580.9,421.9z M383.5,492.4c1.9-3,4.7-6.8,8.5-10.9c0.3-0.3,0.7-0.6,1.2-0.7   c3.9-1.1,7.8-2.3,11.7-3.4c2-0.6,2.6-3.2,0.9-4.5c-2-1.6-4.1-3.7-6.1-6.2c-1.7-2.2-3-4.4-4.1-6.6c-0.3-0.7-1-1.2-1.7-1.4   c-8.7-2.3-15.8-5.5-21.2-8.5c-1.7-0.9-3.7,0.2-3.9,2c-0.1,1.4-0.1,2.9-0.1,4.4c0.2,8.6,2.5,16,5.2,21.8c0.5,1.2,0.1,2.6-1,3.3   c-3.9,2.4-9.5,6.6-14.2,13.5c-6.4,9.4-7.5,18.8-7.7,23.3c0,0.4-0.1,0.8-0.4,1.2c-2,3.3-5.1,9.7-5.1,18c0,16.5,12.2,26.7,14.7,28.6   c2.5,2,16.2,13.7,25.5,8.5c5.9-3.3,6.8-11.5,7-13.2c0.7-6.5-1.8-11.8-3.9-14.9c-0.9-1.4-0.4-3.2,1.1-3.9c2-0.8,4.3-2.4,5.9-5.2   c1.3-2.5,1.5-4.9,1.3-6.7c-0.1-1.4-1.4-2.5-2.9-2.3c-4.4,0.4-8.8,0.8-13.3,1.3c-3.7-4-5.1-5.6-8.8-9.7c0.5-2.5,1.1-5.2,2-8   C375.5,508.3,378.1,500.8,383.5,492.4z M460.8,459.2c13.7-11,29.3-12.3,42.4-13.5c7.3-0.6,13.8-0.5,19.3,0   c1.8-4.9,3.9-8.8,5.5-11.4c-7.6-2.8-13.2-12.4-14.5-14.9c-0.2-0.3-0.5-0.3-0.8-0.1c-8,9.1-15.8,14.6-20.9,18.1   c-4.6,3.2-22.6,15.3-49.7,20.7c-11.6,2.3-26.7,5.3-45.6,1c-1-0.2-1.9-0.5-2.9-0.7c0.1,0,0.1,0,0.2,0.1c0.8,0.2,1.4,0.7,1.7,1.4   c1.1,2.2,2.4,4.4,4.1,6.6c2,2.6,4.2,4.7,6.3,6.4c1.6,1.2,1.1,3.7-0.8,4.3c-3.6,1.1,6.5-1.9,14.2-4c4.6-1.3,9.2-2.6,13.9-3.3   c5.1-0.8,10.3-0.5,15.4,0.4c1,0.2,1.9-0.1,2.6-0.9C453.5,466.8,458.8,460.8,460.8,459.2z"
   style="fill:#ffffff;fill-opacity:1" />
	<path
   id="Шлем"
   class="st0"
   d="M447.3,442.3c21.5-6.2,36.2-14.8,39.6-16.9c22.9-13.7,37.5-30.5,45.9-41.9   c0.2-0.2,0.6,0,0.5,0.2c-2.6,8-7.5,19.3-16.6,30.9c-9.3,11.9-18.9,18.7-24.8,22.8c-4.6,3.2-22.6,15.3-49.7,20.7   c-11.6,2.3-26.7,5.3-45.6,1c-11.6-2.6-20.7-7.2-26.8-10.8c-0.2-0.2-0.1-0.5,0.2-0.5C390.9,450.5,418,450.8,447.3,442.3z    M536.8,328.3c-8.6,2.8-17.9,0.3-24.1-5.6c-0.9-0.8-2.3-0.1-2.3,1.1c2.8,59.7-32.5,114.4-109.7,124l0,0c1.7,0.1,3.5,0.1,5.3,0.1   c75.6,0,138.8-53.3,153.9-124.5c0.3-1.2-0.9-2.3-2.1-1.9L536.8,328.3z M341.4,200.3c-55.9,13.5-91,66.3-89,120.9   c0,0.5-0.6,0.5-0.7,0.1c-2-10-3-20.4-3-30.9c0-86.9,70.5-157.4,157.4-157.4c57.5,0,107.9,30.9,135.3,77c-3.1-0.3-6.2,0.1-9.4,1.1   l-30.1,9.8c-12.5,4.1-19.5,17.7-15.4,30.2l1.1,3.5C456.1,210.3,396.1,187.1,341.4,200.3z M566.8,318.5l-30.1,9.8   c-12.5,4.1-26.1-2.8-30.2-15.4l-20.1-61.8c-4.1-12.5,2.8-26.1,15.4-30.2l30.1-9.8c12.5-4.1,26.1,2.8,30.2,15.4l20.1,61.8   C586.3,300.8,579.4,314.4,566.8,318.5z M567.9,318.1c-16,6.6-25.5,2.2-31.6-13.9c-0.1-0.4-0.3-0.8-0.4-1.2L516,241.8   c-4.1-12.8,2.8-26.5,15.6-30.6l0,0c12.8-4.1,26.5,2.8,30.6,15.6l19.9,61.2C584.4,294.9,585.1,311.1,567.9,318.1z"
   style="fill:#ffffff;fill-opacity:1" />
	<path
   id="Стекло"
   class="st0"
   d="M506.6,312.9l-18.6-57c-0.3-0.8-0.7-1.6-1.2-2.4c-31.7-43.6-91.2-66.3-145.5-53.2   c-69.8,16.8-107.2,95-80.3,161.5c23.8,59,80.8,93.2,139.7,85.8c77.9-9.7,113.1-65.2,109.7-125.5c-0.1-1.5-0.6-2.9-1.4-4.1   C508,316.5,507.2,314.8,506.6,312.9z"
   style="fill:#ffffff;fill-opacity:1" />
	<path
   id="Блик"
   class="st1"
   d="M290.6,360.3c-4.4-8.8-11.6-26.6-9.7-49.3c0.7-8.3,4.5-40.1,31.7-61.6   c12.7-10.1,25.8-14.1,33.4-15.8c-6.2,6.1-15,16.2-20.2,30.8c-6.9,19-2.4,30.5-6.2,48.4C317.1,324.7,310.4,341.7,290.6,360.3z    M332.8,377c6.4,1.2,12.4-2.8,15-7.9c2.6-5.2,2.1-12.4-2.6-16.7c-3.8-3.4-9-4-13.2-2.6c-6.7,2.2-11.2,9.6-9.7,16.7   C323.4,371.3,327.3,375.9,332.8,377z"
   style="fill:#ffffff;fill-opacity:1" />
</g>
</svg>
