<?xml version="1.0" encoding="UTF-8" standalone="no"?>
<!-- Generator: Adobe Illustrator 22.1.0, SVG Export Plug-In . SVG Version: 6.00 Build 0)  -->

<svg
   version="1.1"
   id="Компьютроний"
   x="0px"
   y="0px"
   viewBox="0 0 842.1 842.2"
   style="enable-background:new 0 0 842.1 842.2;"
   xml:space="preserve"
   sodipodi:docname="computronium.svg"
   inkscape:version="1.2.1 (9c6d41e410, 2022-07-14)"
   xmlns:inkscape="http://www.inkscape.org/namespaces/inkscape"
   xmlns:sodipodi="http://sodipodi.sourceforge.net/DTD/sodipodi-0.dtd"
   xmlns="http://www.w3.org/2000/svg"
   xmlns:svg="http://www.w3.org/2000/svg"><defs
   id="defs4537" /><sodipodi:namedview
   id="namedview4535"
   pagecolor="#ffffff"
   bordercolor="#111111"
   borderopacity="1"
   inkscape:showpageshadow="0"
   inkscape:pageopacity="0"
   inkscape:pagecheckerboard="1"
   inkscape:deskcolor="#d1d1d1"
   showgrid="false"
   inkscape:zoom="0.69698408"
   inkscape:cx="376.62266"
   inkscape:cy="428.27377"
   inkscape:window-width="1600"
   inkscape:window-height="829"
   inkscape:window-x="0"
   inkscape:window-y="0"
   inkscape:window-maximized="1"
   inkscape:current-layer="Компьютроний" />
<style
   type="text/css"
   id="style4458">
	.st0{fill:none;stroke:#000000;stroke-width:10;stroke-miterlimit:10;}
</style>





<g
   id="g4740"
   transform="matrix(0.84502607,0,0,0.84502607,67.871342,74.732911)"><path
     id="Основа"
     class="st0"
     d="m 473.2,155.7 c 0,-0.1 0,-0.1 -0.1,-0.2 L 375.2,88.3 c 0,54.2 0,108.4 0,162.6 -12.7,-8.4 -25.5,-16.7 -38.2,-25.1 0,-54.6 0,-109.1 0,-163.7 v 0 L 317.1,48.4 c -0.1,0 -114.8,80.2 -172.1,120.3 -0.1,0 -0.1,0.1 -0.1,0.2 -4.9,147.8 -9.7,295.5 -14.6,443.3 0,0.1 132.3,106 198.5,158.9 0.1,0.1 0.2,0.1 0.3,0 57.3,-61.3 114.6,-122.5 171.9,-183.8 0,0 0.1,-0.1 0.1,-0.2 -9.4,-143.8 -18.6,-287.6 -27.9,-431.4 z m -242.3,67.6 c 8,0 14.6,6.5 14.6,14.6 0,8.1 -6.5,14.6 -14.6,14.6 -8.1,0 -14.6,-6.5 -14.6,-14.6 0,-8.1 6.6,-14.6 14.6,-14.6 z m -22.5,140.1 c -8,0 -14.6,-6.5 -14.6,-14.6 0,-8.1 6.5,-14.6 14.6,-14.6 8,0 14.6,6.5 14.6,14.6 0,8.1 -6.6,14.6 -14.6,14.6 z M 223,307.9 c -8,0 -14.6,-6.5 -14.6,-14.6 0,-8.1 6.5,-14.6 14.6,-14.6 8.1,0 14.6,6.5 14.6,14.6 0,8.1 -6.6,14.6 -14.6,14.6 z m 78.1,368 c -8,0 -14.6,-6.5 -14.6,-14.6 0,-8 6.5,-14.6 14.6,-14.6 8.1,0 14.6,6.5 14.6,14.6 -0.1,8.1 -6.6,14.6 -14.6,14.6 z M 238.9,558.1 c -0.4,-41 -0.9,-82.1 -1.3,-123.1 38.4,-2.2 76.8,-4.5 115.2,-6.7 0,40.6 0,81.3 0,121.9 -38,2.6 -76,5.3 -113.9,7.9 z m 117.2,103.3 c -8,0 -14.6,-6.5 -14.6,-14.6 0,-8.1 6.5,-14.6 14.6,-14.6 8.1,0 14.6,6.5 14.6,14.6 0,8.1 -6.6,14.6 -14.6,14.6 z m 54.8,-20 c -8,0 -14.6,-6.5 -14.6,-14.6 0,-8.1 6.5,-14.6 14.6,-14.6 8.1,0 14.6,6.5 14.6,14.6 0,8.1 -6.6,14.6 -14.6,14.6 z m 39.8,-348.1 c -13.3,-8.8 -26.6,-17.6 -39.8,-26.4 0,-51.4 0,-102.7 0,-154.1 13.3,9.7 26.6,19.5 39.8,29.2 0,50.5 0,100.9 0,151.3 z M 771.1,158.6 c 0,-0.2 -0.1,-0.4 -0.3,-0.6 C 719.9,123.7 668.9,89.5 618,55.2 c -0.3,-0.2 -0.6,-0.2 -0.9,0 -47.8,33.4 -95.7,66.7 -143.5,100.1 -0.2,0.2 -0.3,0.4 -0.3,0.7 9.3,143.6 18.5,287.2 27.8,430.9 0,0.2 -0.1,0.4 -0.2,0.6 -14.9,15.9 -29.8,31.9 -44.7,47.8 -0.3,0.3 -0.3,0.8 0.1,1.1 57.6,47.4 115.2,94.9 172.8,142.3 0.3,0.3 0.8,0.2 1,-0.1 56.7,-61.5 113.4,-123.1 170.1,-184.6 0.1,-0.2 0.2,-0.4 0.2,-0.6 z m -266.1,95 c 14.6,-0.4 29.1,-0.9 43.7,-1.3 7.1,64.9 14.1,129.7 21.2,194.6 -14.6,1.8 -29.1,3.5 -43.7,5.3 C 519.1,386 512,319.8 505,253.6 Z m 56.9,340.6 c -8,0 -14.6,-6.5 -14.6,-14.6 0,-8.1 6.5,-14.6 14.6,-14.6 8.1,0 14.6,6.5 14.6,14.6 0,8.1 -6.6,14.6 -14.6,14.6 z m 45,-44 c -8,0 -14.6,-6.5 -14.6,-14.6 0,-8.1 6.5,-14.6 14.6,-14.6 8.1,0 14.6,6.5 14.6,14.6 0,8.1 -6.5,14.6 -14.6,14.6 z M 636,696.9 c -8,0 -14.6,-6.5 -14.6,-14.6 0,-8 6.5,-14.6 14.6,-14.6 8.1,0 14.6,6.5 14.6,14.6 0,8.1 -6.5,14.6 -14.6,14.6 z m 29.2,-109.7 c -8,0 -14.6,-6.5 -14.6,-14.6 0,-8.1 6.5,-14.6 14.6,-14.6 8,0 14.6,6.5 14.6,14.6 0,8.1 -6.6,14.6 -14.6,14.6 z m 47.6,-243.6 c 0,-8 6.5,-14.6 14.6,-14.6 8,0 14.6,6.5 14.6,14.6 0,8.1 -6.5,14.6 -14.6,14.6 -8,0 -14.6,-6.5 -14.6,-14.6 z M 742,587.2 c -8,0 -14.6,-6.5 -14.6,-14.6 0,-8.1 6.5,-14.6 14.6,-14.6 8.1,0 14.6,6.5 14.6,14.6 0,8.1 -6.6,14.6 -14.6,14.6 z"
     style="fill:#d5fff6" /><path
     id="Основа-2"
     class="st0"
     d="m 423.2,670.5 c 10.7,-11.4 21.4,-22.9 32.1,-34.3 0.1,-0.1 0.3,-0.1 0.5,0 57.4,47.2 114.7,94.5 172.1,141.7 0.3,0.2 0,0.7 -0.3,0.6 -43,-16.9 -86,-33.9 -129.1,-50.8 0,0 -50.2,-37.7 -75.2,-56.6 -0.3,-0.3 -0.3,-0.5 -0.1,-0.6 z M 311.5,50.8 c -36.1,16 -72.2,31.9 -108.4,47.9 0,0 0,0 -0.1,0 -6.6,4.1 -13.2,8.2 -19.8,12.3 2.3,1.6 4.5,3 6.5,4.1 2.3,1.3 3.1,4.3 1.8,6.6 -2.2,3.8 -5.6,8.5 -11,12.7 -11.4,8.9 -23.8,9.3 -27.8,9.3 -3.1,-1.8 -6.7,-4.2 -10.4,-7.3 -24.3,15.1 -48.7,30.2 -73,45.4 -0.5,0.3 -0.2,1.2 0.4,1.1 25,-4.7 50,-9.3 74.9,-14 0.1,0 0.2,0 0.2,-0.1 55.7,-39 111.4,-78 167.1,-117 0.8,-0.4 0.3,-1.3 -0.4,-1 z m 303.4,5.3 C 576,72 537.2,88 498.4,104 v 0 l -3.8,2.1 c 1.8,4.5 3.7,8.3 5.2,11.1 -1,2.3 -5.7,12.1 -17.2,17.2 -11.2,5 -21.4,2.1 -23.8,1.3 -1.3,-2.4 -2.7,-5 -4,-7.7 l -11.6,6.4 c -0.2,0.1 -0.2,0.4 0,0.5 10,6.9 20,13.7 30,20.6 0.1,0.1 0.2,0.1 0.4,0 47.3,-33 94.5,-65.9 141.8,-98.9 0.1,-0.2 -0.2,-0.7 -0.5,-0.5 z M 144.1,169 c -25.7,4.8 -51.3,9.6 -77,14.3 -0.3,0 -0.5,0.3 -0.5,0.5 -6.2,136.5 -12.3,273 -18.5,409.5 0,0.3 0.2,0.5 0.4,0.6 27,6.1 54,12.2 80.9,18.3 0.4,0.1 10.4,-295.2 15.2,-442.6 0.2,-0.4 -0.1,-0.7 -0.5,-0.6 z M 49.3,594.8 c 48.6,41.6 97.2,83.2 145.8,124.8 0,0 0.1,0 0.1,0.1 43.8,16.9 87.7,33.9 131.5,50.8 0.4,0.1 0.7,-0.4 0.4,-0.6 C 261.5,717.4 196,665 130.4,612.5 c 0,0 -53.8,-12.2 -80.7,-18.3 -0.5,-0.1 -0.7,0.4 -0.4,0.6 z"
     style="fill:#b7c8c4" /><path
     id="Элементы"
     class="st0"
     d="m 375.2,87.7 c 0,54.4 0,108.9 0,163.3 -12.7,-8.4 -25.5,-16.7 -38.2,-25.1 0,-54.6 0,-109.1 0,-163.7 12.7,8.4 25.5,16.9 38.2,25.5 z m 35.7,25.1 c 0,51.4 0,102.7 0,154.1 13.3,8.8 26.6,17.6 39.8,26.4 0,-50.4 0,-100.8 0,-151.3 -13.3,-9.7 -26.6,-19.4 -39.8,-29.2 z m -180,110.5 c -8,0 -14.6,6.5 -14.6,14.6 0,8.1 6.5,14.6 14.6,14.6 8.1,0 14.6,-6.5 14.6,-14.6 0,-8.1 -6.5,-14.6 -14.6,-14.6 z m 6.6,70 c 0,8 -6.5,14.6 -14.6,14.6 -8.1,0 -14.6,-6.5 -14.6,-14.6 0,-8.1 6.5,-14.6 14.6,-14.6 8.1,0 14.6,6.6 14.6,14.6 z M 223,348.8 c 0,8 -6.5,14.6 -14.6,14.6 -8,0 -14.6,-6.5 -14.6,-14.6 0,-8.1 6.5,-14.6 14.6,-14.6 8,0 14.6,6.5 14.6,14.6 z m 92.6,312.6 c 0,8 -6.5,14.6 -14.6,14.6 -8.1,0 -14.6,-6.5 -14.6,-14.6 0,-8.1 6.5,-14.6 14.6,-14.6 8.1,0 14.6,6.5 14.6,14.6 z m 55.1,-14.6 c 0,8 -6.5,14.6 -14.6,14.6 -8.1,0 -14.6,-6.5 -14.6,-14.6 0,-8.1 6.5,-14.6 14.6,-14.6 8.1,0 14.6,6.6 14.6,14.6 z m 54.7,-20 c 0,8 -6.5,14.6 -14.6,14.6 -8.1,0 -14.6,-6.5 -14.6,-14.6 0,-8.1 6.5,-14.6 14.6,-14.6 8.1,0 14.6,6.6 14.6,14.6 z m 151.1,-47.2 c 0,8 -6.5,14.6 -14.6,14.6 -8.1,0 -14.6,-6.5 -14.6,-14.6 0,-8.1 6.5,-14.6 14.6,-14.6 8.1,0 14.6,6.6 14.6,14.6 z m 45,-44 c 0,8 -6.5,14.6 -14.6,14.6 -8.1,0 -14.6,-6.5 -14.6,-14.6 0,-8.1 6.5,-14.6 14.6,-14.6 8.1,0 14.6,6.6 14.6,14.6 z m 29.1,146.7 c 0,8 -6.5,14.6 -14.6,14.6 -8.1,0 -14.6,-6.5 -14.6,-14.6 0,-8.1 6.5,-14.6 14.6,-14.6 8.1,0 14.6,6.6 14.6,14.6 z M 756.5,572.7 c 0,8 -6.5,14.6 -14.6,14.6 -8,0 -14.6,-6.5 -14.6,-14.6 0,-8.1 6.5,-14.6 14.6,-14.6 8.1,0 14.6,6.5 14.6,14.6 z m -76.8,0 c 0,8 -6.5,14.6 -14.6,14.6 -8.1,0 -14.6,-6.5 -14.6,-14.6 0,-8.1 6.5,-14.6 14.6,-14.6 8.1,0 14.6,6.5 14.6,14.6 z M 742,343.6 c 0,8 -6.5,14.6 -14.6,14.6 -8.1,0 -14.6,-6.5 -14.6,-14.6 0,-8.1 6.5,-14.6 14.6,-14.6 8.1,0 14.6,6.6 14.6,14.6 z M 283.5,456.8 c 6.9,-0.4 13.8,-0.8 20.6,-1.2 13.9,-0.8 25.6,10.2 25.6,24.1 v 25.1 c 0,12.7 -9.8,23.2 -22.5,24.1 l -20.4,1.4 c -13.9,1 -25.7,-9.9 -25.9,-23.9 l -0.3,-25.3 c 0,-12.8 10,-23.5 22.9,-24.3 z"
     style="fill:#afdde9" /><path
     id="Элементы_1_"
     class="st0"
     d="m 237.5,435 c 0.4,41 0.9,82.1 1.3,123.1 38,-2.6 75.9,-5.3 113.9,-7.9 0,-40.6 0,-81.3 0,-121.9 -38.4,2.2 -76.8,4.4 -115.2,6.7 z m 92.2,69.9 c 0,12.7 -9.8,23.2 -22.5,24.1 l -20.4,1.4 c -13.9,1 -25.7,-9.9 -25.9,-23.9 l -0.3,-25.3 c -0.1,-12.9 9.9,-23.6 22.8,-24.4 6.9,-0.4 13.8,-0.8 20.6,-1.2 13.9,-0.8 25.6,10.2 25.6,24.1 z m 219,-252.6 c 7.1,64.9 14.1,129.7 21.2,194.6 -14.6,1.8 -29.1,3.5 -43.7,5.3 C 519.1,386 512,319.8 505,253.6 c 14.5,-0.5 29.1,-0.9 43.7,-1.3 z"
     style="fill:#37abc8" /><path
     id="Провода"
     class="st0"
     d="m 491.7,98.7 c 2.6,7.9 5.6,14.1 7.9,18.4 0,0.1 0.1,0.2 0,0.3 -1.1,2.5 -5.8,12.1 -17.1,17.1 -11.1,4.9 -21,2.2 -23.7,1.4 -0.1,0 -0.1,-0.1 -0.2,-0.2 -5.2,-9.4 -10.5,-21.2 -14.4,-35.1 0.4,-0.3 0.1,-0.1 0.5,-0.4 7.9,6 15.8,8.6 22.5,7.5 4.9,-0.9 14.6,-4.7 22.5,-13.2 0.2,-0.2 1.5,2.6 2,4.2 z M 454,54.7 c 12,-0.7 22.2,-6.3 29.9,-12.4 -0.3,-8.4 -0.4,-17.9 -0.1,-28.3 -13.2,-0.4 -26.5,-0.9 -39.7,-1.3 -2.5,9.8 -5.4,24 -5.7,40.9 4.4,0.7 10.1,1.4 15.6,1.1 z m 13.2,52.9 c 5,-0.9 14.9,-4.8 22.9,-13.6 0,-0.1 0.1,-0.2 0.1,-0.3 -2.1,-7.3 -3.7,-16.5 -5.1,-32.1 -0.5,-5.4 -0.9,-11.7 -1.2,-18.7 0,-0.3 -0.3,-0.4 -0.5,-0.3 -7.7,5.9 -17.7,11.3 -29.4,12 -5.3,0.3 -10.9,-0.3 -15.3,-1.1 -0.2,0 -0.4,0.1 -0.4,0.3 -0.2,13.7 1.1,29.1 5.6,45.5 0,0.1 0.1,0.1 0.1,0.2 8.2,6.5 16.3,9.3 23.2,8.1 z M 134.3,72.2 c 8.4,-0.5 15.9,-3.4 22.4,-7.2 -2.7,-11.8 -5.9,-28.2 -7.8,-48.4 h -46.3 c 2.7,17 5.8,34.7 9.2,53 1.8,0.5 12.7,3.2 22.5,2.6 z m 55.2,42.7 c -4.1,-2.3 -8.9,-5.6 -13.6,-10.1 -0.2,-0.2 -0.5,-0.1 -0.6,0.1 -1.4,2.3 -3.1,4.7 -5.3,7 -7.9,8.5 -17.6,12.4 -22.5,13.2 -5.8,1 -12.5,-0.9 -19.4,-5.3 -0.4,-0.2 -0.8,0.2 -0.5,0.6 8,11.7 18,19 25.1,23.2 0.1,0 0.1,0.1 0.2,0.1 4.1,0 16.4,-0.4 27.7,-9.3 5.2,-4 8.6,-8.6 10.8,-12.4 1.4,-2.4 0.6,-5.6 -1.9,-7.1 z m -42,10.3 c 4.9,-0.9 14.6,-4.7 22.5,-13.2 2.2,-2.4 3.9,-4.8 5.3,-7.1 0.1,-0.2 0.1,-0.4 -0.1,-0.5 -2.8,-2.7 -5.5,-5.9 -7.9,-9.6 -3.6,-5.4 -6.5,-11.7 -10.6,-29.1 0,-0.2 -14.1,6.1 -22.5,6.6 -9,0.5 -19,-1.7 -22,-2.5 -0.3,-0.1 -0.5,0.2 -0.5,0.5 0.9,4.6 1.7,9.2 2.6,13.9 2.4,12.6 4.6,23 12,34.6 l 0.1,0.1 c 7.5,5.1 14.8,7.3 21.1,6.3 z"
     style="fill:#aaeeff" /><g
     id="Детали">
	<path
   class="st0"
   d="m 57.5,368.8 c 27,-1.3 54,-2.6 80.9,-3.9 27.3,-39.1 54.5,-78.1 81.8,-117.2"
   id="path4465" />
	<path
   class="st0"
   d="m 54.8,404.5 c 27.5,-0.8 54.9,-1.7 82.4,-2.5 25,-33 50,-65.9 75,-98.9"
   id="path4467" />
	<path
   class="st0"
   d="m 56.1,444.2 c 26.5,0.9 53,1.8 79.6,2.7 21.8,-28.5 43.6,-57.1 65.4,-85.6"
   id="path4469" />
	<path
   class="st0"
   d="m 269.3,556 c 0,14 0,27.9 0,41.9"
   id="path4471" />
	<path
   class="st0"
   d="m 326.2,552 c 0,13.5 0,27 0,40.5"
   id="path4473" />
	<path
   class="st0"
   d="m 352.7,526.3 c 11.5,-0.9 22.9,-1.8 34.4,-2.6"
   id="path4475" />
	<path
   class="st0"
   d="m 352.7,460.1 c 11,-0.4 22.1,-0.9 33.1,-1.3"
   id="path4477" />
	<path
   class="st0"
   d="m 268.2,433.2 c 0,-13.5 0,-27.1 0,-40.6"
   id="path4479" />
	<path
   class="st0"
   d="m 327.7,429.7 c 0,-12.8 0,-25.6 0,-38.4"
   id="path4481" />
	<path
   class="st0"
   d="m 237.9,465.4 c -10.7,0.9 -21.4,1.8 -32.1,2.7"
   id="path4483" />
	<path
   class="st0"
   d="m 238.6,530.4 c -10.1,0.4 -20.1,0.8 -30.2,1.2"
   id="path4485" />
	<path
   class="st0"
   d="M 161.4,653.4 C 128.3,690.5 95.2,727.5 62.1,764.6"
   id="path4487" />
	<path
   class="st0"
   d="m 218.9,707.1 c -28.2,34 -56.5,68 -84.7,101.9"
   id="path4489" />
	<path
   class="st0"
   d="m 103.8,240.4 c -24.4,0 -48.8,0 -73.3,0"
   id="path4491" />
	<path
   class="st0"
   d="m 310,672.9 c 19.5,19.1 39.1,38.2 58.6,57.4"
   id="path4493" />
	<path
   class="st0"
   d="m 366,657.5 c 12.3,11.9 24.7,23.8 37,35.7"
   id="path4495" />
	<path
   class="st0"
   d="m 418.9,638.9 c 5.8,5.8 11.6,11.6 17.4,17.4"
   id="path4497" />
	<path
   class="st0"
   d="m 440.8,684.2 c 29.1,3.8 58.1,7.6 87.2,11.4 9.7,-34.1 19.5,-68.2 29.2,-102.3"
   id="path4499" />
	<path
   class="st0"
   d="m 645.3,671 c 28.6,-29.5 57.3,-59.1 85.9,-88.6"
   id="path4501" />
	<path
   class="st0"
   d="m 683.7,718.3 c 16.8,22.1 33.5,44.1 50.3,66.2"
   id="path4503" />
	<path
   class="st0"
   d="m 723.4,677.3 c 22.9,32.2 45.9,64.4 68.8,96.7"
   id="path4505" />
	<path
   class="st0"
   d="m 671.2,559.4 c 7.1,-14.6 14.2,-29.1 21.3,-43.7 5.3,-10.8 15.5,-18.3 27.3,-20.3 24.3,-3.9 48.7,-7.8 73,-11.7"
   id="path4507" />
	<path
   class="st0"
   d="m 606.9,521 c -0.5,-11.9 -0.9,-23.8 -1.4,-35.6 -0.7,-18.3 12.1,-34.4 30.1,-37.7 51,-9.5 101.9,-19 152.9,-28.4"
   id="path4509" />
	<path
   class="st0"
   d="m 740.4,337.1 c 14,-2.7 28,-5.5 42.1,-8.2"
   id="path4511" />
	<path
   class="st0"
   d="m 489.8,413.7 c 10.6,-0.9 21.3,-1.8 31.9,-2.8"
   id="path4513" />
	<path
   class="st0"
   d="m 487.5,378.1 c 10.1,-0.9 20.3,-1.8 30.4,-2.6"
   id="path4515" />
	<path
   class="st0"
   d="m 485.5,346.2 c 9.7,-0.8 19.4,-1.5 29.1,-2.3"
   id="path4517" />
	<path
   class="st0"
   d="m 483.1,309.1 c 9.3,0.4 18.6,0.8 27.9,1.2"
   id="path4519" />
	<path
   class="st0"
   d="m 554.9,309.2 c 3.5,-0.3 7,-0.6 10.5,-0.8 14.2,-1.1 26.6,-10 32.2,-23 27.3,-62.9 54.5,-125.8 81.8,-188.8"
   id="path4521" />
	<path
   class="st0"
   d="m 558.2,339.8 21,-2 c 13.9,-1.3 25.9,-10 31.6,-22.7 30.1,-68 60.2,-136 90.3,-203.9"
   id="path4523" />
	<path
   class="st0"
   d="m 561.5,370.3 c 12.6,-1.4 25.2,-2.9 37.8,-4.3 13.7,-1.6 25.5,-10.3 31,-23 31.1,-72.2 62.2,-144.5 93.3,-216.7"
   id="path4525" />
	<path
   class="st0"
   d="m 565.3,404.7 c 18.4,-2.3 36.8,-4.5 55.1,-6.8 13.8,-1.7 25.6,-10.7 30.9,-23.5 32,-77.4 64.1,-154.8 96.1,-232.2"
   id="path4527" />
	<path
   class="st0"
   d="M 649.8,76.7 C 647.9,55.8 645.9,34.9 644,13.9"
   id="path4529" />
	<path
   class="st0"
   d="m 710.1,117.3 c 0,-27.4 0,-54.8 0,-82.1"
   id="path4531" />
</g></g>
</svg>
