<?xml version="1.0" encoding="UTF-8" standalone="no"?>
<!-- Generator: Adobe Illustrator 22.1.0, SVG Export Plug-In . SVG Version: 6.00 Build 0)  -->

<svg
   version="1.1"
   id="Кусок_горной_породы"
   x="0px"
   y="0px"
   viewBox="0 0 842.1 842.2"
   style="enable-background:new 0 0 842.1 842.2;"
   xml:space="preserve"
   sodipodi:docname="crust-chunk.svg"
   inkscape:version="1.4 (e7c3feb100, 2024-10-09)"
   xmlns:inkscape="http://www.inkscape.org/namespaces/inkscape"
   xmlns:sodipodi="http://sodipodi.sourceforge.net/DTD/sodipodi-0.dtd"
   xmlns="http://www.w3.org/2000/svg"
   xmlns:svg="http://www.w3.org/2000/svg"><defs
   id="defs15" /><sodipodi:namedview
   id="namedview13"
   pagecolor="#ffffff"
   bordercolor="#111111"
   borderopacity="1"
   inkscape:showpageshadow="0"
   inkscape:pageopacity="0"
   inkscape:pagecheckerboard="1"
   inkscape:deskcolor="#d1d1d1"
   showgrid="false"
   inkscape:zoom="0.69698408"
   inkscape:cx="413.20886"
   inkscape:cy="428.27377"
   inkscape:window-width="1920"
   inkscape:window-height="1043"
   inkscape:window-x="0"
   inkscape:window-y="0"
   inkscape:window-maximized="1"
   inkscape:current-layer="Кусок_горной_породы" />
<style
   type="text/css"
   id="style2">
	.st0{fill:none;stroke:#000000;stroke-width:10;stroke-miterlimit:10;}
</style>







<g
   id="g126"
   transform="matrix(0.80740758,0,0,0.80740758,79.500614,78.017354)"><path
     id="Сколы"
     class="st0"
     d="m 346.3,791.6 c -8.5,2.1 -21.9,7.4 -23.5,7.8 -0.1,0 -0.1,0 -0.1,-0.1 0.4,-1.7 4.6,-19.9 5.8,-30.8 1.8,-16 1.7,-30.1 0.8,-41.6 12.5,10.6 26.8,24.5 40.9,42.4 4.8,6.1 9.2,12.2 13.1,18.1 0,0 0,0.1 0,0.1 -9.8,-0.3 -22.6,0.5 -37,4.1 z m 347,-94 c 15.8,1.6 31.5,3.1 47.2,4.6 0.7,0.1 1.1,-0.6 0.8,-1.2 -3,-5.2 -13.9,-24 -22.5,-34.2 -8.2,-9.6 -16.3,-17.8 -23.9,-24.7 -6.4,14.4 -12.9,31.2 -18.5,50.1 -0.4,1.2 -0.7,2.4 -1,3.6 5.9,0.5 11.9,1.1 17.9,1.8 z M 398.2,332.9 c 13.3,-20.6 26.6,-41.2 39.9,-61.8 -29.8,18.3 -59.5,36.6 -89.3,54.9 17.4,20.2 34.8,40.5 52.2,60.7 -0.9,-17.9 -1.9,-35.9 -2.8,-53.8 z"
     style="fill:#ccaaff" /><path
     id="Слой-4"
     class="st0"
     d="m 127.7,705.7 c 2.4,21.1 5.9,36.5 11.3,52.9 -43.5,-9.8 -86.8,-19.5 -119.4,-26.9 -0.1,0 -0.2,-0.2 -0.2,-0.3 v -86.7 c 2.7,8.2 7.6,20.3 16.9,32.7 10.9,14.4 19.3,18 29.3,31.6 5.4,7.4 12.3,18.9 16.6,36 0.1,0.3 0.4,0.3 0.5,0 2.7,-7.1 7.2,-16.3 14.5,-25.9 10.3,-13.3 21.7,-21.4 29.3,-26 0.4,4.3 0.8,8.4 1.2,12.6 z m 696.5,-43.3 c 0,0.3 -0.2,0.5 -0.4,0.7 -25,12.4 -75,36.5 -78.9,38.3 -0.1,0 -0.2,0 -0.2,-0.1 0.8,-3 7.6,-31.4 2.6,-63.8 -1.8,-11.4 -4.8,-20.4 -7.7,-40.1 -2.5,-16.4 -3.4,-30.1 -3.9,-39.3 1.7,4.8 4.2,10.3 7.7,16.2 6.3,10.4 13.6,17.6 19.3,22.4 2.2,-9.1 4.9,-22.6 6.2,-39.3 0.9,-11.8 0.6,-18.7 0.8,-25.4 0.4,-13.9 3,-33.7 13.1,-58.6 9.9,15.7 15,29.4 17.7,39.3 3,10.6 4.7,21.9 12.3,24.7 4,1.4 8.3,0 11.4,-1.5 z m -30.6,-54.3 c -4.8,0 -10,6.3 -11.6,15.4 -1.4,7.9 2.2,14.8 6.9,16.2 6.1,1.8 13,-5.5 14.7,-12.3 2,-8.7 -3.8,-19.3 -10,-19.3 z m -106.5,52.6 c -2.8,7.2 -5.6,15.1 -8.4,23.8 -4.7,14.6 -7.3,25.9 -8.2,29.5 -1.8,7.8 -3.7,17.1 -5.4,27.6 -108.1,53.2 -194.1,94.5 -195.4,91.7 0,0 0,0 0,-0.1 0.4,-2.1 0.6,-41.8 0.6,-129.6 0,0 0,0 0,0 5.1,-10.5 10.7,-21.3 17.1,-32.4 13.1,-23 26.8,-43.3 40.1,-60.9 2.1,12 7.1,31.6 20.8,51.7 8.3,12.1 17.3,20.9 24.7,27 17.7,-16.5 26.3,-32.3 30.8,-44 4.7,-12 5.4,-20.4 12.3,-37 5.8,-13.9 12.3,-24.6 17,-31.6 3.7,6.9 8.3,15.3 13.9,24.7 4.9,8.3 11.6,19.2 20,31.6 5.8,8.4 20.1,28 20.1,28 z m -171.9,31.5 c -7.9,1.3 -14.2,10.2 -12.3,20 2.2,6.2 7.7,10.4 13.9,10.8 8,0.5 15.2,-5.7 16.2,-13.1 1.3,-9.8 -8.5,-19.3 -17.8,-17.7 z m 115.6,25.4 c -0.2,-9.3 -9.3,-16.5 -17,-15.4 -9.5,1.3 -15.8,15.2 -10.8,23.9 2.8,4.9 9.2,8.1 15.4,6.9 7.5,-1.3 12.6,-8.4 12.4,-15.4 z m -161,-33.3 v 148.6 c 0,0.2 -0.2,0.3 -0.4,0.3 -31.9,-7.2 -68.3,-15.4 -68.3,-15.4 -0.5,-1 -5.9,-11 -5.9,-11.1 -0.7,-1.2 -9.8,-16.2 -10,-16.5 -0.6,-0.9 -10.1,-14.8 -15,-20.9 -14.1,-17.9 -28.4,-31.9 -40.9,-42.4 0.9,11.5 1.1,25.6 -0.8,41.6 -1.2,10.8 -5.3,28.3 -5.9,31 0,0.2 -0.2,0.3 -0.4,0.3 -5.9,-1.3 -83.7,-18.8 -165.2,-37.1 10.7,-29.8 20.9,-63 41.9,-96.5 5.2,-8.3 10.5,-16.2 15.8,-23.7 3.8,-5.1 7.6,-10.7 11.3,-16.9 10.9,-18.3 17.4,-36 21.4,-50.8 1.4,7 3.5,15.1 6.8,23.7 4.5,11.9 9.8,21.7 14.7,29.3 6.8,-6 13.5,-12 20.3,-18.1 7,19.9 16.6,32.4 24.8,31.6 5.9,-0.6 9.8,-7.9 14.7,-16.9 10,-18.6 7.2,-28.1 15.8,-40.6 3.4,-4.9 9.3,-11.5 20.3,-16.9 13.2,28.3 29.1,41.1 41.8,47.4 13.5,6.8 29.3,9.3 39.5,24.8 2.5,3.9 2.7,5.5 9,18.1 5.8,11.6 11.1,20.9 14.7,27.1 z m -202.9,-23 C 266.3,654 259.4,649 253,649 c -8.7,-0.1 -16.7,8.9 -14.7,17 1.5,5.8 7.9,10.3 15.4,10 8,-0.7 13.7,-7.5 13.2,-14.7 z m 27,67.1 c -6.3,-4.1 -15.3,-1.2 -20,3.9 -6,6.3 -7.5,18.1 -0.8,23.9 6.5,5.6 17.7,3 23.1,-3.9 5.6,-7.2 5,-19.2 -2.3,-23.9 z m 87.9,-80.2 c -4,-7.7 -15.8,-9.1 -21.6,-4.6 -8.1,6.2 -4.9,23.7 3.1,27 5.2,2.2 11.4,-2.4 12.3,-3.1 5.1,-3.9 9.9,-12.3 6.2,-19.3 z m 48.6,84.8 c -4.4,-4.3 -10.8,-4.7 -15.4,-3.1 -8,2.9 -13.2,12.8 -10,20 2.6,6 9.6,7.5 10.8,7.7 5.4,1 13.2,-0.3 17,-6.9 3.1,-5.5 2.3,-13 -2.4,-17.7 z"
     style="fill:#aa87de" /><path
     id="Вкрапления_1_"
     class="st0"
     d="m 253.8,676 c -7.6,0.3 -14,-4.2 -15.4,-10 -2,-8.1 5.9,-17.1 14.7,-17 6.4,0.1 13.3,5 13.9,12.3 0.4,7.2 -5.3,14 -13.2,14.7 z m 121.8,-8.5 c 5.1,-3.9 9.8,-12.3 6.2,-19.3 -4,-7.7 -15.8,-9.1 -21.6,-4.6 -8.1,6.2 -4.9,23.7 3.1,27 5.2,2.1 11.3,-2.4 12.3,-3.1 z m 40.1,90.2 c 5.4,1 13.2,-0.3 17,-6.9 3.2,-5.6 2.4,-13.1 -2.3,-17.7 -4.4,-4.3 -10.8,-4.7 -15.4,-3.1 -8,2.9 -13.2,12.8 -10,20 2.5,6 9.5,7.5 10.7,7.7 z m -119.5,-5.4 c 5.6,-7.2 5,-19.2 -2.3,-23.9 -6.3,-4.1 -15.3,-1.2 -20,3.9 -6,6.3 -7.5,18.1 -0.8,23.9 6.5,5.6 17.7,3 23.1,-3.9 z M 516.7,723 c 8,0.5 15.2,-5.7 16.2,-13.1 1.4,-9.8 -8.4,-19.3 -17.7,-17.7 -7.9,1.3 -14.2,10.2 -12.3,20 2.1,6.2 7.6,10.4 13.8,10.8 z m 101.8,10 c 7.4,-1.4 12.5,-8.4 12.3,-15.4 -0.2,-9.3 -9.3,-16.5 -17,-15.4 -9.5,1.3 -15.8,15.2 -10.8,23.9 2.9,4.9 9.2,8.1 15.5,6.9 z m 170.4,-93.3 c 6.1,1.8 13,-5.5 14.7,-12.3 2,-8.6 -3.8,-19.3 -10,-19.3 -4.8,0 -10,6.3 -11.6,15.4 -1.4,8 2.2,14.8 6.9,16.2 z"
     style="fill:#ffffff" /><path
     id="Слой-3"
     class="st0"
     d="m 198.9,666.2 c -21,33.5 -31.1,66.7 -41.9,96.5 -6,-1.3 -12,-2.7 -17.9,-4 -5.4,-16.4 -8.9,-31.9 -11.3,-52.9 -0.5,-4.2 -0.9,-8.4 -1.1,-12.4 -7.6,4.5 -19.1,12.6 -29.3,26 -7.3,9.5 -11.8,18.8 -14.5,25.9 -0.1,0.2 -0.4,0.2 -0.5,0 C 78.1,728.2 71.3,716.7 65.8,709.3 55.7,695.6 47.3,692.1 36.5,677.7 27.1,665.3 22.2,653.1 19.6,645 V 553.8 C 25.8,528.9 32,503.9 38.3,479 c 0.1,-0.5 0.8,-0.4 0.8,0 l 7.6,53.1 c 4.1,-9.8 8.3,-19.6 12.4,-29.3 12,19.6 24.1,39.1 36.1,58.7 -1,10.5 -1.4,24.5 1.1,40.6 2.5,16.4 7.1,29.7 11.3,39.5 2.6,-13.8 4.9,-28.5 6.8,-44 2.4,-19.5 3.8,-38 4.5,-55.3 0,-19.6 0,-39.1 0,-58.7 9,-6.4 18.1,-12.8 27.1,-19.2 6,6.4 12,12.8 18.1,19.2 L 165,498 c 23.3,-9.6 31.2,-20.7 33.9,-29.3 2,-6.2 1.5,-11.9 5.6,-20.3 4.7,-9.4 11.7,-15.5 16.9,-19.2 7.3,5.5 16.2,13.2 24.8,23.7 7,8.5 12.1,16.7 15.8,23.7 3.8,15.8 7.5,31.6 11.3,47.4 4.5,-4.5 9,-9 13.5,-13.5 6,5.3 12,10.5 18.1,15.8 3.4,-5.6 6.8,-11.3 10.2,-16.9 4.4,2.3 11.6,6.8 18.1,14.7 6.8,8.3 9.9,16.6 11.3,21.4 4.2,-4.1 10.2,-10.4 15.8,-19.2 7.5,-11.7 9.1,-19.5 12.4,-26 5,-9.7 16.5,-21.3 45.2,-28.2 7.7,5.4 16.9,12.7 26,22.6 12.8,13.9 20.9,27.8 26,38.4 v 151.3 c -3.6,-6.2 -8.8,-15.5 -14.7,-27.1 -6.3,-12.5 -6.5,-14.2 -9,-18.1 -10.2,-15.5 -26,-18.1 -39.5,-24.8 -12.6,-6.3 -28.5,-19.1 -41.8,-47.4 -11,5.4 -16.9,12 -20.3,16.9 -8.6,12.5 -5.8,22 -15.8,40.6 -4.9,9.1 -8.8,16.3 -14.7,16.9 -8.3,0.8 -17.9,-11.7 -24.8,-31.6 -6.8,6 -13.5,12 -20.3,18.1 -4.9,-7.6 -10.2,-17.4 -14.7,-29.3 -3.2,-8.6 -5.4,-16.7 -6.8,-23.7 -4,14.8 -10.5,32.5 -21.4,50.8 -3.7,6.2 -7.5,11.8 -11.3,16.9 -5.5,7.4 -10.8,15.3 -15.9,23.6 z M 744,700.8 c 0.2,0.3 0.7,0.2 0.9,-0.1 1.5,-4.6 8,-27.1 2.4,-63.3 -1.8,-11.4 -4.8,-20.4 -7.7,-40.1 -2.5,-16.4 -3.4,-30.1 -3.9,-39.3 1.7,4.8 4.2,10.3 7.7,16.2 6.3,10.4 13.6,17.6 19.3,22.4 2.2,-9.1 4.9,-22.6 6.2,-39.3 0.9,-11.8 0.6,-18.7 0.8,-25.4 0.4,-13.9 3,-33.7 13.1,-58.6 9.9,15.7 15,29.4 17.7,39.3 3,10.6 4.7,21.9 12.3,24.7 4,1.4 8.3,0 11.4,-1.5 V 439 c -12.8,-11.9 -25.6,-23.8 -38.4,-35.6 -4.4,4 -8.7,8.1 -13.1,12.1 -2.5,-4.1 -6.1,-10.7 -8.5,-19.3 -3.7,-12.9 -1.9,-20.2 -3.9,-32.4 -1.1,-7.3 -3.8,-17.8 -10.8,-30.1 -0.9,4.2 -2.6,10.3 -6.2,17 -3.7,6.9 -7.6,11.3 -8.5,12.3 -5.6,6.6 -10.9,23.4 -10.8,66.3 -8,5.9 -11.4,11.9 -13.1,16.2 -3.1,7.7 -2.1,14.3 -6.9,17 -2.4,1.4 -6,1.6 -8.5,0 -4.4,-2.7 -2.7,-9 -5.4,-17.7 -0.9,-2.8 -4.5,-14.1 -10.8,-16.2 -12.1,-3.9 -34.7,25.7 -46.3,52.4 -3.5,8.2 -5.7,15.2 -6.9,20 -22.3,-4.7 -37.3,-11.8 -47,-17.7 -7.9,-4.8 -16,-9.2 -23.9,-13.9 -8.6,-5.1 -13.8,-8.3 -21.6,-10 -7,-1.5 -13,-1.3 -17,-0.8 -15.5,22.7 -31,45.4 -46.6,68.1 0.1,73 0.2,131.5 0.2,177.1 0,0 0,0 0,0 5.1,-10.5 10.7,-21.3 17.1,-32.4 13.1,-23 26.8,-43.3 40.1,-60.9 2.1,12 7.1,31.6 20.8,51.7 8.3,12.1 17.3,20.9 24.7,27 17.7,-16.5 26.3,-32.3 30.8,-44 4.7,-12 5.4,-20.4 12.3,-37 5.8,-13.9 12.3,-24.6 17,-31.6 3.7,6.9 8.3,15.3 13.9,24.7 4.9,8.3 11.6,19.2 20,31.6 5.5,8.1 11.9,17.2 19.4,27 0.6,-0.1 0.5,-0.1 1.1,-0.1 2.6,-6.6 5.1,-12.5 7.4,-17.6 0.9,0.8 1.9,1.8 3,2.7 0,0 0.1,0.1 0.1,0.1 1.7,1.6 3.6,3.4 5.5,5.3 0.1,0.1 0.1,0.1 0.2,0.2 2.4,2.3 4.8,4.9 7.4,7.7 1.3,1.4 2.6,2.8 3.8,4.2 0.2,0.3 0.5,0.6 0.7,0.8 0,0 0,0 0,0 0.8,0.9 1.6,1.8 2.4,2.7 0.1,0.2 0.3,0.3 0.4,0.5 0.6,0.7 1.2,1.4 1.8,2.1 0.2,0.2 0.4,0.5 0.6,0.7 0.5,0.6 1,1.3 1.6,1.9 0.2,0.2 0.4,0.4 0.5,0.7 0.5,0.7 1.1,1.3 1.6,2 0.1,0.2 0.2,0.3 0.4,0.5 0.6,0.8 1.2,1.5 1.7,2.2 0,0 0,0 0.1,0.1 1.9,2.4 3.5,4.7 5,6.6 0,0 0.1,0.1 0.1,0.1 0.1,0.1 0.2,0.2 0.2,0.3 0.3,0.5 0.6,0.9 0.9,1.3 3.8,5.2 9.4,13.5 11.2,15.9 z"
     style="fill:#c8ab37" /><path
     id="Слой-2"
     class="st0"
     d="m 516.7,458.5 c -15.5,22.7 -31,45.4 -46.6,68.1 0,-19.9 -0.1,-40.8 -0.1,-62.8 5.5,-7.1 14.1,-16.8 26.8,-25.6 6.2,-4.3 17.2,-11 36.1,-16.9 36.3,-11.3 44.8,-1.9 80.1,-12.4 15.3,-4.5 37.8,-11.6 42.9,-28.2 0.8,-2.7 0.6,-8.2 0,-19.2 -1.4,-27.1 -4.3,-32.3 0,-39.5 4.2,-7.1 12.9,-11.9 20.3,-11.3 6,0.5 8.1,4.3 13.5,6.8 11.2,5 23.7,-1.7 35,-6.8 38.3,-17.4 66.2,-18.8 65.5,-23.7 -0.4,-2.4 -7.3,-3.4 -15.8,-4.5 -16.3,-2.2 -25.4,0.7 -26,-1.1 -0.9,-2.8 19.5,-13.4 42.9,-20.3 13.4,-3.9 24.9,-5.8 32.7,-6.8 v 96.3 l -38.4,52.7 c -4.4,4 -8.7,8.1 -13.1,12.1 -2.5,-4.1 -6.1,-10.7 -8.5,-19.3 -3.7,-12.9 -1.9,-20.2 -3.9,-32.4 -1.1,-7.3 -3.8,-17.8 -10.8,-30.1 -0.9,4.2 -2.6,10.3 -6.2,17 -3.7,6.9 -7.6,11.3 -8.5,12.3 -5.6,6.6 -10.9,23.4 -10.8,66.3 -8,5.9 -11.4,11.9 -13.1,16.2 -3.1,7.7 -2.1,14.3 -6.9,17 -2.4,1.4 -6,1.6 -8.5,0 -4.4,-2.7 -2.7,-9 -5.4,-17.7 -0.9,-2.8 -4.5,-14.1 -10.8,-16.2 -12.1,-3.9 -34.7,25.7 -46.3,52.4 -3.5,8.2 -5.7,15.2 -6.9,20 -22.3,-4.7 -37.3,-11.8 -47,-17.7 -7.9,-4.8 -16,-9.2 -23.9,-13.9 -8.6,-5.1 -13.8,-8.3 -21.6,-10 -6.7,-1.6 -12.7,-1.3 -16.7,-0.8 z M 165,498 c 23.3,-9.6 31.2,-20.7 33.9,-29.3 2,-6.2 1.5,-11.9 5.6,-20.3 4.7,-9.4 11.7,-15.5 16.9,-19.2 7.3,5.5 16.2,13.2 24.8,23.7 7,8.5 12.1,16.7 15.8,23.7 3.8,15.8 7.5,31.6 11.3,47.4 4.5,-4.5 9,-9 13.5,-13.5 6,5.3 12,10.5 18.1,15.8 3.4,-5.6 6.8,-11.3 10.2,-16.9 4.4,2.3 11.6,6.8 18.1,14.7 6.8,8.3 9.9,16.6 11.3,21.4 4.2,-4.1 10.2,-10.4 15.8,-19.2 7.5,-11.7 9.1,-19.5 12.4,-26 5,-9.7 16.5,-21.3 45.2,-28.2 7.7,5.4 16.9,12.7 26,22.6 10.8,11.7 18.2,23.3 23.3,33 0.9,-0.2 1.8,-0.4 2.7,-0.5 v -63 c -4.3,1.1 -11.4,2.2 -19.2,0 -14,-4 -17.6,-15.1 -32.7,-22.6 -3.7,-1.8 -7.5,-3.2 -23.7,-5.6 -32.2,-4.9 -49.8,-7.6 -74.5,-6.8 -17,0.6 -25.6,2.4 -40.6,-1.1 -4.6,-1.1 -24.5,-5.8 -24.8,-13.5 -0.3,-6.1 12,-12.2 20.3,-14.7 16.5,-4.9 27.2,1.5 31.6,-4.5 2.9,-4 1.6,-11.5 -2.3,-15.8 -10,-11.1 -38,-0.9 -49.7,3.4 -20,7.3 -18.5,11.7 -35,16.9 -18.8,6 -21.3,0.4 -50.8,4.5 -27.4,3.8 -39.1,10.5 -46.3,3.4 -4.2,-4.2 -5.7,-12.1 -4.5,-18.1 1.7,-8.6 8.3,-10.4 7.9,-16.9 -0.4,-6.4 -7,-11.6 -12.4,-13.5 -9,-3.3 -20.2,0.1 -23.7,6.8 -2,3.9 -0.6,10.9 2.3,24.8 1.6,7.8 2.3,9.5 1.1,11.3 -1.9,2.8 -7.5,4.5 -29.3,-1.1 -11.2,-2.9 -26.4,-7.6 -44,-15.8 V 418 H 67 l -28.2,58.7 7.9,55.3 c 4.1,-9.8 8.3,-19.6 12.4,-29.3 12,19.6 24.1,39.1 36.1,58.7 -1,10.5 -1.4,24.5 1.1,40.6 2.5,16.4 7.1,29.7 11.3,39.5 2.6,-13.8 4.9,-28.5 6.8,-44 2.4,-19.5 3.8,-38 4.5,-55.3 0,-19.6 0,-39.1 0,-58.7 9,-6.4 18.1,-12.8 27.1,-19.2 6,6.4 12,12.8 18.1,19.2 z"
     style="fill:#aade87" /><path
     id="Слой-1"
     class="st0"
     d="m 470.2,342.1 c -0.2,40.7 -0.3,81.4 -0.5,122.1 5.4,-7.1 14.2,-17 27.1,-26 6.2,-4.3 17.2,-11 36.1,-16.9 36.3,-11.3 44.8,-1.9 80.1,-12.4 15.3,-4.5 37.8,-11.6 42.9,-28.2 0.8,-2.7 0.6,-8.2 0,-19.2 -1.4,-27.1 -4.3,-32.3 0,-39.5 4.2,-7.1 12.9,-11.9 20.3,-11.3 6,0.5 8.1,4.3 13.5,6.8 11.2,5 23.7,-1.7 35,-6.8 38.3,-17.4 66.2,-18.8 65.5,-23.7 -0.4,-2.4 -7.3,-3.4 -15.8,-4.5 -16.3,-2.2 -25.4,0.7 -26,-1.1 -0.9,-2.8 19.5,-13.4 42.9,-20.3 13.4,-3.9 24.9,-5.8 32.7,-6.8 0,-13.6 0,-27.1 0,-40.7 -117.8,42.7 -235.8,85.6 -353.8,128.5 z M 626.6,378 c -13.7,25 -43.6,24.1 -68.2,21.9 -69.9,-6.3 -9.5,-83.1 34.1,-79.9 30,2.2 49.1,30.6 34.1,58 z M 398.2,332.9 c 0,0 0,0 0,0 0.9,18 1.9,36 2.8,53.9 -17.4,-20.2 -34.8,-40.5 -52.2,-60.7 -109.6,-15.2 -219.3,-30.3 -328.9,-45.5 -0.3,0 -0.5,0.2 -0.5,0.5 v 57.8 c 0,15.4 0,30.9 0,46.3 17.6,8.2 32.8,12.9 44,15.8 21.8,5.6 27.5,4 29.3,1.1 1.2,-1.8 0.5,-3.5 -1.1,-11.3 -2.9,-14 -4.3,-20.9 -2.3,-24.8 3.5,-6.7 14.7,-10 23.7,-6.8 5.4,2 12,7.1 12.4,13.5 0.4,6.6 -6.2,8.4 -7.9,16.9 -1.2,6 0.3,13.8 4.5,18.1 7.2,7.1 18.9,0.4 46.3,-3.4 29.5,-4.1 32,1.5 50.8,-4.5 16.5,-5.2 14.9,-9.6 35,-16.9 11.6,-4.3 39.6,-14.5 49.7,-3.4 3.9,4.3 5.2,11.8 2.3,15.8 -4.4,6 -15.1,-0.4 -31.6,4.5 -8.4,2.5 -20.6,8.5 -20.3,14.7 0.3,7.7 20.3,12.5 24.8,13.5 15,3.6 23.7,1.7 40.6,1.1 24.7,-0.9 42.3,1.8 74.5,6.8 16.2,2.5 20,3.8 23.7,5.6 15.1,7.5 18.8,18.6 32.7,22.6 7.8,2.2 14.9,1.1 19.2,0 V 342.7 c -23.8,-3.2 -47.6,-6.5 -71.5,-9.8 z m -177.6,39.2 c -56.9,22.3 -114,-30.4 -38.6,-42.4 43.8,-7 103.4,9 38.6,42.4 z M 381,414.5 c -1.4,0.6 -25,10 -37,-1.5 -0.7,-0.7 -6,-5.8 -4.6,-10 2.6,-8 26.9,-5.6 29.3,-5.4 9.9,1 25.4,4.6 25.4,9.3 0,1.7 -2.2,4.4 -13.1,7.6 z"
     style="fill:#afdde9" /><path
     id="Вкрапления"
     class="st0"
     d="m 558.4,399.9 c -69.9,-6.3 -9.5,-83.1 34.1,-79.9 30,2.2 49.1,30.6 34.1,58 -13.7,25 -43.6,24.1 -68.2,21.9 z M 182.1,329.7 c -75.4,12.1 -18.3,64.7 38.6,42.4 64.7,-33.4 5.1,-49.4 -38.6,-42.4 z m 212,77.1 c -0.1,-4.7 -15.5,-8.2 -25.4,-9.3 -2.4,-0.2 -26.7,-2.6 -29.3,5.4 -1.4,4.2 3.9,9.4 4.6,10 12,11.5 35.7,2.1 37,1.5 10.9,-3.1 13.1,-5.8 13.1,-7.6 z"
     style="fill:#784421" /><path
     id="Верхушка"
     class="st0"
     d="m 580.4,277.9 c -1.3,11.7 -4.9,20.9 -7.7,26.6 -34.3,12.7 -68.6,25.5 -103,38.2 -23.7,-3.3 -47.4,-6.7 -71.2,-10 -0.1,0 -0.2,-0.2 -0.1,-0.3 13.2,-20.4 26.4,-40.9 39.6,-61.3 -29.6,18.2 -59.2,36.5 -88.9,54.7 l -64.9,-9.1 c -2.2,-7.7 -4.3,-18.3 -4.1,-30.9 0.2,-18.9 5.1,-33.8 9,-42.9 1.4,-0.4 16.5,-5 28.2,4.5 5.8,4.7 8.1,10.6 9,13.5 3.4,-9.4 6.8,-18.8 10.2,-28.2 4.8,-1.5 12.3,-3.8 21.4,-6.8 21.1,-6.9 27.2,-9.7 48.5,-16.9 29.7,-10 37.7,-11.3 46.3,-11.3 10.5,0 19.1,1.8 24.8,3.4 7.5,5.3 15.1,10.5 22.6,15.8 2.7,6.7 7.6,15.7 16.9,20.3 8.9,4.4 16,1.9 30.5,3.4 7.2,0.7 17.8,2.6 30.5,7.9 1.8,6.4 3.7,16.8 2.4,29.4 z m -296.1,38.8 c -2.2,-7.7 -4.3,-18.3 -4.1,-30.9 0.1,-9.1 1.3,-17.2 2.9,-24.2 -7.4,-5.9 -14.7,-11.7 -22.1,-17.6 -1.2,-4.2 -3.4,-10.4 -7.9,-16.9 -4.5,-6.5 -12,-17.4 -23.7,-18.1 -9.8,-0.6 -17.3,6.3 -21.4,10.2 -8.1,7.4 -11.2,16.1 -12.4,20.3 -10.9,-16.5 -22.2,-21 -28.2,-22.6 -8.7,-2.3 -10.3,0.7 -39.5,3.4 -17.8,1.6 -21.3,0.9 -27.1,4.5 -9.6,6.1 -13,16.4 -15.8,24.8 -5.2,15.6 -4.1,30 -2.3,39.6 74.5,10.4 201.6,27.5 201.6,27.5 z m 215.9,-99.8 c 2.7,6.7 7.6,15.7 16.9,20.3 8.9,4.4 16,1.9 30.5,3.4 7.2,0.7 17.8,2.6 30.5,7.9 1.7,6.4 3.6,16.7 2.3,29.3 -1.3,11.7 -4.9,20.9 -7.7,26.6 65.4,-23.9 130.8,-47.9 196.1,-71.8 -1.9,-8.6 -3.7,-17.3 -5.6,-25.9 -19.9,-2.6 -39.9,-5.3 -59.8,-7.9 -4.9,-5.6 -9.8,-11.3 -14.7,-16.9 -4.5,-10.9 -11,-24.6 -19.2,-37.3 -1.7,-2.7 -4.7,-7 -10.2,-10.2 -1.3,-0.8 -11.5,-6.4 -19.2,-2.3 -4.3,2.3 -4.4,5.9 -10.2,16.9 -5.4,10.5 -7.3,11 -10.2,16.9 -3.2,6.5 -6.1,16.6 -4.5,31.6 -13.2,1.5 -26.3,3 -39.5,4.5 -4.1,-3 -8.3,-6 -12.4,-9 -9.8,0 -19.6,0 -29.3,0 -6.4,-4.9 -12.8,-9.8 -19.2,-14.7 -3,5.3 -6,10.5 -9,15.8 -4,-0.6 -9.6,-0.8 -15.8,1.1 -4.6,1.4 -8.4,3.6 -11.6,6.2 7.3,5.4 14.6,10.5 21.8,15.5 z M 382.8,193.2 c -16.5,-0.1 -28,8.4 -31.6,11.3 -21.4,0 -42.9,0 -64.3,0 -5,0.7 -10.8,2 -16.9,4.5 -8.3,3.4 -15.1,8.1 -20.6,13 1.4,1.8 2.6,3.6 3.7,5.1 4.5,6.5 6.7,12.7 7.9,16.9 7.4,5.9 14.7,11.7 22.1,17.6 1.8,-7.6 4.1,-14 6.1,-18.7 1.4,-0.4 16.5,-5 28.2,4.5 5.8,4.7 8.1,10.6 9,13.5 3.4,-9.4 6.8,-18.8 10.2,-28.2 4.8,-1.5 12.3,-3.8 21.4,-6.8 21.1,-6.9 27.2,-9.7 48.5,-16.9 3.2,-1.1 6.1,-2.1 8.9,-2.9 -6.9,-5.9 -17.9,-12.8 -32.6,-12.9 z m 420,-15.8 c -3.6,-3.6 -7.1,-7.1 -10.7,-10.7 -10.3,-10.3 -24.9,-15.3 -39.4,-13.4 -6.6,0.9 -13.2,1.7 -19.9,2.6 -14.7,-26.3 -29.3,-52.7 -44,-79 C 680.9,67.1 673,57.3 665.1,47.6 L 653.4,21.8 c -2.6,-5.7 -10,-7.3 -14.7,-3.1 -10.4,9.2 -20.8,18.5 -31.2,27.7 -8.3,16.9 -16.6,33.9 -24.8,50.8 L 574.2,75 c -1.9,-5 -8.2,-6.5 -12.2,-3 -4.8,4.3 -9.5,8.6 -14.3,12.9 -10.9,19.9 -21.8,39.9 -32.7,59.8 -13.2,-1.9 -26.3,-3.8 -39.5,-5.6 l -37.3,-16.9 h -6.1 c -10.7,0 -20.2,6.4 -24.3,16.3 -3.8,9.2 -7.6,18.5 -11.4,27.7 -8.7,-12.4 -17.3,-24.8 -26,-37.3 -5.8,-0.7 -8.1,-0.9 -13.8,-1.6 -13.4,12.2 -26.9,24.4 -40.3,36.6 l -24.8,1.1 c -16.9,-5.6 -33.8,-11.3 -50.7,-16.9 -12.5,-4.2 -26.2,-0.6 -35.1,9 v 0 c -12.4,0.8 -24.8,1.5 -37.3,2.3 l -10.2,28.2 -14.7,-3.4 -59.8,14.9 c -19.5,4.9 -36.1,17.6 -46,35.1 L 27.1,253 c -2.1,7.7 -4.3,15.4 -6.4,23.1 -0.6,2.2 0.8,4.4 3.1,4.7 19.5,2.7 39.1,5.4 58.6,8.1 -1.8,-9.6 -2.8,-23.8 2.3,-39.3 2.8,-8.4 6.2,-18.8 15.8,-24.8 5.8,-3.6 9.3,-2.9 27.1,-4.5 29.2,-2.6 30.8,-5.6 39.5,-3.4 6,1.6 17.4,6.1 28.2,22.6 1.2,-4.3 4.4,-12.9 12.4,-20.3 4.2,-3.8 11.7,-10.7 21.4,-10.2 8.9,0.5 15.5,7.1 20,13 5.5,-4.9 12.3,-9.6 20.6,-13 6.1,-2.5 11.9,-3.8 16.9,-4.5 21.4,0 42.9,0 64.3,0 3.6,-2.9 15.1,-11.4 31.6,-11.3 14.6,0.1 25.7,6.9 32.6,12.9 22.5,-7.3 29.7,-8.3 37.4,-8.3 10.5,0 19.1,1.8 24.8,3.4 0.8,0.6 0,0 0.8,0.6 3.2,-2.6 7.1,-4.8 11.6,-6.2 6.2,-1.9 11.8,-1.7 15.8,-1.1 3,-5.3 6,-10.5 9,-15.8 6.4,4.9 12.8,9.8 19.2,14.7 9.8,0 19.6,0 29.3,0 4.1,3 8.3,6 12.4,9 13.2,-1.5 26.3,-3 39.5,-4.5 -1.6,-15 1.4,-25.1 4.5,-31.6 2.9,-6 4.7,-6.5 10.2,-16.9 5.7,-11 5.8,-14.6 10.2,-16.9 7.7,-4.1 17.9,1.5 19.2,2.3 5.5,3.1 8.4,7.5 10.2,10.2 8.2,12.7 14.7,26.3 19.2,37.3 4.9,5.6 9.8,11.3 14.7,16.9 19.9,2.6 39.9,5.3 59.8,7.9 1.9,8.6 3.7,17.3 5.6,25.9 l 55.3,-19.2 c 1.1,-9 1.3,-10.6 2.5,-19.6 -7.6,-5.8 -15.6,-11.3 -23.5,-16.8 z"
     style="fill:#cccccc" /></g>
</svg>
