<?xml version="1.0" encoding="UTF-8" standalone="no"?>
<!-- Generator: Adobe Illustrator 22.1.0, SVG Export Plug-In . SVG Version: 6.00 Build 0)  -->

<svg
   version="1.1"
   id="Слой_3"
   x="0px"
   y="0px"
   viewBox="0 0 842.1 842.2"
   style="enable-background:new 0 0 842.1 842.2;"
   xml:space="preserve"
   sodipodi:docname="dark-matter.svg"
   inkscape:version="1.2.1 (9c6d41e410, 2022-07-14)"
   xmlns:inkscape="http://www.inkscape.org/namespaces/inkscape"
   xmlns:sodipodi="http://sodipodi.sourceforge.net/DTD/sodipodi-0.dtd"
   xmlns="http://www.w3.org/2000/svg"
   xmlns:svg="http://www.w3.org/2000/svg"><defs
   id="defs275" /><sodipodi:namedview
   id="namedview273"
   pagecolor="#ffffff"
   bordercolor="#111111"
   borderopacity="1"
   inkscape:showpageshadow="0"
   inkscape:pageopacity="0"
   inkscape:pagecheckerboard="1"
   inkscape:deskcolor="#d1d1d1"
   showgrid="false"
   inkscape:zoom="0.69698408"
   inkscape:cx="415.36099"
   inkscape:cy="422.53476"
   inkscape:window-width="1600"
   inkscape:window-height="829"
   inkscape:window-x="0"
   inkscape:window-y="0"
   inkscape:window-maximized="1"
   inkscape:current-layer="Слой_3" />
<style
   type="text/css"
   id="style258">
	.st0{stroke:#000000;stroke-width:10;stroke-miterlimit:10;}
</style>











<g
   id="g406"
   transform="matrix(0.70465928,0,0,0.70465928,127.94692,124.64349)"><path
     id="_x31_2"
     class="st0"
     d="m 641,140.6 c -11.6,6.5 -29,17.3 -48.2,33.4 -16.4,13.8 -19.3,18.8 -32.1,29.6 -20.5,17.5 -39.2,24.9 -67.9,37.1 -37.8,15.9 -68.4,22.6 -79.1,24.7 -23.6,4.8 -44.3,6.7 -60.5,7.4 -17.5,0.8 -40.7,1.6 -70.4,-3.7 -23.3,-4.2 -42.2,-10.6 -55.6,-16.1 -11.4,-4.8 -28.3,-10.6 -49.4,-13.6 -16.7,-2.4 -40,-5.4 -67.9,2.5 -11.7,3.3 -35.6,10 -54.4,29.6 -28.9,30.3 -41.3,86.6 -13.6,129.7 28.7,44.5 82.2,46.8 87.7,46.9 21.4,0.6 38.5,-5.5 48.2,-9.9 12.1,-5.9 29.8,-15.3 49.4,-29.6 16.3,-11.9 21.3,-17.8 43.2,-35.8 21.5,-17.6 36.6,-30.1 54.4,-40.8 15.9,-9.6 40.7,-22 75.4,-29.6 17.4,-4.3 38.7,-8.2 63,-9.9 24,-1.6 45.3,-0.7 63,1.2 3.8,1.3 10.5,4.4 14.8,11.1 7.3,11.3 2.8,25 0,33.4 -5.5,16.7 -16.8,27 -23.5,32.1 -7.8,6.3 -19.7,15.4 -34.6,25.9 -22.8,16 -25.8,16.1 -35.8,24.7 -9.8,8.4 -28.2,24.2 -37.1,50.6 -3.7,11.1 -10.6,31.8 -1.2,54.4 11.1,26.8 37,36.5 42,38.3 5.2,1.9 26.8,8.9 50.6,-1.2 24.6,-10.5 34.3,-32 37.1,-38.3 5.9,-13.7 6.4,-26.2 6.2,-33.4 -1.1,-28.6 -0.7,-52.5 0,-70.4 0.7,-17.6 1.6,-28 4.9,-40.8 2.7,-10.2 6.8,-25.4 18.5,-40.8 5.5,-7.2 12.3,-16.1 24.7,-22.2 16.7,-8.3 32.8,-6.2 39.5,-4.9 8.8,1.6 21.6,3.7 37.1,6.2 30.6,4.8 36.4,5 40.8,4.9 7.2,-0.1 27.4,-0.5 48.2,-12.4 14.9,-8.5 24.4,-19.6 29.6,-27.2 6,-8.7 16.5,-26.1 19.8,-50.6 1.6,-11.9 5,-36.5 -8.6,-61.8 -7.8,-14.4 -18.2,-23.5 -24.7,-28.4 -12.8,-7 -25.5,-14 -38.3,-21 -1.5,-3.3 -3,-8 -1.2,-12.4 2.4,-6 8.9,-5.7 11.1,-11.1 2.5,-6.1 -2,-15.2 -8.6,-19.8 -4.4,-3.1 -14.2,-7 -21,-1.2 -7.1,6 -2.9,19.6 -2.5,21 2.5,8.2 7.2,10.5 6.2,14.8 -0.7,2.9 -3.9,6.3 -14.8,8.6 -6.3,0.9 -12.9,2.1 -19.8,3.7 -17.2,4.2 -32,9.5 -44.6,15.1 z" /><path
     id="_x31_1"
     class="st0"
     d="m 518.7,110.9 c 5.4,3.7 23,15.2 48.2,14.8 27.8,-0.4 46.5,-15.2 51.9,-19.8 2.9,-3.2 11,-12.7 12.4,-27.2 1.4,-14.5 -4.7,-25.1 -7.4,-29.6 -13.9,-23.4 -41.2,-27.8 -45.7,-28.4 -13.1,0.5 -29.7,2.3 -48.2,7.4 -14.1,3.9 -26.1,8.8 -35.8,13.6 -7,3.3 -17,7.5 -29.6,11.1 -16.1,4.6 -27.7,7.9 -42,6.2 C 415.3,58.1 401,55.2 385.4,42.9 371.9,29.5 358.5,22.2 349.6,18.2 335.4,11.8 321,5.3 303.9,9.6 c -4.1,1 -23.6,5.8 -30.9,23.5 -6.2,15 -1.2,33.7 12.4,46.9 6.4,3.2 18.6,8.2 34.6,8.6 15.1,0.4 26.8,-3.5 33.4,-6.2 5.2,-3 16.7,-8.8 32.1,-8.6 9,0.1 16.9,-0.5 23.5,4.9 6.7,5.6 8.2,13.9 8.6,17.3 -0.2,8.7 -1.5,20.9 -6.2,34.6 -5.6,16.5 -13.8,28.4 -19.8,35.8 -3.9,4.2 -11.8,13.8 -14.8,28.4 -1.3,6.3 -4.2,20.4 3.7,34.6 0.9,1.6 11.6,20 33.4,22.2 18.7,1.9 31.6,-9.7 34.6,-12.4 3.8,-3.4 11.8,-11.7 14.8,-24.7 5.3,-22.9 -9.2,-40.9 -11.1,-43.2 -5.1,-7.3 -11.4,-18 -16.1,-32.1 -5.1,-15.5 -7,-26.7 -6.2,-37.1 1,-13.1 5,-18.3 6.2,-19.8 5.9,-7.3 14.2,-9.2 17.3,-9.9 13.1,-3 24,2.7 28.4,4.9 8.5,4.4 14,10.4 17.3,14.8 3.9,5.4 10.2,12.5 19.6,18.8 z" /><path
     id="_x31_0"
     class="st0"
     d="m 223.5,204.8 c -21.4,-0.9 -37.9,0.1 -49.4,1.2 -9.7,1 -19.1,2.4 -29.6,-2.5 -9.9,-4.6 -15.1,-12.1 -16.1,-13.6 -0.8,-1.2 -13.2,-20.6 -2.5,-38.3 8.6,-14.2 25.3,-15.9 27.2,-16.1 15.6,0.1 32.1,-0.2 49.4,-1.2 15.8,-0.9 22.6,-0.6 30.9,-2.5 11.3,-2.5 11.3,-4.5 22.2,-7.4 8.1,-2.2 25.8,-6.7 45.7,-1.2 9.3,2.5 18.5,5 24.7,13.6 10.3,14.3 3.4,33.3 2.5,35.8 -7.8,8.6 -15.6,17.3 -23.5,25.9 -11,7.3 -20.8,10 -27.2,11.1 -13.6,2.4 -26.1,0.3 -42,-2.5 -5.1,-0.7 -9.4,-1.6 -12.3,-2.3 z" /><path
     id="_x39_"
     class="st0"
     d="m 697.9,380.2 c -9,-11.2 -6.6,-17.3 -17.3,-25.9 -3.8,-3.1 -15.3,-12.3 -28.4,-8.6 -7,2 -15.4,7.9 -17.3,17.3 -3,14.6 14,25.8 16.1,27.2 7.7,5.1 15.2,6.1 25.9,7.4 16.7,2.1 17.8,-1.5 28.4,1.2 16,4.1 25.8,15.4 28.4,18.5 4,4.8 3.1,5.2 9.9,16.1 10.4,16.5 15.5,24.7 23.5,28.4 8.9,4.2 23.9,5.4 32.1,-3.7 6.3,-6.9 6.5,-17.4 3.7,-24.7 -3.7,-9.9 -13,-14.3 -22.2,-18.5 -14,-6.4 -19,-4.5 -34.6,-8.6 -13.8,-3.8 -34.8,-9.4 -48.2,-26.1 z" /><path
     id="_x38_"
     class="st0"
     d="m 407.6,605 c 2.8,12.5 11.4,22.1 22.2,24.7 1.2,0.3 16,3.5 23.5,-6.2 6.4,-8.3 3.8,-21.2 -2.5,-27.2 -8.7,-8.2 -28.3,-6.8 -43.2,8.7 z" /><path
     id="_x37_"
     class="st0"
     d="m 591.6,570.5 c -5.6,-13.5 4,-28.2 7.4,-33.4 7.9,-12.1 18.5,-17.3 28.4,-22.2 14.7,-7.3 32.3,-16 49.4,-8.6 13.2,5.7 18.9,17.8 19.8,19.8 7.1,15.8 0.8,30.3 0,32.1 -6.9,15.3 -21.2,20.2 -23.5,21 -7.4,4.4 -27.9,15.2 -51.9,9.9 -7.7,-1.8 -24.1,-5.5 -29.6,-18.6 z" /><path
     id="_x36_"
     class="st0"
     d="m 344.6,433.3 c -7.4,-1.3 -11.3,-10.3 -12.4,-16.1 -2.1,-11.7 4.6,-28 17.3,-29.6 7.8,-1 16.5,3.7 19.8,11.1 5,11.3 -5.6,22.7 -8.6,25.9 -3.4,3.6 -9.2,10 -16.1,8.7 z" /><path
     id="_x35_"
     class="st0"
     d="m 100,103.5 c -5.7,6.7 -15.1,10.7 -24.7,8.6 -11,-2.4 -19,-12.4 -19.8,-23.5 -0.8,-11.2 5.8,-22 16.1,-25.9 12.2,-4.6 27.1,1.5 33.4,14.8 0.1,0.7 4.6,14.8 -5,26 z" /><path
     id="_x34_"
     class="st0"
     d="m 72.8,191.2 c -8.1,4.7 -18,3.5 -23.5,-2.5 -7.9,-8.6 -1.7,-21.3 -1.2,-22.2 3.5,-7 12.4,-15.1 22.2,-12.4 9.4,2.7 13.6,13.6 12.4,22.2 -1.4,9.1 -8.5,14 -9.9,14.9 z" /><path
     id="_x33_"
     class="st0"
     d="m 253.1,787.9 c -3.6,-8.1 -17.8,-40.1 -2.5,-70.4 7.9,-15.5 19.9,-23.6 27.2,-28.4 31.7,-21.2 65.9,-15.8 71.6,-14.8 22.8,3.9 39,16.6 53.1,27.2 7.5,5.7 13.4,11 17.3,14.8 4.2,3.9 11.2,9.5 21,13.6 19.2,7.9 36.6,4.9 43.2,3.7 17.7,-3.3 16.8,-9 35.8,-13.6 10,-2.4 25.6,-6.1 43.2,0 6,2.1 22.9,9 33.4,27.2 2.1,3.7 14.8,25.6 4.9,49.4 -10.2,24.8 -36.4,31.1 -40.8,32.1 -30.9,7.4 -55.2,-12.4 -58.1,-14.8 -10.6,-12.1 -20.1,-21.6 -27.2,-28.4 -12.4,-11.9 -16.6,-14.6 -22.2,-16.1 -12,-3.1 -23,1.5 -28.4,3.7 -6.1,2.5 -9.2,5.2 -19.8,13.6 -14.5,11.5 -22.9,18.2 -28.4,22.2 -12.9,9.5 -23.1,17 -37.1,21 -4.8,1.4 -32.6,9.4 -58.1,-6.2 -16.8,-10.5 -23.8,-26.3 -28.1,-35.8 z" /><path
     id="_x32_"
     class="st0"
     d="m 710.2,692.8 c 1.3,3.1 2.4,7 1.2,23.5 -1.3,18.5 -3.3,21.9 -3.7,30.9 -0.2,5 -1.1,24.7 11.1,42 8,11.3 23,23.4 43.2,24.7 5.2,0.3 26.4,1 42,-14.8 18.3,-18.6 17.5,-48.5 6.2,-66.7 -7.5,-12 -18.8,-17.9 -27.2,-22.2 -12,-6.3 -16.1,-3 -34.6,-9.9 -13.9,-5.2 -22.7,-8.6 -28.4,-17.3 -7.3,-11.1 -5.1,-23.8 -4.9,-24.7 2.8,-13.9 15,-25.1 30.9,-28.4 6,-0.5 22.5,-2.8 35.8,-16.1 5.1,-5.1 19.4,-19.3 14.8,-35.8 -3,-11 -13.3,-18.9 -23.5,-21 -21.1,-4.3 -36,17 -37.1,18.5 -3.7,5.5 -2.5,8.1 -7.4,25.9 -1.9,7 -3,12.6 -7.4,23.5 -6.4,16 -10.3,25.6 -19.8,30.9 -7.6,4.3 -15.1,3.6 -28.4,2.5 -11.5,-1 -20,-3.6 -32.1,-7.4 -20.4,-6.4 -21.1,-9.1 -30.9,-9.9 -7.5,-0.6 -22.3,-1.8 -32.1,8.6 -6.6,7.1 -10.3,18.8 -6.2,29.6 5.3,14 21.2,19.2 32.1,18.5 5.4,-0.4 6.5,-2 28.4,-13.6 20,-10.6 23.6,-11.7 27.2,-12.4 3.7,-0.7 15.3,-2.7 28.4,2.5 5.1,2 17.2,6.8 22.4,18.6 z" /><path
     id="_x31_"
     class="st0"
     d="m 254.4,482.8 c -0.5,-2 -7,-25.7 -29.6,-33.4 -21.2,-7.2 -44.8,3.7 -54.4,21 -4.5,8.1 -5,16.1 -4.9,21 -11,1.9 -24.6,5.1 -39.5,11.1 -13.5,5.4 -24.6,11.6 -33.4,17.3 -3.7,-1 -8.5,-3 -11.1,-7.4 -4.3,-7.1 1.3,-13.6 -2.5,-21 -3.2,-6.2 -12.3,-12 -19.8,-8.6 -7.2,3.2 -10.2,13.7 -6.2,21 3.3,5.9 10,7.2 11.1,7.4 11.2,0.7 17.7,10.3 16.1,17.3 -1,4.2 -8.8,3.5 -14.8,9.9 -4.8,5.1 -6,12 -6.2,17.3 -3.6,-1.5 -13.2,-4.8 -23.5,-1.2 -15.6,5.4 -22.2,23.1 -22.2,35.8 -0.1,17.2 11.7,33.4 29.6,40.8 -1.1,2.6 -3,7.9 -2.5,14.8 0.5,7.2 3.4,12.4 4.9,14.8 -2.9,3.3 -6.7,8.7 -8.6,16.1 -4.8,18.4 5.5,37.4 17.3,46.9 17.9,14.5 47.3,13.8 70.4,-3.7 1.3,2 4.8,6.9 11.1,9.9 4.7,2.2 9.2,2.4 10.3,2.5 0.8,0 1.5,0 2,0 0.8,4.6 1.2,11.1 -2.5,16.1 -3.6,4.9 -8,4.2 -13.6,8.6 -5.6,4.5 -12.1,13.9 -9.9,23.5 2.4,10.2 14.2,18.7 24.7,16.1 9.6,-2.5 14.3,-13.5 14.8,-21 0.5,-7.5 -3.3,-8.8 -3.7,-19.8 -0.2,-4.9 -0.5,-14 4.9,-18.5 4.3,-3.6 10.5,-2.6 12.4,-2.5 9.3,0.9 25.7,-6.9 56.8,-45.7 4.1,-7.2 11,-17 22.2,-24.7 11.2,-7.6 18.8,-7.9 29.6,-13.6 7.2,-3.8 24.5,-13.7 32.1,-32.1 9,-21.9 -1,-43.8 -3.7,-49.4 2.6,-1.9 6.9,-4.4 12.4,-4.9 6.2,-0.7 8.4,1.7 13.6,1.2 7,-0.6 16.4,-5.7 17.3,-13.6 1,-8.6 -8.5,-18.6 -18.5,-17.3 -6.1,0.8 -11.4,5.7 -13.6,12.4 -3.3,5.4 -8.4,8.4 -12.4,7.4 -4.8,-1.2 -6.5,-7.7 -7.4,-11.1 -2.4,-9 0.7,-13.9 1.2,-22.2 0.6,-10.3 -2.9,-21.6 -8.6,-28.4 -12.9,-15.9 -39.8,-10.6 -41.7,-10.1 z" /></g>
</svg>
