<?xml version="1.0" encoding="UTF-8" standalone="no"?>
<!-- Generator: Adobe Illustrator 22.1.0, SVG Export Plug-In . SVG Version: 6.00 Build 0)  -->

<svg
   version="1.1"
   id="Кусок_темной_материи"
   x="0px"
   y="0px"
   viewBox="0 0 842.1 842.2"
   style="enable-background:new 0 0 842.1 842.2;"
   xml:space="preserve"
   sodipodi:docname="dark-matter-chunk.svg"
   inkscape:version="1.2.1 (9c6d41e410, 2022-07-14)"
   xmlns:inkscape="http://www.inkscape.org/namespaces/inkscape"
   xmlns:sodipodi="http://sodipodi.sourceforge.net/DTD/sodipodi-0.dtd"
   xmlns="http://www.w3.org/2000/svg"
   xmlns:svg="http://www.w3.org/2000/svg"><defs
   id="defs12" /><sodipodi:namedview
   id="namedview10"
   pagecolor="#ffffff"
   bordercolor="#111111"
   borderopacity="1"
   inkscape:showpageshadow="0"
   inkscape:pageopacity="0"
   inkscape:pagecheckerboard="1"
   inkscape:deskcolor="#d1d1d1"
   showgrid="false"
   inkscape:zoom="0.69698408"
   inkscape:cx="415.36099"
   inkscape:cy="561.7058"
   inkscape:window-width="1600"
   inkscape:window-height="829"
   inkscape:window-x="0"
   inkscape:window-y="0"
   inkscape:window-maximized="1"
   inkscape:current-layer="Кусок_темной_материи" />
<style
   type="text/css"
   id="style2">
	.st0{stroke:#000000;stroke-width:10;stroke-miterlimit:10;}
</style>




<g
   id="g246"
   transform="matrix(0.7354205,0,0,0.7354205,117.7346,109.9789)"><path
     id="Основа"
     class="st0"
     d="m 101.5,298.7 c -6.6,-5.9 -16.7,-16.3 -24,-32.1 -2.6,-5.6 -16.1,-36 -4.6,-71 9.7,-29.6 36.3,-59.7 75.6,-65.3 33.7,-4.7 67.6,9.9 88.2,37.8 4.6,-7.4 10.2,-15.6 17.2,-24 7.9,-9.6 15.7,-17.6 22.9,-24 1.4,-5.6 2.7,-14 1.1,-24 -3,-19.7 -14.9,-32.3 -19.5,-36.6 -1.8,0.4 -10.7,2.1 -19.5,-3.4 -1.4,-0.9 -9.2,-6 -11.4,-16 -2.1,-9.4 1,-22.1 11.4,-27.5 10.9,-5.6 24.4,-0.3 30.9,9.2 6.2,9.1 5.8,21.6 -1.1,30.9 0.7,5.9 3.8,26.1 20.6,38.9 4.3,3.3 8.7,5.4 12.6,6.9 8.3,-7.4 17.8,-14.8 28.6,-21.8 14.3,-9.2 59.8,-37.9 123.6,-38.9 22.5,-0.4 56.9,-0.9 93.9,19.5 11.7,6.5 53.6,30.4 71,81.3 8,23.5 7.9,44.4 6.9,57.2 9.4,3 22.3,8.3 35.5,18.3 22.6,17.1 33.2,38.3 37.8,49.2 8.1,-3 19.2,-5.6 32.1,-4.6 42.3,3.3 65.8,43.1 68.7,48.1 2.7,5.2 19.2,38.5 4.6,74.4 -13.5,33.1 -48,55.1 -87,55 1.5,12 2.2,30.8 -3.4,52.7 -7.7,29.6 -23.2,49.6 -32.1,59.5 9.5,6.5 22.7,17 34.3,33.2 25.6,35.5 31.7,80.7 22.9,116.8 -14.2,58.2 -69.7,103.7 -138.5,111 -11.6,6.8 -25.8,13.2 -42.4,17.2 -70.8,17 -131.8,-22.2 -147.7,-33.2 -1.4,-0.9 -9.8,-6.2 -19.5,-3.4 -10,2.9 -17.2,13.1 -17.2,25.2 0.3,12 -9.8,21.4 -20.6,20.6 -11.9,-0.8 -20.1,-13.6 -17.2,-24 2.9,-10.3 16.3,-17 28.6,-11.4 1.5,-0.6 16.9,-6.9 20.6,-22.9 2.3,-9.7 -1,-17.8 -2.3,-20.6 -2.7,-7.9 -5.5,-18.9 -5.7,-32.1 -0.1,-6.4 0.4,-12.2 1.1,-17.2 -23.2,2.8 -60.7,4.2 -104.2,-8 -31.8,-8.9 -56.4,-22.2 -73.3,-33.2 -7.3,6.2 -22.5,17.3 -44.6,21.8 -9,1.8 -35.4,7.1 -61.8,-8 C 89.2,677.1 68.2,665.1 60.3,641.3 51.1,613.6 63,580.3 90.1,557.7 78.5,532 72.7,509.5 69.5,493.6 c -4.2,-21.1 -14.9,-78.5 8,-144.2 7.6,-22.5 17.1,-39.6 24,-50.7 z" /><path
     id="_x34_"
     class="st0"
     d="m 660.1,123.6 c -6.6,5.2 -15.4,6.5 -22.9,3.4 -12.1,-5 -13.6,-18.5 -13.7,-19.5 -1.2,-12.7 8.2,-28.3 22.9,-28.6 14.5,-0.3 25.3,14.6 24,27.5 -0.9,9.7 -8.3,15.7 -10.3,17.2 z" /><path
     id="_x33_"
     class="st0"
     d="m 673.9,145.3 c -3.3,-4 -4.2,-9 -2.3,-12.6 3.2,-5.9 14,-6.8 18.3,-1.1 2.8,3.7 2.8,9.9 -1.1,13.7 -4,3.9 -10.6,4 -14.9,0 z" /><path
     id="_x32_"
     class="st0"
     d="m 47.6,334.2 c -2.6,6.5 -8.4,11 -14.9,11.4 -9.3,0.7 -17.4,-6.9 -18.3,-14.9 -1.4,-11.7 12.7,-22.9 22.9,-19.5 7.2,2.5 12.3,12.2 10.3,23 z" /><path
     id="_x31_"
     class="st0"
     d="m 154.1,748.6 c -7.5,2.5 -17.4,-3.9 -20.6,-12.6 -3.3,-8.8 1,-18 6.9,-22.9 5.7,-4.8 15.9,-8.1 21.8,-3.4 6.2,5 3.7,15.8 2.3,21.8 -1.5,6.1 -3.6,14.9 -10.4,17.1 z" /></g>
</svg>
