<?xml version="1.0" encoding="UTF-8" standalone="no"?>
<!-- Generator: Adobe Illustrator 22.1.0, SVG Export Plug-In . SVG Version: 6.00 Build 0)  -->

<svg
   version="1.1"
   id="Буровая_установка-дрель"
   x="0px"
   y="0px"
   viewBox="0 0 842.1 842.2"
   style="enable-background:new 0 0 842.1 842.2;"
   xml:space="preserve"
   sodipodi:docname="drill.svg"
   inkscape:version="1.2.1 (9c6d41e410, 2022-07-14)"
   xmlns:inkscape="http://www.inkscape.org/namespaces/inkscape"
   xmlns:sodipodi="http://sodipodi.sourceforge.net/DTD/sodipodi-0.dtd"
   xmlns="http://www.w3.org/2000/svg"
   xmlns:svg="http://www.w3.org/2000/svg"><defs
   id="defs17" /><sodipodi:namedview
   id="namedview15"
   pagecolor="#ffffff"
   bordercolor="#111111"
   borderopacity="1"
   inkscape:showpageshadow="0"
   inkscape:pageopacity="0"
   inkscape:pagecheckerboard="1"
   inkscape:deskcolor="#d1d1d1"
   showgrid="false"
   inkscape:zoom="0.69698408"
   inkscape:cx="420.38263"
   inkscape:cy="378.05742"
   inkscape:window-width="1600"
   inkscape:window-height="829"
   inkscape:window-x="0"
   inkscape:window-y="0"
   inkscape:window-maximized="1"
   inkscape:current-layer="Буровая_установка-дрель" />
<style
   type="text/css"
   id="style2">
	.st0{fill:none;stroke:#231F20;stroke-width:10;stroke-miterlimit:10;}
	.st1{fill:none;stroke:#000000;stroke-width:10;stroke-miterlimit:10;}
</style>
<path
   id="Искары"
   class="st0"
   d="M334.8,817.1c65.7-33.7,131.5-67.3,197.2-101c-28.3,22.9-56.5,45.7-84.8,68.6  c73,10.5,146.1,21,219.1,31.4C555.8,816.5,445.3,816.8,334.8,817.1z M300.9,817.2c-47-35.3-94-70.5-141-105.8  c21.3,27.3,42.6,54.6,63.8,81.9C173.9,783.2,124,773,74.2,762.9c32.4,14.9,64.8,29.9,97.2,44.8c-49.2,5.4-98.5,3.1-147.7,8.5  L300.9,817.2z"
   style="fill:#ffcc00;fill-opacity:1" />
<path
   id="Бур-корпус"
   class="st0"
   d="M280.5,385.9c-15.5-1.7-37.1-4.7-63.2-10.3c-0.2,0-0.2-0.3,0-0.3  c26.5-5.7,57.6-10,92.4-10.1c67.9-0.3,122,15,155.6,27.3c-3,8.2-6,16.4-8.9,24.7c-0.8-0.4-1.6-0.7-2.4-1.1  c-19.9-8.9-36.5-13-41.5-14.1c-21.9-5.2-39.5-7-59.4-9.4C311.8,387.5,302.6,388.3,280.5,385.9z M213.6,508.5  c32.6,17,140,12.9,194.8,41.2c9.7-26.8,19.4-53.5,29.1-80.3c0,0,3.8-10.6-20.2-29.7c-4.6-4-11.3-9-29.2-16  c-20.4-8-36.8-11.5-53.7-15.1c-39.2-8.2-45.9-9.4-54.7-11.3c-17-3.7-40.2-9.9-67.7-20.7c-21.3,4.9-39.5,10.7-54,16  c12.7,33.4,25.4,66.8,38.1,100.2c0.4,1.1,0.8,2.1,1.2,3.2C200.6,499.4,205.9,504.4,213.6,508.5z M222.4,561.3  c6.9,17.3,17.7,44.6,17.7,44.6s10.4,13.4,15.7,17.9c4.2,3.6,9.1,6.6,14.3,9.4c20,2.9,39.6,5.4,48.1,7.3  c30.5,6.7,41.8,11.2,50.9,17.6c8-22.1,16-44.2,24-66.3c-0.3-2.2-1-5.6-2.5-9.4c-10.9-28.1-49-38.1-81.8-44.7  c-18.6-3.8-63.7-9-103.3-20.1c5.5,14.4,11,28.8,16.5,43.2C222.2,560.9,222.3,561.1,222.4,561.3z M264.8,673.3  c4.2,11.1,8.4,22.1,12.6,33.2c3.1,7.3,8.9,13.4,15.4,18.4c9,1.7,12.2,1.7,12.2,1.7c15.5,2.9,26.9,5.3,35.7,9.9  c5.2-14.3,15.7-43.2,15.7-43.3c0.1-4.4-0.6-10.1-3.2-16c-23.2-24.4-57.7-30.7-83-44c-7.5-1.1-14.9-2.2-21.9-3.4  c5.3,14,10.7,28.1,16,42.1l0,0C264.4,672.4,264.6,672.9,264.8,673.3z M328.4,770.3c1.1-3.1,2.2-6.2,3.4-9.3  c-1.9-14.1-9.9-18.1-9.9-18.1c-4.1-3.5-17.6-9.1-29.1-18c-0.9-0.2-1.8-0.3-2.8-0.6c-2-0.4-4.1-0.8-6.2-1.3  c10.6,27.8,21.1,55.5,31.7,83.3c1.9-5.3,3.8-10.5,5.7-15.8l0,0C323.5,783.9,326,777.1,328.4,770.3z"
   style="fill:#ececec;fill-opacity:1" />
<path
   id="Бур-лезвия"
   class="st0"
   d="M486.6,485.5c-13.5,18-57.4,41.4-73,49.5c7.9-21.9,23.8-65.7,23.8-65.7  s3.8-10.6-20.2-29.7c-4.6-4-11.3-9-29.2-16c-20.4-8-36.8-11.5-53.7-15.1c-39.2-8.2-45.9-9.4-54.7-11.3c-16.1-3.5-37.7-9.3-63.3-19.1  c-1.3-0.5-1.2-2.4,0.2-2.7l0,0c26.5,5.7,48.4,8.7,64,10.5c22.1,2.4,31.3,1.6,72.6,6.6c19.9,2.4,37.5,4.3,59.4,9.4  c5,1.2,21.6,5.2,41.5,14.1c0.8,0.4,1.6,0.7,2.4,1.1c11.4,5.3,16.5,8.9,20.2,12.1C483.5,435.1,507.7,457.5,486.6,485.5z M427.6,563.1  c-5.2-5.2-11.7-9.7-19.2-13.5c-54.8-28.3-162.2-24.1-194.8-41.2c-7.7-4-13-9.1-16.3-12.5c-0.4-1.1-0.8-2.1-1.2-3.2  c-8.7-22.9-17.4-45.8-26.1-68.7c-4.7,1.9-33,14-35.5,36.2c-1,9.5,3,17.1,4.6,19.9c9.5,17.1,36.3,28.9,66.4,37.4  c39.5,11.1,84.7,16.3,103.3,20.1c32.8,6.7,70.9,16.6,81.8,44.7c1.5,3.8,2.5,9.4,2.5,9.4c-6.9,19.1-13.8,38.2-20.7,57.3  c18.8-9.5,34.2-18.4,45.8-25.6c9.6-5.9,16.2-10.4,19.8-18.9C443.1,592.5,440.5,576.1,427.6,563.1z M387,675.3  c-3.9-8.7-11.5-12.6-17.9-17.2c-9.1-6.5-20.4-10.9-50.9-17.6c-8.5-1.9-28.1-4.4-48.1-7.3c24.2,12.7,56.7,19,79.8,40.8  c2.4,2.3,4.1,5.2,4.8,8.4c1.2,5.3,1.4,11,1.4,11c-3.7,10.2-7.4,20.4-11.1,30.5c-0.3,0.8,0.5,1.6,1.3,1.2c7.6-3.3,14.2-6.9,19.8-10.4  c13.4-8.3,20.4-12.5,22.6-20.7C391.3,685.2,388,677.5,387,675.3z M240.1,605.9c0,0-17.9-45-18.2-45.1s-15.2,8.6-20.7,20.3  c-2,4.3-7.1,15.1-2.8,25.5c2,4.8,6.2,10,19.8,16c5.7,2.5,16.9,5,29.9,7.2c7,1.2,14.5,2.4,21.9,3.4c-5.2-2.8-10-5.8-14.3-9.4  C250.5,619.3,240.1,605.9,240.1,605.9z M354,747.9c-3.6-5-8-8.6-13.4-11.4c-8.8-4.6-20.2-7.1-35.7-9.9c0,0-3.2,0-12.2-1.7  c11.5,8.9,25,14.5,29.1,18c0,0,6.1,3.6,8.8,12.5l1.1,5.6c-1.1,3.1-2.2,6.2-3.4,9.3c-2.5,6.8-4.9,13.5-7.4,20.3l0,0  c9.4-3.6,16.3-8.2,20.7-11.6c7.4-5.7,12.7-9.8,14.1-17C357.3,755.4,355.4,749.8,354,747.9z M277.4,706.5L277.4,706.5  c-4.2-11.1-8.4-22.1-12.6-33.2c-0.2-0.5-0.4-1-0.6-1.5c-1.8,0.6-13.2,4.4-17.7,15.7c-0.7,1.9-3.2,8.3-0.9,15.1  c4.1,12.2,21.6,17,38.1,20.4c2.1,0.4,4.2,0.9,6.2,1.3c1,0.2,1.9,0.4,2.8,0.6C286.3,719.9,280.5,713.9,277.4,706.5z"
   style="fill:#cccccc;fill-opacity:1" />
<path
   id="Корпус"
   class="st0"
   d="M251.5,369.2c0-21.6,0-43.2,0-64.8c0-8.9,27.9-16.2,62.3-16.2s62.3,7.3,62.3,16.2  c0,0.6-0.2,1.2-0.4,1.8c0,21.2,0,42.4,0,63.5c-20.1-2.9-42.2-4.7-66-4.6C288.9,365.2,269.4,366.8,251.5,369.2z M307.8,250.1  c-117.3,0-209.3,28.4-209.3,52.9c0,20.2,64.6,37.2,153,42.5c0-13.7,0-27.4,0-41.1c0-8.9,27.9-16.2,62.3-16.2s62.3,7.3,62.3,16.2  c0,0.6-0.2,1.2-0.4,1.8c0,13,0,26,0,38.9c85.7-5.7,147.7-22.4,147.7-42.2C523.4,278.5,425.1,250.1,307.8,250.1z M307.8,250.1  c117.3,0,215.7,28.4,215.7,52.9c0-24.5-58.1-83.4-212.5-83.4c-143,0-212.5,58.9-212.5,83.4C98.5,278.5,190.4,250.1,307.8,250.1z   M310.9,219.6c32.4,0,60.5,2.6,84.8,6.9c0-24.5,0-49.1,0-73.6c-55.3,0-110.5,0-165.8,0c0,24.6,0,49.2,0,73.7  C253.7,222.3,280.7,219.6,310.9,219.6z M698.7,8.1v253.2H538.6V8.1H698.7z M622.5,85.2c0,6.6,5.4,12,12,12h16.1c6.6,0,12-5.4,12-12  V21.5c0-6.6-5.4-12-12-12h-16.1c-6.6,0-12,5.4-12,12V85.2z M662.6,136.5c0-6.6-5.4-12-12-12h-16.1c-6.6,0-12,5.4-12,12v63.7  c0,6.6,5.4,12,12,12h16.1c6.6,0,12-5.4,12-12V136.5z"
   style="fill:#ffffff;fill-opacity:1" />
<path
   id="Элементы"
   class="st0"
   d="M250,152.9c0-37.2,0-74.3,0-111.5c10.2,0,20.3,0,30.5,0c0,37.2,0,74.3,0,111.5  C270.3,152.9,260.1,152.9,250,152.9z M376.1,152.9c0-37.2,0-74.3,0-111.5c-10.2,0-20.3,0-30.5,0c0,37.2,0,74.3,0,111.5  C355.8,152.9,366,152.9,376.1,152.9z M230,162.7c-1.2-0.1-2.3-0.2-3.5-0.2c-13.8,0-25,8.5-25,19.1c0,10.5,11.2,19.1,25,19.1  c1.2,0,2.4-0.1,3.5-0.2C230,187.8,230,175.2,230,162.7z M538.6,161.5c-47.6,0-95.3,0-142.9,0c0,12.7,0,25.4,0,38.1  c47.6,0,95.3,0,142.9,0V161.5z M662.6,200.2v-63.7c0-6.6-5.4-12-12-12h-16.1c-6.6,0-12,5.4-12,12v63.7c0,6.6,5.4,12,12,12h16.1  C657.2,212.2,662.6,206.8,662.6,200.2z M662.6,85.2V21.5c0-6.6-5.4-12-12-12h-16.1c-6.6,0-12,5.4-12,12v63.7c0,6.6,5.4,12,12,12  h16.1C657.2,97.2,662.6,91.8,662.6,85.2z"
   style="fill:#aaeeff;fill-opacity:1" />
<g
   id="Детали">
	<path
   class="st1"
   d="M638.5,212.2c1.3,19,2.2,48.9-1.5,85.1c-4.6,44.8-13,66.9-20.5,109.5c-9.9,55.9-14.3,83.9-9.9,117.9   c2.6,20.2,13.5,104.7,67.7,122.4c15.7,5.1,43.5,8.9,58.6-5.3c5-4.7,11.8-14.4,15.2-26.6c1.8-6.5,2.1-11.5,2.3-15.2   c0,0,0.9-16.1,6.1-51.7c3.4-23.6,6.4-23.7,10.6-47.9c3.1-17.7,3.7-30.8,4.6-47.9c0.7-13.6,1.8-45.8-2.3-96.6   c-1.2-15.4-1.7-17.4-6.8-62.4c-6.5-57-7.1-66.3-10.6-97.3c-6.5-56.1-15.9-84.5-16-119.4c0-0.6,0-1.1,0-35.1c0-12.4,0-24.9,0-37.3"
   id="path9" />
	<path
   class="st1"
   d="M654.8,211.4c-0.3,8.5-0.6,19.6-0.3,32.6c0.1,4.8,0.6,25.6,3.8,54.8c2.1,19.2,4.8,43.6,12.2,74.5   c4.9,20.6,7.4,25.4,9.1,41.1c2,17.5,1,31.2,0,45.6c-1.7,23.9-4.1,25.6-6.8,55.5c-2.1,22.8-1.8,34.1,0,45.6   c2.7,17.2,7.2,25.8,12.2,31.9c3.8,4.7,9.9,12.3,19.8,13.7c10.1,1.4,18.2-4.4,22.8-7.6c3.8-2.7,8-6.5,15.2-17.5   c7.7-11.7,12.4-22,16.7-31.9c9.1-21,14.7-37.3,16-41.1c5.2-15.2,9.1-26.7,12.2-41.1c3.1-14.2,4.8-28.5,5.3-57.8   c0.6-29.2-0.7-38.4-1.5-73.8c-1.2-49.2,0.8-50.2-0.8-89.7c-0.2-6.2-1.3-32.4-4.6-66.9c-3.1-33.7-6.8-59.1-9.1-75.3   c-2.5-17.5-7.8-32.1-9.1-56.3c-0.6-11.5-0.3-21,0-27.4c0-5.3,0-10.7,0-16"
   id="path11" />
</g>
</svg>
