<?xml version="1.0" encoding="UTF-8" standalone="no"?>
<!-- Generator: Adobe Illustrator 22.1.0, SVG Export Plug-In . SVG Version: 6.00 Build 0)  -->

<svg
   version="1.1"
   id="Микрочипы"
   x="0px"
   y="0px"
   viewBox="0 0 842.1 842.2"
   style="enable-background:new 0 0 842.1 842.2;"
   xml:space="preserve"
   sodipodi:docname="circuitry.svg"
   inkscape:version="1.2.1 (9c6d41e410, 2022-07-14)"
   xmlns:inkscape="http://www.inkscape.org/namespaces/inkscape"
   xmlns:sodipodi="http://sodipodi.sourceforge.net/DTD/sodipodi-0.dtd"
   xmlns="http://www.w3.org/2000/svg"
   xmlns:svg="http://www.w3.org/2000/svg"><defs
   id="defs54" /><sodipodi:namedview
   id="namedview52"
   pagecolor="#ffffff"
   bordercolor="#111111"
   borderopacity="1"
   inkscape:showpageshadow="0"
   inkscape:pageopacity="0"
   inkscape:pagecheckerboard="1"
   inkscape:deskcolor="#d1d1d1"
   showgrid="false"
   inkscape:zoom="0.69698408"
   inkscape:cx="313.49353"
   inkscape:cy="471.31636"
   inkscape:window-width="1600"
   inkscape:window-height="829"
   inkscape:window-x="0"
   inkscape:window-y="0"
   inkscape:window-maximized="1"
   inkscape:current-layer="Микрочипы" />
<style
   type="text/css"
   id="style2">
	.st0{fill:none;stroke:#000000;stroke-width:10;stroke-miterlimit:10;}
</style>






<g
   id="g1621"
   transform="matrix(0.84101941,0,0,0.84101941,74.233644,66.442121)"><path
     id="Основа"
     class="st0"
     d="m 703.7,81.5 h -46.2 v 1.2 c 0,20.5 -16.7,37.2 -37.2,37.2 h -28.4 c -20.5,0 -37.2,-16.7 -37.2,-37.2 V 81.5 H 165.3 c -38.7,0 -70.4,31.7 -70.4,70.4 v 42 h 13.3 c 19,0 34.4,15.4 34.4,34.4 v 0 c 0,19 -15.4,34.4 -34.4,34.4 H 95 v 34.9 h 3.6 c 24.4,0 44.1,19.7 44.1,44.1 v 124.1 c 0,24.4 -19.7,44.1 -44.1,44.1 H 95 v 180.3 c 0,38.7 31.7,70.4 70.4,70.4 h 538.4 c 38.7,0 70.4,-31.7 70.4,-70.4 V 151.9 C 774.1,113.2 742.4,81.5 703.7,81.5 Z m -407.8,31.9 c 9.6,0 17.4,7.8 17.4,17.4 0,9.6 -7.8,17.4 -17.4,17.4 -9.6,0 -17.4,-7.8 -17.4,-17.4 0,-9.6 7.7,-17.4 17.4,-17.4 z m 21.3,124.5 c 0,9.6 -7.8,17.4 -17.4,17.4 -9.6,0 -17.4,-7.8 -17.4,-17.4 0,-9.6 7.8,-17.4 17.4,-17.4 9.6,0 17.4,7.7 17.4,17.4 z m -157,344.8 c 9.6,0 17.4,7.8 17.4,17.4 0,9.6 -7.8,17.4 -17.4,17.4 -9.6,0 -17.4,-7.8 -17.4,-17.4 -0.1,-9.6 7.7,-17.4 17.4,-17.4 z m -1.7,136.9 c -12.4,0 -22.5,-10.1 -22.5,-22.5 0,-12.4 10.1,-22.5 22.5,-22.5 12.4,0 22.5,10 22.5,22.4 0,12.4 -10.1,22.6 -22.5,22.6 z m 0,-554.5 c -12.4,0 -22.5,-10.1 -22.5,-22.5 0,-12.4 10,-22.6 22.5,-22.6 12.5,0 22.5,10.1 22.5,22.5 0,12.4 -10.1,22.6 -22.5,22.6 z M 200.9,302 c -9.6,0 -17.4,-7.8 -17.4,-17.4 0,-9.6 7.8,-17.4 17.4,-17.4 9.6,0 17.4,7.8 17.4,17.4 0,9.6 -7.8,17.4 -17.4,17.4 z m 31,58.6 c -9.6,0 -17.4,-7.8 -17.4,-17.4 0,-9.6 7.8,-17.4 17.4,-17.4 9.6,0 17.4,7.8 17.4,17.4 0,9.6 -7.8,17.4 -17.4,17.4 z m 39.7,362.6 c -9.6,0 -17.4,-7.8 -17.4,-17.4 0,-9.6 7.8,-17.4 17.4,-17.4 9.6,0 17.4,7.8 17.4,17.4 0.1,9.6 -7.7,17.4 -17.4,17.4 z m 142.6,0 c -9.6,0 -17.4,-7.8 -17.4,-17.4 0,-9.6 7.8,-17.4 17.4,-17.4 9.6,0 17.4,7.8 17.4,17.4 0,9.6 -7.8,17.4 -17.4,17.4 z M 503.8,593.8 H 286.2 V 376.2 h 217.6 z m 15.1,-257.9 c -9.6,0 -17.4,-7.8 -17.4,-17.4 0,-9.6 7.8,-17.4 17.4,-17.4 9.6,0 17.4,7.8 17.4,17.4 0,9.6 -7.8,17.4 -17.4,17.4 z m 9.2,-107.1 c -9.6,0 -17.4,-7.8 -17.4,-17.4 0,-9.6 7.8,-17.4 17.4,-17.4 9.6,0 17.4,7.8 17.4,17.4 0,9.6 -7.8,17.4 -17.4,17.4 z m 73.2,411 c -9.6,0 -17.4,-7.8 -17.4,-17.4 0,-9.6 7.8,-17.4 17.4,-17.4 9.6,0 17.4,7.8 17.4,17.4 0,9.6 -7.8,17.4 -17.4,17.4 z M 611,397.5 c -9.6,0 -17.4,-7.8 -17.4,-17.4 0,-9.6 7.8,-17.4 17.4,-17.4 9.6,0 17.4,7.8 17.4,17.4 0,9.6 -7.8,17.4 -17.4,17.4 z m 55.2,-167.7 h 54.3 v 387.8 h -54.3 z m 44.6,489.8 c -12.4,0 -22.5,-10.1 -22.5,-22.5 0,-12.4 10.1,-22.5 22.5,-22.5 12.4,0 22.5,10.1 22.5,22.5 0,12.4 -10,22.5 -22.5,22.5 z m 0,-554.5 c -12.4,0 -22.5,-10.1 -22.5,-22.5 0,-12.4 10.1,-22.5 22.5,-22.5 12.4,0 22.5,10.1 22.5,22.5 0,12.4 -10,22.5 -22.5,22.5 z"
     style="fill:#ececec" /><path
     id="Элементы-5"
     class="st0"
     d="m 181,142.5 c 0,12.4 -10.1,22.5 -22.5,22.5 -12.4,0 -22.5,-10.1 -22.5,-22.5 0,-12.4 10.1,-22.5 22.5,-22.5 12.4,0 22.5,10.1 22.5,22.5 z M 710.8,120 c -12.4,0 -22.5,10.1 -22.5,22.5 0,12.4 10.1,22.5 22.5,22.5 12.4,0 22.5,-10.1 22.5,-22.5 0.1,-12.4 -10,-22.5 -22.5,-22.5 z M 158.5,674.5 c -12.4,0 -22.5,10.1 -22.5,22.5 0,12.4 10.1,22.5 22.5,22.5 12.4,0 22.5,-10 22.5,-22.5 0,-12.5 -10.1,-22.5 -22.5,-22.5 z m 552.3,0 c -12.4,0 -22.5,10.1 -22.5,22.5 0,12.4 10.1,22.5 22.5,22.5 12.4,0 22.5,-10.1 22.5,-22.5 0,-12.4 -10,-22.5 -22.5,-22.5 z"
     style="fill:#aa87de" /><path
     id="Элементы-4"
     class="st0"
     d="M 720.5,617.6 H 666.2 V 229.8 h 54.3 z M 503.8,376.2 H 286.2 v 217.6 h 217.6 z"
     style="fill:#ccffaa" /><path
     id="Элементы-3"
     class="st0"
     d="m 419.5,561.1 c -4.7,0 -9.5,0 -14.2,0 -8.3,0 -16.6,0 -24.9,0 -5.6,0 -11.3,0.3 -16.8,-0.5 -11.5,-1.5 -22.4,-7.1 -30.4,-15.5 -8.1,-8.4 -13.1,-19.5 -14.1,-31.2 -0.4,-5.2 -0.2,-10.6 -0.2,-15.8 0,-8.3 0,-16.7 0,-25 0,-5.1 -0.2,-10.2 0.1,-15.2 0.6,-11.7 5.3,-23 13.1,-31.7 7.7,-8.6 18.3,-14.5 29.8,-16.5 5.8,-1 11.7,-0.7 17.5,-0.7 8.3,0 16.5,0 24.8,0 5.1,0 10.2,0 15.4,0 11.2,0 22.3,3.7 31.2,10.5 9.2,7 15.9,17 18.8,28.2 1.7,6.4 1.6,12.8 1.6,19.4 0,8 0,16.1 0,24.1 0,6 0,12 0,17.9 0,10 -2.7,19.8 -8.1,28.3 -6.2,9.7 -15.6,17.2 -26.5,21 -5.5,1.7 -11.3,2.7 -17.1,2.7 z m 238,-478.3 c 0,-3.3 0,-6.7 0,-10 0,-6.4 0,-12.9 0,-19.3 0,-4.4 0,-8.8 0,-13.2 0,-0.6 0.1,-0.5 -0.5,-0.5 -0.9,0 -1.8,0 -2.7,0 -3.8,0 -7.5,0 -11.3,0 -5.6,0 -11.2,0 -16.8,0 -6.6,0 -13.1,0 -19.7,0 -6.6,0 -13.2,0 -19.8,0 -5.7,0 -11.3,0 -17,0 -3.9,0 -7.7,0 -11.6,0 -1,0 -1.9,0 -2.9,0 -0.5,0 -0.5,-0.1 -0.6,0.3 -0.1,0.5 0,1.1 0,1.6 0,0.9 0,1.9 0,2.8 0,2.7 0,5.4 0,8.1 0,6.5 0,12.9 0,19.4 0,3.6 0,7.2 0,10.8 0,8.7 3,17.1 8.6,23.8 5.7,6.9 13.8,11.5 22.6,12.9 4.9,0.8 9.9,0.5 14.9,0.5 5.9,0 11.8,0 17.7,0 6.8,0 13.4,-1.2 19.5,-4.5 7.8,-4.2 14,-11.3 17.1,-19.6 1.7,-4.2 2.5,-8.7 2.5,-13.1 z M 142.7,345.4 c 0,-7 -0.7,-14.3 -3.5,-20.8 -3.6,-8.6 -9.6,-17.1 -18.2,-20.8 -14.2,-6.1 -32.4,-6.1 -37.2,-6.1 -11.1,0 -22.2,0 -33.2,0 0,6.6 0,13.2 0,19.8 0,12 0,24 0,35.9 0,4.5 0,8.9 0,13.4 0,1.2 0,2.4 0,3.6 0,0.2 -0.1,0.7 0,0.8 0,0 0,0.1 0,0.1 0.1,0.1 1,0 1.2,0 0.9,0 1.9,0 2.8,0 12.5,0 25,0 37.5,0 6.2,0 12.5,0 18.7,0 3.1,0 6.1,0 9.2,0 0.4,0 0.7,0 1,-0.1 10.1,-1.6 18.3,-9.7 20.7,-19.5 0.6,-2.1 0.9,-4.2 1,-6.3 z"
     style="fill:#decd87" /><path
     id="Элементы-2"
     class="st0"
     d="m 140.9,354.4 c 0.3,-1 1.8,-0.7 1.8,0.3 v 110.2 c 0,24.9 -20.2,45 -45,45 H 50.6 V 372.2 c 0,-0.5 0.4,-0.9 0.9,-0.9 h 68.9 c 0.2,0.1 15.2,-1.9 20.5,-16.9 z m 1.8,-126.1 v 0 c 0,-19 -15.4,-34.4 -34.4,-34.4 H 50.6 v 68.8 h 57.7 c 19,0 34.4,-15.4 34.4,-34.4 z"
     style="fill:#ececec" /><path
     id="Элементы-1"
     class="st0"
     d="m 218.3,284.5 c 0,9.6 -7.8,17.4 -17.4,17.4 -9.6,0 -17.4,-7.8 -17.4,-17.4 0,-9.6 7.8,-17.4 17.4,-17.4 9.6,0 17.4,7.8 17.4,17.4 z m 77.6,-171.1 c -9.6,0 -17.4,7.8 -17.4,17.4 0,9.6 7.8,17.4 17.4,17.4 9.6,0 17.4,-7.8 17.4,-17.4 0,-9.6 -7.8,-17.4 -17.4,-17.4 z m 3.9,107 c -9.6,0 -17.4,7.8 -17.4,17.4 0,9.6 7.8,17.4 17.4,17.4 9.6,0 17.4,-7.8 17.4,-17.4 0,-9.6 -7.8,-17.4 -17.4,-17.4 z m 228.3,-26.5 c -9.6,0 -17.4,7.8 -17.4,17.4 0,9.6 7.8,17.4 17.4,17.4 9.6,0 17.4,-7.8 17.4,-17.4 0,-9.6 -7.8,-17.4 -17.4,-17.4 z M 611,362.6 c -9.6,0 -17.4,7.8 -17.4,17.4 0,9.6 7.8,17.4 17.4,17.4 9.6,0 17.4,-7.8 17.4,-17.4 0,-9.6 -7.8,-17.4 -17.4,-17.4 z M 518.9,301 c -9.6,0 -17.4,7.8 -17.4,17.4 0,9.6 7.8,17.4 17.4,17.4 9.6,0 17.4,-7.8 17.4,-17.4 0,-9.6 -7.8,-17.4 -17.4,-17.4 z m -287,24.7 c -9.6,0 -17.4,7.8 -17.4,17.4 0,9.6 7.8,17.4 17.4,17.4 9.6,0 17.4,-7.8 17.4,-17.4 0,-9.5 -7.8,-17.4 -17.4,-17.4 z m -71.7,257 c -9.6,0 -17.4,7.8 -17.4,17.4 0,9.6 7.8,17.4 17.4,17.4 9.6,0 17.4,-7.8 17.4,-17.4 0,-9.6 -7.8,-17.4 -17.4,-17.4 z m 111.4,105.6 c -9.6,0 -17.4,7.8 -17.4,17.4 0,9.6 7.8,17.4 17.4,17.4 9.6,0 17.4,-7.8 17.4,-17.4 0,-9.6 -7.7,-17.4 -17.4,-17.4 z m 142.6,0 c -9.6,0 -17.4,7.8 -17.4,17.4 0,9.6 7.8,17.4 17.4,17.4 9.6,0 17.4,-7.8 17.4,-17.4 0,-9.6 -7.8,-17.4 -17.4,-17.4 z M 601.3,605 c -9.6,0 -17.4,7.8 -17.4,17.4 0,9.6 7.8,17.4 17.4,17.4 9.6,0 17.4,-7.8 17.4,-17.4 0,-9.6 -7.8,-17.4 -17.4,-17.4 z"
     style="fill:#999999" /><g
     id="Детали"
     style="stroke:#000000;stroke-opacity:1">
	<path
   class="st0"
   d="m 609,760.6 c 0,24 0,48.1 0,72.1"
   id="path10"
   style="stroke:#000000;stroke-opacity:1" />
	<path
   class="st0"
   d="m 518.9,760.6 c 0,24.1 0,48.1 0,72.2"
   id="path12"
   style="stroke:#000000;stroke-opacity:1" />
	<path
   class="st0"
   d="m 429.7,760.6 c 0,24 0,48.1 0,72.1"
   id="path14"
   style="stroke:#000000;stroke-opacity:1" />
	<path
   class="st0"
   d="m 361.8,81.5 c 0,-23.6 0,-47.2 0,-70.9"
   id="path16"
   style="stroke:#000000;stroke-opacity:1" />
	<path
   class="st0"
   d="m 278.4,81.5 c 0,-23.3 0,-46.6 0,-69.9"
   id="path18"
   style="stroke:#000000;stroke-opacity:1" />
	<path
   class="st0"
   d="m 198,81.5 c 0,-23 0,-46 0,-68.9"
   id="path20"
   style="stroke:#000000;stroke-opacity:1" />
	<path
   class="st0"
   d="m 200.9,270.5 c 1.6,-26.1 3.2,-52.3 4.8,-78.4 0.6,-9.7 6.2,-18.4 14.7,-23.1 19.3,-10.4 38.6,-20.9 58,-31.3"
   id="path22"
   style="stroke:#000000;stroke-opacity:1" />
	<path
   class="st0"
   d="m 312.4,232.7 c 49.7,-25.4 99.4,-50.8 149,-76.2 12.1,-6.2 19.6,-18.6 19.6,-32.1 V 81.5"
   id="path24"
   style="stroke:#000000;stroke-opacity:1" />
	<path
   class="st0"
   d="m 176.6,600.1 c 17.9,1.2 35.7,2.5 53.6,3.7 17.2,1.2 31.1,14.6 32.9,31.7 1.9,17.9 3.7,35.8 5.6,53.7"
   id="path26"
   style="stroke:#000000;stroke-opacity:1" />
	<path
   class="st0"
   d="m 429.7,705.8 c 28.4,-1.1 56.8,-2.2 85.2,-3.2 10.6,-0.4 20.6,-5.1 27.6,-13.1 16.4,-18.5 32.7,-36.9 49.1,-55.4"
   id="path28"
   style="stroke:#000000;stroke-opacity:1" />
	<path
   class="st0"
   d="m 244.5,335.4 c 58.2,-31.3 116.5,-62.5 174.7,-93.8 13,-7 29,-4.1 38.7,6.9 16.8,18.9 33.5,37.9 50.3,56.8"
   id="path30"
   style="stroke:#000000;stroke-opacity:1" />
	<path
   class="st0"
   d="m 542.1,205.5 c 16.1,-1.6 32.2,-3.2 48.2,-4.8 11,-1.1 20.6,7.6 20.6,18.7 v 149"
   id="path32"
   style="stroke:#000000;stroke-opacity:1" />
	<path
   class="st0"
   d="m 345.3,376.2 c 0,-21.7 0,-43.3 0,-65"
   id="path34"
   style="stroke:#000000;stroke-opacity:1" />
	<path
   class="st0"
   d="m 442.3,376.2 c 0,-22 0,-43.9 0,-65.9"
   id="path36"
   style="stroke:#000000;stroke-opacity:1" />
	<path
   class="st0"
   d="m 350.2,593.8 c 0,22.5 0,44.9 0,67.4"
   id="path38"
   style="stroke:#000000;stroke-opacity:1" />
	<path
   class="st0"
   d="m 449.1,593.8 c 0,21.8 0,43.6 0,65.5"
   id="path40"
   style="stroke:#000000;stroke-opacity:1" />
	<path
   class="st0"
   d="m 503.8,526.4 c 21.5,0 43,0 64.5,0"
   id="path42"
   style="stroke:#000000;stroke-opacity:1" />
	<path
   class="st0"
   d="m 503.8,434.3 c 20.8,0 41.7,0 62.5,0"
   id="path44"
   style="stroke:#000000;stroke-opacity:1" />
	<path
   class="st0"
   d="m 286.2,442.1 c -21.3,0 -42.7,0 -64,0"
   id="path46"
   style="stroke:#000000;stroke-opacity:1" />
	<path
   class="st0"
   d="m 286.2,531.3 c -21,0 -42,0 -63,0"
   id="path48"
   style="stroke:#000000;stroke-opacity:1" />
</g></g>
</svg>
