<?xml version="1.0" encoding="UTF-8" standalone="no"?>
<!-- Generator: Adobe Illustrator 22.1.0, SVG Export Plug-In . SVG Version: 6.00 Build 0)  -->

<svg
   version="1.1"
   id="Батарейка-1"
   x="0px"
   y="0px"
   viewBox="0 0 842.1 842.2"
   style="enable-background:new 0 0 842.1 842.2;"
   xml:space="preserve"
   sodipodi:docname="energy-cell.svg"
   inkscape:version="1.2.1 (9c6d41e410, 2022-07-14)"
   xmlns:inkscape="http://www.inkscape.org/namespaces/inkscape"
   xmlns:sodipodi="http://sodipodi.sourceforge.net/DTD/sodipodi-0.dtd"
   xmlns="http://www.w3.org/2000/svg"
   xmlns:svg="http://www.w3.org/2000/svg"><defs
   id="defs10" /><sodipodi:namedview
   id="namedview8"
   pagecolor="#ffffff"
   bordercolor="#111111"
   borderopacity="1"
   inkscape:showpageshadow="0"
   inkscape:pageopacity="0"
   inkscape:pagecheckerboard="1"
   inkscape:deskcolor="#d1d1d1"
   showgrid="false"
   inkscape:zoom="0.69698408"
   inkscape:cx="415.36099"
   inkscape:cy="425.40426"
   inkscape:window-width="1600"
   inkscape:window-height="829"
   inkscape:window-x="0"
   inkscape:window-y="0"
   inkscape:window-maximized="1"
   inkscape:current-layer="Батарейка-1" />
<style
   type="text/css"
   id="style2">
	.st0{fill:none;stroke:#231F20;stroke-width:10;stroke-miterlimit:10;}
</style>


<g
   id="g445"
   transform="matrix(0.84637797,0,0,0.84637797,64.698835,66.858009)"><path
     style="fill:#00ffff;stroke:#000000;stroke-width:11.3386;stroke-dasharray:none;stroke-opacity:1"
     d="M 709.9,262.7 679.6,216.2 C 673,206 660.2,202.7 651.2,208.6 l -13.6,8.9 c 19.4,26.9 37.7,54.5 54.7,82.9 l 12.9,-8.4 c 9.1,-6.1 11.3,-19.3 4.7,-29.3 z"
     id="path853" /><path
     style="fill:#00ffff;stroke:#000000;stroke-width:11.3386;stroke-dasharray:none;stroke-opacity:1"
     d="m 689.7,422.4 v 0 C 641.7,332.8 584.9,247.2 520.9,168.3 v 0 c -6.6,-10 -17.4,-14.7 -23.9,-10.4 L 336.7,265.2 162,381.8 c -6.5,4.3 -6.3,16.2 0.4,26.1 l 4.1,7.3 C 213.9,502 269.2,584.9 331.1,662 v 0 c 6.6,10 17.4,14.7 23.9,10.4 L 502,574 690,448.5 c 6.4,-4.4 6.2,-16.1 -0.3,-26.1 z"
     id="path851" /><path
     style="fill:#999999;fill-opacity:1;stroke:#000000;stroke-width:11.3386;stroke-dasharray:none;stroke-opacity:1"
     d="m 740.9,388.2 v 0 C 695.4,297 638.6,211.4 572.2,134.1 v 0 c -6.6,-10 -19.1,-13.5 -27.6,-7.8 L 497,158 c 6.5,-4.3 17.4,0.4 23.9,10.4 v 0 c 63.8,79 120.6,164.5 168.8,254.1 v 0 c 6.6,10 6.8,21.8 0.4,26.1 l 47.6,-31.7 c 8.2,-5.8 9.8,-18.7 3.2,-28.7 z"
     id="path849" /><path
     style="fill:#999999;stroke:#000000;stroke-width:11.3386;stroke-dasharray:none;stroke-opacity:1"
     d="m 355,672.3 -57.6,38.5 c -8.5,5.7 -20.9,2.1 -27.6,-7.8 v 0 C 205.6,627.6 150.3,544.6 105,456.3 l -3.8,-7.5 c -6.6,-10 -5.2,-23 3.3,-28.7 l 57.6,-38.5 c -6.5,4.3 -6.3,16.2 0.4,26.1 l 4.1,7.3 c 47.5,86.8 102.8,169.7 164.7,246.7 v 0 c 6.5,10.4 17.3,15 23.7,10.6 z"
     id="Батарейка" /><circle
     id="Радиация_1_"
     class="st0"
     cx="429.39999"
     cy="411.5"
     r="119.6"
     style="fill:#e6e6e6;stroke:#000000;stroke-opacity:1" /><path
     id="Радиация"
     class="st0"
     d="m 408.9,433.9 c -14.2,14.4 -28.3,28.8 -42.4,43.4 -24.5,-23 -35.4,-58 -25.5,-91.9 19.6,5.9 39.4,11.6 59,17.5 -3.4,11.3 0.5,23.3 8.9,31 z m 31.3,6.5 c 6.3,19.3 12.3,38.6 18.6,57.9 28.1,-8.9 51.3,-30.6 60.1,-60.6 -19.6,-5.9 -39.4,-11.6 -59,-17.5 -3,9.9 -10.5,17.3 -19.7,20.2 z m 15.4,-115.9 c -17.9,-5.2 -36.2,-4.9 -52.8,-0.2 6.3,19.3 12.3,38.6 18.6,57.9 5.5,-1.5 11.3,-1.6 17.1,0.1 5.2,1.5 9.6,4.2 13.3,7.7 14.2,-14.4 28.3,-28.8 42.4,-43.4 -10.6,-9.9 -23.6,-17.7 -38.6,-22.1 z m -39.1,83.2 c -2.1,7.2 2.2,14.7 9.4,17 7.3,2.1 15,-1.8 17.1,-9.2 2.1,-7.2 -2.2,-14.7 -9.4,-17 -7.3,-2.1 -14.9,1.9 -17.1,9.2 z"
     style="fill:#ffcc00" /></g>
</svg>
