<?xml version="1.0" encoding="UTF-8" standalone="no"?>
<!-- Generator: Adobe Illustrator 22.1.0, SVG Export Plug-In . SVG Version: 6.00 Build 0)  -->

<svg
   version="1.1"
   id="Реголит"
   x="0px"
   y="0px"
   viewBox="0 0 842.1 842.2"
   style="enable-background:new 0 0 842.1 842.2;"
   xml:space="preserve"
   sodipodi:docname="fossil-regolith.svg"
   inkscape:version="1.2.1 (9c6d41e410, 2022-07-14)"
   xmlns:inkscape="http://www.inkscape.org/namespaces/inkscape"
   xmlns:sodipodi="http://sodipodi.sourceforge.net/DTD/sodipodi-0.dtd"
   xmlns="http://www.w3.org/2000/svg"
   xmlns:svg="http://www.w3.org/2000/svg"><defs
   id="defs876" /><sodipodi:namedview
   id="namedview874"
   pagecolor="#ffffff"
   bordercolor="#111111"
   borderopacity="1"
   inkscape:showpageshadow="0"
   inkscape:pageopacity="0"
   inkscape:pagecheckerboard="1"
   inkscape:deskcolor="#d1d1d1"
   showgrid="false"
   inkscape:zoom="0.69698408"
   inkscape:cx="315.64566"
   inkscape:cy="431.14328"
   inkscape:window-width="1600"
   inkscape:window-height="829"
   inkscape:window-x="0"
   inkscape:window-y="0"
   inkscape:window-maximized="1"
   inkscape:current-layer="Реголит" />
<style
   type="text/css"
   id="style865">
	.st0{fill:none;stroke:#000000;stroke-width:10;stroke-miterlimit:10;}
</style>





<g
   id="g245"
   transform="matrix(0.7089066,0,0,0.7089066,129.04088,87.522767)"><path
     id="Камешки"
     class="st0"
     d="m 525.6,828.4 c -14,-1.2 -24.7,-13 -24.7,-27.1 0.1,-16.9 1.1,-35 3.6,-54 1.1,-8.8 2.5,-17.2 4.1,-25.3 12,-2.6 26.4,-4.7 42.6,-5.1 31.2,-0.7 57,5.3 75,11.2 5.9,7.3 13.6,18.4 19.3,33.5 4.4,11.7 6.3,22.3 7.1,30.4 5.6,-2.3 19.7,-7.2 37.5,-4.1 17.5,3.1 28.9,12.2 33.5,16.2 0,0.1 0,0.2 0,0.2 1.6,12.8 -8.4,24.1 -21.3,24.1 H 525.9 c -0.1,0 -0.2,0 -0.3,0 z M 96.7,811.7 c 10.3,-0.3 18.5,-8.8 18.5,-19.1 v 0 c 0,-3.3 -2.1,-6.1 -5.2,-7.1 -3.4,-1.1 -7.3,-2.9 -11,-5.8 -6.7,-5.2 -6.5,-9 -12.2,-15.2 -4.8,-5.2 -13.1,-8.6 -29.4,-15.2 -20,-8.1 -22.3,-7 -23.3,-6.1 -4.1,3.5 0.2,13.1 4.1,28.4 2.5,10 4.1,19.4 5,27.9 0.9,7.7 7.4,13.5 15.2,13.3 12.7,-0.4 25.5,-0.7 38.3,-1.1 z"
     style="fill:#dd55ff" /><path
     id="Основа"
     class="st0"
     d="m 504.6,747.3 c 1.1,-8.8 2.5,-17.2 4.1,-25.3 12,-2.6 26.4,-4.7 42.6,-5.1 3.4,-0.1 6.6,-0.1 9.9,0 -0.2,-27.4 -0.5,-54.8 -0.7,-82.1 48.6,-5.3 84.4,16.7 93.9,40.1 0.3,0.9 1.6,0.8 1.8,-0.1 0.5,-2.3 0.6,-4.6 0.7,-6.5 2.4,-69.8 2,-121.3 0,-135.9 -1.4,-9.9 -5.1,-18.3 -5.1,-18.3 -3.4,-7.7 -7.7,-13.4 -11.2,-17.2 l -61.9,-41.6 c 2.5,-5.7 8.1,-20.9 4.1,-39.5 -2.5,-11.4 -7.6,-19.6 -11.2,-24.4 -2.2,-1.2 -5.1,-2.6 -7.3,-3.8 -9.9,-0.2 -22.3,0.2 -36.3,1.8 -7.1,21.3 -14.2,42.6 -21.3,63.9 L 473.2,432 c -0.1,-7 -0.3,-17.6 0,-30.4 0.3,-17.4 1.1,-23.8 1,-29.4 -0.1,-8.4 -1.9,-19.1 -8.4,-32.1 -7.3,-6.1 -16.5,-12.6 -27.9,-18.1 -1.1,15.3 -4.2,26.9 -4.2,26.9 -5.3,19.8 -7.9,29.7 -14.2,36.5 -11.1,12 -30.6,20.6 -48.7,15.2 -3.9,-1.2 -14,-4.2 -19.3,-13.2 -4,-6.8 -3.6,-14.2 6.1,-45.6 5,-16.4 8.9,-27.2 11.9,-34.5 -3.6,0.1 -11.2,0.8 -26.1,2 -23,1.9 -24.9,2.5 -26.4,3 -6.2,2.3 -18.5,9.4 -26.4,37.5 8,26 23.3,52.7 23.3,52.7 8.2,14.2 14.2,21.9 11.2,26.4 -3.4,4.9 -14.1,0.1 -32.4,2 -11.5,1.2 -20.6,4.6 -26.4,7.1 1.4,-13.2 2.7,-26.4 4.1,-39.5 -14,-4.2 -46.2,-11.7 -83.1,0 -8.8,2.8 -16.5,6.3 -23.2,9.9 5.2,3.9 3.3,5.1 16.1,18.5 17.4,18.2 25.2,20.5 28.4,31.4 3,10.5 -0.7,20 -2,23.3 -7.8,19.8 -31.8,33.8 -53.7,29.4 -15.5,-3.1 -25,-14.3 -27.4,-17.2 -6.3,-7.7 -9,-15.6 -10.1,-20.3 -2.8,-9.7 -6,-18 -9,-24.8 -1.4,0.9 -2.8,1.7 -4.2,2.5 -8.9,5.2 -23.5,13.1 -26.4,27.4 -1.4,7.3 0.7,13.3 2,17.2 3,8.7 6.4,19.6 10.3,33.4 0,0 0,0 0,0 5.4,17.6 10.7,35.2 16.1,52.8 0.4,4.1 1.9,14.9 10.1,20.3 4.8,3.2 10,3.2 15.2,3 9.9,-0.2 23.6,-1 40.6,-3 6.6,16.1 12.2,34.7 5.1,40.6 -2.8,2.3 -5.9,1.3 -14.2,1 -23.7,-0.8 -29.8,6.9 -41.6,4.1 -7.6,-1.8 -14.2,-7.2 -25.3,-25.3 -5.5,-8.9 -12.1,-21 -18.4,-36.5 -0.1,-0.1 -0.3,-0.1 -0.2,0.1 1.2,9 2,16.3 2.4,21.2 0,0 8.8,100.6 16.2,114.6 1.2,2.3 2.4,4.3 3.9,6.4 0,0 1,1.4 2.2,2.7 1.3,1.5 10.5,4.1 25.4,7 7.1,1.3 16.9,3.1 28.6,4.9 9.8,1.5 20.5,2.9 32.1,4.3 11,1 26.1,1.9 44.6,1 3.4,-4.7 11.9,-14.9 26.4,-19.3 4.9,-1.5 9.5,-2 13.2,-2 -0.3,10.4 0.5,25.5 6.1,42.6 3.5,10.8 8,19.6 12.2,26.4 14.5,3 31.6,5.3 50.6,5.9 10.4,-0.3 20.2,-0.5 29.4,-0.6 0,0 0,0 0,0 35.3,-0.6 62,-0.4 80.2,0.8 4.5,0.3 15,1.1 26.4,-4.1 14.4,-6.5 22.6,-19 27,-27.7 0.4,-7.6 1.2,-15.3 2.2,-23.1 z M 345.4,662.1 c -3,3.8 -8.5,3.9 -12.2,4.1 -33.5,1.2 -37.3,6.8 -47.7,1 -4.5,-2.5 -7.7,-6.4 -14.2,-14.2 -6.4,-7.7 -13.4,-16.1 -17.2,-28.4 -2.8,-9 -7.7,-24.5 1,-35.5 5.6,-7.1 15.7,-11 24.3,-9.1 5.5,1.2 8.3,4.3 16.2,12.2 18,18 -12.1,-13.7 27.4,26.4 16.3,16.5 21,21.5 23.3,30.4 2.3,8.5 -0.1,12 -0.9,13.1 z m 143,-99.4 c 2.5,-19.3 21.4,-28.5 27.4,-31.4 21.4,-10.5 41.7,-3.1 44.6,-2 2.5,1 29.2,11.1 29.4,28.4 0.2,13.4 -15.7,22.7 -25.3,28.4 -3.7,2.2 -44.6,25.5 -65.9,6.1 -8.3,-7.5 -11.6,-19.4 -10.2,-29.5 z"
     style="fill:#d3bc5f" /><path
     id="Вкрапления-2"
     class="st0"
     d="m 187.2,398.5 c -8.8,2.8 -16.5,6.3 -23.2,9.9 -0.3,-0.2 -0.7,-0.5 -1.1,-0.8 -0.6,-0.8 -10.1,-13.1 -5.1,-25.3 1.8,-4.2 4.6,-6.8 6.1,-8.1 16.1,-13.6 64.8,-45 69,-47.7 3.8,-1.5 11.1,-4 20.3,-3 11,1.1 18.4,6.3 22.3,9.1 8.1,5.8 12.7,12.8 15.2,17.2 8,26 23.3,52.7 23.3,52.7 8.2,14.2 14.2,21.9 11.2,26.4 -3.4,4.9 -14.1,0.1 -32.4,2 -11.5,1.2 -20.6,4.6 -26.4,7.1 1.4,-13.2 2.7,-26.4 4.1,-39.5 -14.2,-4.3 -46.4,-11.8 -83.3,0 z m -67.9,249.4 c 11.8,2.9 17.9,-4.8 41.6,-4.1 8.3,0.3 11.4,1.3 14.2,-1 7.1,-5.9 1.5,-24.5 -5.1,-40.6 -16.9,2.1 -30.6,2.8 -40.6,3 -5.3,0.1 -10.4,0.2 -15.2,-3 -8.2,-5.4 -9.8,-16.1 -10.1,-20.3 -5.4,-17.6 -10.7,-35.2 -16.1,-52.8 0,0 0,0 0,0 2.2,7.8 4.5,16.6 6.9,26.4 -7.1,6.4 -14.2,12.8 -21.3,19.3 0.6,3.6 1.1,7 1.5,10.3 6.4,15.9 13.2,28.3 18.8,37.4 11.1,18.2 17.8,23.6 25.4,25.4 z m 64.9,133.9 c 6.8,11.9 19.2,14.8 21.3,15.2 39.9,6.3 62.4,12.4 76,17.2 3.4,1.2 10.7,3.9 20.3,3 13.9,-1.3 24.3,-9.3 30.4,-15.2 2.4,-0.1 4.7,-0.1 7,-0.2 -19.1,-0.6 -36.1,-2.9 -50.6,-5.9 -4.1,-6.8 -8.6,-15.6 -12.2,-26.4 -5.6,-17.1 -6.4,-32.2 -6.1,-42.6 -3.7,0.1 -8.2,0.5 -13.2,2 -14.5,4.4 -23,14.6 -26.4,19.3 -18.5,0.9 -33.6,0 -44.6,-1 -7.1,10.7 -7.9,24.1 -1.9,34.6 z m 378.7,-64.9 c 0.2,-5.8 0.3,-11.5 0.5,-17.3 43.1,-9.1 65.9,-12.4 76,-12.2 1.7,0 7,0.3 11.2,-3 2.3,-1.8 3.7,-4.3 4.6,-6.9 -7.6,-24.4 -44.3,-48.3 -94.9,-42.8 0.2,27.4 0.5,54.8 0.7,82.1 0.7,0.1 1.3,0.1 1.9,0.1 z M 473.1,401.5 c -0.3,12.8 -0.1,23.4 0,30.4 l 33.5,21.3 c 7.1,-21.3 14.2,-42.6 21.3,-63.9 14.3,-1.6 26.8,-2.1 36.8,-1.8 0.9,0 1.4,-1.1 0.7,-1.7 -15.9,-14.4 -31.7,-28.7 -47.6,-43.1 -15.5,0.7 -31.1,1.4 -46.6,2 -1.6,-1.5 3,19 3,27.4 0,5.6 -0.7,12.1 -1.1,29.4 z"
     style="fill:#55ddff" /><path
     id="Вкрамдения-1"
     class="st0"
     d="M 115.2,473.5 C 110.3,456.7 104.5,444.4 100,436 c -3.2,-5.9 -6.5,-11.1 -5.1,-17.2 2,-8.6 11.8,-13.2 16.2,-15.2 15.3,-7 36.2,-6.6 51.7,4.1 6.6,4.5 3.5,5 17.2,19.3 17.4,18.2 25.2,20.5 28.4,31.4 3,10.5 -0.7,20 -2,23.3 -7.8,19.8 -31.8,33.8 -53.7,29.4 -15.5,-3.1 -25,-14.3 -27.4,-17.2 -6.3,-7.8 -8.9,-15.7 -10.1,-20.4 z m 449.2,112.6 c 9.7,-5.7 25.5,-15 25.3,-28.4 -0.2,-17.3 -26.9,-27.4 -29.4,-28.4 -2.9,-1.1 -23.3,-8.4 -44.6,2 -6,2.9 -24.9,12.2 -27.4,31.4 -1.3,10.1 1.9,21.9 10.1,29.4 21.4,19.5 62.3,-3.9 66,-6 z m -219,76 c 0.9,-1.1 3.2,-4.6 1,-13.2 -2.3,-8.9 -7.1,-13.9 -23.3,-30.4 -39.5,-40 -9.4,-8.4 -27.4,-26.4 -7.9,-7.9 -10.7,-11 -16.2,-12.2 -8.6,-1.8 -18.8,2.1 -24.3,9.1 -8.7,11 -3.8,26.5 -1,35.5 3.9,12.3 10.8,20.7 17.2,28.4 6.5,7.8 9.7,11.7 14.2,14.2 10.4,5.8 14.1,0.2 47.7,-1 3.6,-0.1 9.1,-0.2 12.1,-4 z m 6.1,-274.8 c 5.3,9 15.3,12 19.3,13.2 18.1,5.4 37.6,-3.2 48.7,-15.2 6.3,-6.8 8.9,-16.7 14.2,-36.5 0,0 7.9,-29.6 3,-56.8 -0.5,-2.8 -1.5,-7.4 -5.1,-11.2 -6.4,-6.7 -16.5,-6.2 -20.3,-6.1 -17,0.7 -28.9,12.6 -32.4,16.2 -3.8,3.9 -8.8,10 -21.3,50.7 -9.7,31.5 -10.1,38.9 -6.1,45.7 z"
     style="fill:#dd55ff" /><path
     id="Дым-2"
     class="st0"
     d="m 689.1,440.1 c 11.4,-17.1 23.4,-52.8 7.1,-71 -5.6,-6.2 -13.1,-8.9 -19.3,-10.1 28.6,-6.5 37.2,-16.3 39.5,-24.3 3.4,-11.6 -6.5,-18.4 -14.2,-45.6 -4.4,-15.4 -8.7,-30.7 -5.1,-47.7 2.5,-11.6 11.8,-23.9 30.4,-48.7 11.4,-15.2 20.2,-24.9 25.3,-42.6 -9,21.9 -41.6,36.2 -65.9,29.4 -9.8,-2.8 -23,-10.3 -23.3,-19.3 -0.1,-3.1 1.4,-5.4 6.2,-10.1 v 0 c -13.7,12.1 -20.6,18.2 -28.5,23.3 -27.3,17.4 -76.3,30.1 -110.5,6.1 -6.6,-4.7 -16.6,-13.4 -24.3,-29.4 -11.1,-2.6 -37.4,-7 -65.9,5.1 -11.9,5 -21,11.6 -27.4,17.2 -22.7,-9 -47.5,-3.9 -61.9,12.2 -13.5,15.1 -12.5,34.2 -12.2,38.5 -3.3,2.4 -33.7,25.3 -33.5,63.9 0.1,10.9 2.6,20.4 5.8,28.1 0,0 0,0 0,0 2,-1.3 3.9,-2.2 5.4,-2.7 1.4,-0.5 3.4,-1.1 26.4,-3 14.8,-1.3 22.5,-1.9 26.1,-2 4.5,-10.8 7.1,-13.9 9.4,-16.2 3.5,-3.6 15.5,-15.5 32.4,-16.2 3.7,-0.2 13.9,-0.6 20.3,6.1 3.6,3.8 4.6,8.3 5.1,11.2 1.8,10.2 1.8,20.7 1.2,29.9 11.4,5.6 20.7,12.1 27.9,18.1 0,0 36.4,3.3 52,2.7 16.5,15 51.5,47.5 53.7,48.6 3.5,4.7 8.7,13 11.2,24.4 4.1,18.6 -1.6,33.8 -4.1,39.5 l 31.5,21.2 c 34.9,-1.4 64.1,-14 79.2,-36.6 z"
     style="fill:#aaeeff" /><path
     id="Дым-1"
     class="st0"
     d="m 817.9,323.4 c 8.3,9.8 8.5,25.4 5.1,36.5 -4.6,14.8 -16.7,24.6 -27.4,28.4 -8.6,3.1 -22.4,4.5 -28.4,5.1 -8.6,0.9 -14.8,0.9 -17.2,5.1 -1.4,2.4 -1.2,5.4 1,12.2 3.8,11.8 8.8,20 10.1,22.3 9.5,16.5 6.8,35.5 6.1,40.6 -2.4,16.8 -11.6,30.2 -17.2,38.5 -7.5,10.9 -13.2,15.4 -15.2,26.4 -0.7,3.6 -2.5,13.6 3,20.3 4.7,5.6 9.7,2.9 20.3,8.1 3.4,1.6 17.9,8.7 20.3,21.3 1.6,8.3 -2.6,16.4 -5.1,21.3 -3.6,7.1 -6.5,8.2 -8.1,14.2 -2,7.2 0,13.1 1,17.2 0,0 2.5,10.1 -1,37.5 -3.9,30.5 -64.7,56.8 -72,59.8 -2.1,5.3 -5.3,11 -10.1,16.2 -9.9,10.8 -22.9,15.3 -34.2,17.1 -0.9,-3.2 -2,-6.6 -3.3,-10 -5.7,-15.1 -13.4,-26.2 -19.3,-33.5 -15.7,-5.1 -37.4,-10.3 -63.4,-11.1 0,0 0,0 0,0 0.2,-5.8 0.3,-11.5 0.5,-17.3 43.1,-9.1 65.9,-12.4 76,-12.2 1.7,0 7,0.3 11.2,-3 2.3,-1.8 3.7,-4.3 4.6,-6.9 -0.4,-1.3 -0.9,-2.5 -1.4,-3.8 0.1,0.3 0.3,0.7 0.4,1 0.3,0.9 1.6,0.8 1.8,-0.1 0.5,-2.3 0.6,-4.6 0.7,-6.5 2.4,-69.8 2,-121.3 0,-135.9 -1.4,-9.9 -5.1,-18.3 -5.1,-18.3 -3.4,-7.7 -7.7,-13.4 -11.2,-17.2 l -29.6,-19.9 c -0.2,-0.2 -0.1,-0.5 0.2,-0.5 34.3,-1.3 63.2,-13.9 78.2,-36.3 11.4,-17.1 23.4,-52.8 7.1,-71 -5.6,-6.2 -13.1,-8.9 -19.3,-10.1 28.6,-6.5 37.2,-16.3 39.5,-24.3 3.4,-11.6 -6.5,-18.4 -14.2,-45.6 -4.4,-15.4 -8.7,-30.7 -5.1,-47.7 2.5,-11.6 11.8,-23.9 30.4,-48.7 11.4,-15.2 20.2,-24.9 25.3,-42.6 1.9,-4.5 2.2,-8.2 2.6,-12.1 0.3,-1.8 0.4,-3.4 0.6,-4.8 0.6,-4 1.8,-8.5 4.9,-14.5 2.3,-4.5 7.2,-13.7 17.2,-20.3 5.8,-3.8 8.4,-3.6 16.2,-7.1 6.3,-2.8 14.9,-7.6 24.3,-16.2 0.3,18.1 -5.1,27.3 -10.1,32.4 -9.5,9.6 -22.6,9.3 -25.3,19.3 -0.7,2.5 0.2,6.8 2,15.2 2.1,9.9 3.2,14.9 6.1,19.3 5.4,8.2 12.3,8 19.3,13.2 11.1,8.3 12.7,23.5 14.2,38.5 2.6,26 -4.3,61.7 -20.3,73 -1.6,1.1 -6.3,4.1 -7.1,9.1 -0.3,1.9 -0.4,5.9 7.1,15.2 6.5,8 9.8,9.1 13.3,13.2 z M 305.8,286.9 c -0.3,-38.6 30.2,-61.5 33.5,-63.9 -0.3,-4.3 -1.3,-23.4 12.2,-38.5 14.3,-16.1 39.1,-21.2 61.9,-12.2 6.4,-5.6 15.5,-12.2 27.4,-17.2 28.5,-12.1 54.8,-7.6 65.9,-5.1 7.7,16 17.7,24.7 24.3,29.4 34.2,24.1 83.2,11.4 110.5,-6.1 7.9,-5 14.8,-11.1 28.5,-23.3 v 0 c 2.6,-2.5 6.2,-5.8 11.1,-10.2 1.4,-1.3 2.7,-2.5 3.9,-3.6 8.8,-8.5 16,-16.1 21.5,-22.1 2.5,-3.5 3.4,-6 4,-8.8 0.9,-4.7 -0.6,-3.4 0,-18.3 0.1,-3.4 0.5,-11.9 2,-23.3 1.6,-12.6 2.6,-13.4 3,-20.3 0.4,-6.8 0,-14.6 -2,-23.3 -4.7,9.7 -8.4,18 -11.2,24.3 -6.2,14.5 -7.6,19.4 -13.2,22.3 -5.9,3.1 -14.8,3.1 -20.3,-2 -6.5,-6 -4.7,-15.8 -4.1,-19.3 1.4,-7.9 6,-13.1 8.1,-15.2 -19.9,-4.9 -31,-1.3 -37.5,3 -5.1,3.3 -5.2,5.7 -14.2,13.2 -9.3,7.7 -15.5,12.9 -24.3,15.2 -7.8,2 -15.6,1 -31.4,-1 -9.6,-1.2 -13.5,-2.5 -18.3,0 -3.6,1.8 -6.2,6 -11.2,14.2 -10.9,17.9 -10.8,17.8 -11.2,18.3 -9.5,11.5 -25,13.4 -31.4,14.2 -8.1,1 -28.6,3.5 -38.5,-9.1 -9,-11.4 -4.6,-29.3 -3,-35.5 1.5,-5.9 2.4,-5.4 6.1,-17.2 C 464,26 462.6,21 462,19.1 459.2,10.9 450.8,4.3 446.8,5.9 c -3,1.2 -2.1,6.1 -5.1,14.2 -2.7,7.4 -6.9,12.8 -10.1,16.2 -8.9,2.9 -15.6,6.8 -20.3,10.1 -5.5,3.9 -23,16.3 -27.4,38.5 -1.6,8.1 -0.9,15.2 0,20.3 0.8,7.4 -2.9,14.3 -9.1,17.2 -7.4,3.4 -14.6,-0.6 -15.2,-1 -6.1,-3.3 -17,-8.2 -31.4,-9.1 -5.9,-0.4 -24.9,-1 -43.6,10.1 -12.7,7.6 -14.6,14.2 -32.4,32.4 -11.9,12.2 -22.6,21 -29.4,26.4 -4.6,0.1 -13.3,1 -22.3,6.1 -2.7,1.5 -18.3,10.6 -22.3,27.4 -3.1,13 4.1,16.7 1,36.5 -1.6,10 -4.3,14.5 -8.1,17.2 -4.4,3.1 -9.3,3.2 -12.2,3 -5.2,-2.6 -18,-8.2 -33.5,-5.1 -8.4,1.7 -14.4,5.3 -17.2,7.1 -11.3,7 -17.4,16.2 -20.3,21.3 -21.6,15.8 -31.3,32.3 -35.5,46.6 -3.7,12.6 -0.3,16.9 -4.1,38.5 -4.9,28 -10.2,33.4 -14.2,55.8 -4,22.3 -8,45 3,67.9 2.7,5.7 13.8,28.8 39.5,36.5 5.3,1.6 10.3,2.3 15,2.4 C 90.3,537.6 89.1,533 87.9,528.8 84,514.9 80.6,504 77.6,495.4 c -1.4,-4 -3.5,-9.9 -2,-17.2 2.8,-14.3 17.5,-22.2 26.4,-27.4 1.4,-0.8 2.8,-1.6 4.2,-2.5 -2.2,-5 -4.3,-9.2 -6.2,-12.7 -3.2,-5.9 -6.5,-11.1 -5.1,-17.2 2,-8.6 11.8,-13.2 16.2,-15.2 15.3,-7 36.2,-6.6 51.7,4.1 -0.6,-0.8 -10.1,-13.1 -5.1,-25.3 1.8,-4.2 4.6,-6.8 6.1,-8.1 16.1,-13.6 64.8,-45 69,-47.7 3.8,-1.5 11.1,-4 20.3,-3 11,1.1 18.4,6.3 22.3,9.1 8.1,5.8 12.7,12.8 15.2,17.2 6,-21.4 21,-34.8 21,-34.8 -3.2,-7.4 -5.7,-16.8 -5.8,-27.8 z"
     style="fill:#d7f4ee" /></g>
</svg>
