<svg style="height: 200px; width: 200px;" xmlns="http://www.w3.org/2000/svg" viewBox="0 0 512 512"><g class="" style="" transform="translate(0,0)"><path d="M318 123.645l-61.5 35.7-61.76-35.7 61.76-35.7zm93.68 54.19l-61.76 35.7 61.76 35.7 61.5-35.7zm-294.39 80.64l61.76 35.7 61.5-35.7-61.5-35.7zm139.52-80.57l-61.76 35.7 61.76 35.7 61.5-35.7zM31 298.365l62 35.69v-71l-62-35.65v71zm373-26l-62 35.69v70.94l62-35.66v-70.97zm-225.11-139.4l-61.76 35.7 61.76 35.7 61.5-35.7zM109 343.305l62 35.69v-70.94l-62-35.69v71zm225.41-120.45l-61.76 35.7 61.76 35.7 61.5-35.7zM249 353.055l-62-35.7v71l62 35.7v-71zm77-35.67l-61 35.67v70.94l61-35.66v-70.95zm8.07-184.5l-61.76 35.7 61.76 35.7 61.5-35.7zm-232.6 44.95l-61.77 35.7 61.76 35.7 61.5-35.7zM481 227.565l-61 35.66v70.94l61-35.66v-70.94zm-286.11 75.93l61.76 35.7 61.5-35.7-61.5-35.7z" fill="#000000" fill-opacity="1" stroke="#ffffff" stroke-width="8" stroke-opacity="1" transform="translate(25.6, 25.6) scale(0.9, 0.9) rotate(0, 256, 256) skewX(0) skewY(0)"></path></g></svg>