<?xml version="1.0" encoding="UTF-8" standalone="no"?>
<!-- Generator: Adobe Illustrator 22.1.0, SVG Export Plug-In . SVG Version: 6.00 Build 0)  -->

<svg
   version="1.1"
   id="Слой_3"
   x="0px"
   y="0px"
   viewBox="0 0 842.1 842.2"
   style="enable-background:new 0 0 842.1 842.2;"
   xml:space="preserve"
   sodipodi:docname="helium3.svg"
   inkscape:version="1.4 (e7c3feb100, 2024-10-09)"
   xmlns:inkscape="http://www.inkscape.org/namespaces/inkscape"
   xmlns:sodipodi="http://sodipodi.sourceforge.net/DTD/sodipodi-0.dtd"
   xmlns="http://www.w3.org/2000/svg"
   xmlns:svg="http://www.w3.org/2000/svg"><defs
   id="defs1022" /><sodipodi:namedview
   id="namedview1020"
   pagecolor="#ffffff"
   bordercolor="#111111"
   borderopacity="1"
   inkscape:showpageshadow="0"
   inkscape:pageopacity="0"
   inkscape:pagecheckerboard="1"
   inkscape:deskcolor="#d1d1d1"
   showgrid="false"
   inkscape:zoom="0.69698408"
   inkscape:cx="413.20886"
   inkscape:cy="451.22982"
   inkscape:window-width="1920"
   inkscape:window-height="1043"
   inkscape:window-x="0"
   inkscape:window-y="0"
   inkscape:window-maximized="1"
   inkscape:current-layer="Слой_3" />
<style
   type="text/css"
   id="style1005">
	.st0{fill:none;stroke:#000000;stroke-width:10;stroke-miterlimit:10;}
	.st1{fill:none;}
	.st2{font-family:'FranklinGothic-Medium';}
	.st3{font-size:140px;}
	.st4{letter-spacing:3;}
</style>



<path
   id="Основа"
   class="st0"
   d="m 497.87394,620.58608 c 47.79869,-5.20318 90.57058,-10.58274 125.4936,-41.36086 -29.45528,72.05079 -97.8903,122.23059 -194.81052,122.23059 -91.2761,0 -159.62293,-47.18136 -191.28295,-115.70457 31.30726,26.01589 75.40199,33.51199 116.05734,36.24587 47.79869,3.17482 96.83203,3.79214 144.54253,-1.41103 z M 405.71595,486.53809 c 12.61109,0.17638 25.13399,0.17638 37.74509,-0.0882 12.5229,-0.26457 25.04581,-0.70552 37.56871,-1.32284 12.5229,-0.70552 25.04581,-1.58741 37.48052,-2.82206 10.40636,-0.97009 20.81272,-1.94017 31.21907,-3.26301 10.40636,-1.32285 20.81272,-2.91026 30.9545,-5.20318 9.96541,-2.29293 19.75444,-5.20318 29.19072,-9.2599 4.67404,-2.02835 9.1717,-4.23309 13.58117,-6.79059 2.20474,-1.32284 4.32129,-2.64568 6.43783,-4.05671 1.05828,-0.70552 2.11655,-1.49922 3.08664,-2.20474 0.52913,-0.35276 1.05827,-0.7937 1.58741,-1.23465 0.17638,-0.17638 0.52913,-0.35276 0.70551,-0.52914 0.26457,-0.35275 0.17638,-0.61732 0.0882,-1.05827 -1.94017,-10.49455 -4.67404,-20.9009 -8.20162,-30.9545 -3.43939,-9.78903 -7.67248,-19.31349 -12.69928,-28.4852 -4.93861,-8.90713 -10.58274,-17.46151 -16.93238,-25.31038 -1.58741,-1.94016 -3.17482,-3.88033 -4.85042,-5.73231 -3.26301,5.73231 -6.61421,11.46463 -10.0536,17.19695 -1.85198,3.08663 -3.70396,6.08507 -5.64412,9.1717 -0.26457,0.44095 -0.26457,0.44095 0.17638,0.7937 0.26456,0.17638 0.61732,0.44095 0.88189,0.70552 0.52914,0.44095 1.05827,0.97008 1.58741,1.49922 0.97008,1.05827 1.85198,2.11655 2.55749,3.3512 2.20474,3.70396 2.91026,8.20162 1.58742,12.34653 -1.6756,5.11498 -5.82051,8.99532 -11.20007,9.78903 -4.76223,0.7937 -10.14179,-0.35276 -14.46307,-2.29293 -4.40947,-1.94017 -8.20162,-4.93861 -11.46463,-8.46619 -2.11655,-2.38111 -4.05671,-4.93861 -5.90869,-7.58429 -2.82207,-4.05672 -5.11499,-8.64257 -5.99689,-13.49299 -0.7937,-4.58585 -0.0882,-9.78903 2.11655,-13.93394 1.05827,-1.94016 2.73387,-3.70395 4.93861,-4.23309 2.46931,-0.61733 5.0268,0.35276 7.05516,1.76379 1.14646,0.7937 2.20473,1.85198 3.08663,2.99844 2.99844,-5.8205 5.90869,-11.64101 8.90713,-17.5497 1.49923,-2.91025 2.99845,-5.82051 4.49767,-8.73076 0.70551,-1.41103 1.41103,-2.82206 2.11654,-4.23309 0.17638,-0.35276 0.35276,-0.70552 0.52914,-1.05828 0.0882,-0.0882 0.26457,-0.35275 0.26457,-0.44094 0,-0.26457 0,-0.17638 -0.26457,-0.35276 -0.44095,-0.44095 -0.97008,-0.79371 -1.49922,-1.14646 -8.02524,-5.99689 -16.49143,-11.28826 -25.39857,-15.78592 -9.43627,-4.85042 -19.2253,-8.90713 -29.2789,-12.17014 -10.75911,-3.52758 -21.7828,-6.17327 -32.89467,-8.20163 -1.49922,-0.26456 -2.91025,-0.44094 -4.49766,-0.44094 -1.6756,0 -3.26301,0 -4.93861,0 -3.26301,0 -6.61421,0 -9.87722,0 -6.61421,0 -13.14023,0 -19.75444,0 -13.14023,0 -26.19227,0 -39.3325,0 -3.26301,0 -6.61421,0 -9.87722,0 -1.6756,0 -3.26301,0 -4.93861,0 -1.49922,0 -2.99844,-0.26457 -4.40947,0 -5.99689,1.05827 -11.99377,2.20473 -17.81428,3.70396 -11.11187,2.73387 -22.13555,6.34964 -32.71829,10.8473 -10.67092,4.58585 -20.98909,10.0536 -30.68993,16.40324 -2.46931,1.6756 -4.93861,3.3512 -7.40792,5.20318 -0.61732,0.44095 -1.41103,0.88189 -1.85197,1.41103 -0.17638,0.26457 -0.17638,0.0882 -0.17638,0.35276 0,0.0882 0.17638,0.35275 0.26457,0.44094 0.17637,0.44095 0.44094,0.79371 0.61732,1.23466 0.70552,1.49922 1.49922,2.91025 2.20474,4.40947 2.99844,5.8205 5.99688,11.7292 8.90713,17.5497 1.41104,2.82207 2.91026,5.64413 4.32129,8.46619 2.99844,-3.88033 8.99532,-7.14334 13.22842,-3.17482 1.58741,1.49922 2.55749,3.52758 3.17482,5.55594 0.70551,2.20473 1.23465,4.58585 1.23465,6.87878 0.0882,8.81894 -5.11499,16.57961 -10.49455,23.10564 -2.82206,3.43938 -6.08507,6.52602 -9.87722,8.73075 -4.23309,2.5575 -9.25989,3.96853 -14.1985,4.2331 -5.64413,0.26456 -10.93549,-2.29293 -13.66937,-7.31973 -1.94016,-3.61577 -2.38111,-7.76067 -1.14646,-11.64101 0.8819,-2.64568 2.38112,-5.0268 4.32128,-6.96697 0.44095,-0.52913 0.97009,-0.97008 1.49923,-1.41103 0.26456,-0.17638 0.61732,-0.44094 0.88189,-0.70551 0.0882,-0.0882 0.35276,-0.17638 0.35276,-0.26457 0,-0.0882 -0.52914,-0.79371 -0.52914,-0.8819 -0.97008,-1.49922 -1.85198,-2.99844 -2.82206,-4.58585 -3.52758,-5.8205 -7.05516,-11.64101 -10.40636,-17.5497 -0.7937,-1.32284 -1.58741,-2.73387 -2.29292,-4.05672 -6.87878,7.67249 -13.14023,15.87411 -18.60798,24.60486 -5.55594,8.81895 -10.31817,18.16703 -14.28669,27.77968 -4.05672,9.87722 -7.31973,20.1072 -9.78904,30.51356 -0.61732,2.64568 -1.23465,5.29137 -1.76378,8.02524 -0.26457,1.41103 -0.52914,2.73387 -0.79371,4.14491 -0.0882,0.26456 -0.0882,0.61732 -0.17638,0.88189 -0.0882,0.44095 0,0.44095 0.26457,0.79371 0.44095,0.35275 0.88189,0.70551 1.32284,1.05827 3.52758,2.82206 7.23154,5.29137 11.02368,7.67248 7.76068,4.67404 16.05049,8.378 24.60487,11.37644 8.81894,3.08663 17.90246,5.29137 27.16235,6.96697 9.43627,1.76379 19.04892,2.91025 28.66158,3.61577 9.70084,0.7937 19.40168,1.14646 29.19071,1.32284 9.52446,0.17638 19.13711,0.17638 28.74976,0.0882 9.08352,-0.0882 18.16703,-0.17638 27.25055,-0.0882 2.4693,0.0882 4.58585,0.0882 6.7024,0.0882 z m 58.29323,-247.37145 c -3.26301,-8.28981 -6.61421,-16.57962 -9.87722,-24.86943 0,-34.74664 0,-69.49329 0,-104.23994 -17.37332,0 -34.74665,0 -52.11997,0 0,34.39389 0,68.87597 0,103.26986 -3.26301,8.378 -6.52602,16.84419 -9.78903,25.22219 6.61421,0.35276 20.1072,1.23465 39.15612,1.23465 13.66937,0.17638 25.04581,-0.26457 32.6301,-0.61733 z M 449.36973,85.716975 c 0,-4.762231 0,-9.524462 0,-15.433156 -4.23309,-1.58741 -10.40635,-3.439389 -17.99065,-3.792147 -10.40636,-0.529137 -18.78435,1.851979 -23.72296,3.703957 0,5.114989 0,10.229978 0,15.256778 13.93393,0.08819 27.86787,0.176379 41.71361,0.264568 z"
   style="fill:#afe9dd" /><path
   id="Под_надпись"
   class="st0"
   d="m 635.53769,449.5867 c -32.45372,25.48676 -76.28389,28.92615 -117.55656,32.80649 -37.12776,3.52757 -74.87285,4.76223 -112.26518,4.1449 -58.11686,-0.88189 -137.22281,6.7024 -184.66874,-32.45372 -2.20474,12.96385 -3.3512,26.36865 -3.3512,40.21439 0,32.80648 6.79059,63.84917 19.57806,91.36429 31.30726,26.01589 75.40199,33.51199 116.05734,36.24587 47.79869,3.17482 96.83203,3.79214 144.54253,-1.32284 47.79869,-5.20318 90.57058,-10.58274 125.4936,-41.36086 10.58274,-25.92771 16.13868,-54.58928 16.13868,-84.83827 -0.0882,-15.52134 -1.41104,-30.51355 -3.96853,-44.80025 z"
   style="fill:#ffe680" /><path
   id="Элементы"
   class="st0"
   d="m 635.97864,720.24017 c -0.97009,2.73387 -2.38112,5.8205 -4.49766,8.90714 -5.9087,9.08351 -13.93394,13.49298 -19.93082,16.57961 -22.92926,11.90558 -43.21284,18.25522 -43.21284,18.25522 -12.61109,4.32129 -29.54347,9.34809 -49.82705,13.31661 -6.08507,1.14647 -27.95606,5.20318 -60.67435,6.61421 -48.15145,2.02836 -85.10283,-2.91025 -98.86039,-5.0268 -27.69149,-4.23309 -48.59239,-9.96541 -57.32315,-12.43471 -22.75288,-6.52602 -34.39389,-10.22998 -45.68214,-15.78592 -7.49611,-3.70395 -14.46307,-6.26145 -21.60642,-12.43471 -6.34964,-5.46775 -10.58274,-11.46463 -13.49299,-16.40324 -1.41103,-2.46931 -1.05827,-5.64413 0.97008,-7.67248 7.23154,-7.23154 14.37489,-14.37489 21.60642,-21.60642 7.84887,-7.93705 13.4048,-13.84575 17.46152,-18.25522 2.4693,-2.64569 5.20318,-5.73232 9.96541,-7.49611 5.20318,-1.85197 9.78903,-1.14646 11.64101,-0.7937 5.11498,0.7937 12.69928,1.23465 24.07572,0.7937 33.15924,21.87099 74.43191,34.65846 121.96603,34.65846 47.18136,0 87.57214,-11.90557 120.11405,-32.45372 7.14334,-0.17638 14.28669,-0.35276 21.43004,-0.52914 2.20473,0 5.8205,0.17638 9.96541,1.6756 5.73231,2.02836 9.34808,5.37956 10.75911,6.61421 6.26145,5.64413 21.87099,18.60798 43.30103,36.33406 2.02836,1.76379 2.82206,4.58586 1.85198,7.14335 z M 384.81504,297.72445 c 34.12933,0 68.34684,0 102.47616,0 -7.76067,-19.48987 -15.52134,-39.06794 -23.28202,-58.55781 -7.58429,0.35276 -18.96073,0.79371 -32.6301,0.70552 -19.04892,-0.0882 -32.45372,-0.97008 -39.15612,-1.23465 -7.49611,19.40168 -14.99221,38.71517 -22.48831,58.11685 5.0268,0.35276 10.05359,0.61733 15.08039,0.97009 z m 8.64257,-187.66718 c 23.37021,0 46.74042,0 70.19882,0 0,-8.20162 0,-16.403243 0,-24.604863 -23.37021,0 -46.74042,0 -70.19882,0 0,8.20162 0,16.403243 0,24.604863 z m 183.3459,274.88656 c 19.66625,-31.48364 32.54191,-57.32315 37.92147,-72.05079 2.91025,-8.02525 4.85042,-16.13868 3.79214,-25.57495 -0.61732,-5.8205 -2.29292,-10.67092 -3.79214,-14.1985 -8.55438,-6.34964 -17.02057,-12.6111 -25.57495,-18.96074 -2.99844,0 -7.4961,0.52914 -12.34652,2.82207 -7.23154,3.52757 -11.02369,9.52446 -13.22842,13.22841 -12.52291,20.54815 -23.10564,39.94983 -26.45684,46.12309 5.29137,2.5575 10.93549,5.55594 16.93238,9.2599 5.37955,3.3512 10.22997,6.7024 14.55126,9.96541 -5.46775,10.75911 -10.9355,21.51823 -16.40324,32.36553 -2.91026,-3.70396 -6.96697,-5.64412 -10.40636,-4.76223 -4.58585,1.23465 -5.99688,6.87878 -6.61421,9.43627 -2.82206,11.02369 5.0268,21.25366 7.58429,24.60486 2.73388,3.61577 9.34809,12.78748 20.81272,15.16859 3.3512,0.70552 9.78903,2.02836 15.16859,-1.85198 4.67404,-3.43939 5.55593,-8.64257 5.64412,-9.43627 0.8819,-6.08507 -2.11655,-12.34653 -7.58429,-16.13867 z m -301.78435,16.05048 c 0.0882,0.79371 1.05828,6.08507 5.64413,9.43627 5.37955,3.96853 11.81739,2.5575 15.16859,1.85198 11.55281,-2.38111 18.07884,-11.55282 20.81271,-15.16859 2.55749,-3.43939 10.31817,-13.66936 7.58429,-24.60486 -0.61732,-2.55749 -2.11654,-8.28981 -6.61421,-9.43627 -3.43939,-0.88189 -7.4961,0.97008 -10.40635,4.76223 -5.46775,-10.75911 -10.9355,-21.51823 -16.40324,-32.36553 4.32128,-3.26301 9.1717,-6.61421 14.55126,-9.96541 5.90869,-3.61577 11.64101,-6.7024 16.93237,-9.2599 -3.3512,-6.08507 -13.93393,-25.57494 -26.36865,-46.12308 -2.29292,-3.70396 -5.99688,-9.70085 -13.22842,-13.22842 -4.76223,-2.38112 -9.34808,-2.82207 -12.34652,-2.82207 -8.55438,6.34964 -17.02057,12.6111 -25.57494,18.96074 -1.49923,3.52758 -3.17483,8.378 -3.79215,14.1985 -1.05828,9.43627 0.88189,17.5497 3.79215,25.57495 5.37955,14.72764 18.25521,40.56715 37.92146,72.05079 -5.64412,3.88033 -8.64256,10.14179 -7.67248,16.13867 z"
   style="fill:#37c8ab" /><g
   id="Детали"
   transform="matrix(0.88189464,0,0,0.88189464,57.279379,55.29161)">
	<path
   class="st0"
   d="m 579.7,317.9 c 6.2,-13 12.5,-26 18.7,-38.9 5.2,-8.1 5,-12.5 3.8,-15.1 0,0 -0.5,-1.1 -6.6,-7.5 v 0 0 c -3.5,0.6 -6.9,1.3 -10.4,1.9"
   id="path1010" />
	<path
   class="st0"
   d="m 280.6,348.8 c -5.3,-10.4 -10.5,-20.7 -15.8,-31.1 -7.2,-13.6 -14.4,-27.1 -21.5,-40.7 -3,-7.1 -2.3,-10.9 -0.9,-13.2 2,-3.3 7.5,-6.6 7.5,-6.6 v 0 0"
   id="path1012" />
	<rect
   x="276.29999"
   y="513"
   class="st1"
   width="532.29999"
   height="237.39999"
   id="rect1014" />
	<text
   transform="translate(276.2986,606.4487)"
   class="st2 st3 st4"
   id="text1016">HE-3</text>
</g>
</svg>
