<?xml version="1.0" encoding="UTF-8" standalone="no"?>
<svg
   width="512pt"
   height="512pt"
   version="1.1"
   viewBox="0 0 512 512"
   id="svg2"
   sodipodi:docname="higgs-boson.svg"
   inkscape:version="1.4 (e7c3feb100, 2024-10-09)"
   xmlns:inkscape="http://www.inkscape.org/namespaces/inkscape"
   xmlns:sodipodi="http://sodipodi.sourceforge.net/DTD/sodipodi-0.dtd"
   xmlns="http://www.w3.org/2000/svg"
   xmlns:svg="http://www.w3.org/2000/svg">
  <defs
     id="defs2" />
  <sodipodi:namedview
     id="namedview2"
     pagecolor="#ffffff"
     bordercolor="#000000"
     borderopacity="0.25"
     inkscape:showpageshadow="2"
     inkscape:pageopacity="0.0"
     inkscape:pagecheckerboard="0"
     inkscape:deskcolor="#d1d1d1"
     inkscape:document-units="pt"
     inkscape:zoom="0.17920737"
     inkscape:cx="800.7483"
     inkscape:cy="800.7483"
     inkscape:window-width="1920"
     inkscape:window-height="1043"
     inkscape:window-x="0"
     inkscape:window-y="0"
     inkscape:window-maximized="1"
     inkscape:current-layer="svg2" />
  <g
     id="g2"
     transform="matrix(0.3567353,0,0,0.3567353,41.960604,41.955538)">
    <path
       d="m 595.19,435.99 c 3.7578,-56.746 28.211,-107.66 73.219,-151.96 10.051,-7.2148 18.715,-7.0547 25.996,0.48047 7.2773,7.5352 7.0312,15.93 -0.74219,25.176 -59.051,58.125 -76.473,127.26 -52.758,210.13 4.0352,2.0625 7.8906,4.418 11.543,7.043 l -0.51953,-4.875 c 63.723,-6.8203 104.83,-23.297 123.88,-47.746 10.973,-12.125 20.582,-15.008 28.82,-8.6523 8.2383,6.3555 8.0977,16.617 -0.42187,30.777 -23.527,30.195 -65.758,49.312 -126.3,58.559 3.0312,5.2344 5.5547,10.801 7.4961,16.633 l 370.10999,-123.36 26.48,4.5273 -19.465,18.422 -375.81999,104.69 c 0.71875,2.582 1.3281,5.2148 1.8164,7.8867 l 383.67999,-70.656 25.59,8.1719 -21.836,15.535 -386.74999,51.367 c 0.12891,0.97266 0.24219,1.9492 0.33984,2.9297 66.867,14.215 126.08,45.527 177.3,93.867 9.7188,10.309 10.664,19.629 2.832,27.953 -7.8281,8.3242 -17.008,7.7344 -27.539,-1.7734 -45.352,-42.801 -97.352,-70.785 -156.3,-84.012 -0.64844,2.0625 -1.3711,4.0938 -2.1641,6.0898 55.121,93.316 132.66,123.84 237.26,93.602 15.781,-5.1328 25.363,-1.9922 28.734,9.4258 3.3711,11.418 -2.875,19.805 -18.738,25.16 -115,33.242 -206.16,0.75781 -269.42,-95.688 -5.0234,4.707 -10.582,8.8438 -16.582,12.305 31.27,100.06 24.629,195.67 -20.023,285.84 -7.0156,12.309 -15.652,15.938 -25.902,10.883 -10.25,-5.0547 -12.371,-14.008 -6.3594,-26.855 40.375,-81.535 46.449,-167.38 18.121,-258.5 -3.5352,0.41797 -7.1289,0.63672 -10.777,0.63672 -16.523,0 -32.008,-4.4531 -45.316,-12.223 -74.715,35.34 -114.45,92.23 -120.85,172.63 -2.0859,11.898 -8.3555,17.484 -18.809,16.75 -10.4535,-0.734 -16.145,-7.2656 -17.078,-19.602 7.0508,-88.629 50.316,-154.46 128.39,-195.83 -4.9688,-7.0703 -8.9492,-14.883 -11.738,-23.246 l -370.12,123.34 -26.355,-4.125 19.34,-18.824 375.81,-104.71 c -0.71484,-2.5703 -1.3164,-5.1836 -1.8008,-7.8359 l -383.69,70.629 -25.527,-7.7539 21.773,-15.953 386.74,-51.395 c -0.51172,-3.875 -0.77344,-7.8242 -0.77344,-11.84 0,-36.871 22.172,-68.562 53.91,-82.473 -45.422,-91.508 -117.98,-126.88 -221.64,-108.36 -16.234,3.457 -25.434,-0.67187 -27.594,-12.379 -2.1602,-11.707 4.9297,-19.395 21.266,-23.062 93.824,-16.754 168.26,6.3516 221.37,68.207 -58.262,-100.93 -160.19,-162.51 -307.3,-185.38 -11.648,-3.1562 -16.625,-9.875 -14.938,-20.156 1.6875,-10.277 8.5117,-15.418 20.469,-15.418 163.33,25.387 277.11,97.293 339.64,215.01 z M 599.9986,654 c 29.824,0 54,-24.176 54,-54 0,-29.824 -24.176,-54 -54,-54 -29.824,0 -54,24.176 -54,54 0,29.824 24.176,54 54,54 z m -65.898,-86.508 c -8.293,1.9883 4.2227,24.559 -3.957,26.258 -145.06,30.184 -273.42,14.801 -428.52,-66.605 -9.8125,-6.5742 -12.25,-14.812 -7.3203,-24.707 4.9766,-8.5391 12.996,-10.93 24.051,-7.168 147.88,77.617 268.26,91.926 406.25,62.863 6.8984,-1.4531 14.52,8.1562 9.4961,9.3594 z m 113.7,-18.418 c -8.1328,12.309 -34.141,-13.34 -24.871,-27.762 72.512,-112.87 101.49,-227.32 85.523,-387.49 0.65625,-11.656 5.875,-18.195 15.66,-19.613 11.02,-0.86328 17.742,4.4844 20.164,16.043 17.215,172.68 -15.816,296.75 -96.477,418.82 z m -95.602,113.28 c 9.5352,-14.801 39.746,4.8203 30.773,18.699 -73.277,113.4 -102.61,228.18 -86.57,389.11 -0.65625,11.656 -5.875,18.195 -15.656,19.613 -11.023,0.8633 -17.746,-4.4844 -20.168,-16.043 -16.863,-169.17 14.5,-291.69 91.621,-411.38 z"
       id="path1" />
    <path
       d="m 810.53,375.66 c 0.48438,-5.9805 -0.63672,-7.5977 -4.457,-8.5508 -3.8594,-0.96484 -5.1211,-0.1875 -6.9141,4.5977 -20.402,78.617 -69.039,129.92 -146.42,154.34 l -3.1758,1 -3.2344,-0.77734 c -9.3125,-2.2305 -18.418,-4.7188 -27.324,-7.457 l -10.719,-3.3008 2.5703,-10.922 c 25.625,-108.79 -11.801,-192.62 -111.46,-249.88 -9.7422,-5.0391 -12.961,-4.625 -15.16,-0.74609 -2.0156,3.5586 -0.95703,5.75 8.7188,10.898 94.125,54.07 129.77,131.27 107.17,232.88 l -3.0938,13.914 -13.184,-5.4219 c -123.13,-50.637 -201.22,-156.38 -235.13,-317.46 -1.832,-5.375 -3.0781,-6.0859 -6.7461,-5.2852 -3.9297,0.85938 -5.125,2.3945 -4.9414,8.0195 40.246,190.84 142.08,306.32 304.61,345.99 l 7.0547,1.7188 c 85.508,-24.023 139.58,-78.926 161.84,-163.55 z M 588.41,495.13 c 0.73047,-3.2812 1.3984,-6.5352 2,-9.7578 l 2.5664,-1.3398 c -0.72266,-0.29688 -1.4414,-0.59375 -2.1562,-0.89453 16.16,-90.465 -18.012,-158.57 -103.84,-207.88 -14.66,-7.7852 -19.055,-16.859 -13.184,-27.215 5.8711,-10.359 16.242,-11.691 31.113,-4 104.73,60.164 144.46,149.35 117.62,263.3 8.6641,2.6641 17.523,5.0859 26.59,7.2578 73.496,-23.195 119.07,-71.355 138.42,-145.91 4.1211,-11.355 11.266,-15.762 21.43,-13.227 10.168,2.5352 14.641,9.9609 13.414,22.27 -24.211,93.285 -85.676,152.81 -182.26,176.78 l -1.332,-5.3672 c -167.7,-40.93 -272.74,-160.62 -313.71,-356.14 -0.62891,-11.941 4.1484,-19.023 14.324,-21.246 10.176,-2.2227 17.145,2.3984 20.91,13.863 32.039,152.91 104.05,253.89 216.86,304.68 -0.16016,0.74219 -0.32031,1.4844 -0.48438,2.2266 l 2.5234,-1.3164 c 3.0352,1.3438 6.0977,2.6523 9.1875,3.9219 z m -51.742,149.64 c -67.191,73.758 -148.11,113.63 -242.83,119.68 -8.1133,0.70312 -9.418,1.9297 -9.1367,6.1953 0.28906,4.4258 2.0078,5.7852 9.9961,5.7773 97.977,-6.3477 181.77,-47.645 251.05,-123.8 z m -241.56,143.65 c -14.168,0.0781 -21.629,-5.5859 -22.375,-16.992 -0.75,-11.402 5.9453,-17.715 20.078,-18.934 95.434,-6.1016 176.05,-47.395 242.75,-124.55 l 27.234,23.543 c -72.914,84.34 -162.45,130.2 -267.68,136.93 z m 7.7266,-242.75 c -4.8906,3.4727 -5.4102,5.375 -3.6836,8.9141 1.7422,3.5742 3.1484,4.0391 7.9648,2.3398 75.504,-35.934 148,-30.324 218.3,16.844 l 7.0703,-9.707 c -73.703,-49.602 -150.52,-55.734 -229.65,-18.391 z m -6.0312,-10.418 c 87.02,-41.418 172.13,-32.59 252.57,25.992 l -21.195,29.102 c -69.891,-50.898 -140.95,-58.266 -215.91,-22.586 -11.348,4.1406 -19.316,1.5 -23.906,-7.918 -4.5938,-9.418 -1.7812,-17.613 8.4375,-24.59 z m 361.52,107.68 c -1.9141,1.5469 -3.6758,3.1328 -5.0898,4.5703 87.984,126.92 119.16,249.32 102.63,416.87 0.42187,5.543 1.7148,7.0117 4.5547,7.4453 4.6836,0.3672 6.168,-0.668 7.3555,-5.9492 16.938,-171.08 -15.148,-296.37 -105.27,-426.05 -1.3359,0.91406 -2.7617,1.9727 -4.1797,3.1172 z m 7.5586,-56.262 5.9336,-10.641 c 7.1133,3.9688 14.227,7.6875 21.348,11.168 66.277,2.418 127.35,13.277 186.68,35.32 20.801,-2.1602 41.691,-6.3203 62.676,-12.477 13.699,-3.6875 22.148,-0.0469 25.348,10.926 3.1953,10.973 -1.875,18.848 -15.215,23.621 -4.6367,1.3594 -9.2656,2.6289 -13.895,3.8125 48.23,24.543 96.074,57.285 145.46,99.758 8.0781,8.6133 8.6016,17.188 1.5742,25.723 -6.7734,7.1992 -15.121,7.7227 -25.047,1.5742 -63.484,-54.59 -123.81,-92.125 -185.95,-116.32 -64.211,5.1094 -127.74,-6.9805 -190.32,-36.191 -5.9805,-0.16016 -12.012,-0.25 -18.09,-0.26953 -3.2266,-0.008 -5.7266,-5.6523 -7.1406,-12.469 -1.6562,-0.89844 -3.3125,-1.8086 -4.9688,-2.7344 l 3.7539,-6.7305 c -0.39453,-7.5078 0.65234,-14.059 3.5977,-14.066 1.418,-0.004 2.8359,-0.004 4.2539,0 z m 55.824,13.137 c 42.328,16.746 84.887,24.883 127.79,24.445 -40.625,-12.863 -82.801,-20.816 -127.79,-24.445 z m 198.97,52.766 c -6.8984,1.4219 -13.785,2.6445 -20.668,3.6719 55.98,24.848 109.99,60.352 165.82,108.27 4.7852,2.832 6.7266,2.6172 8.7148,0.53906 2.9883,-3.625 2.9883,-5.4336 -0.6523,-9.4375 -51.59,-44.301 -101.71004,-78.207 -153.22004,-103.05 z m -253.38,-26.801 c 92.148,129.72 130.65,258.37 112.34,441.96 -2.418,11.559 -9.1406,16.906 -20.164,16.043 -9.7812,-1.418 -15,-7.957 -15.656,-19.613 17.289,-173.41 -18.113,-293.24 -104.42,-415.49 -3.5898,-5.0898 24.637,-27.492 27.895,-22.906 z m 281.64,7.1172 c 7.5117,-2.7266 8.6562,-4.5938 7.418,-8.8516 -1.1953,-4.1016 -2.8398,-4.8125 -10.449,-2.7656 -91.32,26.781 -181,16.992 -269.37,-29.336 l -5.8477,10.48 c 91.152,47.867 184.01,58.016 278.25,30.473 z m -36.941,-368.88 c 6.6289,0 12,-5.3711 12,-12 0,-6.6289 -5.3711,-12 -12,-12 -6.6289,0 -12,5.3711 -12,12 0,6.6289 5.3711,12 12,12 z m 0,12 c -13.254,0 -24,-10.746 -24,-24 0,-13.254 10.746,-24 24,-24 13.254,0 24,10.746 24,24 0,13.254 -10.746,24 -24,24 z m 24,96 c 6.6289,0 12,-5.3711 12,-12 0,-6.6289 -5.3711,-12 -12,-12 -6.6289,0 -12,5.3711 -12,12 0,6.6289 5.3711,12 12,12 z m 0,12 c -13.254,0 -24,-10.746 -24,-24 0,-13.254 10.746,-24 24,-24 13.254,0 24,10.746 24,24 0,13.254 -10.746,24 -24,24 z m -252,588 c 6.6289,0 12,-5.3711 12,-12 0,-6.6289 -5.3711,-12 -12,-12 -6.6289,0 -12,5.3711 -12,12 0,6.6289 5.3711,12 12,12 z m 0,12 c -13.254,0 -24,-10.746 -24,-24 0,-13.254 10.746,-24 24,-24 13.254,0 24,10.746 24,24 0,13.254 -10.746,24 -24,24 z m -360,-132 c 6.6289,0 12,-5.3711 12,-12 0,-6.6289 -5.3711,-12 -12,-12 -6.6289,0 -12,5.3711 -12,12 0,6.6289 5.3711,12 12,12 z m 0,12 c -13.254,0 -24,-10.746 -24,-24 0,-13.254 10.746,-24 24,-24 13.254,0 24,10.746 24,24 0,13.254 -10.746,24 -24,24 z m -48,36 c 6.6289,0 12,-5.3711 12,-12 0,-6.6289 -5.3711,-12 -12,-12 -6.6289,0 -12,5.3711 -12,12 0,6.6289 5.3711,12 12,12 z m 0,12 c -13.254,0 -24,-10.746 -24,-24 0,-13.254 10.746,-24 24,-24 13.254,0 24,10.746 24,24 0,13.254 -10.746,24 -24,24 z m 600,-552 c 6.6289,0 12,-5.3711 12,-12 0,-6.6289 -5.3711,-12 -12,-12 -6.6289,0 -12,5.3711 -12,12 0,6.6289 5.3711,12 12,12 z m 0,12 c -13.254,0 -24,-10.746 -24,-24 0,-13.254 10.746,-24 24,-24 13.254,0 24,10.746 24,24 0,13.254 -10.746,24 -24,24 z m -276,756 c 291.61,0 528,-236.39 528,-528 0,-291.61 -236.39,-528 -528,-528 -291.61,0 -528,236.39 -528,528 0,291.61 236.39,528 528,528 z m 0,12 c -298.23,0 -540,-241.77 -540,-540 0,-298.23 241.77,-540 540,-540 298.23,0 540,241.77 540,540 0,298.23 -241.77,540 -540,540 z"
       id="path2" />
  </g>
</svg>
