<?xml version="1.0" encoding="UTF-8" standalone="no"?>
<svg
   version="1.1"
   x="0px"
   y="0px"
   viewBox="0 0 249.99999 250.00001"
   xml:space="preserve"
   id="svg14"
   sodipodi:docname="noun-idea-4383563.svg"
   width="250"
   height="250"
   inkscape:version="1.3 (0e150ed6c4, 2023-07-21)"
   xmlns:inkscape="http://www.inkscape.org/namespaces/inkscape"
   xmlns:sodipodi="http://sodipodi.sourceforge.net/DTD/sodipodi-0.dtd"
   xmlns="http://www.w3.org/2000/svg"
   xmlns:svg="http://www.w3.org/2000/svg"><defs
     id="defs14" /><sodipodi:namedview
     id="namedview14"
     pagecolor="#ffffff"
     bordercolor="#000000"
     borderopacity="0.25"
     inkscape:showpageshadow="2"
     inkscape:pageopacity="0.0"
     inkscape:pagecheckerboard="0"
     inkscape:deskcolor="#d1d1d1"
     inkscape:zoom="3.9408037"
     inkscape:cx="133.98282"
     inkscape:cy="152.50696"
     inkscape:window-width="1920"
     inkscape:window-height="1043"
     inkscape:window-x="0"
     inkscape:window-y="0"
     inkscape:window-maximized="1"
     inkscape:current-layer="svg14" /><g
     id="g14"
     transform="matrix(0.36835946,0,0,0.36835946,38.811622,46.723615)"
     style="fill:#ffffff;fill-opacity:1;stroke:#000000;stroke-opacity:1;stroke-width:5.42947913;stroke-dasharray:none"><path
       d="M 233.979,0 C 157.34,0 92.593,63.97 92.593,139.688 c 0,39.356 18.913,77.913 51.89,105.785 14.661,12.391 23.07,30.545 23.07,49.81 v 5.911 c 0,0.021 0.006,0.04 0.006,0.061 -8.865,3.463 -15.165,12.091 -15.165,22.167 0,7.635 3.619,14.437 9.227,18.794 -5.608,4.357 -9.227,11.159 -9.227,18.794 0,13.119 10.674,23.793 23.793,23.793 h 9.22 c 3.337,22.894 23.777,40.197 48.572,40.197 24.796,0 45.236,-17.303 48.573,-40.197 h 9.22 c 13.119,0 23.793,-10.674 23.793,-23.794 0,-7.635 -3.619,-14.437 -9.227,-18.793 5.608,-4.357 9.227,-11.159 9.227,-18.794 0,-13.119 -10.674,-23.793 -23.793,-23.793 h -114.22 v -4.346 c 0,-22.214 -9.701,-43.153 -26.615,-57.447 C 120.213,211.868 102.592,176.095 102.592,139.689 102.593,69.39 162.761,10 233.979,10 c 71.218,0 131.387,59.39 131.387,129.688 0,36.408 -17.622,72.182 -48.348,98.148 -20.25445,20.05914 -15.47252,22.03336 -28.77319,57.80825 -5.953,6.596 11.38186,7.42798 11.19523,-0.0394 -7.58966,9.28322 4.64726,-36.85224 24.03296,-50.1309 32.979,-27.872 51.893,-66.43 51.893,-105.787 C 375.366,63.97 310.619,0 233.979,0 Z m 0,415 c -19.229,0 -35.166,-12.899 -38.438,-30.197 h 76.875 C 269.145,402.101 253.209,415 233.979,415 Z m 71.586,-53.99 c 0,7.605 -6.188,13.793 -13.793,13.793 H 176.186 c -7.606,0 -13.793,-6.188 -13.793,-13.794 0,-7.605 6.188,-13.793 13.793,-13.793 h 115.586 c 7.606,0 13.793,6.187 13.793,13.794 z m 0,-37.588 c 0,7.606 -6.188,13.794 -13.793,13.794 H 176.186 c -7.606,0 -13.793,-6.188 -13.793,-13.794 0,-7.605 6.188,-13.793 13.793,-13.793 h 115.586 c 7.606,0 13.793,6.187 13.793,13.793 z"
       id="path1"
       sodipodi:nodetypes="sscsscscsscscsscsscsccssccccsssccsssssssssssssss"
       style="fill:#ffffff;fill-opacity:1;stroke:#000000;stroke-opacity:1;stroke-width:5.42947913;stroke-dasharray:none" /><path
       d="m 151.639,201.098 23.932,23.983 c 1.758,1.762 4.542,1.963 6.534,0.474 l 15.38,-11.499 c 3.813,1.957 7.783,3.606 11.86,4.926 l 2.764,19.038 c 0.357,2.458 2.464,4.281 4.948,4.281 h 33.845 c 2.484,0 4.592,-1.823 4.948,-4.282 l 2.764,-19.037 c 4.077,-1.32 8.046,-2.969 11.859,-4.926 l 15.38,11.499 c 1.994,1.488 4.778,1.285 6.533,-0.473 l 23.933,-23.983 c 1.752,-1.756 1.952,-4.529 0.472,-6.518 l -11.483,-15.426 c 1.958,-3.828 3.605,-7.812 4.922,-11.9 l 18.99,-2.769 c 2.456,-0.357 4.278,-2.465 4.278,-4.947 v -33.917 c 0,-2.482 -1.822,-4.59 -4.278,-4.947 l -18.99,-2.77 c -1.317,-4.09 -2.964,-8.072 -4.922,-11.899 L 316.791,90.58 c 1.48,-1.988 1.28,-4.762 -0.472,-6.518 L 292.386,60.079 c -1.757,-1.759 -4.539,-1.962 -6.533,-0.473 l -15.38,11.498 c -3.813,-1.958 -7.782,-3.605 -11.859,-4.925 L 255.85,47.141 c -0.356,-2.459 -2.464,-4.282 -4.948,-4.282 h -33.845 c -2.484,0 -4.591,1.823 -4.948,4.281 l -2.764,19.039 c -4.077,1.318 -8.046,2.967 -11.86,4.926 L 182.104,59.606 c -1.992,-1.487 -4.775,-1.287 -6.533,0.474 l -23.932,23.983 c -1.751,1.755 -1.952,4.528 -0.471,6.517 l 11.483,15.425 c -1.957,3.827 -3.605,7.811 -4.922,11.9 l -18.989,2.77 c -2.457,0.357 -4.279,2.465 -4.279,4.947 v 33.917 c 0,2.482 1.822,4.59 4.279,4.947 l 18.989,2.769 c 1.317,4.09 2.965,8.073 4.922,11.9 l -11.483,15.426 c -1.48,1.988 -1.28,4.762 0.471,6.517 z m 20.933,-18.523 c 1.181,-1.587 1.316,-3.721 0.343,-5.443 -2.793,-4.947 -4.978,-10.229 -6.494,-15.7 -0.529,-1.91 -2.136,-3.327 -4.097,-3.612 l -17.863,-2.604 v -25.269 l 17.863,-2.605 c 1.961,-0.285 3.568,-1.702 4.097,-3.612 1.517,-5.472 3.701,-10.754 6.494,-15.7 0.973,-1.723 0.838,-3.856 -0.343,-5.443 l -10.805,-14.514 17.821,-17.86 14.467,10.815 c 1.59,1.189 3.733,1.325 5.46,0.345 4.934,-2.798 10.203,-4.986 15.662,-6.505 1.908,-0.531 3.323,-2.139 3.607,-4.099 l 2.6,-17.908 h 25.192 l 2.599,17.907 c 0.284,1.961 1.699,3.568 3.607,4.1 5.46,1.519 10.729,3.708 15.662,6.505 1.728,0.98 3.872,0.844 5.46,-0.345 l 14.466,-10.815 17.822,17.86 -10.805,14.514 c -1.182,1.586 -1.315,3.721 -0.344,5.443 2.793,4.947 4.978,10.229 6.493,15.7 0.529,1.91 2.136,3.327 4.097,3.612 l 17.864,2.605 v 25.269 l -17.863,2.604 c -1.962,0.285 -3.568,1.702 -4.098,3.612 -1.516,5.47 -3.7,10.752 -6.493,15.7 -0.972,1.723 -0.838,3.856 0.344,5.443 l 10.805,14.515 -17.822,17.86 -14.466,-10.816 c -1.588,-1.188 -3.732,-1.325 -5.46,-0.345 -4.933,2.797 -10.202,4.985 -15.663,6.507 -1.907,0.531 -3.322,2.139 -3.606,4.099 l -2.599,17.906 h -25.192 l -2.6,-17.907 c -0.285,-1.959 -1.699,-3.566 -3.607,-4.098 -5.46,-1.521 -10.729,-3.71 -15.662,-6.507 -1.727,-0.979 -3.87,-0.844 -5.46,0.345 l -14.466,10.816 -17.821,-17.86 z"
       id="path2"
       style="fill:#ffffff;fill-opacity:1;stroke:#000000;stroke-opacity:1;stroke-width:5.42947913;stroke-dasharray:none" /><path
       d="m 233.979,197.272 c 28.815,0 52.259,-23.406 52.259,-52.176 0,-28.77 -23.443,-52.175 -52.259,-52.175 -28.816,0 -52.259,23.405 -52.259,52.175 0,28.77 23.443,52.176 52.259,52.176 z m 0,-94.35 c 23.302,0 42.259,18.92 42.259,42.175 0,23.256 -18.957,42.176 -42.259,42.176 -23.302,0 -42.259,-18.92 -42.259,-42.176 0,-23.255 18.958,-42.175 42.259,-42.175 z"
       id="path3"
       style="fill:#ffffff;fill-opacity:1;stroke:#000000;stroke-opacity:1;stroke-width:5.42947913;stroke-dasharray:none" /><path
       d="m 44.051,81.161 22.75,9.009 c 0.604,0.239 1.227,0.353 1.839,0.353 1.991,0 3.873,-1.197 4.65,-3.16 1.017,-2.567 -0.241,-5.473 -2.808,-6.489 l -22.75,-9.009 c -2.569,-1.018 -5.473,0.239 -6.49,2.808 -1.016,2.566 0.241,5.472 2.809,6.488 z"
       id="path4"
       style="fill:#ffffff;fill-opacity:1;stroke:#000000;stroke-opacity:1;stroke-width:5.42947913;stroke-dasharray:none" /><path
       d="m 69.628,212.855 -22.75,9.009 c -2.567,1.017 -3.825,3.922 -2.808,6.489 0.778,1.964 2.66,3.16 4.65,3.16 0.612,0 1.235,-0.113 1.839,-0.353 l 22.75,-9.009 c 2.567,-1.017 3.825,-3.922 2.808,-6.489 -1.016,-2.566 -3.919,-3.823 -6.489,-2.807 z"
       id="path5"
       style="fill:#ffffff;fill-opacity:1;stroke:#000000;stroke-opacity:1;stroke-width:5.42947913;stroke-dasharray:none" /><path
       d="m 7.074,156.781 h 49.25 c 2.761,0 5,-2.238 5,-5 0,-2.762 -2.239,-5 -5,-5 H 7.074 c -2.761,0 -5,2.238 -5,5 0,2.762 2.239,5 5,5 z"
       id="path6"
       style="fill:#ffffff;fill-opacity:1;stroke:#000000;stroke-opacity:1;stroke-width:5.42947913;stroke-dasharray:none" /><path
       d="m 401.157,207.839 c -2.565,-1.015 -5.472,0.24 -6.489,2.808 -1.017,2.567 0.24,5.473 2.808,6.489 l 22.751,9.009 c 0.604,0.239 1.227,0.353 1.84,0.353 1.99,0 3.872,-1.197 4.649,-3.16 1.017,-2.567 -0.24,-5.473 -2.808,-6.489 z"
       id="path7"
       style="fill:#ffffff;fill-opacity:1;stroke:#000000;stroke-opacity:1;stroke-width:5.42947913;stroke-dasharray:none" /><path
       d="m 396.491,85.506 c 0.613,0 1.235,-0.113 1.84,-0.353 l 22.75,-9.009 c 2.567,-1.017 3.824,-3.922 2.808,-6.489 -1.018,-2.569 -3.923,-3.824 -6.489,-2.808 l -22.75,9.009 c -2.567,1.017 -3.824,3.922 -2.808,6.489 0.777,1.965 2.659,3.161 4.649,3.161 z"
       id="path8"
       style="fill:#ffffff;fill-opacity:1;stroke:#000000;stroke-opacity:1;stroke-width:5.42947913;stroke-dasharray:none" /><path
       d="m 406.634,146.228 c 0,2.762 2.238,5 5,5 h 49.25 c 2.762,0 5,-2.238 5,-5 0,-2.762 -2.238,-5 -5,-5 h -49.25 c -2.762,0 -5,2.238 -5,5 z"
       id="path9"
       style="fill:#ffffff;fill-opacity:1;stroke:#000000;stroke-opacity:1;stroke-width:5.42947913;stroke-dasharray:none" /></g><path
     style="fill:none;fill-opacity:1;stroke:none;stroke-width:1.43546;stroke-dasharray:none;stroke-opacity:1"
     d="m 105.31176,152.33787 c -0.79537,-7.58435 -2.98757,-11.62869 -10.596351,-19.54899 -11.97776,-12.46814 -15.729653,-19.98501 -16.308918,-32.67472 -0.406402,-8.902862 0.681893,-14.112387 4.610928,-22.071897 2.809886,-5.692321 9.904052,-13.920767 15.060472,-17.468476 17.294299,-11.898789 38.765399,-11.444326 55.427439,1.173191 11.9937,9.082364 19.7701,25.906831 18.36319,39.729292 -1.12816,11.08387 -5.09012,18.90965 -14.80325,29.23978 -7.96292,8.46874 -8.15287,8.77715 -11.32744,18.39205 l -2.3105,6.99785 h -18.86021 -18.86021 z m 28.18607,-15.96985 c 0.4916,-0.59234 1.06071,-2.55768 1.2647,-4.36742 0.53711,-4.76526 2.51284,-5.51556 6.64386,-2.52307 1.68983,1.22411 3.53982,2.22565 4.1111,2.22565 1.516,0 10.91474,-9.3096 11.41631,-11.30804 0.30669,-1.22193 -0.21447,-2.59492 -1.84879,-4.87068 -2.95161,-4.11004 -2.27749,-5.76526 2.63769,-6.47657 1.87404,-0.2712 3.81107,-0.81488 4.30451,-1.20817 0.61779,-0.49241 0.89716,-3.11878 0.89716,-8.434322 0,-8.80808 -0.19738,-9.168128 -5.43931,-9.922354 -4.59678,-0.661401 -5.31271,-2.530761 -2.4286,-6.341245 1.14738,-1.515914 2.09513,-3.410245 2.10612,-4.209627 0.0265,-1.926133 -9.92759,-11.824557 -11.89101,-11.824557 -0.80859,0 -2.72159,0.933089 -4.25111,2.073532 -3.86496,2.881786 -5.74201,2.026282 -6.32332,-2.881988 -0.23008,-1.942662 -0.61318,-3.847396 -0.85134,-4.232742 -0.66563,-1.077015 -16.51771,-0.89816 -17.41873,0.196531 -0.40614,0.493438 -0.97064,2.456687 -1.25443,4.362774 -0.69552,4.671496 -2.5273,5.425462 -6.18119,2.544203 -4.04447,-3.189251 -5.39954,-2.798806 -11.259078,3.244158 -2.829967,2.918559 -5.145395,5.776899 -5.145395,6.35187 0,0.57497 1.001541,2.427988 2.225647,4.117818 2.992493,4.131015 2.242191,6.106747 -2.523067,6.64386 -5.158799,0.581472 -5.444408,1.082745 -5.444408,9.555518 0,8.613901 0.372797,9.273151 5.654616,9.999591 4.650603,0.63962 5.238089,2.37892 2.225535,6.58888 -1.176077,1.64354 -2.138323,3.37626 -2.138323,3.8505 0,1.23198 10.812473,12.18106 12.029083,12.18106 0.55783,0 2.35894,-0.96224 4.00248,-2.13832 4.33107,-3.09922 5.98953,-2.45243 6.61843,2.58117 0.30468,2.4386 0.92213,4.14134 1.65747,4.57084 0.64454,0.37647 4.44287,0.69431 8.44073,0.70631 5.60665,0.0168 7.47323,-0.22445 8.16266,-1.05516 z"
     id="path14" /><path
     style="fill:#ffffff;fill-opacity:1;stroke:none;stroke-width:1.43546;stroke-dasharray:none;stroke-opacity:1"
     d="m 105.31176,152.33787 c -0.79537,-7.58435 -2.98757,-11.62869 -10.596351,-19.54899 -11.97776,-12.46814 -15.729653,-19.98501 -16.308918,-32.67472 -0.406402,-8.902862 0.681893,-14.112387 4.610928,-22.071897 2.809886,-5.692321 9.904052,-13.920767 15.060472,-17.468476 17.294299,-11.898789 38.765399,-11.444326 55.427439,1.173191 11.9937,9.082364 19.7701,25.906831 18.36319,39.729292 -1.12816,11.08387 -5.09012,18.90965 -14.80325,29.23978 -7.96292,8.46874 -8.15287,8.77715 -11.32744,18.39205 l -2.3105,6.99785 h -18.86021 -18.86021 z m 28.18607,-15.96985 c 0.4916,-0.59234 1.06071,-2.55768 1.2647,-4.36742 0.53711,-4.76526 2.51284,-5.51556 6.64386,-2.52307 1.68983,1.22411 3.53982,2.22565 4.1111,2.22565 1.516,0 10.91474,-9.3096 11.41631,-11.30804 0.30669,-1.22193 -0.21447,-2.59492 -1.84879,-4.87068 -2.95161,-4.11004 -2.27749,-5.76526 2.63769,-6.47657 1.87404,-0.2712 3.81107,-0.81488 4.30451,-1.20817 0.61779,-0.49241 0.89716,-3.11878 0.89716,-8.434322 0,-8.80808 -0.19738,-9.168128 -5.43931,-9.922354 -4.59678,-0.661401 -5.31271,-2.530761 -2.4286,-6.341245 1.14738,-1.515914 2.09513,-3.410245 2.10612,-4.209627 0.0265,-1.926133 -9.92759,-11.824557 -11.89101,-11.824557 -0.80859,0 -2.72159,0.933089 -4.25111,2.073532 -3.86496,2.881786 -5.74201,2.026282 -6.32332,-2.881988 -0.23008,-1.942662 -0.61318,-3.847396 -0.85134,-4.232742 -0.66563,-1.077015 -16.51771,-0.89816 -17.41873,0.196531 -0.40614,0.493438 -0.97064,2.456687 -1.25443,4.362774 -0.69552,4.671496 -2.5273,5.425462 -6.18119,2.544203 -4.04447,-3.189251 -5.39954,-2.798806 -11.259078,3.244158 -2.829967,2.918559 -5.145395,5.776899 -5.145395,6.35187 0,0.57497 1.001541,2.427988 2.225647,4.117818 2.992493,4.131015 2.242191,6.106747 -2.523067,6.64386 -5.158799,0.581472 -5.444408,1.082745 -5.444408,9.555518 0,8.613901 0.372797,9.273151 5.654616,9.999591 4.650603,0.63962 5.238089,2.37892 2.225535,6.58888 -1.176077,1.64354 -2.138323,3.37626 -2.138323,3.8505 0,1.23198 10.812473,12.18106 12.029083,12.18106 0.55783,0 2.35894,-0.96224 4.00248,-2.13832 4.33107,-3.09922 5.98953,-2.45243 6.61843,2.58117 0.30468,2.4386 0.92213,4.14134 1.65747,4.57084 0.64454,0.37647 4.44287,0.69431 8.44073,0.70631 5.60665,0.0168 7.47323,-0.22445 8.16266,-1.05516 z"
     id="path15" /><path
     style="fill:#ffffff;fill-opacity:1;stroke:none;stroke-width:1.43546;stroke-dasharray:none;stroke-opacity:1"
     d="m 118.56683,112.5891 c -12.59581,-6.23479 -8.60969,-25.336301 5.48786,-26.297827 5.13465,-0.35021 9.56882,1.826525 12.65947,6.214531 1.82569,2.592057 2.14199,3.707916 2.15318,7.596006 0.0113,3.92966 -0.28765,4.98592 -2.16991,7.66633 -4.30392,6.12895 -11.57968,8.06359 -18.1306,4.82096 z"
     id="path16" /><path
     style="fill:#697fb8;fill-opacity:1;stroke:none;stroke-width:1.43546;stroke-dasharray:none;stroke-opacity:1"
     d="m 120.87811,127.22203 c -0.5974,-3.08824 -0.95867,-3.55109 -3.88836,-4.98174 -4.25123,-2.07597 -6.89049,-2.05103 -9.69972,0.0917 l -2.29906,1.75358 -2.36416,-2.43921 -2.36417,-2.43919 1.904,-2.49627 c 2.34176,-3.07021 2.34796,-3.56273 0.10857,-8.62638 -1.88693,-4.2667 -1.99683,-4.35539 -6.279023,-5.06706 -2.687824,-0.4467 -2.691482,-0.45214 -2.691482,-4.003429 0,-3.398542 0.08746,-3.556554 1.973754,-3.565921 4.143072,-0.02057 5.255571,-0.78466 7.049951,-4.842075 2.08979,-4.725391 2.13057,-5.489883 0.42445,-7.956441 -0.72478,-1.047814 -1.51965,-2.257663 -1.76639,-2.688552 -0.24674,-0.430889 0.605,-1.804643 1.89275,-3.052786 l 2.34138,-2.26935 2.43537,1.79676 c 3.02427,2.231235 3.86131,2.233471 8.85807,0.02367 3.95575,-1.749421 4.01567,-1.821286 4.48814,-5.382964 l 0.47887,-3.609871 h 3.4522 3.4522 l 0.49425,3.295919 c 0.54042,3.603793 2.03325,4.951813 7.4712,6.746501 2.6871,0.886821 3.01802,0.828504 5.81976,-1.025601 l 2.97066,-1.96589 2.36422,2.291495 2.36422,2.291494 -2.19451,3.113384 -2.19452,3.113384 1.79369,4.168202 c 1.88537,4.381278 3.76736,5.933453 7.21664,5.951943 1.88619,0.01011 1.97375,0.168348 1.97375,3.566701 0,3.554367 -0.001,3.556327 -2.69148,3.986107 -4.02769,0.64347 -4.49514,1.07507 -6.44636,5.95196 l -1.79587,4.48862 1.99122,2.87333 1.99121,2.87332 -2.0416,2.13098 c -2.41684,2.52264 -2.78074,2.57163 -5.16584,0.69552 -2.26995,-1.78554 -3.89729,-1.80032 -8.43599,-0.0766 -3.93523,1.49452 -4.40099,2.04971 -5.03175,5.99787 -0.42743,2.67545 -0.45046,2.69148 -3.86582,2.69148 h -3.43583 z m 13.58307,-8.79812 c 8.63933,-4.36238 12.97449,-14.47115 10.23996,-23.877622 -4.26895,-14.684657 -22.41246,-19.753346 -33.51932,-9.364175 -11.363369,10.629097 -7.61503,28.977817 7.02662,34.396467 4.16943,1.54304 12.01385,0.98573 16.25274,-1.15467 z"
     id="path17" /><path
     style="fill:#ffffff;fill-opacity:1;stroke:none;stroke-width:1.43546;stroke-dasharray:none;stroke-opacity:1"
     d="m 100.77485,167.58961 c -1.089089,-1.66217 -1.089089,-1.92648 0,-3.58865 l 1.17569,-1.79432 h 22.83953 c 21.21505,0 22.92401,0.0934 24.02736,1.31254 1.49177,1.64839 1.51248,3.28437 0.06,4.73689 -0.9782,0.97819 -4.1666,1.12786 -24.02736,1.12786 h -22.8995 z"
     id="path18" /><path
     style="fill:#ffffff;fill-opacity:1;stroke:none;stroke-width:1.43546;stroke-dasharray:none;stroke-opacity:1"
     d="m 101.52596,181.9768 c -2.135651,-2.13565 -2.184534,-2.83957 -0.32624,-4.69786 1.37349,-1.3735 2.39243,-1.43546 23.60553,-1.43546 20.41983,0 22.29821,0.10377 23.79324,1.31437 2.10717,1.70628 1.47508,4.88187 -1.17205,5.8883 -1.02,0.38781 -11.12818,0.69235 -22.97989,0.69235 h -21.15889 z"
     id="path19" /><path
     style="fill:#ffffff;fill-opacity:1;stroke:none;stroke-width:1.43546;stroke-dasharray:none;stroke-opacity:1"
     d="m 119.05038,196.69403 c -2.59607,-1.41238 -6.367,-5.29232 -6.367,-6.55104 0,-0.37908 5.22158,-0.66267 12.20138,-0.66267 6.71076,0 12.20138,0.19241 12.20138,0.42756 0,1.25204 -2.60252,4.51781 -4.80045,6.02386 -3.45275,2.36586 -9.63351,2.72184 -13.23531,0.76229 z"
     id="path20" /><path
     style="fill:#ffffff;fill-opacity:1;stroke:none;stroke-width:1.43546;stroke-dasharray:none;stroke-opacity:1"
     d=""
     id="path21" /><path
     style="fill:#ffffff;fill-opacity:1;stroke:none;stroke-width:1.43546;stroke-dasharray:none;stroke-opacity:1"
     d="m 46.143905,103.53772 c 2.680985,-0.13847 6.879696,-0.13744 9.330471,0.002 2.450775,0.13973 0.257242,0.25302 -4.874516,0.25177 -5.131759,-10e-4 -7.136939,-0.11558 -4.455955,-0.25405 z"
     id="path22" /><path
     style="fill:#ffffff;fill-opacity:1;stroke:none;stroke-width:0.507511;stroke-dasharray:none;stroke-opacity:1"
     d="m 56.176359,130.4424 c -0.07777,-0.20267 -0.07488,-0.4761 0.0064,-0.60764 0.20751,-0.33576 8.412201,-3.59148 9.050834,-3.59148 0.398605,0 0.504886,0.13691 0.443242,0.57095 -0.06836,0.4813 -0.738517,0.83669 -4.268051,2.26334 -4.455314,1.80084 -5.009636,1.94543 -5.232435,1.36483 z"
     id="path23" /><path
     style="fill:#ffffff;fill-opacity:1;stroke:none;stroke-width:0.507511;stroke-dasharray:none;stroke-opacity:1"
     d=""
     id="path24" /><path
     style="fill:#ffffff;fill-opacity:1;stroke:none;stroke-width:0.507511;stroke-dasharray:none;stroke-opacity:1"
     d="m 190.10123,101.15065 c -0.18819,-0.11926 -0.30085,-0.43153 -0.25034,-0.69394 0.0876,-0.45531 0.52199,-0.480142 9.50718,-0.543597 8.1481,-0.05754 9.45823,-0.01485 9.7338,0.317197 0.25416,0.30625 0.25468,0.46051 0.003,0.76432 -0.27025,0.32562 -1.64082,0.38007 -9.48346,0.37675 -5.04216,-0.002 -9.32154,-0.10147 -9.50972,-0.22073 z"
     id="path25" /><path
     style="fill:#ffffff;fill-opacity:1;stroke:none;stroke-width:0.507511;stroke-dasharray:none;stroke-opacity:1"
     d="m 189.55524,127.18482 c -3.43665,-1.39766 -4.18696,-1.79312 -4.18696,-2.20684 0,-0.27722 0.17129,-0.53568 0.38063,-0.57435 0.20935,-0.0387 2.32186,0.70351 4.69448,1.64932 3.6398,1.45094 4.32651,1.80832 4.39493,2.2872 0.12795,0.89559 -0.66828,0.72147 -5.28308,-1.15533 z"
     id="path26" /></svg>
