<?xml version="1.0" encoding="UTF-8" standalone="no"?>
<!-- Generator: Adobe Illustrator 22.1.0, SVG Export Plug-In . SVG Version: 6.00 Build 0)  -->

<svg
   version="1.1"
   id="Гигантская_бактерия"
   x="0px"
   y="0px"
   viewBox="0 0 842.1 842.2"
   style="enable-background:new 0 0 842.1 842.2;"
   xml:space="preserve"
   sodipodi:docname="invasion-bacteria.svg"
   inkscape:version="1.4 (e7c3feb100, 2024-10-09)"
   xmlns:inkscape="http://www.inkscape.org/namespaces/inkscape"
   xmlns:sodipodi="http://sodipodi.sourceforge.net/DTD/sodipodi-0.dtd"
   xmlns="http://www.w3.org/2000/svg"
   xmlns:svg="http://www.w3.org/2000/svg"><defs
   id="defs76" /><sodipodi:namedview
   id="namedview74"
   pagecolor="#ffffff"
   bordercolor="#111111"
   borderopacity="1"
   inkscape:showpageshadow="0"
   inkscape:pageopacity="0"
   inkscape:pagecheckerboard="1"
   inkscape:deskcolor="#d1d1d1"
   showgrid="false"
   inkscape:zoom="0.69698408"
   inkscape:cx="414.64362"
   inkscape:cy="425.40426"
   inkscape:window-width="1920"
   inkscape:window-height="1043"
   inkscape:window-x="0"
   inkscape:window-y="0"
   inkscape:window-maximized="1"
   inkscape:current-layer="Гигантская_бактерия" />
<style
   type="text/css"
   id="style2">
	.st0{fill:none;stroke:#000000;stroke-width:10;stroke-miterlimit:10;}
</style>



<g
   id="g307"
   transform="matrix(-0.87163941,0,0,0.87163941,788.82719,55.161873)"
   style="fill:#ffffff;fill-opacity:1"><path
     id="Тело"
     class="st0"
     d="m 509.5,346.4 c 0,0 0,0 0,0 -3.8,-6.1 -8,-11.9 -12.7,-17.2 C 443.9,257 391,184.8 338.1,112.7 314.3,78.6 274.8,56.2 230.1,56.2 c -72.6,0 -131.5,58.9 -131.5,131.5 0,30.8 10.6,59.1 28.3,81.5 55,74.9 110.1,149.8 165.2,224.7 24,32.1 62.3,52.9 105.4,52.9 72.6,0 131.5,-58.9 131.5,-131.5 0,-25.3 -7.1,-48.8 -19.5,-68.9 z"
     style="fill:#ffffff;fill-opacity:1" /><path
     id="Ножки"
     class="st0"
     d="m 788.5,568.1 c -2.9,-1 -7,-2 -12,-2 -8.9,0 -15.6,3.1 -19,5 -3.1,1.5 -7.5,3.7 -13,6 -15.9,6.7 -45.2,19.1 -82,18 -15.8,-0.5 -53.5,-3.9 -88,-30 -17.6,-13.3 -27.6,-27.1 -39,-43 -2.9,-4 -5.5,-8 -8.1,-11.9 -3.9,6.1 -8.3,11.9 -13.2,17.3 7.4,17.1 14.9,31 21.3,41.6 9.5,15.8 22,36.6 45,58 8.6,8 29.4,27.1 61,42 5.4,2.5 16.1,7.3 57,26 10.9,5 19.3,8.9 27,18 10.8,12.7 13.1,27.3 14,33 2,13.5 -0.2,24.7 -2,31 -10.2,-7.5 -22.2,-15.7 -36,-24 -9.5,-5.8 -17.6,-10.7 -29,-16 -7.4,-3.5 -22.3,-10 -41,-15 -27.2,-7.2 -34.9,-3.9 -59,-8 -14.4,-2.5 -44.8,-7.7 -74,-29 -28.5,-20.8 -41.9,-46.7 -47,-57 -9.1,-18.2 -12.3,-33 -16,-50 -0.6,-2.6 -1.1,-5.3 -1.7,-8.2 -5.7,0.7 -11.4,1.1 -17.3,1.1 -6.3,0 -12.5,-0.5 -18.6,-1.3 1,12.3 3.3,25.6 7.5,39.4 3.4,11.3 8.4,28 21,46 13.8,19.8 22.2,20.6 39,43 7.9,10.5 20.4,27.6 27,53 5.2,20.2 4.5,36.6 4,43 -1.2,16.7 -5.4,30.1 -9,39 -4.7,-0.6 -11.1,-2.2 -16,-7 -6.6,-6.4 -7.1,-15.1 -8,-21 -2.1,-13.3 -8.4,-22.8 -21,-42 -4.3,-6.5 -9.4,-12.8 -45,-41 -36.4,-28.9 -38.7,-27.9 -51,-40 -16.6,-16.3 -30.1,-29.6 -41,-51 -13.7,-27.1 -23.6,-67.7 -10,-108 2.1,-6.1 4.5,-11.7 7.1,-16.8 19,19.8 44.2,33.7 72.4,38.6 2.4,0.4 4.8,0.8 7.2,1 0.3,0 0.6,0.1 0.9,0.1 0.6,0.1 1.1,0.1 1.7,0.2 0.5,0 1,0.1 1.5,0.1 0.5,0 1,0.1 1.5,0.1 0.6,0 1.2,0.1 1.9,0.1 0.4,0 0.8,0 1.2,0.1 0.8,0 1.5,0.1 2.3,0.1 0.3,0 0.6,0 0.9,0 1.1,0 2.2,0 3.2,0 0,0 0,0 0,0 0,0 0.1,0 0.1,0 11.3,0 22.2,-1.4 32.7,-4.1 0.7,-0.2 1.4,-0.4 2.1,-0.6 0.2,-0.1 0.4,-0.1 0.6,-0.2 0.7,-0.2 1.4,-0.4 2.1,-0.6 0.2,-0.1 0.4,-0.1 0.6,-0.2 0.7,-0.2 1.4,-0.4 2.1,-0.7 0.2,-0.1 0.4,-0.1 0.6,-0.2 0.7,-0.2 1.4,-0.5 2.1,-0.7 0.2,-0.1 0.4,-0.1 0.5,-0.2 0.7,-0.2 1.4,-0.5 2.1,-0.8 0.2,-0.1 0.3,-0.1 0.5,-0.2 0.7,-0.3 1.4,-0.5 2.1,-0.8 0.2,-0.1 0.3,-0.1 0.5,-0.2 0.7,-0.3 1.4,-0.6 2.1,-0.9 0.2,-0.1 0.3,-0.1 0.5,-0.2 0.7,-0.3 1.4,-0.6 2.1,-0.9 0.1,-0.1 0.3,-0.1 0.4,-0.2 0.7,-0.3 1.4,-0.6 2.1,-1 0.1,-0.1 0.3,-0.1 0.4,-0.2 0.7,-0.3 1.4,-0.7 2.1,-1 0.1,-0.1 0.2,-0.1 0.4,-0.2 0.7,-0.4 1.4,-0.7 2.1,-1.1 0.1,-0.1 0.2,-0.1 0.3,-0.1 0.7,-0.4 1.5,-0.8 2.2,-1.2 0.1,0 0.1,-0.1 0.2,-0.1 0.7,-0.4 1.5,-0.8 2.2,-1.3 0,0 0.1,-0.1 0.1,-0.1 0.8,-0.4 1.5,-0.9 2.3,-1.4 0,0 0,0 0,0 12.5,-7.6 23.6,-17.2 32.9,-28.4 0,0 0.1,-0.1 0.1,-0.1 0.5,-0.6 1.1,-1.3 1.6,-1.9 0.1,-0.1 0.2,-0.2 0.2,-0.3 0.5,-0.6 1,-1.2 1.4,-1.8 3.5,-4.6 6.7,-9.4 9.6,-14.5 0.5,-0.8 0.9,-1.7 1.4,-2.5 0.1,-0.3 0.3,-0.5 0.4,-0.8 0.5,-1 1.1,-2 1.6,-3 0.2,-0.4 0.4,-0.7 0.6,-1.1 0.4,-0.9 0.9,-1.8 1.3,-2.7 0.2,-0.4 0.3,-0.8 0.5,-1.1 0.4,-0.9 0.8,-1.7 1.1,-2.6 0.2,-0.4 0.4,-0.9 0.5,-1.3 0.4,-1 0.8,-2 1.2,-3 0.2,-0.4 0.3,-0.8 0.5,-1.2 0.3,-0.7 0.5,-1.5 0.8,-2.2 0.2,-0.5 0.3,-1 0.5,-1.4 0.3,-1 0.7,-2 1,-3 0.2,-0.5 0.3,-1 0.5,-1.5 0.2,-0.7 0.4,-1.4 0.6,-2 0.1,-0.5 0.3,-1 0.4,-1.6 2.9,-10.9 4.5,-22.4 4.5,-34.3 0,-3.9 -0.2,-7.7 -0.5,-11.5 11.1,5.8 20.3,14.3 28,21.3 8.4,7.5 10.1,12.1 25,30 39.8,47.8 42,50.9 50,57 8.6,6.6 33,25.2 66,29 3.5,0.4 20.8,2.2 40,4 14.1,1.3 22.4,2 32,7 9.6,5 15.8,11.6 19.4,16.3 z m -232,-143 c 2.3,2.1 4.2,4 5.9,6 15.8,-3.3 28.8,-2.8 37.1,-2 14.7,1.5 24.7,2.6 34,10 11.7,9.4 10.9,19.7 22,23 9.8,2.9 24,-1 24,-1 0,0 -7.8,-42.7 -34,-71 -7.3,-7.9 -23.9,-25.4 -51,-34 -21.8,-6.9 -43.3,-5.9 -52,-5 -6.5,0.7 -9.4,1.4 -18,2 -3.8,0.3 -7.4,0.4 -10.9,0.5 8.1,15.2 13.3,32.2 14.9,50.2 11,5.8 20.2,14.3 28,21.3 z"
     style="fill:#ffffff;fill-opacity:1" /><g
     id="Пузыри"
     style="fill:#ffffff;fill-opacity:1">
	<circle
   class="st0"
   cx="297"
   cy="229.60001"
   r="82.5"
   id="circle6"
   style="fill:#ffffff;fill-opacity:1" />
	<circle
   class="st0"
   cx="472.79999"
   cy="395.79999"
   r="25.4"
   id="circle8"
   style="fill:#ffffff;fill-opacity:1" />
	<circle
   class="st0"
   cx="374.70001"
   cy="461.39999"
   r="57.599998"
   id="circle10"
   style="fill:#ffffff;fill-opacity:1" />
	<circle
   class="st0"
   cx="170.39999"
   cy="179.7"
   r="28.200001"
   id="circle12"
   style="fill:#ffffff;fill-opacity:1" />
	<circle
   class="st0"
   cx="241.3"
   cy="345.29999"
   r="9"
   id="circle14"
   style="fill:#ffffff;fill-opacity:1" />
	<circle
   class="st0"
   cx="295.39999"
   cy="113"
   r="7.1999998"
   id="circle16"
   style="fill:#ffffff;fill-opacity:1" />
</g><g
     id="Детали"
     style="fill:#ffffff;fill-opacity:1">
	<path
   class="st0"
   d="m 303.8,507.5 c -15.7,11.6 -31.4,23.3 -47.2,34.9"
   id="path19"
   style="fill:#ffffff;fill-opacity:1" />
	<path
   class="st0"
   d="m 279.4,474.5 c -15.7,11.6 -31.4,23.3 -47.2,34.9"
   id="path21"
   style="fill:#ffffff;fill-opacity:1" />
	<path
   class="st0"
   d="m 253.1,439 c -15.7,11.6 -31.4,23.3 -47.2,34.9"
   id="path23"
   style="fill:#ffffff;fill-opacity:1" />
	<path
   class="st0"
   d="m 228.6,405.9 c -15.7,11.6 -31.4,23.3 -47.2,34.9"
   id="path25"
   style="fill:#ffffff;fill-opacity:1" />
	<path
   class="st0"
   d="m 202.3,370.4 c -15.7,11.6 -31.4,23.3 -47.2,34.9"
   id="path27"
   style="fill:#ffffff;fill-opacity:1" />
	<path
   class="st0"
   d="m 177.5,336.9 c -15.7,11.6 -31.4,23.3 -47.2,34.9"
   id="path29"
   style="fill:#ffffff;fill-opacity:1" />
	<path
   class="st0"
   d="m 151.2,301.3 c -15.7,11.6 -31.4,23.3 -47.2,34.9"
   id="path31"
   style="fill:#ffffff;fill-opacity:1" />
	<path
   class="st0"
   d="M 126.7,268.3 C 111,279.9 95.3,291.6 79.5,303.2"
   id="path33"
   style="fill:#ffffff;fill-opacity:1" />
	<path
   class="st0"
   d="M 109.1,237.3 C 91,244.5 72.8,251.8 54.6,259"
   id="path35"
   style="fill:#ffffff;fill-opacity:1" />
	<g
   id="Слой_11"
   style="fill:#ffffff;fill-opacity:1">
		<path
   class="st0"
   d="m 569.8,327.5 c -15.7,11.6 -31.4,23.3 -47.2,34.9"
   id="path37"
   style="fill:#ffffff;fill-opacity:1" />
		<path
   class="st0"
   d="m 545.3,294.5 c -15.7,11.6 -31.4,23.3 -47.2,34.9"
   id="path39"
   style="fill:#ffffff;fill-opacity:1" />
		<path
   class="st0"
   d="m 519,258.9 c -15.7,11.6 -31.4,23.3 -47.2,34.9"
   id="path41"
   style="fill:#ffffff;fill-opacity:1" />
		<path
   class="st0"
   d="m 494.5,225.9 c -15.7,11.6 -31.4,23.3 -47.2,34.9"
   id="path43"
   style="fill:#ffffff;fill-opacity:1" />
		<path
   class="st0"
   d="M 468.2,190.4 C 452.5,202 436.8,213.7 421,225.3"
   id="path45"
   style="fill:#ffffff;fill-opacity:1" />
		<path
   class="st0"
   d="m 443.4,156.8 c -15.7,11.6 -31.4,23.3 -47.2,34.9"
   id="path47"
   style="fill:#ffffff;fill-opacity:1" />
		<path
   class="st0"
   d="m 417.1,121.3 c -15.7,11.6 -31.4,23.3 -47.2,34.9"
   id="path49"
   style="fill:#ffffff;fill-opacity:1" />
		<path
   class="st0"
   d="m 392.6,88.3 c -15.7,11.6 -31.4,23.3 -47.2,34.9"
   id="path51"
   style="fill:#ffffff;fill-opacity:1" />
		<path
   class="st0"
   d="M 361.8,51.2 C 347.9,65 334,78.8 320.2,92.5"
   id="path53"
   style="fill:#ffffff;fill-opacity:1" />
		<path
   class="st0"
   d="m 317.1,18 c -9.7,17 -19.3,34 -29,51"
   id="path55"
   style="fill:#ffffff;fill-opacity:1" />
		<path
   class="st0"
   d="m 260.5,2.4 c -3.3,19.3 -6.6,38.6 -9.9,57.8"
   id="path57"
   style="fill:#ffffff;fill-opacity:1" />
		<path
   class="st0"
   d="m 205.1,1.9 c 3.1,19.3 6.1,38.6 9.2,57.9"
   id="path59"
   style="fill:#ffffff;fill-opacity:1" />
		<path
   class="st0"
   d="m 151.6,16.2 c 8.1,17.8 16.2,35.6 24.3,53.4"
   id="path61"
   style="fill:#ffffff;fill-opacity:1" />
		<path
   class="st0"
   d="m 42,203.7 c 19.4,-2.7 38.8,-5.3 58.1,-8"
   id="path63"
   style="fill:#ffffff;fill-opacity:1" />
		<path
   class="st0"
   d="m 48.5,145.4 c 19.1,4.1 38.3,8.2 57.4,12.2"
   id="path65"
   style="fill:#ffffff;fill-opacity:1" />
		<path
   class="st0"
   d="m 68.6,93.7 c 16.8,10 33.6,20 50.4,30"
   id="path67"
   style="fill:#ffffff;fill-opacity:1" />
		<path
   class="st0"
   d="m 101.7,49.3 c 13.5,14.1 27,28.3 40.6,42.4"
   id="path69"
   style="fill:#ffffff;fill-opacity:1" />
	</g>
</g></g>
</svg>
