<?xml version="1.0" encoding="UTF-8" standalone="no"?>
<!-- Generator: Adobe Illustrator 22.1.0, SVG Export Plug-In . SVG Version: 6.00 Build 0)  -->

<svg
   version="1.1"
   id="Батарейка-3"
   x="0px"
   y="0px"
   viewBox="0 0 842.1 842.2"
   style="enable-background:new 0 0 842.1 842.2;"
   xml:space="preserve"
   sodipodi:docname="energy-cell-16.svg"
   inkscape:version="1.2.1 (9c6d41e410, 2022-07-14)"
   xmlns:inkscape="http://www.inkscape.org/namespaces/inkscape"
   xmlns:sodipodi="http://sodipodi.sourceforge.net/DTD/sodipodi-0.dtd"
   xmlns="http://www.w3.org/2000/svg"
   xmlns:svg="http://www.w3.org/2000/svg"><defs
   id="defs3938" /><sodipodi:namedview
   id="namedview3936"
   pagecolor="#ffffff"
   bordercolor="#111111"
   borderopacity="1"
   inkscape:showpageshadow="0"
   inkscape:pageopacity="0"
   inkscape:pagecheckerboard="1"
   inkscape:deskcolor="#d1d1d1"
   showgrid="false"
   inkscape:zoom="0.69698408"
   inkscape:cx="415.36099"
   inkscape:cy="425.40426"
   inkscape:window-width="1600"
   inkscape:window-height="829"
   inkscape:window-x="0"
   inkscape:window-y="0"
   inkscape:window-maximized="1"
   inkscape:current-layer="Батарейка-3" />
<style
   type="text/css"
   id="style3926">
	.st0{fill:none;stroke:#231F20;stroke-width:10;stroke-miterlimit:10;}
</style>






<g
   id="g748"
   transform="matrix(0.74767742,0,0,0.74767742,106.14985,107.52159)"><path
     d="M 709.9,262.7 679.6,216.2 C 673,206 660.2,202.7 651.2,208.6 l -13.6,8.9 c 19.4,26.9 37.7,54.5 54.7,82.9 l 12.9,-8.4 c 9.1,-6.1 11.3,-19.3 4.7,-29.3 z"
     id="path4063"
     style="fill:#ff00ff;fill-opacity:1;stroke:#010101;stroke-width:11.3386;stroke-dasharray:none;stroke-opacity:1" /><path
     d="m 689.7,422.4 v 0 C 641.7,332.8 584.9,247.2 520.9,168.3 v 0 c -6.6,-10 -17.4,-14.7 -23.9,-10.4 L 336.7,265.2 162,381.8 c -6.5,4.3 -6.3,16.2 0.4,26.1 l 4.1,7.3 C 213.9,502 269.2,584.9 331.1,662 v 0 c 6.6,10 17.4,14.7 23.9,10.4 L 502,574 690,448.5 c 6.4,-4.4 6.2,-16.1 -0.3,-26.1 z"
     id="path4061"
     style="fill:#ff00ff;fill-opacity:1;stroke:#010101;stroke-width:11.3386;stroke-dasharray:none;stroke-opacity:1" /><path
     d="m 740.9,388.2 v 0 C 695.4,297 638.6,211.4 572.2,134.1 v 0 c -6.6,-10 -19.1,-13.5 -27.6,-7.8 L 497,158 c 6.5,-4.3 17.4,0.4 23.9,10.4 v 0 c 63.8,79 120.6,164.5 168.8,254.1 v 0 c 6.6,10 6.8,21.8 0.4,26.1 l 47.6,-31.7 c 8.2,-5.8 9.8,-18.7 3.2,-28.7 z"
     id="path4059"
     style="fill:#999999;fill-opacity:1;stroke:#010101;stroke-width:11.3386;stroke-dasharray:none;stroke-opacity:1" /><path
     d="m 355,672.3 -57.6,38.5 c -8.5,5.7 -20.9,2.1 -27.6,-7.8 v 0 C 205.6,627.6 150.3,544.6 105,456.3 l -3.8,-7.5 c -6.6,-10 -5.2,-23 3.3,-28.7 l 57.6,-38.5 c -6.5,4.3 -6.3,16.2 0.4,26.1 l 4.1,7.3 c 47.5,86.8 102.8,169.7 164.7,246.7 v 0 c 6.5,10.4 17.3,15 23.7,10.6 z"
     id="Батарейка_2_"
     style="fill:#999999;fill-opacity:1;stroke:#010101;stroke-width:11.3386;stroke-dasharray:none;stroke-opacity:1" /><circle
     id="Радиация_5_"
     class="st0"
     cx="426.79999"
     cy="413.60001"
     r="144.2"
     style="fill:#e6e6e6" /><path
     id="Радиация_4_"
     class="st0"
     d="m 402,440.6 c -17.1,17.3 -34.1,34.7 -51.1,52.4 -29.6,-27.7 -42.7,-69.9 -30.7,-110.7 23.6,7.1 47.6,14 71.2,21 -4.3,13.5 0.4,28.1 10.6,37.3 z m 37.7,7.8 c 7.6,23.2 14.8,46.6 22.4,69.8 33.9,-10.7 61.9,-36.9 72.5,-73 -23.6,-7.1 -47.6,-14 -71.2,-21 -3.6,11.9 -12.6,20.8 -23.7,24.2 z m 18.6,-139.7 c -21.6,-6.2 -43.6,-5.9 -63.7,-0.3 7.6,23.2 14.8,46.6 22.4,69.8 6.6,-1.8 13.6,-1.9 20.6,0.2 6.2,1.8 11.6,5 16,9.3 17.1,-17.3 34.1,-34.7 51.1,-52.4 -12.6,-11.8 -28.3,-21.3 -46.4,-26.6 z m -47.1,100.4 c -2.5,8.6 2.6,17.7 11.4,20.5 8.9,2.6 18.1,-2.2 20.6,-11.1 2.5,-8.6 -2.6,-17.7 -11.4,-20.5 -8.8,-2.6 -18,2.2 -20.6,11.1 z"
     style="fill:#ffcc00" /><path
     id="Элементы-3"
     class="st0"
     d="m 131.3,615.2 c 60.9,92.1 128.7,160.4 171.7,177.3 0.5,0.2 0.3,1 -0.2,1 C 279.6,790.6 256.2,786 233,779.6 50.4,729.2 -34.6,571.6 37.9,371.8 c -13.1,38.5 24.4,139 93.4,243.4 z M 715,224.2 c 61.1,92 97.7,181 96.5,227.1 0,0.6 0.8,0.7 1,0.1 6.4,-22.5 11.3,-45.8 14.4,-69.7 C 851.5,194 739.4,54.4 527.2,43.4 567.8,46.3 645.7,120 715,224.2 Z"
     style="fill:#c87137" /><path
     id="Элементы-2"
     class="st0"
     d="m 720.9,233.2 c 7.9,12.1 15.4,24.4 22.7,36.9 6.9,11.7 13.4,23.6 19.7,35.7 5.8,11.2 11.4,22.5 16.6,34 4.8,10.5 9.2,21.1 13.3,31.8 3.6,9.5 7,19.2 9.8,29 2.5,8.4 4.6,17 6.1,25.6 1.3,7.1 2.2,14.4 2.3,21.7 0,1.6 0,3.2 -0.1,4.7 0,0.8 -0.1,1.5 -0.1,2.3 -0.1,1.3 -0.6,2.6 -1,3.9 -1.1,3.5 -2.1,7 -3.3,10.4 -0.6,1.7 -1.1,3.5 -1.7,5.2 -0.5,1.4 -1.7,2.6 -2.7,3.6 -7.7,7.4 -19.2,6.6 -28.7,3.7 -3.1,-0.9 -6.1,-2.1 -9.1,-3.4 -0.9,-0.4 -1.7,-0.8 -2.6,-1.2 -0.4,-0.2 -0.8,-0.4 -1.2,-0.6 -0.1,-0.1 -0.4,-0.2 -0.5,-0.3 -0.2,-0.3 -0.1,-0.1 -0.1,-0.5 0,-0.9 0.4,-2 0.5,-2.9 0.2,-0.8 0.3,-1.7 0.5,-2.5 1.3,-7.3 2.6,-14.5 3.9,-21.8 3.6,2.4 7.9,4.1 12.3,3.7 3.8,-0.3 7,-2.5 8.6,-5.9 3.1,-6.5 0.9,-14.6 -2.2,-20.6 -3.5,-6.8 -9.2,-13 -16.4,-15.9 -5.7,-2.4 -12.8,-2.2 -16.2,3.7 -4.2,7.2 -0.9,16.6 2.9,23.2 -3.7,1.7 -7.5,3.4 -11.2,5.1 -3.3,1.5 -6.6,3 -10,4.5 -1.7,0.8 -3.4,1.5 -5.1,2.3 -0.8,0.4 -1.7,0.8 -2.5,1.1 -0.4,0.2 -0.8,0.4 -1.3,0.6 -0.2,0.1 -0.8,0.5 -1.1,0.5 -0.3,0 -0.9,-0.7 -1.1,-0.9 -0.3,-0.2 -0.6,-0.5 -0.8,-0.7 -0.7,-0.6 -1.3,-1.1 -2,-1.7 -1.3,-1.1 -2.6,-2.2 -3.8,-3.3 -2.7,-2.3 -5.3,-4.7 -7.9,-7.1 1,-0.6 1.9,-1.3 2.9,-1.9 5.3,-3.6 10.7,-7.1 16,-10.7 3.8,-2.5 7.6,-5 11.3,-7.5 8,-5.5 9,-16.9 5.3,-25.2 -0.6,-1.3 -1.3,-2.4 -2,-3.7 -0.8,-1.5 -1.6,-3.1 -2.3,-4.7 -1.6,-3.1 -3.1,-6.2 -4.7,-9.3 -3.2,-6.2 -6.4,-12.3 -9.7,-18.4 -6.6,-12.2 -13.3,-24.4 -20.3,-36.4 -3.5,-6 -7,-12 -10.6,-17.9 -0.1,-0.2 -0.6,-0.8 -0.6,-1 0,-0.1 0.2,-0.1 0.3,-0.2 0.3,-0.3 0.8,-0.5 1.1,-0.7 1.3,-0.8 2.6,-1.7 3.9,-2.5 2.4,-1.6 4.8,-3.1 7.2,-4.7 3.4,-2.2 5.9,-5.5 7.4,-9.3 2.7,-7.2 1.1,-14.7 -2.9,-21 -2.5,-3.8 -4.9,-7.6 -7.4,-11.4 -3.8,-5.9 -7.6,-11.7 -11.5,-17.6 -3.1,-4.7 -6.1,-9.4 -9.2,-14.1 -0.6,-0.9 -1.2,-1.8 -1.8,-2.7 -2.4,-3.6 -5.7,-6.6 -9.7,-8.5 -4.2,-2 -9,-2.6 -13.5,-1.5 -2.8,0.7 -5.1,2.2 -7.5,3.8 -2.8,1.8 -5.6,3.7 -8.4,5.5 -0.5,0.4 -1.1,0.7 -1.6,1.1 -0.3,0.2 -0.7,0.6 -1,0.6 0,0 -0.1,0.1 -0.2,0.1 -0.3,0 -1,-1.3 -1.1,-1.5 -1,-1.4 -2,-2.8 -3,-4.2 -8.1,-11.1 -16.4,-22.2 -24.9,-33 -8.5,-10.8 -17.1,-21.5 -25.9,-32 -2.2,-2.6 -4.4,-5.3 -6.7,-7.9 -1.1,-1.3 -2.2,-2.6 -3.4,-3.9 -0.9,-1.1 -1.7,-2.2 -2.6,-3.3 -3.2,-3.7 -7.6,-6.5 -12.4,-7.5 -4.5,-1 -9.2,-0.3 -13.1,2.2 -1.1,0.7 -2.1,1.4 -3.2,2.1 -5.4,3.6 -10.8,7.2 -16.2,10.8 -3.5,2.3 -7,4.7 -10.5,7 -1.4,-3.9 -2.7,-7.8 -4,-11.7 -1,-3.3 -2,-6.5 -3,-9.8 -0.2,-0.8 -0.5,-1.6 -0.7,-2.4 -0.1,-0.4 -0.2,-0.8 -0.3,-1.2 0,-0.2 -0.1,-0.3 -0.1,-0.5 0,-0.6 -0.1,-0.2 0.2,-0.6 0.6,-0.7 1.5,-1.2 2.2,-1.7 0.7,-0.6 1.4,-1.2 2.2,-1.7 5.8,-4.6 11.5,-9.2 17.3,-13.9 0.7,0.7 1.2,1.6 1.9,2.3 0.7,0.9 1.5,1.7 2.3,2.5 1.5,1.4 3.1,2.8 4.9,3.9 3.5,2.2 7.6,3.9 11.8,3.6 6.9,-0.5 10.3,-6.7 10.3,-13 0,-7.6 -3.7,-15 -8.5,-20.6 -4.2,-4.9 -10.1,-9.4 -16.7,-10.2 -2.5,-0.3 -5.2,0.1 -7.4,1.4 -3.2,1.9 -4.9,5.5 -5.4,9.1 -0.6,-0.4 -1.8,-0.5 -2.5,-0.6 -0.9,-0.2 -1.8,-0.5 -2.7,-0.7 -1.8,-0.5 -3.6,-0.9 -5.3,-1.4 -1.9,-0.5 -3.8,-1 -5.7,-1.5 -1,-0.2 -1.9,-0.5 -2.9,-0.7 -0.4,-0.1 -0.9,-0.2 -1.3,-0.3 -0.3,-0.1 -1.2,-0.1 -1.3,-0.3 -0.2,-0.2 0,-1.1 0,-1.4 0,-0.4 0,-0.8 0.1,-1.2 0,-0.8 0.1,-1.7 0.2,-2.5 0.1,-1.5 0.3,-3 0.6,-4.5 0.9,-5.1 2.5,-10.2 5.7,-14.4 3.2,-4.3 7.9,-7.1 13.3,-8.1 4,-0.7 8.2,-0.4 12.1,0.3 5.9,1.1 11.7,3.3 17.1,5.9 6.9,3.3 13.4,7.2 19.7,11.5 7.6,5.1 14.8,10.8 21.9,16.7 8.1,6.8 15.9,13.9 23.4,21.3 8.5,8.3 16.7,16.9 24.7,25.7 8.7,9.6 17.2,19.6 25.4,29.6 8.8,10.8 17.3,21.9 25.6,33.1 8.7,11.9 17.1,23.9 25.3,36.2 1.7,2.9 3.6,5.9 5.6,8.9 z M 318.4,749.1 c 0.9,5.1 0.5,11.4 -3.5,15.2 -2.9,2.7 -6.9,3.3 -10.7,2.4 -9.4,-2.2 -16.7,-11.2 -20.1,-19.8 -3,-7.4 -4.5,-20.1 4.7,-24 4.7,-1.9 10,-0.1 14,2.4 1.2,0.8 2.4,1.6 3.5,2.6 0.1,0.1 0.7,0.7 0.8,0.8 0,0 0.7,-0.4 0.7,-0.4 0.8,-0.5 1.6,-1 2.3,-1.5 2.7,-1.7 5.3,-3.5 8,-5.2 3.1,-2 6.2,-4.1 9.4,-6.1 1.6,-1 3.1,-2 4.7,-3 0.8,-0.5 1.6,-1 2.3,-1.5 0.3,-0.2 0.7,-0.4 1,-0.7 0.2,-0.1 0.4,-0.3 0.7,-0.4 0.4,-0.1 0.4,-0.3 0.2,-0.6 0,-0.7 -0.5,-1.7 -0.7,-2.4 -0.3,-0.8 -0.5,-1.6 -0.8,-2.4 -0.5,-1.7 -1.1,-3.3 -1.6,-5 -1.1,-3.4 -2.3,-6.8 -3.6,-10.2 -6.5,4.3 -13,8.7 -19.4,13 -3.6,2.4 -7.2,4.8 -10.9,7.3 -0.7,0.4 -1.3,0.9 -2,1.3 -2.8,1.8 -6,2.7 -9.3,2.7 -3.6,0 -7.1,-1.1 -10.2,-2.9 -1.7,-1 -3.3,-2.2 -4.7,-3.6 -1.5,-1.5 -2.7,-3.3 -4.1,-4.9 -6.4,-7.6 -12.8,-15.2 -19,-22.9 C 237.5,663.7 225.2,647.8 213.3,631.6 201.5,615.5 190,599.1 179,582.5 168,565.9 157.3,549 147,531.8 c -10.3,-17.2 -20.2,-34.6 -29.7,-52.3 -4.2,-7.9 -8.4,-15.8 -12.5,-23.7 -1.1,-2.1 -2.1,-4.2 -3.2,-6.3 -0.5,-1.1 -1.2,-2 -1.7,-3.1 -0.9,-1.8 -1.6,-3.7 -2.1,-5.6 -1.7,-7.1 0,-15.3 6,-20 2.1,-1.6 4.5,-3 6.7,-4.5 8,-5.3 15.9,-10.6 23.9,-16 0.6,-0.4 1.1,-0.8 1.7,-1.1 -4.7,-4.3 -9.5,-8.4 -14.5,-12.5 -0.3,-0.3 -1.3,-1.3 -1.7,-1.4 -0.4,0 -1.6,1 -2,1.2 -1.5,0.9 -2.9,1.8 -4.4,2.7 -2.7,1.6 -5.4,3.3 -8.1,4.9 -2.8,1.7 -5.6,3.4 -8.4,5.1 -0.7,0.4 -1.3,0.8 -2,1.2 0,0 -0.7,0.4 -0.7,0.4 -0.1,0.2 0.4,0.9 0.4,1.1 0.5,1.5 1,2.9 1.3,4.4 1.1,5.2 1.1,11.4 -2.5,15.7 -5.9,7.1 -16,2.6 -21.7,-2.3 -7.5,-6.6 -13.2,-17.3 -12.1,-27.5 0.5,-4.5 2.7,-9 7.1,-10.7 5.4,-2.1 11.4,0.6 15.7,3.8 0.5,-3.7 1,-7.4 1.5,-11 0.3,-2 0.5,-3.9 0.8,-5.9 0.1,-0.9 0.2,-1.8 0.4,-2.8 0.1,-0.5 0.1,-0.9 0.2,-1.4 0.1,-0.4 0.3,-1.2 0.2,-1.6 -0.1,-0.6 -1.7,-1 -2.3,-1.3 -0.9,-0.4 -1.7,-0.8 -2.6,-1.2 -1.6,-0.7 -3.2,-1.3 -4.9,-1.9 -3,-1.1 -6.1,-1.9 -9.3,-2.5 -5.1,-0.9 -10.4,-1 -15.3,0.9 -5.2,1.9 -9.2,5.9 -11.6,10.8 -2.9,5.9 -4,12.5 -4.2,19 -0.3,7.3 0.3,14.5 1.4,21.7 1.3,8.8 3.3,17.5 5.7,26.1 2.8,10.2 6.1,20.2 9.8,30 4.1,11.2 8.7,22.3 13.6,33.2 5.4,12 11.1,23.8 17.2,35.5 6.6,12.7 13.5,25.2 20.7,37.5 7.6,13 15.5,25.8 23.7,38.4 8.1,12.5 16.5,24.8 25.2,36.8 8.2,11.4 16.7,22.7 25.5,33.7 8.2,10.2 16.5,20.3 25.2,30.1 8,9 16.2,17.9 24.7,26.4 7.6,7.7 15.5,15.1 23.6,22.2 7.1,6.1 14.4,12 22,17.4 6.4,4.6 13.1,8.8 20.1,12.4 3,1.5 6,2.9 9.1,4.2 1.4,0.5 2.8,1.2 4.3,1.5 1.8,0.4 3.8,0.4 5.6,0.6 2,0.2 4,0.4 6,0.6 1.9,0.2 3.8,0.3 5.7,0.5 0.9,0.1 1.9,0.2 2.8,0.2 0.8,0 1.6,-0.3 2.4,-0.6 2.5,-0.9 4.9,-2.2 6.9,-4 3.2,-2.8 5.3,-6.5 6.8,-10.5 1.8,-4.9 2.5,-10.2 2.7,-15.5 0.1,-3.1 0.1,-6.2 -0.1,-9.3 -0.1,-1.7 -0.2,-3.5 -0.4,-5.2 0,-0.4 0,-0.9 -0.3,-1.1 -0.3,-0.1 -1.1,0 -1.4,0 -1,0 -2,0 -3,-0.1 -7.6,0.3 -15,0.2 -22.5,0 z"
     style="fill:#e9c6af" /><path
     id="Элементы-1"
     class="st0"
     d="m 664.1,154.8 c 6.2,-3 18.5,-9.9 28.8,-24 10.3,-14.2 13.1,-28.3 14.1,-35.1 4.9,3.1 10.3,6.8 16.1,11.1 7,5.2 12.3,9.6 15.1,12 7.1,6.1 12.4,11.3 15,13.9 7.8,7.8 13.6,14.6 17.2,19.1 3.8,4.7 8.7,11.1 14.1,19.1 2.6,3.8 6.2,9.5 10.2,16.7 2,3.6 5.8,10.4 9.8,19.4 1.8,4 4.7,10.6 7.8,19 2.1,5.8 3.8,11 5.1,15.3 0.9,2.9 2.5,8.5 4.3,15.8 0.6,2.7 1.8,7.6 3,13.9 0.9,4.7 1.8,10.2 2.7,16.5 -8.6,-1.8 -23,-3.8 -40.2,-0.3 -12.1,2.4 -21.6,6.7 -28.1,10.4 -4.3,-8 -9.4,-17.2 -15.4,-27.5 -2.4,-4.2 -8.7,-14.8 -17.2,-28.3 -3.9,-6.2 -10.5,-16.4 -18.9,-28.7 -8.3,-12.1 -15,-21.3 -17.8,-25.1 -5.6,-7.6 -10.7,-14.3 -14.9,-19.7 -3.7,-4.5 -7.2,-9 -10.8,-13.5 z M 86.7,539.2 c -5.2,4.5 -16.5,13.1 -33.4,16.9 -17.1,3.9 -31.2,0.8 -37.8,-1 0.9,5.7 2.1,12.2 3.7,19.2 2,8.5 3.9,15.1 5,18.6 2.8,9 5.4,15.8 6.8,19.3 4.1,10.2 8,18.3 10.7,23.4 2.8,5.3 6.7,12.4 11.9,20.5 2.5,3.9 6.3,9.5 11.2,16 2.5,3.3 7.3,9.4 13.9,16.7 2.9,3.3 7.8,8.5 14.3,14.7 4.5,4.3 8.6,7.8 12,10.7 2.3,1.9 6.8,5.7 12.8,10.2 2.2,1.7 6.3,4.7 11.6,8.2 4,2.7 8.7,5.7 14.1,9 1.7,-8.7 5.7,-22.6 15.7,-37 7,-10.1 14.7,-17.1 20.7,-21.7 -5.6,-7.1 -12.1,-15.5 -19.1,-25 -2.9,-3.9 -10.1,-13.8 -19.1,-27 -4.1,-6.1 -10.9,-16.1 -18.8,-28.7 -7.8,-12.4 -13.6,-22.2 -16,-26.3 -4.8,-8.2 -8.9,-15.5 -12.2,-21.5 -2.6,-5.1 -5.3,-10.1 -8,-15.2 z" /><path
     id="Энергия"
     class="st0"
     d="m 555,112.9 c -6.8,4.9 -18.5,0.2 -26.4,-10.3 -19.1,15.3 -38.1,30.6 -57.2,45.9 -8.6,-5.2 -17.3,-10.4 -25.9,-15.5 -5.5,14.1 -11,28.3 -16.6,42.4 -8.3,-1 -16.6,-2.1 -24.8,-3.1 -6.2,15.2 -12.4,30.4 -18.6,45.6 -23.5,-6.9 -46.9,-13.8 -70.4,-20.7 0.3,17.6 0.7,35.2 1,52.8 -8.3,4.1 -16.6,8.3 -24.8,12.4 -4.1,-4.5 -8.3,-9 -12.4,-13.5 -4.1,11.7 -8.3,23.5 -12.4,35.2 -24.2,2.8 -48.3,5.5 -72.5,8.3 9.3,6.2 18.6,12.4 28,18.6 -9.7,1 -19.3,2.1 -29,3.1 -7.6,15.5 -15.2,31.1 -22.8,46.6 -11.4,-4.5 -22.8,-9 -34.2,-13.5 -0.3,9.7 -0.7,19.3 -1,29 -13.5,8.3 -27.1,16.6 -40.6,24.8 4,9.9 3,19.6 -3.2,23.4 -7.3,4.5 -19,-1.2 -26.2,-12.7 -7.2,-11.6 -7,-24.6 0.3,-29.1 4.7,-2.9 11.4,-1.6 17.4,3 v 0 c 1.6,-11.7 3.1,-23.5 4.7,-35.2 -3.5,-20 -6.9,-40 -10.4,-60 11.7,2.8 23.5,5.5 35.2,8.3 6.6,5.5 13.1,11 19.7,16.6 2.8,-15.2 5.5,-30.4 8.3,-45.6 2.8,-29.7 5.5,-59.4 8.3,-89 5.5,9 11,17.9 16.6,26.9 -1,13.1 -2.1,26.2 -3.1,39.3 28.3,0 56.6,0 84.9,0 2.1,-5.9 4.1,-11.7 6.2,-17.6 -15.5,-20.7 -31.1,-41.4 -46.6,-62.1 25.5,-4.1 51.1,-8.3 76.6,-12.4 7.6,4.5 15.2,9 22.8,13.5 1.4,-6.2 2.8,-12.4 4.1,-18.6 13.8,2.8 27.6,5.5 41.4,8.3 8.6,0 17.3,0 25.9,0 5.5,-36.6 11,-73.2 16.6,-109.7 42.7,11.1 85.4,22.2 128.1,33.3 0,0 0,0 0,0 0.5,-3.7 2,-6.7 4.7,-8.6 7,-5 19.1,0 26.9,11.1 7.7,10.8 8.4,23.8 1.4,28.8 z m 226.2,308.4 c -7.9,-11.1 -19.9,-16.1 -26.9,-11.1 -6.5,4.6 -6.4,16.1 -0.1,26.5 -21.1,9.5 -42.2,19 -63.3,28.5 1,10 2.1,20 3.1,30 -11,1.7 -22.1,3.5 -33.1,5.2 2.4,17.9 4.8,35.9 7.2,53.8 -11.7,-3.8 -23.5,-7.6 -35.2,-11.4 -19,12.1 -38,24.2 -56.9,36.2 -7.6,-6.2 -15.2,-12.4 -22.8,-18.6 0,16.9 0,33.8 0,50.7 -15.9,-6.2 -31.7,-12.4 -47.6,-18.6 -6.2,1.7 -12.4,3.5 -18.6,5.2 3.5,10 6.9,20 10.4,30 -16.6,1 -33.1,2.1 -49.7,3.1 -10.4,19.7 -20.7,39.3 -31.1,59 -7.6,-9.3 -15.2,-18.6 -22.8,-28 -4.1,15.2 -8.3,30.4 -12.4,45.6 -3.8,-6.6 -7.6,-13.1 -11.4,-19.7 -20.9,13.6 -41.8,27.3 -62.8,40.9 -6.6,-6.1 -14.4,-8.3 -19.8,-5 -7.3,4.5 -7.4,17.6 -0.3,29.1 7.2,11.6 18.9,17.3 26.2,12.7 4.7,-2.9 6.4,-9.3 5.2,-16.5 34.1,0.6 68.2,1.2 102.2,1.8 6.6,6.6 13.1,13.1 19.7,19.7 11.4,-12.1 22.8,-24.2 34.2,-36.2 -6.2,-11.4 -12.4,-22.8 -18.6,-34.2 28,-1.4 55.9,-2.8 83.9,-4.1 -11,-13.1 -22.1,-26.2 -33.1,-39.3 23.1,2.1 46.2,4.1 69.4,6.2 4.8,-11 9.7,-22.1 14.5,-33.1 24.2,22.4 48.3,44.9 72.5,67.3 0.7,-12.4 1.4,-24.8 2.1,-37.3 -7.9,-11 -15.9,-22.1 -23.8,-33.1 5.2,-1.7 10.4,-3.5 15.5,-5.2 -4.8,-14.1 -9.7,-28.3 -14.5,-42.4 32.4,3.8 64.9,7.6 97.3,11.4 8.6,-47.3 17.1,-94.7 25.7,-142 6.3,4.1 13,5.1 17.5,1.9 6.7,-4.9 6.1,-17.9 -1.8,-29 z"
     style="fill:#ffe680" /></g>
</svg>
