<?xml version="1.0" encoding="UTF-8" standalone="no"?>
<!-- Generator: Adobe Illustrator 22.1.0, SVG Export Plug-In . SVG Version: 6.00 Build 0)  -->

<svg
   version="1.1"
   id="Батарейка-2"
   x="0px"
   y="0px"
   viewBox="0 0 842.1 842.2"
   style="enable-background:new 0 0 842.1 842.2;"
   xml:space="preserve"
   sodipodi:docname="energy-cell-4.svg"
   inkscape:version="1.2.1 (9c6d41e410, 2022-07-14)"
   xmlns:inkscape="http://www.inkscape.org/namespaces/inkscape"
   xmlns:sodipodi="http://sodipodi.sourceforge.net/DTD/sodipodi-0.dtd"
   xmlns="http://www.w3.org/2000/svg"
   xmlns:svg="http://www.w3.org/2000/svg"><defs
   id="defs1610" /><sodipodi:namedview
   id="namedview1608"
   pagecolor="#ffffff"
   bordercolor="#111111"
   borderopacity="1"
   inkscape:showpageshadow="0"
   inkscape:pageopacity="0"
   inkscape:pagecheckerboard="1"
   inkscape:deskcolor="#d1d1d1"
   showgrid="false"
   inkscape:zoom="0.69698408"
   inkscape:cx="416.07837"
   inkscape:cy="435.44754"
   inkscape:window-width="1600"
   inkscape:window-height="829"
   inkscape:window-x="0"
   inkscape:window-y="0"
   inkscape:window-maximized="1"
   inkscape:current-layer="Батарейка-2" />
<style
   type="text/css"
   id="style1601">
	.st0{fill:none;stroke:#231F20;stroke-width:10;stroke-miterlimit:10;}
</style>



<path
   id="Энергия"
   class="st0"
   d="m 711.98815,390.93049 c -7.06884,-15.66805 -17.78141,-25.21463 -23.83001,-29.95148 -2.76923,-3.78948 -8.96358,-13.33606 -9.7652,-26.89074 -1.02025,-17.70855 7.79759,-30.24299 10.3482,-33.59522 3.93523,-4.08098 16.97979,-18.65591 18.29154,-40.88268 1.89474,-30.82598 -20.04053,-50.42926 -23.17414,-53.12562 -27.328,-23.53851 -62.01633,-14.21056 -64.71269,-13.40893 2.04049,-6.3401 3.7166,-14.86643 -0.583,-20.18628 -5.10123,-6.19435 -14.6478,-3.20649 -30.53448,-5.4656 -6.55872,-0.94737 -9.32795,-2.11337 -34.83408,-12.24294 -28.56686,-11.29557 -42.77742,-16.90692 -43.36042,-17.05267 -24.92313,-5.61135 -62.45357,-1.82187 -75.13376,18.94741 -9.03646,14.72068 0,29.07698 -11.00408,37.89482 -6.55872,5.24697 -14.3563,3.7166 -31.77334,2.47773 -42.34018,-3.13361 -45.10941,-3.93523 -53.12562,-1.23886 -20.69641,6.92309 -31.19036,25.94337 -32.93935,29.29561 -5.4656,10.3482 -6.48584,19.89477 -8.52633,39.06081 -2.33199,22.15389 0.51012,26.162 -4.29961,36.00008 -6.99596,14.57493 -20.6964,21.27939 -25.06888,23.17413 -18.51016,8.16197 -36.65595,2.69637 -45.76528,0 -13.19031,-3.93523 -12.46156,-7.21459 -22.59114,-9.1822 -12.97169,-2.47774 -34.83408,-1.09312 -46.42115,14.6478 -10.6397,14.35631 -6.41297,32.28347 -6.12147,33.59522 3.78948,15.08505 13.91906,15.66805 18.94741,32.35634 0.80162,2.69636 4.8826,16.90692 -0.583,31.11748 -6.55872,16.97979 -19.96765,16.3968 -31.11748,31.11747 -18.65591,24.63164 -7.72471,61.21471 -6.12147,66.53456 2.04049,6.92309 11.07695,37.3847 40.88268,51.88675 12.97169,6.3401 25.06888,7.28747 32.35635,7.36034 0.65587,0 17.27129,0.21863 25.06888,13.40894 6.55872,11.22269 3.86235,26.89074 -7.36034,36.65595 -1.166,2.11336 -8.45346,15.37655 -3.06074,30.53448 4.80973,13.48181 18.00004,23.97576 33.59522,23.83001 16.10529,-0.14575 30.38873,-11.73282 34.17821,-28.05674 2.18624,-1.96762 7.79759,-6.41297 15.2308,-6.12147 5.82997,0.21862 9.98383,3.27936 12.82594,5.46559 12.89881,10.12958 20.47778,21.42515 24.41301,26.23488 12.60731,15.37655 36.29157,23.46564 56.18635,20.76927 19.23891,-2.62348 40.37256,-15.37655 47.66002,-36.00007 2.76924,-7.94334 2.84212,-15.23081 2.47774,-20.18628 4.44536,-2.91499 10.6397,-6.70447 18.29154,-10.3482 26.52637,-12.68019 49.62764,-14.35631 54.36449,-14.64781 26.23487,-1.60324 25.36038,6.70447 48.82602,4.8826 10.93119,-0.87449 42.04867,-3.27935 53.12562,-25.06888 6.85021,-13.40893 2.84211,-27.54661 1.82186,-31.11747 -5.97572,-21.20652 -24.41301,-30.31586 -27.47374,-31.77335 -2.18624,-3.20648 -5.82997,-9.69233 -4.29961,-16.46967 2.33199,-9.98383 14.50206,-15.08505 20.76928,-17.70854 11.73282,-4.8826 18.72879,-3.20648 26.89075,-10.3482 3.06073,-2.69636 5.02835,-5.4656 6.12147,-7.36034 2.84211,0.21862 7.06884,0.43725 12.24294,0.583 13.62756,0.51012 20.47778,0.72874 25.65188,0 17.27129,-2.47774 28.71261,-15.8138 29.29561,-16.46967 10.12957,-12.17007 10.27532,-26.30775 10.3482,-43.94342 0.14575,-10.6397 0.21862,-23.75714 -6.6316,-38.98794 z m -37.23894,50.06489 c -7.43322,9.40083 -19.74903,12.24294 -36.00008,15.88667 -13.40894,3.06074 -16.61542,0.80162 -25.06888,3.06074 -10.27533,2.76923 -23.75714,10.56682 -36.65595,33.59521 -5.4656,-0.14575 -21.49802,0 -36.65595,11.00407 -5.68422,4.15386 -19.23891,13.91906 -20.76928,28.71262 -1.38461,13.48181 8.30771,19.60328 5.4656,36.65595 -0.58299,3.7166 -1.45749,8.5992 -4.8826,13.40893 -9.54658,13.33606 -30.31585,12.97169 -37.89482,12.82594 -12.97168,-0.21862 -24.04863,-3.64373 -45.76528,-10.3482 -13.11744,-4.00811 -16.54254,-5.82997 -22.59114,-4.8826 -11.00407,1.67611 -23.83001,10.0567 -27.47374,23.83001 -2.33199,8.74496 2.55061,10.71257 1.23887,19.53041 -2.33199,15.37655 -20.04053,30.31585 -37.89482,31.11747 -12.89882,0.583 -22.95552,-6.26722 -31.77335,-12.24294 -12.31582,-8.38058 -22.59114,-19.53041 -22.59114,-19.53041 -5.61135,-6.04859 -7.14172,-8.96358 -11.58707,-11.00407 -8.30771,-3.86236 -17.92717,-0.87449 -25.06888,2.47774 1.74899,-4.22673 3.93523,-11.07695 3.64373,-19.53041 -0.0729,-2.33199 -0.51012,-10.49395 -8.52633,-25.65187 -8.59921,-16.17818 -13.62756,-25.79763 -24.41301,-31.77335 -10.78545,-5.97572 -14.72068,-1.38462 -30.53448,-9.18221 -8.38059,-4.08098 -15.15793,-7.50609 -17.70854,-14.6478 -2.91499,-8.08909 0.94737,-17.2713 4.2996,-25.06888 2.76924,-6.55872 4.37248,-7.36034 6.12147,-11.58707 2.69637,-6.48585 4.08099,-16.6883 -2.47773,-32.64785 0.14575,0.2915 0.36437,0.65588 0.51012,1.02025 -0.65587,-1.23887 -1.31174,-2.47774 -1.96762,-3.78948 l -2.76923,-5.4656 c -4.80973,-7.28747 -3.78949,-16.76117 2.40486,-20.91503 l 9.7652,-6.55872 v 0 c -0.58299,0.43725 -1.31174,-0.36437 -0.87449,-0.94737 6.99596,-9.40083 7.14171,-14.79355 5.82997,-18.07291 -2.18624,-5.31985 -8.30771,-4.80973 -12.82594,-11.58707 -3.64373,-5.53847 -4.8826,-13.91906 -1.82187,-20.18628 6.19435,-12.60731 28.42112,-14.21055 35.41709,-6.70446 4.95547,5.39272 1.02024,14.13768 7.94333,19.5304 3.06074,2.33199 6.55872,2.76924 8.52634,3.06074 4.37248,0.58299 8.8907,-0.72875 11.80569,-1.89474 0.2915,-0.14575 0.583,0.29149 0.2915,0.51012 l 105.15812,-70.17829 14.42918,-9.69233 c -1.02024,-5.90285 -1.96761,-14.72068 -0.72875,-25.2875 1.166,-10.12958 2.69637,-22.51827 10.78545,-31.40898 9.03646,-9.91095 22.22677,-10.93119 42.19443,-12.53444 26.08912,-2.11336 32.79359,3.57086 46.63977,-3.57086 4.37248,-2.25911 14.35631,-7.36033 18.87454,-17.92716 3.86235,-9.03646 0.0729,-14.42918 5.39272,-20.62353 7.72471,-8.8907 19.09316,-8.23483 21.49802,-8.08908 1.67612,0.0729 13.91906,1.02024 19.74903,9.83808 3.86236,5.90284 0.8745,9.25508 5.39273,17.92716 1.23887,2.40486 4.08098,7.87046 9.83808,11.65994 7.79758,5.10123 12.31581,1.53037 17.92716,6.26722 6.19435,5.24698 6.26722,14.42919 6.26722,17.05267 0.0729,10.49395 -7.79759,19.38466 -7.79759,19.38466 2.98786,4.08098 5.97572,8.08909 8.96358,12.24294 l 9.76521,-6.41297 c 6.55872,-4.2996 15.88667,-1.89474 20.6964,5.53848 l 22.08102,33.88671 c 4.80972,7.28746 3.20648,16.90692 -3.35224,21.35227 l -9.25508,6.0486 c 2.69636,4.51823 5.39273,8.96358 8.01621,13.55468 -0.0729,-0.0729 -0.14574,-0.21862 -0.14574,-0.2915 6.41296,0.21863 18.43728,1.53037 29.5871,9.47371 15.01218,10.71257 19.02029,26.74499 22.59115,40.88268 4.2996,17.19841 8.96358,35.9272 -1.23887,48.89889 z"
   style="fill:#afe9dd" /><path
   d="m 628.54668,301.07605 -22.08102,-33.88671 c -4.80973,-7.43322 -14.13768,-9.83808 -20.6964,-5.53848 l -9.91096,6.48585 c 14.13769,19.60328 27.47375,39.71668 39.86244,60.41308 l 9.40083,-6.12147 c 6.63159,-4.44535 8.23483,-14.06481 3.42511,-21.35227 z"
   id="path1735"
   style="fill:#00ff00;fill-opacity:1;stroke:#010101;stroke-width:8.26297;stroke-dasharray:none;stroke-opacity:1" /><path
   d="m 613.826,417.45687 v 0 C 578.84617,352.16118 537.45336,289.78048 490.81359,232.28238 v 0 c -4.80973,-7.28747 -12.68019,-10.71258 -17.41704,-7.57897 l -116.81807,78.1945 -127.31202,84.97185 c -4.73685,3.13361 -4.5911,11.80569 0.2915,19.02028 l 2.98786,5.31985 c 34.54259,63.2552 74.84227,123.66828 119.95168,179.85464 v 0 c 4.80973,7.28746 12.68019,10.71257 17.41704,7.57896 l 107.12574,-71.70865 137.00434,-91.45769 c 4.66398,-3.20648 4.51823,-11.73282 -0.21862,-19.02028 z"
   id="path1733"
   style="fill:#00ff00;fill-opacity:1;stroke:#010101;stroke-width:8.26297;stroke-dasharray:none;stroke-opacity:1" /><path
   d="m 651.13782,392.53374 v 0 C 617.97985,326.07205 576.58705,263.69135 528.19828,207.35925 v 0 c -4.80972,-7.28747 -13.91906,-9.83808 -20.1134,-5.68423 l -34.68833,23.10127 c 4.73685,-3.13361 12.68018,0.2915 17.41704,7.57896 v 0 c 46.49402,57.57098 87.88683,119.8788 123.01241,185.17449 v 0 c 4.80972,7.28747 4.95547,15.88667 0.2915,19.02028 l 34.68833,-23.10126 c 5.97572,-4.22673 7.14172,-13.62756 2.33199,-20.91502 z"
   id="path1731"
   style="fill:#999999;fill-opacity:1;stroke:#010101;stroke-width:8.26297;stroke-dasharray:none;stroke-opacity:1" /><path
   d="m 369.91454,599.57062 -41.9758,28.05674 c -6.19434,4.15385 -15.2308,1.53037 -20.1134,-5.68422 v 0 C 261.03981,566.99565 220.74013,506.50969 187.72791,442.16137 l -2.76923,-5.4656 c -4.80973,-7.28746 -3.78949,-16.76117 2.40486,-20.91502 l 41.9758,-28.05674 c -4.73685,3.13361 -4.5911,11.80569 0.2915,19.02028 l 2.98786,5.31985 c 34.61546,63.2552 74.91514,123.66828 120.02455,179.78177 v 0 c 4.73685,7.57896 12.60731,10.93119 17.27129,7.72471 z"
   id="Батарейка_2_"
   style="fill:#999999;fill-opacity:1;stroke:#010101;stroke-width:8.26297;stroke-dasharray:none;stroke-opacity:1" /><circle
   id="Радиация_3_"
   class="st0"
   cx="422.23853"
   cy="411.04391"
   r="105.08524"
   style="fill:#e6e6e6" /><path
   id="Радиация_2_"
   class="st0"
   d="m 404.16563,430.72005 c -12.46157,12.60732 -24.85026,25.28751 -37.23895,38.18632 -21.5709,-20.18628 -31.11748,-50.93938 -22.37252,-80.67224 17.19842,5.1741 34.68834,10.20245 51.88675,15.30368 -3.13361,9.83808 0.2915,20.47777 7.72472,27.18224 z m 27.47374,5.68423 c 5.53847,16.90691 10.78545,33.95958 16.32392,50.8665 24.70451,-7.79759 45.10941,-26.89074 52.83412,-53.19849 -17.19841,-5.1741 -34.68833,-10.20245 -51.88675,-15.30368 -2.62348,8.67208 -9.1822,15.15793 -17.27129,17.63567 z m 13.55469,-101.80589 c -15.74093,-4.51823 -31.77335,-4.29961 -46.42116,-0.21863 5.53848,16.90692 10.78545,33.95959 16.32392,50.86651 4.80973,-1.31174 9.91096,-1.38462 15.01218,0.14575 4.51823,1.31174 8.45346,3.64373 11.65995,6.77734 12.46156,-12.60731 24.85025,-25.2875 37.23894,-38.18632 -9.1822,-8.5992 -20.62352,-15.5223 -33.81383,-19.38465 z m -34.32397,73.16615 c -1.82186,6.26722 1.89475,12.89881 8.30772,14.9393 6.48584,1.89474 13.19031,-1.60324 15.01217,-8.08909 1.82187,-6.26722 -1.89474,-12.89881 -8.30771,-14.9393 -6.41297,-1.89474 -13.11743,1.60324 -15.01218,8.08909 z"
   style="fill:#ffcc00" />
</svg>
