<?xml version="1.0" encoding="UTF-8" standalone="no"?>
<!-- Generator: Adobe Illustrator 22.1.0, SVG Export Plug-In . SVG Version: 6.00 Build 0)  -->

<svg
   version="1.1"
   id="Наноуглерод"
   x="0px"
   y="0px"
   viewBox="0 0 842.1 842.2"
   style="enable-background:new 0 0 842.1 842.2;"
   xml:space="preserve"
   sodipodi:docname="nanocarbon.svg"
   inkscape:version="1.2.1 (9c6d41e410, 2022-07-14)"
   xmlns:inkscape="http://www.inkscape.org/namespaces/inkscape"
   xmlns:sodipodi="http://sodipodi.sourceforge.net/DTD/sodipodi-0.dtd"
   xmlns="http://www.w3.org/2000/svg"
   xmlns:svg="http://www.w3.org/2000/svg"><defs
   id="defs9" /><sodipodi:namedview
   id="namedview7"
   pagecolor="#ffffff"
   bordercolor="#111111"
   borderopacity="1"
   inkscape:showpageshadow="0"
   inkscape:pageopacity="0"
   inkscape:pagecheckerboard="1"
   inkscape:deskcolor="#d1d1d1"
   showgrid="false"
   inkscape:zoom="0.69698408"
   inkscape:cx="381.6443"
   inkscape:cy="429.70852"
   inkscape:window-width="1600"
   inkscape:window-height="829"
   inkscape:window-x="0"
   inkscape:window-y="0"
   inkscape:window-maximized="1"
   inkscape:current-layer="Наноуглерод" />
<style
   type="text/css"
   id="style2">
	.st0{fill:none;stroke:#000000;stroke-width:10;stroke-miterlimit:10;}
</style>

<g
   id="g168"
   transform="translate(113.7169,120.02402)"><path
     id="Зад"
     class="st0"
     d="m 81.290687,244.82607 c 4.682118,-5.40244 9.436268,-10.73285 14.118386,-16.1353 11.669277,7.41936 23.266527,14.76668 34.935797,22.18604 1.58472,10.73285 3.16944,21.53774 4.68212,32.27059 -17.86408,-10.30066 -35.800191,-20.60132 -53.664271,-30.90197 -0.07203,-2.52114 -0.07203,-4.97025 -0.07203,-7.41936 z M 582.13322,351.57835 c -1.51268,-2.52114 -4.53805,-3.67366 -7.34732,-2.8813 -2.80927,0.79236 -4.75415,3.45757 -4.68212,6.4109 -2.23301,4.46602 -4.46602,8.93204 -6.69903,13.47009 -1.00845,-22.69026 -1.94488,-45.38052 -2.95333,-67.99875 -5.18635,-8.71594 -10.30066,-17.50392 -15.48701,-26.21986 -2.6652,8.71594 -5.40244,17.50392 -8.06765,26.21986 -0.28813,13.90229 -0.50423,27.80457 -0.79236,41.70686 -2.6652,-5.61854 -5.33041,-11.23708 -7.92358,-16.85562 -17.50392,12.74976 -34.9358,25.57156 -52.43972,38.32133 11.02099,-8.06765 22.04197,-16.1353 33.06296,-24.20295 0.14406,-14.11838 0.36016,-28.23677 0.50422,-42.35515 -12.31757,-7.41936 -24.63514,-14.76668 -36.95271,-22.18604 -9.86846,6.26684 -19.73693,12.53367 -29.60539,18.8005 -1.80082,19.01661 -3.60163,38.10524 -5.40244,57.12184 12.24553,6.77106 24.56311,13.54213 36.80864,20.24116 -2.01691,10.01253 -4.03382,20.09709 -6.12277,30.10962 -20.31318,-12.53367 -40.62637,-25.06734 -60.93956,-37.60101 2.44911,-25.28344 4.89822,-50.63891 7.41936,-75.92234 -14.33449,-10.51676 -28.66897,-21.03352 -43.00345,-31.6223 4.46602,-19.52083 8.93204,-38.96963 13.47009,-58.49046 14.11838,-8.06765 28.23677,-16.1353 42.35516,-24.20295 -0.6483,-13.25399 -1.36862,-26.43596 -2.01692,-39.68995 -11.88537,-8.28375 -23.77075,-16.56749 -35.65612,-24.85124 -16.5675,6.69903 -33.13499,13.47009 -49.70248,20.16912 -4.46602,13.68619 -8.93204,27.30035 -13.4701,40.98654 -18.5844,6.69903 -37.16881,13.47009 -55.75322,20.16912 -14.33448,-10.94895 -28.66896,-21.96993 -43.00345,-32.91889 -12.31757,4.89822 -24.63514,9.86847 -36.95271,14.76668 0.2161,20.60132 0.4322,41.20264 0.64829,61.80396 -9.14813,8.49984 -18.29627,16.99969 -27.37238,25.49953 -1.36862,-8.42781 -2.73724,-16.78359 -4.10585,-25.2114 3.31349,-3.88976 6.62699,-7.85155 10.01252,-11.74131 -1.36861,-14.76668 -2.6652,-29.60539 -4.03382,-44.37207 -10.73286,-7.41936 -21.53774,-14.76668 -32.2706,-22.18604 -12.31757,8.06765 -24.63514,16.1353 -36.952711,24.20295 -8.715942,11.81334 -17.431885,23.69872 -26.147827,35.51206 -0.504228,-16.78359 -0.936423,-33.49515 -1.440651,-50.27874 -3.385532,-5.61854 -6.69903,-11.23708 -10.084562,-16.78359 -3.385531,5.40244 -6.69903,10.73285 -10.084561,16.1353 0.432195,12.24554 0.936423,24.56311 1.368619,36.80865 -0.360163,-0.14407 -3.745694,-1.36862 -6.771063,0.57626 -2.449107,1.58471 -3.745694,4.61008 -3.313498,7.63545 -4.033825,14.33448 -8.06765,28.66897 -12.101474,43.00345 -0.648293,-31.33417 -1.368619,-62.74038 -2.016912,-94.07455 11.669278,-17.72001 23.266523,-35.368 34.935801,-53.08801 8.932041,15.27091 17.936113,30.46978 26.868153,45.74069 11.237083,-7.85155 22.402136,-15.70311 33.639216,-23.55466 4.46602,-19.0166 8.93204,-38.105232 13.47009,-57.121834 21.75384,-7.203258 43.43565,-14.334483 65.18949,-21.537742 14.55058,10.30066 29.10116,20.601319 43.72377,30.901978 16.5675,-6.050737 33.13499,-12.101474 49.70249,-18.152211 4.24992,-12.317571 8.49984,-24.635142 12.74976,-36.952714 19.2327,-6.771062 38.53743,-13.470092 57.77013,-20.2411551 13.4701,12.7497671 26.86816,25.5715661 40.33825,38.3213331 11.23708,-6.266834 22.40213,-12.533669 33.63921,-18.800504 15.9192,7.635454 31.8384,15.270908 47.68557,22.834329 -0.2161,16.135298 -0.43219,32.270596 -0.64829,48.405894 14.76668,6.266836 29.60539,12.533666 44.37207,18.800506 0.43219,21.03351 0.86439,42.13906 1.36862,63.17257 -11.88538,8.28375 -23.77075,16.56749 -35.65613,24.85124 -3.16943,15.9192 -6.26683,31.8384 -9.43627,47.68557 12.96587,7.20326 26.00376,14.33448 38.96963,21.53774 2.8813,-8.49984 5.83464,-16.99969 8.71594,-25.57156 -0.072,-2.88131 1.51268,-5.54651 4.03383,-6.69903 2.8813,-1.36862 6.55496,-0.57626 8.71594,2.01691 10.94895,17.50392 21.96993,34.9358 32.91889,52.43972 1.08049,19.52083 2.01691,38.75353 2.95333,57.98622 z M 221.75422,98.3118 c -9.22017,-6.482932 -18.36831,-12.965865 -27.58848,-19.52083 -11.23708,3.817727 -22.40213,7.635454 -33.63921,11.453181 -1.80082,11.885379 -3.60163,23.770749 -5.40245,35.656129 8.71594,6.91513 17.50392,13.90229 26.21986,20.81741 11.23708,-3.81772 22.40213,-7.63545 33.63922,-11.45318 2.30504,-12.31757 4.53805,-24.63514 6.77106,-36.95271 z m 89.39243,17.43188 c -6.69903,-6.26683 -13.47009,-12.53366 -20.16912,-18.800499 -12.53367,4.682119 -25.06734,9.436269 -37.67304,14.118389 -1.58472,9.22017 -3.16943,18.3683 -4.68212,27.58848 8.71594,6.69903 17.50392,13.47009 26.21986,20.16912 9.22017,-3.60163 18.36831,-7.20326 27.58848,-10.73286 2.8813,-10.80488 5.76261,-21.60977 8.71594,-32.34263 z m 71.88852,-53.736301 c -8.28375,-8.715942 -16.56749,-17.503917 -24.85124,-26.219859 -10.30066,3.817726 -20.60132,7.635453 -30.90198,11.45318 -3.60163,10.732855 -7.20326,21.537742 -10.73285,32.270596 7.85155,6.915128 15.7031,13.902288 23.55465,20.817414 12.96587,-5.186344 26.00376,-10.300657 38.96963,-15.487003 1.29658,-7.635453 2.6652,-15.270907 3.96179,-22.834328 z m 53.80834,48.405891 c 7.63545,-5.40244 15.2709,-10.732851 22.83433,-16.135295 0.43219,-10.084561 0.86439,-20.169122 1.36861,-30.253684 -8.06764,-3.601629 -16.13529,-7.203258 -24.20294,-10.732854 -7.85155,4.682118 -15.70311,9.436268 -23.55466,14.118386 -1.15252,7.635453 -2.23301,15.270907 -3.38553,22.834328 9.00407,6.69903 17.93611,13.398059 26.94019,20.169119 z m 32.27059,98.75667 c -9.43626,-4.68212 -18.8005,-9.43627 -28.23677,-14.11838 -10.08456,5.18634 -20.16912,10.30066 -30.25368,15.487 -2.66521,11.45318 -5.40245,22.83433 -8.06765,34.28751 9.65236,7.20326 19.2327,14.33448 28.88506,21.53774 10.08456,-6.26683 20.16913,-12.53367 30.25369,-18.8005 2.44911,-12.8218 4.89821,-25.6436 7.41935,-38.39337 z m 18.80051,-28.88506 c 6.26683,-4.24993 12.53367,-8.49985 18.8005,-12.74977 0,-12.10147 0,-24.20295 0,-36.30442 -10.73285,-4.03383 -21.53774,-8.06765 -32.2706,-12.10147 -6.48293,4.24992 -12.96586,8.49984 -19.52083,12.74976 0.4322,10.94896 0.8644,21.96994 1.36862,32.91889 10.58879,5.18635 21.10555,10.30066 31.62231,15.48701 z"
     style="fill:#f2f2f2" /><path
     id="Перед"
     class="st0"
     d="m 582.70948,354.38763 c 0.14407,-3.02537 -1.94488,-5.61855 -4.68211,-6.05074 -2.44911,-0.36016 -4.97025,0.93642 -6.05074,3.38553 -5.40244,10.73285 -10.73286,21.53774 -16.1353,32.2706 -9.22017,-19.52083 -18.36831,-38.96963 -27.58848,-58.49046 -17.50391,12.74977 -34.9358,25.57157 -52.43972,38.32133 -4.03382,19.95303 -8.06765,39.90605 -12.10147,59.78705 -22.83433,-8.49985 -45.74069,-16.99969 -68.57502,-25.57157 -19.95302,16.3514 -39.90605,32.70279 -59.78704,49.05419 -22.61823,-8.06765 -45.23646,-16.1353 -67.85469,-24.20295 -4.03383,-24.41904 -8.06765,-48.83809 -12.10147,-73.25713 -28.23678,-16.5675 -56.47355,-33.13499 -84.71032,-49.70249 -4.46602,-27.58847 -8.93204,-55.10492 -13.47009,-82.6934 -20.16913,-12.31757 -40.33825,-24.63514 -60.507371,-36.95271 -11.885376,16.1353 -23.770752,32.27059 -35.656128,48.40589 -2.23301,-7.85155 -4.46602,-15.7031 -6.69903,-23.55465 -0.144065,-0.28813 -2.016912,-3.60163 -6.050736,-4.03383 -3.961792,-0.43219 -6.482933,2.44911 -6.69903,2.66521 -5.402444,19.52083 -10.732855,38.96962 -16.135299,58.49045 -0.432195,19.2327 -0.864391,38.53744 -1.368619,57.77013 3.169434,11.88538 6.266835,23.77076 9.436268,35.65613 0.216098,0.36017 1.800815,3.38553 5.402444,4.03383 3.817727,0.72032 6.482932,-1.80082 6.69903,-2.01692 4.898216,-8.06764 9.868464,-16.13529 14.766679,-24.20294 13.686191,10.51675 27.300348,21.03351 40.986542,31.6223 8.28374,27.08425 16.56749,54.24053 24.85124,81.32478 22.61823,13.254 45.23646,26.43596 67.85469,39.68996 6.05074,26.86815 12.10147,53.7363 18.15221,80.67649 30.46978,10.30066 60.93956,20.60132 91.40934,30.90197 18.58441,-13.68619 37.16882,-27.30034 55.75322,-40.98653 23.98685,7.63545 47.9737,15.2709 71.88852,22.83432 20.38522,-18.5844 40.77044,-37.16881 61.15566,-55.75321 14.33448,-6.05074 28.66897,-12.10148 43.00345,-18.15221 2.44911,11.45318 4.89822,22.83432 7.41936,34.2875 0.43219,3.88976 3.3135,6.98716 6.69903,7.41936 3.81772,0.50423 6.48293,-2.37707 6.69903,-2.66521 9.22017,-16.35139 18.3683,-32.70279 27.58847,-49.05418 2.23301,-21.03352 4.46602,-42.13906 6.69903,-63.17258 -2.52114,-26.14782 -5.18634,-52.15159 -7.85155,-78.08331 z M 50.316677,298.56238 c -2.449108,5.40244 -4.898216,10.73285 -7.419356,16.13529 -0.792358,-2.30504 -1.440652,-4.75415 -2.016912,-7.41935 -3.313499,-15.27091 -0.864391,-28.88507 2.016912,-38.32134 1.368619,-6.05073 2.665206,-12.10147 4.033825,-18.15221 1.368619,8.06765 2.665205,16.1353 4.033824,24.20295 -0.144065,7.85155 -0.360163,15.7031 -0.648293,23.55466 z m 59.859073,33.63921 c -9.43627,-7.63545 -18.800502,-15.27091 -28.23677,-22.83433 -0.216098,-21.53774 -0.432196,-43.00345 -0.648293,-64.54119 6.69903,-8.28375 13.470092,-16.56749 20.169123,-24.85124 8.93204,4.89821 17.93611,9.86846 26.86815,14.76668 3.16944,22.40213 6.26684,44.80426 9.43627,67.2064 -9.22017,10.08456 -18.44034,20.16912 -27.58848,30.25368 z m 96.81179,115.61229 c -16.56749,-9.43626 -33.13499,-18.8005 -49.70248,-28.23677 -5.83464,-18.5844 -11.66928,-37.16881 -17.50392,-55.75322 7.41936,-8.06765 14.76668,-16.13529 22.18604,-24.20294 21.24961,12.96586 42.57125,26.00376 63.82086,38.96962 2.01692,14.55058 4.03383,29.10117 6.05074,43.72378 -8.28375,8.42781 -16.56749,16.92766 -24.85124,25.49953 z m 87.37552,108.84123 c -17.72001,-6.26683 -35.368,-12.53367 -53.08801,-18.8005 -3.60163,-16.78359 -7.20326,-33.63922 -10.73286,-50.42281 9.86847,-9.65236 19.73693,-19.2327 29.6054,-28.88506 19.23269,6.48293 38.53743,12.96586 57.77013,19.52083 2.8813,16.56749 5.83463,33.13498 8.71594,49.70248 -10.80489,9.65236 -21.53774,19.30473 -32.2706,28.88506 z m 132.39589,-17.43188 c -18.80051,-6.48293 -37.67304,-12.96587 -56.47355,-19.52083 -2.8813,-15.7031 -5.83464,-31.33417 -8.71594,-47.03728 13.68619,-10.73285 27.30035,-21.53774 40.98654,-32.27059 16.1353,6.26683 32.27059,12.53367 48.40589,18.8005 3.60163,14.98278 7.20326,30.03759 10.73286,45.02036 -11.66928,11.66928 -23.26653,23.33856 -34.9358,35.00784 z m 100.77358,-66.55811 c -9.43627,3.81773 -18.80051,7.63546 -28.23678,11.45318 -3.38553,-14.98277 -6.69903,-30.03758 -10.08456,-45.02036 3.38553,-14.98278 6.69903,-30.03759 10.08456,-45.02036 6.91513,-5.40245 13.90229,-10.73286 20.81742,-16.1353 4.89822,12.10147 9.86846,24.20295 14.76668,36.30442 -2.37708,19.4488 -4.82618,38.89759 -7.34732,58.41842 z m 39.04166,6.05074 c -2.66521,6.91513 -5.40245,13.90229 -8.06765,20.81742 -0.86439,-8.93204 -1.80082,-17.93612 -2.66521,-26.86816 2.01691,-17.50391 4.03383,-34.9358 6.05074,-52.43972 2.01691,-4.03382 4.03382,-8.06764 6.05073,-12.10147 0.8644,13.47009 1.80082,26.86815 2.66521,40.33825 -1.36862,10.08456 -2.73724,20.16912 -4.03382,30.25368 z"
     style="fill:#ffffff" /></g>
</svg>
