<?xml version="1.0" encoding="UTF-8" standalone="no"?>
<!-- Generator: Adobe Illustrator 22.1.0, SVG Export Plug-In . SVG Version: 6.00 Build 0)  -->

<svg
   version="1.1"
   id="Руда_металла"
   x="0px"
   y="0px"
   viewBox="0 0 842.1 842.2"
   style="enable-background:new 0 0 842.1 842.2;"
   xml:space="preserve"
   sodipodi:docname="plasteel-deposit.svg"
   inkscape:version="1.2.1 (9c6d41e410, 2022-07-14)"
   xmlns:inkscape="http://www.inkscape.org/namespaces/inkscape"
   xmlns:sodipodi="http://sodipodi.sourceforge.net/DTD/sodipodi-0.dtd"
   xmlns="http://www.w3.org/2000/svg"
   xmlns:svg="http://www.w3.org/2000/svg"><defs
   id="defs12" /><sodipodi:namedview
   id="namedview10"
   pagecolor="#ffffff"
   bordercolor="#111111"
   borderopacity="1"
   inkscape:showpageshadow="0"
   inkscape:pageopacity="0"
   inkscape:pagecheckerboard="1"
   inkscape:deskcolor="#d1d1d1"
   showgrid="false"
   inkscape:zoom="0.69698408"
   inkscape:cx="415.36099"
   inkscape:cy="467.0121"
   inkscape:window-width="1600"
   inkscape:window-height="829"
   inkscape:window-x="0"
   inkscape:window-y="0"
   inkscape:window-maximized="1"
   inkscape:current-layer="Руда_металла" />
<style
   type="text/css"
   id="style2">
	.st0{fill:none;stroke:#000000;stroke-width:10;stroke-miterlimit:10;}
</style>




<g
   id="g120"
   transform="matrix(0.66358543,0,0,0.66358543,139.154,142.33265)"><path
     id="Грани-4"
     class="st0"
     d="m 595.7,680.4 -33.3,21.2 C 532.9,684 503.5,666.4 474,648.8 v 0 c 9.7,-10 18.6,-19.8 26.5,-29.3 -23,1.3 -46,2.7 -68.9,4 -30.1,-18 -60.1,-35.9 -90.2,-53.9 -1,-0.6 -0.7,-2.1 0.5,-2.2 15.7,-1.7 32.5,-4.2 50.1,-7.7 37.8,-7.6 70.8,-18.3 98.4,-29.4 35.1,50 70.2,100 105.4,150 0,0 0,0.1 -0.1,0.1 z m 19.4,-414.6 c -0.1,-0.1 -0.1,-0.1 -0.1,-0.2 -1.7,-0.6 -16,-6 -19.2,-20.2 -1.8,-7.9 0.8,-14.5 2,-17.1 0,-0.1 0,-0.1 0,-0.2 -10.7,-18.1 -21.5,-36.3 -32.2,-54.4 -0.1,-0.1 -0.2,-0.2 -0.4,-0.1 -18.1,14.8 -36.3,29.6 -54.4,44.3 -0.1,0.1 -0.2,0.1 -0.2,0 -10.8,-4.7 -21.5,-9.4 -32.3,-14.1 0,0 0,0 -0.1,0 -26.8,-3.9 -79.4,-11.4 -83.9,-12 -0.1,0 -0.2,0.1 -0.2,0.2 14.9,32.8 29.8,65.6 44.7,98.4 25.3,0.9 50.6,1.7 76,2.6 -20.4,10 -40.8,20 -61.1,30 12.9,28.5 25.9,57 38.8,85.6 l 139.8,-81 c 0.1,-0.1 0.1,-0.2 0.1,-0.3 -5.8,-20.5 -11.5,-41 -17.3,-61.5 z M 241.9,676.1 c -16.9,-4.7 -33.8,-9.4 -50.6,-14 -5.1,-10.1 -7.7,-15.2 -12.8,-25.4 11.2,-29.2 23.2,-59.2 36.1,-89.8 -0.1,0.1 -0.1,0.2 -0.2,0.3 -3.7,-15.2 -7.4,-30.4 -11.1,-45.7 -23.3,-14.1 -46.6,-28.2 -69.9,-42.3 0,0 0,0 0,0 -2.2,21.5 -4.9,43.5 -8.1,65.9 -10.3,72.6 -24.4,140.1 -40.5,202.2 0,0 0,0.1 0.1,0.1 35.9,1.3 71.9,2.5 107.8,3.8 26.6,-29.6 49.2,-55.1 49.2,-55.1 z"
     style="fill:#5fd3bc" /><path
     id="Грани-3"
     class="st0"
     d="m 214.4,547.3 c -25,-103 -49.9,-206 -74.9,-309 9.8,12.2 19.6,24.3 29.4,36.5 2.4,7.7 7,19.4 16.2,31.4 8.9,11.7 18.7,19 25.3,23.3 -4.8,-13 -9.9,-26.2 -15.2,-39.5 -15.8,-39.5 -32.5,-76.7 -49.7,-111.5 9.8,-40.2 19.6,-80.4 29.4,-120.7 19.6,2.4 39.2,4.7 58.8,7.1 21.2,100.9 42.4,201.7 63.7,302.6 -27.6,59.9 -55.3,119.9 -83,179.8 z M 515.5,566 c 26.8,38.1 53.6,76.3 80.4,114.4 l 4.1,79.1 c 60.4,-56 120.8,-112 181.2,-168.1 0.1,-0.1 0,-0.1 -0.1,-0.1 -68.2,5.7 -136.3,11.4 -204.5,17.1 25.7,-25 51.4,-50 77.1,-75 -49.2,-8.4 -98.5,-16.9 -147.7,-25.3 -7.1,11.3 -7.7,12.1 -14.8,23.4 8.1,11.4 16.2,23 24.3,34.5 z"
     style="fill:#87decd" /><path
     id="Грани-2"
     class="st0"
     d="m 601.7,802.5 c -9.5,10.1 -14.6,15.6 -24,25.6 -0.1,0.1 -0.2,0 -0.2,-0.1 -5,-42.1 -10.1,-84.3 -15.1,-126.4 0,0 0.1,0 0.1,0 l 33.3,-21.2 c 0.1,0 0.1,0 0.1,0.1 1.9,40.7 3.8,81.4 5.8,122 z M 492.4,408.6 c -100.2,84.3 -200.3,168.6 -300.5,252.9 -0.3,0.2 -0.2,0.7 0.2,0.8 16.6,4.6 33.2,9.2 49.8,13.8 5.4,-6.1 10.8,-12.1 16.2,-18.2 15.8,-17.7 31.5,-35.4 47.3,-53.2 11,-12.3 21.9,-24.7 32.9,-37 20,-2 38,-4.9 53.7,-8.1 14.1,-2.8 33,-7.2 54.9,-14 16.8,-5.2 31.4,-10.6 43.5,-15.4 47.2,-67.5 94.5,-135 141.7,-202.4 0.1,-0.1 0,-0.2 -0.1,-0.1 z M 271.7,244.9 c 8.2,38.8 16.3,77.6 24.5,116.4 0.4,2.2 0.7,4.4 1.1,6.6 16.2,-32.2 32.6,-63.2 49.1,-93 15.9,-82.5 31.9,-165 47.8,-247.6 0.1,-0.4 -0.4,-0.6 -0.6,-0.2 -40.7,72.5 -81.3,145.2 -121.9,217.8 z"
     style="fill:#afe9dd" /><path
     id="Грани-1"
     class="st0"
     d="m 577.4,828.2 c 0,0.1 0,0.1 0,0 -93,1.7 -190.1,0.9 -290.9,-2.9 -57.8,-2.2 -114.2,-5.3 -169.2,-9.1 0,-0.1 0,-0.1 -0.1,-0.1 L 338.1,567.9 c 0,0 0.1,0 0.1,0 31.1,18.6 62.2,37.1 93.2,55.7 -3.4,24 -6.8,48 -10.2,72 16.7,-12.8 34.5,-28.3 52.6,-46.7 29.4,17.6 58.9,35.2 88.3,52.8 5.3,42.1 10.3,84.3 15.3,126.5 z M 399.1,349.8 C 412.3,330 425.5,310.2 438.7,290.4 423.9,257.7 409,225 394.2,192.3 c -0.1,-0.2 -0.4,-0.2 -0.5,0 -35.4,59.6 -71.2,124.6 -106.1,195.1 -43.5,87.9 -79.5,171.9 -109.5,250.4 0,0.1 0,0.1 0,0.2 4.3,8 8.7,16 13,24 0.1,0.1 0.2,0.2 0.4,0.1 100.3,-84.4 200.6,-168.9 300.9,-253.3 0,0 0,0 0,0 -12.9,-28.5 -25.9,-57 -38.8,-85.6 -18.2,8.8 -36.3,17.7 -54.5,26.6 z M 133,459.4 79.7,475.5 c -4.6,37 -8.3,77 -10.1,119.7 -2.1,47.1 -1.8,91.2 0,131.8 8.7,0.9 6.3,0.7 15,1.6 16.3,-62.5 30.5,-130.4 40.8,-203.4 3.2,-22.2 5.8,-44.1 8.1,-65.5 -0.1,-0.1 -0.3,-0.3 -0.5,-0.3 z m 443.6,149 c 68.2,-5.7 136.5,-11.4 204.7,-17.1 0,0 0.1,-0.1 0.1,-0.1 -2.2,-57.8 -5.8,-106.5 -9.1,-143 -3.9,-43.4 -7,-77.1 -14.2,-121.7 -8.1,-49.9 -17.7,-91.2 -25.3,-120.7 -23.7,2.7 -47.3,5.4 -71,8.1 4.5,-13.4 9.3,-26.9 14.2,-40.6 9.9,-27.3 20.1,-53.7 30.4,-79.1 -6.8,-24.7 -13.5,-49.3 -20.3,-74 -85.3,-11.5 -176.5,-13 -271.8,1 -6.5,1 -12.9,2 -19.3,3 -0.2,0.3 -0.3,0.6 -0.5,0.8 -16.1,83.2 -32.1,166.4 -48.2,249.7 15.9,-28.8 31.8,-56.6 47.7,-83.2 28.1,4.1 56.1,8.1 84.2,12.2 10.8,4.7 21.6,9.5 32.4,14.2 18.3,-14.9 36.5,-29.7 54.8,-44.6 10.8,18.3 21.6,36.5 32.4,54.8 -1.2,2.5 -3.8,9.2 -2,17.2 3.3,14.6 18.3,20 19.3,20.3 5.7,20.6 11.5,41.2 17.2,61.9 -42.1,60.2 -84.2,120.4 -126.3,180.5 49.2,8.4 98.5,16.9 147.7,25.3 -25.8,25.1 -51.4,50.1 -77.1,75.1 z"
     style="fill:#d7f4ee" /><path
     id="Сколы"
     class="st0"
     d="m 421.4,695.6 c 3.4,-24 6.8,-48 10.2,-72 23,-1.3 46,-2.7 68.9,-4 -8,9.5 -16.8,19.4 -26.5,29.3 -18,18.4 -35.9,33.8 -52.6,46.7 z M 514.7,293 c -25.3,-0.9 -50.6,-1.7 -76,-2.6 -13.2,19.8 -26.4,39.6 -39.6,59.4 38.6,-18.9 77.1,-37.8 115.6,-56.8 z"
     style="fill:#2ca089" /></g>
</svg>
