<?xml version="1.0" encoding="UTF-8" standalone="no"?>
<!-- Generator: Adobe Illustrator 22.1.0, SVG Export Plug-In . SVG Version: 6.00 Build 0)  -->

<svg
   version="1.1"
   id="Металл"
   x="0px"
   y="0px"
   viewBox="0 0 842.1 842.2"
   style="enable-background:new 0 0 842.1 842.2;"
   xml:space="preserve"
   sodipodi:docname="plasteel.svg"
   inkscape:version="1.2.1 (9c6d41e410, 2022-07-14)"
   xmlns:inkscape="http://www.inkscape.org/namespaces/inkscape"
   xmlns:sodipodi="http://sodipodi.sourceforge.net/DTD/sodipodi-0.dtd"
   xmlns="http://www.w3.org/2000/svg"
   xmlns:svg="http://www.w3.org/2000/svg"><defs
   id="defs10" /><sodipodi:namedview
   id="namedview8"
   pagecolor="#ffffff"
   bordercolor="#111111"
   borderopacity="1"
   inkscape:showpageshadow="0"
   inkscape:pageopacity="0"
   inkscape:pagecheckerboard="1"
   inkscape:deskcolor="#d1d1d1"
   showgrid="false"
   inkscape:zoom="0.69698408"
   inkscape:cx="416.79575"
   inkscape:cy="449.79507"
   inkscape:window-width="1600"
   inkscape:window-height="829"
   inkscape:window-x="0"
   inkscape:window-y="0"
   inkscape:window-maximized="1"
   inkscape:current-layer="Металл" />
<style
   type="text/css"
   id="style2">
	.st0{fill:none;stroke:#000000;stroke-width:10;stroke-miterlimit:10;}
</style>


<g
   id="g116"
   transform="matrix(0.68935935,0,0,0.68935935,109.10583,153.17571)"><path
     id="Штыри"
     class="st0"
     d="m 140.1,691.4 c -7.4,3.5 -19.5,-6.4 -27,-22.2 -7.6,-15.8 -7.7,-31.4 -0.3,-35 7.4,-3.6 19.5,6.4 27,22.2 7.6,15.8 7.7,31.4 0.3,35 z M 161.8,587 c 3.5,7.4 5.7,14.7 6.4,20.9 0.2,1.3 2,1.5 2.4,0.2 6.6,-19.4 13.1,-38.8 19.7,-58.2 2.9,-7.6 -5.2,-17.8 -18,-22.6 -12.8,-4.8 -25.6,-2.6 -28.5,5.1 0,0 0,0 0,0 -3,9.1 -6,18.2 -9,27.4 -0.3,0.9 0.4,1.7 1.3,1.6 7.5,-0.3 18.4,10.2 25.7,25.6 z m 0,0 c -7.8,-16.3 -19.6,-27.2 -27.1,-25.4 -0.4,0.1 -0.7,0.4 -0.8,0.8 -1.8,5.3 -3.5,10.7 -5.3,16 -6,18.2 -12,36.3 -18,54.5 -0.4,1.1 0.8,2 1.8,1.5 0.1,-0.1 0.2,-0.1 0.3,-0.2 7.4,-3.5 19.5,6.4 27,22.2 3.2,6.7 5.1,13.3 5.6,19.1 0.1,1.3 2,1.5 2.4,0.3 l 17.8,-52.7 c 0.9,-2.8 1.9,-5.6 2.8,-8.3 0,-0.1 0.1,-0.2 0.1,-0.3 0.6,-7.4 -1.7,-17.4 -6.6,-27.5 z m 160.8,138.4 c -8.2,-15.4 -20.8,-24.8 -28,-21 -7.2,3.9 -6.4,19.5 1.9,34.9 8.2,15.4 20.8,24.8 28,21 7.2,-3.8 6.4,-19.4 -1.9,-34.9 z m 19,-70.3 c 3.7,7 6.2,14 7.3,20 0.3,1.4 2.3,1.5 2.7,0.1 5.6,-19.5 11.3,-39 16.9,-58.4 2.5,-7.8 -6,-17.5 -19,-21.8 -13,-4.3 -25.7,-1.5 -28.2,6.3 0,0 0,0 0,0 -2.6,9.2 -5.2,18.4 -7.8,27.5 -0.3,0.9 0.5,1.8 1.4,1.7 7.4,-0.4 18.7,9.6 26.7,24.6 z m 0,0 c -8.5,-15.8 -20.5,-26.1 -28,-24.2 -0.5,0.1 -0.9,0.5 -1,1 -1.5,5.4 -3,10.8 -4.6,16.2 -5.2,18.3 -10.3,36.6 -15.5,54.9 -0.3,1.2 0.9,2.1 2,1.6 0,0 0,0 0.1,0 7.2,-3.9 19.7,5.5 28,21 3.4,6.3 5.5,12.7 6.4,18.2 0.2,1.5 2.3,1.6 2.7,0.2 L 347,691 c 0.8,-2.8 1.6,-5.6 2.4,-8.4 0,-0.1 0.1,-0.2 0.1,-0.4 0.1,-7.3 -2.6,-17.2 -7.9,-27.1 z m 186.8,146.1 c -9.2,-14.9 -22.3,-23.5 -29.2,-19.2 -7,4.3 -5.1,19.8 4.1,34.7 9.2,14.9 22.3,23.5 29.2,19.2 6.9,-4.2 5,-19.8 -4.1,-34.7 z m 14.5,-71.3 c 4.3,7 7.3,14.1 8.7,20.3 0.3,1.3 2.1,1.3 2.3,0 4.5,-20 8.9,-40.1 13.4,-60.1 2.1,-7.9 -7,-17.1 -20.3,-20.6 -13.3,-3.5 -25.7,0.2 -27.8,8.1 0,0 0,0 0,0 -2,9.4 -4.1,18.8 -6.1,28.2 -0.2,0.8 0.6,1.6 1.4,1.4 7.4,-1.2 19.4,8.1 28.4,22.7 z m 0,0 c -9.6,-15.5 -22.5,-25.1 -29.8,-22.3 -0.3,0.1 -0.5,0.4 -0.5,0.6 -1.2,5.6 -2.4,11.1 -3.6,16.7 -4.1,19 -8.2,38 -12.3,57 -0.2,0.8 0.8,1.4 1.4,0.9 0.3,-0.3 0.6,-0.5 1,-0.8 7,-4.3 20,4.3 29.2,19.2 4.3,6.9 7,14 7.9,20 0.2,1 1.5,1 1.7,0.1 l 12.5,-56 c 0.6,-2.9 1.3,-5.8 1.9,-8.6 0,-0.1 0,-0.2 0,-0.2 -0.2,-7.3 -3.5,-17.1 -9.4,-26.6 z"
     style="fill:#b7c8b7" /><path
     id="Основа"
     class="st0"
     d="m 195.4,15.7 h 577.5 c 0.3,0 0.5,0.2 0.4,0.5 L 620.2,681.3 c -0.1,0.2 -0.3,0.4 -0.5,0.3 L 38,464.1 C 37.8,464 37.7,463.8 37.8,463.6 90.2,314.4 142.6,165.2 195,16 c 0.1,-0.2 0.2,-0.3 0.4,-0.3 z m 576.8,3 -152.5,662.7 c 0,0.2 0,0.3 0,0.5 9.7,23.9 19.3,47.7 29,71.6 0.3,0.7 1.3,0.6 1.5,-0.1 49.1,-216.2 98.3,-432.4 147.4,-648.6 0,-0.1 0,-0.3 0,-0.4 L 773.7,18.8 c -0.2,-0.9 -1.3,-0.9 -1.5,-0.1 z M 648.3,752.2 c -9.5,-23.5 -19,-47.1 -28.4,-70.6 -0.1,-0.2 -0.2,-0.3 -0.3,-0.3 L 40.6,465.1 c -0.6,-0.2 -1.1,0.5 -0.6,1 27.4,27.8 54.8,55.7 82.2,83.5 0.1,0.1 0.1,0.1 0.2,0.1 4.7,1.8 9.4,3.6 14.1,5.4 2.5,-7.6 5,-15.1 7.5,-22.7 0,0 0,0 0,0 2.9,-7.6 15.6,-9.9 28.5,-5.1 12.8,4.8 20.9,15 18,22.6 -2.6,7.7 -5.2,15.4 -7.8,23.1 44.1,17.1 88.2,34.1 132.3,51.2 2.1,-7.6 4.3,-15.2 6.4,-22.8 0,0 0,0 0,0 2.5,-7.8 15.2,-10.6 28.2,-6.3 13,4.3 21.5,14 19,21.8 -2.4,8.4 -4.9,16.9 -7.3,25.3 51,19.7 102,39.5 152.9,59.2 1.7,-7.9 3.4,-15.9 5.1,-23.8 0,0 0,0 0,0 2.1,-7.9 14.5,-11.5 27.8,-8.1 13.3,3.5 22.4,12.7 20.3,20.6 -2.2,9.8 -4.4,19.6 -6.6,29.4 28.9,11.2 57.8,22.4 86.7,33.6 0.5,0 1,-0.4 0.8,-0.9 z"
     style="fill:#aaeeff" /><path
     id="Блики"
     class="st0"
     d="m 72.3,365.3 c 205.3,-116.5 410.7,-233 616,-349.5 20.7,0 41.4,0 62,0 C 518.8,148 287.2,280.2 55.7,412.4 61.2,396.7 66.8,381 72.3,365.3 Z M 86.9,323.8 C 270.7,221.1 454.6,118.4 638.5,15.7 c -31.5,0 -62.9,0 -94.4,0 -144.2,79.3 -288.4,158.7 -432.6,238 -8.2,23.4 -16.4,46.7 -24.6,70.1 z M 159.1,118.4 C 222.5,84.2 285.9,50 349.3,15.8 c -13.4,0 -26.8,0 -40.2,0 -46.9,25.4 -93.8,50.9 -140.8,76.3 -3.1,8.7 -6.2,17.5 -9.2,26.3 z m 92.1,425.4 c 153.8,-88 307.6,-176 461.5,-263.9 4.1,-17.8 8.2,-35.5 12.3,-53.3 -174.8,99.4 -349.5,198.9 -524.2,298.3 16.8,6.3 33.6,12.6 50.4,18.9 z m 229.1,85.7 c 58.6,-34.5 117.1,-69 175.7,-103.6 7.7,-33.3 15.3,-66.5 23,-99.8 -97.3,56.2 -194.6,112.3 -291.9,168.5 31,11.7 62.1,23.3 93.2,34.9 z"
     style="fill:#d5f6ff" /></g>
</svg>
