<?xml version="1.0" encoding="UTF-8" standalone="no"?>
<!-- Generator: Adobe Illustrator 22.1.0, SVG Export Plug-In . SVG Version: 6.00 Build 0)  -->

<svg
   version="1.1"
   id="Энергостанция"
   x="0px"
   y="0px"
   viewBox="0 0 842.1 842.2"
   style="enable-background:new 0 0 842.1 842.2;"
   xml:space="preserve"
   sodipodi:docname="power-station.svg"
   inkscape:version="1.2.1 (9c6d41e410, 2022-07-14)"
   xmlns:inkscape="http://www.inkscape.org/namespaces/inkscape"
   xmlns:sodipodi="http://sodipodi.sourceforge.net/DTD/sodipodi-0.dtd"
   xmlns="http://www.w3.org/2000/svg"
   xmlns:svg="http://www.w3.org/2000/svg"><defs
   id="defs16" /><sodipodi:namedview
   id="namedview14"
   pagecolor="#ffffff"
   bordercolor="#111111"
   borderopacity="1"
   inkscape:showpageshadow="0"
   inkscape:pageopacity="0"
   inkscape:pagecheckerboard="1"
   inkscape:deskcolor="#d1d1d1"
   showgrid="false"
   inkscape:zoom="0.69698408"
   inkscape:cx="420.38263"
   inkscape:cy="422.53476"
   inkscape:window-width="1600"
   inkscape:window-height="829"
   inkscape:window-x="0"
   inkscape:window-y="0"
   inkscape:window-maximized="1"
   inkscape:current-layer="Энергостанция" />
<style
   type="text/css"
   id="style2">
	.st0{fill:none;stroke:#231F20;stroke-width:10;stroke-miterlimit:10;}
	.st1{fill:none;stroke:#231F20;stroke-width:5;stroke-miterlimit:10;}
</style>
<path
   id="Элементы"
   class="st0"
   d="M53.7,192.6c-0.7-3-1-6.1-1-9.2v-34.6c0-23.3,19.1-42.3,42.3-42.3h0v86.3L53.7,192.6z   M193.3,271.4v41.5c2.7,0.5,5.5,0.8,8.3,0.8h34.6c23.3,0,42.3-19.1,42.3-42.3v0H193.3z M792,192.6c0.7-3,1-6.1,1-9.2v-34.6  c0-23.3-19.1-42.3-42.3-42.3h0v86.3L792,192.6z M567.1,271.4L567.1,271.4c0,23.3,19.1,42.3,42.3,42.3H644c2.9,0,5.6-0.3,8.3-0.8  v-41.5H567.1z M678.2,374.2c-0.3-0.1-0.6-0.3-0.8-0.4h-47.6H602c30.1,30.7,51.2,97.8,51.1,164.8l0.2,18.2  c0,53.5-20,114.5-48.9,144.8H624h52.4c0.6-0.4,1.3-0.7,1.9-1.1c36.2-22.3,57.4-86.3,57.4-161.9C735.6,462,716.3,394.3,678.2,374.2z   M189.7,547.7v-15.5c3.2-76.4,21-132,47.8-158.5h-22.1h-47.6c-0.3,0.1-0.6,0.3-0.8,0.4c-38.1,20.2-57.4,87.9-57.4,164.4  c0,75.6,21.2,139.6,57.4,161.9c0.6,0.4,1.2,0.8,1.9,1.1h52.4h15.6C208.9,672.8,189.7,614.7,189.7,547.7z"
   style="fill:#ececec" />
<path
   id="Колба"
   class="st0"
   d="M54.9,373.7L54.9,373.7c-11.5,0-20.9-9.4-20.9-20.9v-77.4c0-11.5,9.4-20.9,20.9-20.9h0  c11.5,0,20.9,9.4,20.9,20.9v77.4C75.9,364.3,66.4,373.7,54.9,373.7z M790.8,373.7L790.8,373.7c11.5,0,20.9-9.4,20.9-20.9v-77.4  c0-11.5-9.4-20.9-20.9-20.9h0c-11.5,0-20.9,9.4-20.9,20.9v77.4C769.9,364.3,779.3,373.7,790.8,373.7z M653.2,556.8l-0.2-18.2  c0.2-91.1-38.7-182.1-86.3-182.1H276.2c-47.6,0-82,66.7-86.5,175.8v15.5c0,95.6,38.9,173,86.5,173h290.5  C614.3,720.7,653.2,631.4,653.2,556.8z"
   style="fill:#ffffff" />
<path
   id="Колба_внутренность"
   class="st0"
   d="M246,579.1c-3.7,44.8-13.9,77.1-26,77.1  c-15.2,0-27.5-50.9-27.5-113.8s12.3-113.8,27.5-113.8c8.7,0,16.4,16.6,21.4,42.5c-2.1,2.5-3.2,5.9-2.8,9.5l0,4.6  C238.8,516.6,241.3,548,246,579.1z M625,424.8c-11.2,0-20.9,27.8-25.1,67.6l3.1-0.4c6.6-0.8,12.5,4,13.3,10.5l3.6,30.2  c0.8,6.6-4,12.5-10.5,13.3l-9.3,1.1c0,0,0,0,0,0c1.5,17.9,2.1,35.8,2,53.7c4.9,31,13.4,51.4,23,51.4c15.2,0,27.5-50.9,27.5-113.8  S640.2,424.8,625,424.8z"
   style="fill:#ffff00" />
<path
   id="Корпус"
   class="st0"
   d="M109.8,553.7c-5-29.3-9.9-58.6-14.9-87.9c0,0,0,0,0,0V192.9c0-0.1,0.2-0.2,0.3-0.1l98,78  c0,0,0.1,0.1,0.1,0.1v102.9h-25.6c-0.3,0.1-0.6,0.3-0.8,0.4c-38.1,20.2-57.4,87.9-57.4,164.4C109.6,543.6,109.7,548.7,109.8,553.7z   M168.8,701.6c-0.6-0.4-1.3-0.7-1.9-1.1c-18.5-11.4-33.1-33.7-42.9-62.9c9.4,55.8,18.8,111.6,28.3,167.3c0,0.2,0.2,0.2,0.3,0.1  l26.1-40.6c0,0,0-0.1,0-0.1v-62.8H168.8z M152.2,804.7c0,0.1-0.1,0.2-0.2,0.2c-44.8-0.2-89.6-0.3-134.5-0.5v-95.6  c17.6,18.8,35.2,37.6,52.8,56.5L14.8,463.9V192.5l80.4,0.2c0,0,0,0,0,0l-0.3,273c5,29.3,9.9,58.6,14.9,88c1.2,31.2,6.1,59.9,14.2,84  C133.4,693.3,142.8,749,152.2,804.7z M75.9,275.4c0-11.5-9.4-20.9-20.9-20.9h0c-11.5,0-20.9,9.4-20.9,20.9v77.4  c0,11.5,9.4,20.9,20.9,20.9h0c11.5,0,20.9-9.4,20.9-20.9V275.4z M735.9,553.7c5-29.3,9.9-58.6,14.9-87.9c0,0,0,0,0,0V192.9  c0-0.1-0.2-0.2-0.3-0.1l-98,78c0,0-0.1,0.1-0.1,0.1v102.9h25.6c0.3,0.1,0.6,0.3,0.8,0.4c38.1,20.2,57.4,87.9,57.4,164.4  C736.2,543.6,736.1,548.7,735.9,553.7z M666.9,701.6v62.8c0,0,0,0.1,0,0.1l26.1,40.6c0.1,0.1,0.3,0.1,0.3-0.1  c9.4-55.8,18.8-111.6,28.3-167.3c-9.8,29.2-24.4,51.5-42.9,62.9c-0.6,0.4-1.2,0.8-1.9,1.1H666.9z M721.7,637.6  c8.1-24.1,13-52.8,14.2-84c5-29.3,9.9-58.6,14.9-88l-0.3-273c0,0,0,0,0,0l80.4-0.2v271.4l-55.6,301.4c17.6-18.8,35.2-37.6,52.8-56.5  v95.6c-44.8,0.2-89.6,0.3-134.5,0.5c-0.1,0-0.2-0.1-0.2-0.2C702.9,749,712.3,693.3,721.7,637.6z M769.9,352.8  c0,11.5,9.4,20.9,20.9,20.9h0c11.5,0,20.9-9.4,20.9-20.9v-77.4c0-11.5-9.4-20.9-20.9-20.9h0c-11.5,0-20.9,9.4-20.9,20.9V352.8z"
   style="fill:#ffffff" />
<path
   id="Батарейка"
   class="st0"
   d="M314.6,651.3l-41.8,5.4c-6.2,0.8-11.9-3.9-12.8-10.4v0c-14-52.5-21.1-106.7-21.3-161.1  l0-4.6c-0.8-6.5,3.5-12.6,9.7-13.4l41.8-5.4c-4.7,0.6-7.9,6.5-7,13l0.2,4.6c1.8,54.2,8.9,108.3,21.2,161.1l0,0  C305.3,647.1,309.9,651.9,314.6,651.3z M602,602.2L602,602.2c0.5-55.9-6.7-111.7-21.4-165.7v0c-0.8-6.5-6.6-11.2-12.8-10.4  l-34.5,4.4c4.7-0.6,9.3,4.3,10.1,10.8v0c12.8,54.2,20,110,21.4,165.7v0c0.8,6.5-2.3,12.4-7,13l34.5-4.4  C598.4,614.7,602.8,608.7,602,602.2z M564.8,607L564.8,607c-1.3-55.7-8.5-111.5-21.4-165.7v0c-0.8-6.5-5.4-11.4-10.1-10.8l-116.4,15  l-126.8,16.3c-4.7,0.6-7.9,6.5-7,13l0.2,4.6c1.8,54.2,8.9,108.3,21.2,161.1l0,0c0.8,6.5,5.4,11.4,10.1,10.8l106.7-13.8L557.8,620  C562.5,619.3,565.6,613.5,564.8,607z M619.8,532.8l-3.6-30.2c-0.8-6.6-6.8-11.3-13.3-10.5l-9.8,1.2c3.1,17.9,5.4,35.9,6.8,54  l9.3-1.1C615.8,545.3,620.6,539.3,619.8,532.8z"
   style="fill:#80ff80" />
<circle
   id="Радиация_1_"
   class="st0"
   cx="428"
   cy="538.6"
   r="58.2"
   style="fill:#ffffff" />
<path
   id="Радиация"
   class="st1"
   d="M414.1,533.5c-9.1-3.7-18.2-7.4-27.4-11c5.8-15.3,19.5-26.7,36.6-28.5  c1,9.9,2.1,19.9,3.1,29.8C420.7,524.3,416,528.3,414.1,533.5z M417,548.8c-7.5,6.4-15.1,12.7-22.6,19.1c9.2,11,23.3,17.4,38.4,15.8  c-1-9.9-2.1-19.9-3.1-29.8C424.7,554.4,420,552.4,417,548.8z M472,534.2c-1-9-4.5-17.2-9.7-23.8c-7.5,6.4-15.1,12.7-22.6,19.1  c1.7,2.2,2.8,4.8,3.1,7.7c0.3,2.6-0.1,5.1-1,7.4c9.1,3.7,18.2,7.4,27.4,11C471.7,549.1,472.8,541.8,472,534.2z M427.3,532.1  c-3.6,0.4-6.2,3.7-5.9,7.4c0.4,3.7,3.6,6.4,7.3,6c3.6-0.4,6.2-3.7,5.9-7.4C434.2,534.4,431,531.7,427.3,532.1z"
   style="fill:#ffff00" />
<path
   id="Пузыри"
   class="st0"
   d="M281.5,433.6c-5.6,0-13-0.1-20-5c-2.2-1.5-6.7-4.8-8.6-10.7c-1.3-4.1-0.7-7.6,0-11.4  c0.8-4.3,2.2-11.9,8.6-18.6c5.5-5.7,11.8-7.6,15-8.6c2.9-0.8,9.6-2.7,17.9-0.7c3.7,0.9,11.7,2.8,16.4,10c4.3,6.5,3.5,13.6,2.9,19.3  c-0.6,5.4-1.5,12.8-7.1,18.6C299.4,433.6,289.5,433.6,281.5,433.6z M338.7,428.6c6.2,3.1,12.6,1.6,16.4,0.7c4.7-1.1,8-1.9,10-5  c1.9-3,2.2-7.6,0-10c-1.3-1.4-2.4-1.1-8.6-2.1c-7.3-1.2-7.9-2.1-12.1-2.1c-4.2-0.1-6.5-0.1-8.6,1.4c-3.4,2.5-4.8,8.1-2.9,12.1  C334.3,426.4,336.8,427.7,338.7,428.6z M395.8,433.6c3.5-1,6.9-4.1,7.1-8.6c0.2-4.2-2.5-8.2-6.4-9.3c-5-1.4-10.1,2.5-11.4,7.1  c-1.3,4.8,1.8,8.8,2.1,9.3C387.8,432.5,391.4,434.9,395.8,433.6z M510.1,675.8c-0.9-5.4-7.1-8.8-12.1-9.3c-8.1-0.8-13.4,6-14.3,7.1  c-3.5,4.6-6.5,12.9-2.9,17.1c4.1,4.8,14.2,1.5,19.3-1.4C502.1,688.2,511.3,682.9,510.1,675.8z M535.5,685.6  c0.8,2.6,2.8,9.1,9.4,12.3c8.1,4,19.9,1.4,23.6-4.4c2.2-3.5-0.4-5.1-1.2-17.6c-0.7-10.3,0.8-12.9-2-16.5c-2.8-3.4-7.9-5.5-13.2-5.1  c-6.6,0.6-10.5,5-11.2,5.8C539.4,662.4,531.8,673.4,535.5,685.6z M601.6,667.2c3.4-3.6,4.4-10.3,0.7-13.6c-3.5-3.2-9.6-1.5-12.9,1.4  c-3.6,3.2-5.5,9.3-2.9,12.9C589.6,672,597.6,671.5,601.6,667.2z"
   style="fill:#ff00ff" />
<path
   id="Милнии"
   class="st0"
   d="M125.9,217.1c11.1-24.4,22.3-48.9,33.4-73.3c5.6,3.4,11.3,6.8,16.9,10.2  c10.4-16.7,20.9-33.3,31.3-50c16.4,25.1,32.8,50.3,49.1,75.4c5.5,0.2,7.6,0.3,13.1,0.5c12-15.4,24-30.9,36-46.3l33.9,24.6l39.8-66.9  c5.9,4,11.9,7.9,17.8,11.9c9-16.9,18.1-33.9,27.1-50.8c10.2,23.4,20.3,46.9,30.5,70.3c10.7-7.1,21.5-14.1,32.2-21.2  c12.4,16.4,24.8,32.8,37.3,49.1c30.2,13.6,60.4,27.1,90.6,40.7c-3.4-11.6-6.8-23.2-10.2-34.7c19.5,18.4,39,36.7,58.4,55.1  c14.4,5.2,28.8,10.4,43.2,15.7c0.2,0.1,0.1,0.3,0,0.3c-17.2,4.8-34.4,9.7-51.6,14.5c-4.5-9-9-18.1-13.6-27.1l-40.7,7.6  c-4.8,7.1-9.6,14.1-14.4,21.2c-7.6-8.8-15.2-17.5-22.9-26.3c-11.3,7.9-22.6,15.8-33.9,23.7c-15-26.5-29.9-53.1-44.9-79.6  c-11.1-1.2-15.2-1.6-26.3-2.8c-7.9,8.9-15.8,17.7-23.7,26.6c-10.4-6.5-20.9-13-31.3-19.5c-9.6,15.5-19.2,31.1-28.8,46.6  c-11,9.3-22,18.6-33,28c-9.3-6.2-18.6-12.4-28-18.6c-2,7.9-4,15.8-5.9,23.7c3.4,2.5,6.8,5.1,10.2,7.6  c-34.7-8.8-69.5-17.5-104.2-26.3c-6.2,6.5-12.4,13-18.6,19.5c-5.9-6.8-11.9-13.6-17.8-20.3c-3.7-0.9-6.4-1.5-10.1-2.3  c-8.2,3.5-14.6,4.5-22.8,8C144.2,231.6,144.2,231.6,125.9,217.1z M735.5,204.6c-6.3-22-12.6-44-18.9-65.9  c-3.1,13.8-6.2,27.7-9.3,41.5c-9-5.1-18.1-10.2-27.1-15.2c5.1-11.3,10.2-22.6,15.2-33.9c-12.1-1.4-24.3-2.8-36.4-4.2  c-13.8-14.7-27.7-29.4-41.5-44c2.8,19.5,5.6,39,8.5,58.4c9,1.1,18.1,2.3,27.1,3.4c-4.2,7.1-8.5,14.1-12.7,21.2  c25.1,18.2,50.2,36.4,75.3,54.6C722.3,215.1,728.9,209.9,735.5,204.6z M114.7,205.9c5.5-15.6,11.1-31.3,16.6-46.9  c7.3-12.1,14.7-24.3,22-36.4c2.8-20.6,5.6-41.2,8.5-61.8c-4.5,6.8-9,13.6-13.6,20.3c-10.2,1.7-20.3,3.4-30.5,5.1  c3.4,17.2,6.8,34.4,10.2,51.7c-7.3,4.5-14.7,9-22,13.6c2.4,16.3,6.8,46.7,7.9,54.5C113.9,206.3,114.5,206.4,114.7,205.9z"
   style="fill:#ffff00" />
</svg>
