<?xml version="1.0" encoding="UTF-8" standalone="no"?>
<!-- Generator: Adobe Illustrator 22.1.0, SVG Export Plug-In . SVG Version: 6.00 Build 0)  -->

<svg
   version="1.1"
   id="Синтезирующий_реактор"
   x="0px"
   y="0px"
   viewBox="0 0 842.1 842.2"
   style="enable-background:new 0 0 842.1 842.2;"
   xml:space="preserve"
   sodipodi:docname="reactor.svg"
   inkscape:version="1.2.1 (9c6d41e410, 2022-07-14)"
   xmlns:inkscape="http://www.inkscape.org/namespaces/inkscape"
   xmlns:sodipodi="http://sodipodi.sourceforge.net/DTD/sodipodi-0.dtd"
   xmlns="http://www.w3.org/2000/svg"
   xmlns:svg="http://www.w3.org/2000/svg"><defs
   id="defs304" /><sodipodi:namedview
   id="namedview302"
   pagecolor="#ffffff"
   bordercolor="#111111"
   borderopacity="1"
   inkscape:showpageshadow="0"
   inkscape:pageopacity="0"
   inkscape:pagecheckerboard="1"
   inkscape:deskcolor="#d1d1d1"
   showgrid="false"
   inkscape:zoom="0.69698408"
   inkscape:cx="380.92692"
   inkscape:cy="426.83902"
   inkscape:window-width="1600"
   inkscape:window-height="829"
   inkscape:window-x="0"
   inkscape:window-y="0"
   inkscape:window-maximized="1"
   inkscape:current-layer="Синтезирующий_реактор" />
<style
   type="text/css"
   id="style284">
	.st0{fill:none;stroke:#231F20;stroke-width:10;stroke-miterlimit:10;}
</style>
<path
   id="Элементы"
   class="st0"
   d="M543.1,788c16.7,0,33.5,0,50.2,0c-7.7-15-15.4-30.1-23-45.1c-9.1,0-18.1,0-27.2,0  C543.1,758,543.1,773,543.1,788z M305.4,742.9c-8.6,0-17.3,0-25.9,0c-8.3,15-16.6,30.1-24.9,45.1c17,0,33.9,0,50.9,0  C305.4,773,305.4,758,305.4,742.9z M506.7,742.9c0,15,0,30.1,0,45.1c-54.9,0-109.9,0-164.8,0c0-15,0-30.1,0-45.1  C396.8,742.9,451.7,742.9,506.7,742.9z M150.9,235.5c0.7-1.9,1.3-3.8,2.1-5.7c3.7-9.5,10.7-25.5,22.8-43.3c2.1-3,7.1-10.1,15-19.2  c7.4,8.3,11.6,19,11,30c-1.1,19-16.3,37.1-37.4,39.2C159.9,237,155.3,236.6,150.9,235.5z M645.6,187c10.3,1.8,20.9-0.8,29.8-6.5  c-21.8-28.6-46.3-44.9-59.6-53.4c-3,5.6-4.6,11.8-4.8,18.3C610.6,166.4,626.8,183.7,645.6,187z M405.3,655.1  c-10.5,6.1-17.6,16.8-19.8,28.9c35,2.5,61.6,1,71.8,0.3c3.2-0.2,6.4-0.5,9.7-0.7c-1.2-6.8-4-13.3-8.4-18.7  C445.3,648.4,421.8,645.6,405.3,655.1z"
   style="fill:#ffffff" />
<path
   id="Колба"
   class="st0"
   d="M719.3,311.6c-1.8-20.2-2.7-30.9-6-45.7c-2.5-11.3-8-36.3-22.8-62.5c-4.8-8.4-9.9-16-15.1-22.9  c-8.8,5.8-19.4,8.3-29.8,6.5c-18.8-3.3-35-20.5-34.6-41.6c0.1-6.5,1.8-12.7,4.8-18.3c-0.3-0.2-0.7-0.4-1-0.6  c-27.8-17.7-52-25.1-75.7-32.5C524.6,89.5,497.4,82,462,78.3c-49.6-5.2-87.2,0.1-95,1.2c-47.1,6.9-80.3,21.4-89,25.2  c-12.2,5.5-30,13.6-50.5,28.9c-15.9,11.8-28,23.9-36.7,33.7c7.4,8.3,11.6,19,11,30c-1.1,19-16.3,37.1-37.4,39.2  c-4.6,0.5-9.2,0.1-13.6-1c-7.2,20.5-9,37.8-12.3,64c-3.7,28.6-3.6,49.4-3.6,84.2c0,36.4,2.1,56.3,3.6,68.5c2,16.1,4.3,27.6,4.8,30.1  c3.5,17.3,8.7,44.2,22.8,73.3c8.1,16.7,20.4,41.2,45.7,64.9c1.8,1.6,3.5,3.2,5.3,4.7c0.1,0.1,10.6-6.6,14.2-8.1  c0,0,47.1-0.9,47.2-0.8c1.4,1.8,7.5,10,5.6,21c-1.1,6.8-4.8,11.3-6.6,13.3c-0.1,0.1-0.2,0.1-0.3,0.1c-7.2-0.1-14.5-0.2-21.7-0.3  c-0.4,0,20.6,10.3,28.3,13.3c7.5,2.9,14.5,5.3,20.9,7.2c0.2,0.1,0.5-0.1,0.5-0.4v-36.2c0,0,3.1-12,11.5-18.3  c3.8-2.8,7.6-4.1,10.2-4.8c0,0,42.6,0,42.6,0.1c1.4,1.3,8.3,7.7,8.5,18.2c0.2,8.6-5.8,16.3-5.9,16.3H362c-1.8-0.1-6.6-0.1-11.5,2.9  c-6.2,3.8-8.2,9.9-8.6,11.5c0,0,0,0.1,0,0.1v18.3c0,0.2,20.6,3.3,32.4,4.4c3.8,0.4,7.5,0.7,11.2,0.9c2.3-12.1,9.3-22.9,19.8-28.9  c16.5-9.5,40-6.7,53.3,9.8c4.4,5.5,7.2,12,8.4,18.7c12.1-0.9,39.7-4.7,39.7-4.9v-18.2c0,0,0-0.1,0-0.1c-0.5-1.6-2.4-7.6-8.6-11.5  c-4.9-3-9.7-3-11.5-2.9h-10.4c-0.1,0-6.1-7.8-5.9-16.3c0.2-10.4,7.1-16.9,8.5-18.2c0.1-0.1,42.6-0.1,42.6-0.1c0,0,6.6,2,10.3,4.8  c8.4,6.2,11.5,18.2,11.5,18.3v35.7c0,0.2,11.7-3.1,17.5-5.2c7.8-2.8,30.3-14.5,29.2-14.5c-6.2,0.1-18.8,0.2-18.9,0.1  c-1.8-2-5.5-6.5-6.6-13.3c-1.8-11,5.8-21.1,5.9-21.1c15.6,0.3,31.2,0.6,46.8,1c0,0,14.9,8.7,15,8.6c14.1-12.1,23.7-23.9,30.8-32.9  c23.8-29.7,35-56.8,37.3-62.5c10.2-25.2,13-45.2,16.8-72.1c4-28.1,4.4-49.1,4.8-72.1C722.4,349.3,720.3,322.3,719.3,311.6z"
   style="fill:#ffffff;fill-opacity:0" />
<path
   id="Центр"
   class="st0"
   d="M457.7,422.3c1.1,4,2.3,10.6,1,18.5c-0.8,5.3-2.4,15.2-10.3,21.6c-9.6,7.7-24.1,6.5-33.9,1  c-14.9-8.2-17.3-24.9-17.5-26.7c-1,0.5-7.7,4-15.4,1c-9-3.5-11.1-12.6-11.3-13.4c3.8-0.7,7.5-1.4,11.3-2.1  c-10.1,4.7-20.4-0.2-22.6-7.2c-1.6-5,0.9-11.3,6.2-15.4c-2.7-2.4-6.9-6-12.3-10.3c-9.1-7.2-10-6.9-11.3-9.3  c-4.8-8.6,1.6-21.1,7.2-31.9c3.1-6,5-9.7,9.3-13.4c8.1-7.1,17.3-8,19.5-8.2c12.6-1,21.5,5.5,23.6,7.2c4.5,0,8.9,0,13.4,0  c-1.4-3.4-2.7-6.9-4.1-10.3c3-3.2,6.8-6.8,11.3-10.3c6.2-4.9,9.2-7.4,12.3-8.2c9.3-2.4,21.2,3.7,26.7,12.3c4,6.2,2.1,9.8,7.2,18.5  c3.1,5.4,6.8,9.1,9.3,11.3c-0.3,4.5-0.7,8.9-1,13.4c0.5-0.6,7.1-8.6,15.4-7.2c5.6,0.9,8.7,5.4,11.3,9.3c2.5,3.6,10.8,15.6,5.1,27.8  c-4.7,10.2-15.8,13-17.5,13.4c1.3,4.4,0,9-3.1,11.3c-4.2,3.2-11.7,1.9-15.4-4.1C467.3,414.7,462.5,418.5,457.7,422.3z"
   style="fill:#aaeeff;fill-opacity:1" />
<path
   id="Поток"
   class="st0"
   d="M349.7,279.3c0.8-1.5,3.8-6.9,10.5-9.5c5.1-2,9.6-1.3,11.4-1c-1.1-1.4-7.2-9.4-18.1-10.5  c-6.8-0.7-12.1,1.7-14.3,2.9c-2.3-3.9-6.7-10.2-14.3-15.2c-14.6-9.6-30.2-7.4-34.3-6.7c2.6-3.2,8.4-9.6,18.1-13.3  c7.1-2.7,13.3-3,17.1-2.9c-3.4-2.9-13.1-10.2-27.6-11.4c-16.8-1.4-28.9,6.2-32.4,8.6c-5.4-7.9-10.8-15.9-16.2-23.8  c-2.3,3-6.3,7.3-12.4,10.5c-14.7,7.5-29.5,2.1-32.4,1c-2.7,2.2-5.3,4.3-8,6.5c-2.9,3.7-5.7,7.5-8.6,11.2c4.3,8.7,8.5,17.4,12.8,26.1  c6,1.3,12.1,2.5,18.1,3.8c3.8,8.6,7.6,17.1,11.4,25.7c0.9-0.8,6.8-5.9,14.3-4.8c8.6,1.3,16.3,10.4,14.3,19  c-1.3,5.5-6.2,9.8-12.4,11.4c2.5,3.5,5.1,7,7.6,10.5c3.5,0.3,7,0.6,10.5,1c3.8,6.7,7.6,13.3,11.4,20c1.9-6.7,3.8-13.3,5.7-20  c2.5,8.2,5.1,16.5,7.6,24.7c5.7,4.1,11.4,8.2,17.1,12.4c1-6.7,4-19.9,14.3-32.4c5.2-6.3,10.8-10.6,15.2-13.3  c-5.9-1.7-9.4-7.3-8.6-12.4c1-6.1,7.9-9.1,13.3-8.6c5.4,0.6,10.1,4.7,11.4,10.5c7-2.9,14-5.7,20.9-8.6  C365.5,286.9,357.6,283.1,349.7,279.3z M260.2,265.9c-4.5-2.5-8.8-8-7.6-14.3c1.2-6.4,7.5-10.3,13.3-10.5  c6.6-0.2,13.2,4.6,14.3,11.4c0.8,4.9-1.4,10.1-5.7,13.3C273.8,266.3,266.9,269.6,260.2,265.9z M289.7,295.5c-4,3.7-10.3,3.1-13.3-1  c-2.8-3.7-2.1-9.4,1.9-12.4c4-2.9,9.6-1.9,12.4,1.9C293.1,287.4,292.7,292.3,289.7,295.5z M626.7,212.6c0.4-6.7,3.1-16,13.2-27.1  c-4-2.1-7.9-4.2-11.9-6.3c-2.9-2.8-5.7-5.7-8.6-8.5c-7.4,3.2-14.8,6.4-22.2,9.5c-0.1,2-0.5,6.8-3.8,11.4c-5,7-12.7,8.3-14.3,8.6  c-11.4,1.6-19.3-6.9-20-7.6c-5.4,4.8-10.8,9.5-16.2,14.3c-3.8-1.6-7.6-3.2-11.4-4.8c0,6,0,12.1,0,18.1c-3.8,3.3-9.9,7.7-18.1,10.5  c-8.7,2.9-12.9,1.6-18.1,3.8c-6.2,2.6-13.3,9.7-17.1,30.5c4.8-2.2,9.5-4.4,14.3-6.7c-0.2,2.6-0.9,9.1-5.7,15.2  c-3.4,4.3-7.2,6.5-9.5,7.6c0.3,7.6,2.1,23.5,13.3,38.1c3.8,4.9,7.8,8.6,11.4,11.4c1.8-0.9,9.1-4.6,17.1-1.9  c9.2,3,15.7,13.1,15.2,24.7c7.3-9.2,14.6-18.4,21.9-27.6c1.1,5.7,2,13.6,1,22.8c-0.6,5.1-1.7,9.6-2.9,13.3  c8.2-11.7,16.5-23.5,24.7-35.2c-1-4.8-1.9-9.5-2.9-14.3c-2.5-2.2-5.1-4.4-7.6-6.7c5.1-3.8,10.2-7.6,15.2-11.4  c2.9-5.7,5.7-11.4,8.6-17.1c2.2-3.5,5.1-8.9,6.7-16.2c2.2-10.6,0.4-19.3-1-23.8c4.4-3.2,8.9-6.3,13.3-9.5c1.9,6.7,3.8,13.3,5.7,20  c2.9-3.2,6.6-8.3,8.6-15.2C628,224.5,626.2,219.4,626.7,212.6z M521,282.1c-7.7,3.2-16.2,0.5-20-5.7c-4.1-6.7-1-14.7,2.9-19  c0.5-0.6,7.1-7.8,16.2-5.7c6.4,1.5,11.9,7.1,12.4,14.3C532.9,273.2,528.2,280,521,282.1z M558.1,292.6c-2.2,5.6-13.5,8-18.1,2.9  c-3.9-4.4-2.5-13.6,2.9-16.2c4-1.9,8.8,0.5,11.4,2.9C556.9,284.5,559.5,288.9,558.1,292.6z M480.1,503c-9,5-17.6,6.9-23.8,7.6  c3.4-4,7-8.8,10.5-14.3c4.6-7.2,8-14,10.5-20c-6.5,5.2-17,12-31.4,15.2c-8.1,1.8-24.4,5.4-40.9-2.9c-9.2-4.6-15-11.1-18.1-15.2  c-11.3,10-13,17.2-12.4,21.9c0.9,6.8,6.7,8.5,9.5,19c0.9,3.3,2.5,9.8,0,17.1c-3,8.6-10,12.9-12.4,14.3c4.5,0.2,8.5,2.8,10.5,6.7  c1.7,3.4,2.2,8.6-1,12.4c-3.5,4.2-9,3.9-9.5,3.8c4.1,8.9,8.2,17.8,12.4,26.7c0.2-1.5,1.1-8.9,7.6-14.3c6.9-5.7,14.8-4.9,16.2-4.8  c-7.9,12.9-7.6,20.8-5.7,25.7c2.1,5.6,6.5,7.8,6.7,14.3c0.1,4.2-1.8,4.8-3.8,13.3c-1.5,6.3-2.3,9.7-1,13.3c0.5,1.4,2.4,5.7,9.3,8.7  c4.5-0.7,9.1-1.3,13.6-2c4.7,0.9,9.3,1.7,14,2.6c9.9-4,16.4-13,16.5-22.7c0-9.5-6.2-15.8-7.6-17.1c0-5.4,0-10.8,0-16.2  c4.4-3.4,12.5-10.7,14.3-21.9c1.1-6.9-0.5-13.3-1-15.2c-2.8-10.9-8.4-14.4-6.7-20c0.8-2.5,2.3-2.8,8.6-7.6  c4.6-3.6,12.4-9.5,17.1-16.2c2.4-3.4,5.5-9.1,6.7-18.1C486.2,499.2,483.4,501.1,480.1,503z M387.7,501.1c-1.6-4,1.1-8.7,4.8-10.5  c4.6-2.2,11.1,0,12.4,4.8c0.9,3.3-1,7.4-4.8,9.5C395.1,507.4,389.4,505.2,387.7,501.1z M418.2,543c-5.3,4.2-12.4,4.9-18.1,1.9  c-5-2.6-9.5-8.4-8.6-15.2c1-7.1,7.4-11.5,13.3-12.4c6.7-1,14.5,2.4,17.1,9.5C424,532.2,422.5,538.5,418.2,543z"
   style="fill:#ffffff;fill-opacity:1" />
<path
   id="Молнии"
   class="st0"
   d="M305.4,670.7c0,9.9,0,19.8,0,29.7c-4.7,0.9-9.5,2.6-14.3,5.4c-6.5,3.9-10.9,8.8-13.7,12.8  c-5.5,3.6-10.9,7.3-16.4,10.9c-1.1-6-3.7-9.8-5.5-11.8c-4.7-5.5-12-8.5-20.3-8.9c0-10,0-20,0-30.1c0.3-3.2,1.3-9.6,5.7-16.3  c4.5-6.8,10.3-10.3,13.1-11.8c0.5,0,22.2,10.3,29.9,13.4C291.5,666.8,305.4,670.9,305.4,670.7z M590.2,652.5  c-7.2,3.3-21.8,9.8-29.6,12.6c-5.8,2.1-17.5,5.4-17.5,5.2c0,14.3,0,28.5,0,42.8c5,1.3,10,2.5,15,3.8c8.2,1.5,16.4,3,24.6,4.6  c0.3-3.9,0.6-7.9,0.9-11.8c4.6-5.2,9.1-10.3,13.7-15.5c5.3-0.6,10.6-1.2,15.9-1.8c0-4.5,0-9,0-13.5c-0.3-3.2-1.3-9.6-5.7-16.3  C602.9,655.5,591.2,652,590.2,652.5z M781.4,432.4c5.5,0.6,10.9,1.2,16.4,1.8c-8.3-14.9-16-25.1-21.9-31.9  c-2.6-3.1-6.7-7.6-5.5-11.8c1.5-5.1,9.9-6.8,12.8-7.3c-3.7-5.3-3-8.9-2.7-10c1.7-6.4,11.1-8.6,17.3-10c6.7-1.5,12.5-1.4,16.4-0.9  c-0.6-4.3-1.2-8.5-1.8-12.8c-28-13-46.4-33.6-49.2-51.9C761.1,284,765,273,765,273c2.8-7.9,7.1-13.3,10-16.4  c-2-0.1-15.5-1.4-21.9-11.8c-4.3-7.1-3.3-15.1-2.7-21c0.6-5.8,2.2-10.4,3.6-13.7c-4.6-4.3-9.1-8.5-13.7-12.8c3-3,6.1-6,9.1-9.1  c7.2-7.3,14.2-14.6,21-21.9c-3.6,1.6-7.6,3.1-11.8,4.6c-9,3-17.4,4.6-24.6,5.5c7-7.4,10.2-14.2,11.8-19.1c2.8-8.4,1.6-12.9,4.6-21  c3-8.1,8.1-13.8,11.8-17.3c-5.3-0.2-11.4,0-18.2,0.9c-5.1,0.7-9.6,1.7-13.7,2.7c-1.2-6.7-2.4-13.4-3.6-20  c-5.1,9.8-10.1,12.3-13.7,12.8c-5.7,0.7-8.8-3.7-16.4-4.6c-7-0.8-13.2,2-17.3,4.6c-0.9-7.3-1.8-14.6-2.7-21.9  c-13.4,7.9-26.7,15.8-40.1,23.7c-3.3-0.6-6.7-1.2-10-1.8c-1.5-4.3-3-8.5-4.6-12.8c-1.1,0.3-9.3,2-14.6-2.7  c-5.9-5.3-6.3-17.3,1.8-26.4c-3.9-2.1-7.9-4.3-11.8-6.4c-0.9-9.7-1.8-19.4-2.7-29.2c-11.2,6.7-22.5,13.4-33.7,20  c-3.8-0.6-9.5-2.1-14.6-6.4c-6.5-5.5-7.9-12-11.8-11.8c-3.7,0.1-4.3,5.8-10,8.2c-4,1.7-8.1,0.9-10.9,0c-1.5-4.6-3-9.1-4.6-13.7  c-0.5,1.3-1.4,3.2-2.8,5.1c-0.7,0.9-4.5,5.8-10.8,7.6c-9.9,2.9-18.4-3.9-19.1-4.6c-7.9-3.9-15.8-7.9-23.7-11.8  c-18.2,10.9-36.4,21.9-54.7,32.8c-9.7-0.9-19.4-1.8-29.2-2.7c-4.9-8.8-9.7-17.6-14.6-26.4c-2.4,10-4.9,20-7.3,30.1  c-3.6-2.7-7.3-5.5-10.9-8.2c-5.8-0.6-11.5-1.2-17.3-1.8c-6.1-4.6-12.1-9.1-18.2-13.7c-0.1,1.2-1,7.5-6.4,10.9  c-3.9,2.5-8,2.1-10.9,1.8c-7.7-0.8-13.1-5.1-15.5-7.3c-2.2,2.7-5.2,6-9.1,9.1c-5,4-9.9,6.6-13.7,8.2c-3.3-2.7-6.7-5.5-10-8.2  c-8.8-1.8-17.6-3.6-26.4-5.5c5.9,9.8,9.1,18.5,10.9,24.6c3.3,11,2.5,15.1,1.8,17.3c-2.3,7.8-9,12.1-11.8,13.7  c-5.8,0.3-11.5,0.6-17.3,0.9c-3.3,3.3-6.7,6.7-10,10c-3.6-6.1-7.3-12.1-10.9-18.2c-0.2,1.1-1.3,8.5-8.2,12.8  c-8.1,5.1-16.7,1.2-17.3,0.9c-0.3,4.9-0.6,9.7-0.9,14.6c-13.4-3-26.7-6.1-40.1-9.1c10.1,7.2,15.4,19.2,13.7,31  c-2.1,14.5-13.8,21.8-15.5,22.8c-4.3,3.3-8.5,6.7-12.8,10c1.5,5.5,3,10.9,4.6,16.4c-8.8-0.6-17.6-1.2-26.4-1.8  c2.8,13.5,6.9,23.5,10,30.1c4.5,9.5,7.2,12.1,7.3,18.2c0.2,10.8-7.6,20.5-15.5,25.5c-11.9,7.7-24.6,5.2-27.3,4.6  c4.9,5.5,9.7,10.9,14.6,16.4c-11.5,5.5-23.1,10.9-34.6,16.4c4.6-0.3,13.1-0.3,22.8,3.6c10.6,4.3,17.1,11,20,14.6  c-7.5,13.2-6.8,19.9-4.6,23.7c2,3.4,5.2,4.2,8.2,9.1c3.1,4.9,3.6,10.1,3.6,13.7c-13.1,12.1-26.1,24.3-39.2,36.4  c4.6,2.4,9.1,4.9,13.7,7.3c3,6.4,6.1,12.8,9.1,19.1c8.5,2.1,17,4.3,25.5,6.4c-5.5,2.1-10.9,4.3-16.4,6.4c0.6,4.3,1.2,8.5,1.8,12.8  c9.1,1.8,18.2,3.6,27.3,5.5c-0.6,8.2-1.2,16.4-1.8,24.6c3.3,3.6,6.7,7.3,10,10.9c-8.8,10.6-17.6,21.3-26.4,31.9  c4.6,2.4,9.1,4.9,13.7,7.3c-3,5.8-6.1,11.5-9.1,17.3c2.7,0.3,14.1,2,19.1,10.9c3.1,5.4,2.5,11.2,1.8,18.2c-0.6,6.6-2.3,9-4.6,19.1  c-2.7,12-4.1,18-1.8,21c5.4,7.3,26.4-0.3,31.7-2.3c-6.3,2.5-17.1,8.2-22.6,19.6c-0.4,0.9-6.5,13.6-1.8,18.2  c2.5,2.4,6.2,0.8,12.8,0.9c0,0,10.7,0.2,21.9,6.4c11.8,6.6,17.1,25.6,15.5,46.5c2.3-4.7,6.9-12.5,15.5-19.1  c4.6-3.6,9.1-5.8,12.8-7.3c0.2,1.7,1.5,12.3,10.9,19.1c2.3,1.6,4.6,2.8,6.9,3.5c0.2-22.6,0.6-38.6,1.1-46.8  c0.4-7.6,1.7-21.7,11.5-33.6c2-2.4,6-6.2,5.8-6.3c-1.8-1.5-3.5-3.1-5.3-4.7c-25.3-23.7-37.6-48.2-45.7-64.9  c-14.2-29.1-19.4-56-22.8-73.3c-0.5-2.4-2.8-13.9-4.8-30.1c-1.5-12.2-3.6-32.1-3.6-68.5c0-34.8-0.1-55.6,3.6-84.2  c3.4-26.2,5.2-43.5,12.3-64c0.7-1.9,1.3-3.8,2.1-5.7c3.7-9.5,10.7-25.5,22.8-43.3c2.1-3,7.1-10.1,15-19.2  c8.6-9.8,20.8-21.9,36.7-33.7c20.5-15.3,38.3-23.4,50.5-28.9c8.6-3.9,41.9-18.4,89-25.2c7.8-1.1,45.4-6.4,95-1.2  C497.4,82,524.6,89.5,539,94c23.7,7.3,48,14.8,75.7,32.5c0.3,0.2,0.7,0.4,1,0.6c13.3,8.5,37.8,24.8,59.6,53.4  c5.3,6.9,10.4,14.5,15.1,22.9c14.8,26.2,20.3,51.2,22.8,62.5c3.3,14.8,4.2,25.5,6,45.7c1,10.7,3.1,37.7,2.4,74.5  c-0.4,23-0.8,44.1-4.8,72.1c-3.8,27-6.7,46.9-16.8,72.1c-2.3,5.7-13.5,32.8-37.3,62.5c-7.2,8.9-16.8,20.8-30.8,32.9  c-0.1,0.1,3.4,3.5,5.2,5.8c9.8,11.9,11.1,26,11.5,33.6c0.5,9,0.9,27.3,1.1,53.3c5.3,0.3,10.5,0.6,15.8,1c0-8.8,0-17.6,0-26.4  c11.8,3.6,23.7,7.3,35.5,10.9c4.6-1.2,9.1-2.4,13.7-3.6c0-5.5,0-10.9,0-16.4c1-1.8,4-6.6,10-9.1c10.5-4.4,20.2,2.2,21,2.7  c-2-4.8-4.1-9.6-6.4-14.6c-3.3-7.3-6.7-14.3-10-21c3.4,1.1,8.5,2.3,14.6,1.8c14.7-1.1,24-10.9,26.4-13.7c-4,0.3-12.1,0.4-21-3.6  c-12.4-5.7-18.3-15.7-20-19.1c3-3.6,6.1-7.3,9.1-10.9c-5.5-3.6-10.9-7.3-16.4-10.9c4.9-2.4,9.7-4.9,14.6-7.3  c-3.3-4.3-6.7-8.5-10-12.8c1.8-5.5,3.6-10.9,5.5-16.4c7,5.2,14,10.3,21,15.5c0-5.2,0-10.3,0-15.5c5.3,1.6,12.4,3.2,21,3.6  c8.9,0.4,16.4-0.6,21.9-1.8c-2.1-14.3-4.3-28.6-6.4-42.8c3.9,4.3,7.9,8.5,11.8,12.8c2.8-6.6,8.4-17.2,19.1-26.4  c4.8-4.1,9.6-7,13.7-9.1C816.6,467.7,799,450,781.4,432.4z M506.4,679c-14.2,2.4-27.3,3.6-39.4,4.5c-3.3,0.3-6.6,0.5-9.7,0.7  c-10.1,0.7-36.8,2.3-71.8-0.3c-3.6-0.3-7.4-0.6-11.2-0.9c-11.8-1.1-32.4-4.2-32.4-4.4c0,12,0,24.1,0,36.1c4.7,4.4,10.4,6.1,14.9,4.6  c6.6-2.2,8.9-10.8,9.1-11.8c5.5,2.7,10.9,5.5,16.4,8.2c2.1,5.2,4.3,10.3,6.4,15.5c8.5-2.7,17-5.5,25.5-8.2c4.9,3,9.7,6.1,14.6,9.1  c4.3-3,8.5-6.1,12.8-9.1c9.4-2.1,18.8-4.3,28.2-6.4c2.1-3.6,4.3-7.3,6.4-10.9c5.5-2.7,10.9-5.5,16.4-8.2c4.7,1.5,9.4,3.1,14.1,4.6  C506.7,694.3,506.5,679,506.4,679z"
   style="fill:#ffffff;fill-opacity:1" />
<g
   id="g299"
   style="fill:#e6e6e6">
	<path
   class="st0"
   d="M571,650.8c7.8-0.1,15.6-0.2,23.4-0.3c2.8,1.5,8.6,5,13.1,11.8c4.4,6.7,5.5,13.2,5.7,16.3c0,50,0,100,0,150   h36.6c0.6-85,0-144.6-1.1-163.5c-0.4-7.6-1.7-21.7-11.5-33.6c-6.7-8.1-14.9-12.3-20.2-14.4c-15.7-0.3-31.4-0.6-47-1   c-1.1,1.4-7.7,9.8-5.8,21.1C565.4,644.3,569.2,648.9,571,650.8z"
   id="path291"
   style="fill:#e6e6e6" />
	<path
   class="st0"
   d="M486.5,646c1.8-0.1,6.6-0.1,11.5,2.9c6.3,3.9,8.2,10,8.6,11.5c0,56.1,0,112.2,0,168.3h36.5   c0-64.7,0-129.5,0-194.2c-0.6-2.9-3-12-11.5-18.2c-3.8-2.8-7.6-4.1-10.3-4.8c-14.2,0-28.3,0-42.5,0c-1.2,1-8.4,7.5-8.6,18.2   c-0.2,8.8,4.5,14.7,5.8,16.3C479.5,646,483,646,486.5,646z"
   id="path293"
   style="fill:#e6e6e6" />
	<path
   class="st0"
   d="M235.4,828.7c0-50,0-100,0-150c0.3-3.2,1.3-9.6,5.7-16.3c4.5-6.8,10.3-10.3,13.1-11.8   c7.8,0.1,15.6,0.2,23.4,0.3c1.8-1.9,5.6-6.5,6.7-13.4c1.9-11.3-4.6-19.7-5.8-21.1c-15.7,0.3-31.4,0.6-47,1   c-5.3,2.1-13.5,6.3-20.2,14.4c-9.8,11.9-11.1,26-11.5,33.6c-1.1,18.8-1.7,78.4-1.1,163.5H235.4z"
   id="path295"
   style="fill:#e6e6e6" />
	<path
   class="st0"
   d="M341.9,828.7c0-56.1,0-112.2,0-168.3c0.4-1.5,2.4-7.6,8.6-11.5c4.9-3,9.7-3,11.5-2.9c3.5,0,7,0,10.6,0   c1.3-1.6,5.9-7.5,5.8-16.3c-0.2-10.7-7.4-17.2-8.6-18.2c-14.2,0-28.3,0-42.5,0c-2.7,0.7-6.5,2-10.3,4.8   c-8.5,6.3-10.9,15.3-11.5,18.2c0,64.7,0,129.5,0,194.2H341.9z"
   id="path297"
   style="fill:#e6e6e6" />
</g>
</svg>
