<?xml version="1.0" encoding="UTF-8" standalone="no"?>
<!-- Generator: Adobe Illustrator 22.1.0, SVG Export Plug-In . SVG Version: 6.00 Build 0)  -->

<svg
   version="1.1"
   id="Камера_сжижения_гелия-3"
   x="0px"
   y="0px"
   viewBox="0 0 842.1 842.2"
   style="enable-background:new 0 0 842.1 842.2;"
   xml:space="preserve"
   sodipodi:docname="refinery.svg"
   inkscape:version="1.2.1 (9c6d41e410, 2022-07-14)"
   xmlns:inkscape="http://www.inkscape.org/namespaces/inkscape"
   xmlns:sodipodi="http://sodipodi.sourceforge.net/DTD/sodipodi-0.dtd"
   xmlns="http://www.w3.org/2000/svg"
   xmlns:svg="http://www.w3.org/2000/svg"><defs
   id="defs471" /><sodipodi:namedview
   id="namedview469"
   pagecolor="#ffffff"
   bordercolor="#111111"
   borderopacity="1"
   inkscape:showpageshadow="0"
   inkscape:pageopacity="0"
   inkscape:pagecheckerboard="1"
   inkscape:deskcolor="#d1d1d1"
   showgrid="false"
   inkscape:zoom="0.69698408"
   inkscape:cx="420.38263"
   inkscape:cy="422.53476"
   inkscape:window-width="1600"
   inkscape:window-height="829"
   inkscape:window-x="0"
   inkscape:window-y="0"
   inkscape:window-maximized="1"
   inkscape:current-layer="Камера_сжижения_гелия-3" />
<style
   type="text/css"
   id="style451">
	.st0{fill:none;stroke:#231F20;stroke-width:10;stroke-miterlimit:10;}
</style>
<g
   id="Колба-3_1_"
   style="fill:#ffffff">
	<path
   id="Колба-3_x5F_ножки"
   class="st0"
   d="M712.6,526.3v204.1c-4.9,21.3-9.8,42.6-14.7,63.8   c-4.9-21.3-9.8-42.6-14.7-63.8V526.3H712.6z M598.6,526.3v204.1c0,21.3,0,42.6,0,63.8c9.8-21.3,19.5-42.6,29.3-63.8V526.3H598.6z    M769.2,526.3v204.1c9.8,21.3,19.5,42.6,29.3,63.8c0-21.3,0-42.6,0-63.8V526.3H769.2z"
   style="fill:#e6e6e6" />
	<path
   id="Колба-3"
   class="st0"
   d="M756.1,323.2H639.9c-30.8,0-56,25.2-56,56l30.6,147h13.4v31.4c9.6,11,23.7,17.7,39.1,17.7   h16.4v-49.2h29.3v49.2h17.5c15.3,0,29.3-6.6,39.1-17.4v-31.8H783l29-147C812.1,348.4,786.9,323.2,756.1,323.2z M698,474.2   c-38.3,0-69.3-31-69.3-69.3s31-69.3,69.3-69.3c38.3,0,69.3,31,69.3,69.3S736.3,474.2,698,474.2z M698,237.6   c-25.4,0-45.9,20.6-45.9,45.9c0,17,9.2,31.8,23,39.8h45.9c13.7-7.9,23-22.8,23-39.8C743.9,258.1,723.4,237.6,698,237.6z M698,294.9   c-8,0-14.5-6.5-14.5-14.5c0-8,6.5-14.5,14.5-14.5c8,0,14.5,6.5,14.5,14.5C712.4,288.4,706,294.9,698,294.9z"
   style="fill:#ffffff" />
	<path
   id="Колба-3_x5F_элементы_2_"
   class="st0"
   d="M698,335.5c-38.3,0-69.3,31-69.3,69.3s31,69.3,69.3,69.3   c38.3,0,69.3-31,69.3-69.3S736.3,335.5,698,335.5z M698,450.8c-25.4,0-45.9-20.6-45.9-45.9S672.6,359,698,359   c25.4,0,45.9,20.6,45.9,45.9S723.4,450.8,698,450.8z"
   style="fill:#aaeeff" />
	
		<ellipse
   id="Колба-3_x5F_элементы_1_"
   transform="matrix(0.7071 -0.7071 0.7071 0.7071 -81.8487 612.1406)"
   class="st0"
   cx="698"
   cy="404.9"
   rx="45.9"
   ry="45.9"
   style="fill:#ffffff" />
	<circle
   id="Колба-3_x5F_элементы"
   class="st0"
   cx="698"
   cy="280.4"
   r="14.5"
   style="fill:#aaeeff" />
</g>
<g
   id="Колба-2_1_"
   style="fill:#ffffff">
	<path
   id="Колба-2"
   class="st0"
   d="M541.6,778.5l-2.2,0.3c-28,4-56.5,4-84.5,0l-2.2-0.3c-0.3,0-0.5,0-0.8,0   c-8.3-0.6-12.4-10.3-7.5-17l13-17.5V421.8l-16.7-33.1c0-6.6,5.4-12,12-12h89c6.6,0,12,5.4,12,12l-15.7,30v322.2l12.8,20.9   c4.2,6.9-0.2,16.2-8.3,16.7C542.1,778.4,541.9,778.5,541.6,778.5z M534.7,151.6v225h-75.3v-225c0-20.7,17-37.7,37.7-37.7h0   C517.8,114,534.7,130.9,534.7,151.6z M476.6,176.2c0,11.3,9.1,20.4,20.4,20.4s20.4-9.1,20.4-20.4s-9.1-20.4-20.4-20.4   S476.6,164.9,476.6,176.2z M476.6,245.3c0,11.3,9.1,20.4,20.4,20.4s20.4-9.1,20.4-20.4s-9.1-20.4-20.4-20.4S476.6,234,476.6,245.3z    M517.5,314.4c0-11.3-9.1-20.4-20.4-20.4s-20.4,9.1-20.4,20.4s9.1,20.4,20.4,20.4S517.5,325.7,517.5,314.4z"
   style="fill:#ffffff" />
	<path
   id="Колба-2_x5F_элементы"
   class="st0"
   d="M517.5,176.2c0,11.3-9.1,20.4-20.4,20.4s-20.4-9.1-20.4-20.4   s9.1-20.4,20.4-20.4S517.5,164.9,517.5,176.2z M497.1,224.8c-11.3,0-20.4,9.1-20.4,20.4s9.1,20.4,20.4,20.4s20.4-9.1,20.4-20.4   S508.4,224.8,497.1,224.8z M497.1,293.9c-11.3,0-20.4,9.1-20.4,20.4s9.1,20.4,20.4,20.4s20.4-9.1,20.4-20.4   S508.4,293.9,497.1,293.9z"
   style="fill:#aaeeff" />
</g>
<g
   id="Колба-1_1_"
   style="fill:#ffffff">
	<path
   id="Колба-1_x5F_ножки"
   class="st0"
   d="M295.1,809.9c-2.8-10.3-7.8-27.7-14.7-49.2c-13.4-41.8-23.9-67.3-36.6-113   c-3.9-14.2-9.7-36-8.4-63.8c1.2-24.4,6.8-34.5,13.6-40.8c2.7-2.5,11.7-11.7,23-10.5c7.9,0.9,13.6,6.4,16.7,9.4   c5.3,5.1,8.1,10.6,9.4,13.6c12,27.2,12.6,65.9,12.6,65.9c0.6,43.6,0.4,47,0,100.5c-0.1,14.8-0.2,27.1-3.1,44   C304.4,784.8,299.1,799.8,295.1,809.9z M79.2,649c-2.5,7.9-4,14.9-4.9,20.6c-0.9,5.6-3.3,22.8,3.1,70.1c1.2,9.2,2.4,16.5,3.1,20.9   c8.5-12.9,15.7-23.2,20.9-30.3c7.6-10.5,12.8-17.2,18.8-28.3c4-7.3,6.7-13.6,8.5-18c-6.4-2.8-11.5-5.6-15.4-7.9   c-12.2-7.1-20.5-14.1-23.5-16.8C85.3,655.4,81.7,651.7,79.2,649z M320.2,709.4c4.3,7.2,7.9,11.6,13.6,18.8   c4.7,6,11.6,14.9,19.9,26.2c2.2-16.8,4-34.6,5.2-53.4c0.8-12,1.2-23.7,1.5-35c-5.7,4.1-12.3,8.4-20,12.6   c-10,5.3-19.3,9.1-27.6,11.8c-1,0.3-1.5,1.4-1.1,2.3C313.6,697.1,316.3,702.9,320.2,709.4z"
   style="fill:#e6e6e6" />
	<path
   id="Колба-1"
   class="st0"
   d="M414.4,523.6v42.9c0,56-41.4,104.3-103.4,124.4c0.2-26.4,0.2-36.3-0.2-69.5   c0,0-0.5-38.7-12.6-65.9c-1.3-3-4.1-8.5-9.4-13.6c-3.1-3-8.8-8.5-16.7-9.4c-11.4-1.3-20.3,7.9-23,10.5   c-6.8,6.3-12.5,16.4-13.6,40.8c-1.3,27.8,4.4,49.7,8.4,63.8c5.7,20.7,11,37.2,16.4,52.9c-4.7,0.3-9.4,0.5-14.3,0.5h-33.5   C114.1,701,46,640.5,46,566.5v-42.9c0-18.8,13.1-34.7,30.6-39.1c1.8,14.6,14.3,25.9,29.3,25.9h248.5c15,0,27.5-11.4,29.3-25.9   C401.3,488.9,414.4,504.8,414.4,523.6z M260.4,273c-2.4,8.5-10.3,14.8-19.7,14.8h-20.9c-9.4,0-17.3-6.3-19.7-14.8   c-27.2,8.4-46.2,27.7-46.2,50.2c0,30.2,34.2,54.7,76.4,54.7s76.4-24.5,76.4-54.7C306.6,300.7,287.6,281.4,260.4,273z M230.2,395.5   c9.5,0,18.6,0.4,27.2,1.3v-22.4c-8.5,2.3-17.6,3.6-27.2,3.6s-18.8-1.3-27.2-3.6v22.4C211.7,395.9,220.7,395.5,230.2,395.5z"
   style="fill:#ffffff" />
	<path
   id="Колба-1_x5F_крышка"
   class="st0"
   d="M384.1,475.7v5.2c0,16.3-13.3,29.6-29.6,29.6H106   c-16.3,0-29.6-13.3-29.6-29.6V476c8.8-20.5,23-38,42.4-51.4l12.2,21.1c5.6,9.7,18.2,13.1,27.9,7.5h0c9.7-5.6,13.1-18.2,7.5-27.9   l-10.9-18.8c21.1-7.2,46-11.1,74.7-11.1C312.7,395.5,363.2,427.1,384.1,475.7z M166.4,425.4l-33.9-58.8c-0.2,0.1-0.2,0.1-0.4,0.2   c1,7.2-3.4,15.3-11.5,20s-17.4,4.4-23.1-0.1c-0.2,0.2-0.2,0.1-0.3,0.3l33.9,58.8c5.6,9.7,18.2,13.1,27.9,7.5h0   C168.6,447.7,172,435.1,166.4,425.4z M103.8,357.9c-10,5.8-14.4,17-9.8,24.9s16.5,9.8,26.5,4c10-5.8,14.4-17,9.8-24.9   S113.8,352.1,103.8,357.9z"
   style="fill:#ffffff" />
</g>
<path
   id="Трубки"
   class="st0"
   d="M720.2,243.3c-6.6-3.6-14.1-5.7-22.2-5.7c-8.4,0-16.3,2.3-23,6.2c0-45,0-90,0-135  c0,0,1.5-12.3-5.2-19.9c-2.2-2.5-7.4,2.7-10.5,7.3c-41.5,59.5-83,119.1-124.5,178.6v-37.9C596.5,144.2,642.7,78.3,654,65.8  c7.9-8.7,17.8-12.6,17.8-12.6c4.1-1.6,12.6-4.8,23-2.1c10.4,2.7,16.3,9.7,17.8,11.5c6.8,8.5,7.2,18.5,7.3,23  C720.6,103.4,720.9,162.2,720.2,243.3z M476.1,67.7c2.6,0.1,3.9,0.2,5.5,1c2.8,1.4,4.1,3.8,4.5,4.5c0.4,0.7,1,2,1.5,6.5  c0.2,1.9,0.5,4.6,0.5,7.9c0,9.2,0,18.3,0,27.5c2.9-0.7,5.9-1.1,9-1.1h0c2.8,0,5.5,0.3,8.1,0.9V75.3c0-5.6-1.5-11-4.7-15.6  c-2.2-3.2-5.4-6.4-10-8.2c0,0-8.7-1.7-11.3-1.3H269.8c-11.3,0-22.6,3-32.2,9c-3.2,2-6.5,4.5-9.6,7.5c-0.5,0.5-1,1-1.5,1.5  c-6.2,6.4-10.2,14.7-11.4,23.6c-8.4,63.2-15.8,176-15.8,176c0,11.1,9.2,20.1,20.5,20.1h20.9c11.3,0,20.5-9.1,20.5-20.1  c0,0-7.2-107.5-15.4-171.4l0,0c-0.3-2.1-1.7-13.2,5.8-22.2c0,0,0.1-0.1,0.1-0.1c3.8-4.5,9.5-6.9,15.3-6.9  c112.7,0.1,193.3,0.2,199.1,0C469.4,67.1,472.7,67.5,476.1,67.7z"
   style="fill:#e6e6e6" />
<path
   id="Пар"
   class="st0"
   d="M119.1,138.4c-3,0.2-14.5,0.8-25.4-6.9c-12.9-9.1-15.5-23.2-16.2-27c-0.9-5.2-4-22,7.7-33.9  c10.9-11.1,26.1-9.4,27-9.3c12.4,1.6,19.6,10.3,23.1,14.7c0.7,0.8,15.6,19.6,9.3,40.9c-1.1,3.6-4,13.4-13.1,18.5  C126.8,137.9,122.4,138.2,119.1,138.4z M46.6,150.8c-4.2,7-6.7,11.3-6.2,17c0.4,4.2,2.7,11.2,8.5,13.1c6.4,2.1,13.2-3.4,16.2-7.7  c4.7-6.7,3.1-14.5,2.3-18.5c-0.6-3.1-1.6-5.7-2.8-8.1c-2.8-5.6-10.6-6.4-14.4-1.3C48.8,147.2,47.6,149.1,46.6,150.8z M119.1,327.3  c0,0,0.1-0.1,0.1-0.1c5.6-5.3,9.1-12.4,10.3-20.1c1.2-7.9,2.3-15.8,3.5-23.8c1.5,6.7,3.1,13.4,4.6,20c4.3-2.9,13.1-9.6,18.5-21.6  c5.6-12.3,4.5-23.1,3.9-30.1c-0.8-8.5-2.6-26.6-15.4-37c-2.5-2.1-5.4-3.3-16.2-10.8c-6.3-4.4-8.3-6-9.9-8.9c-0.8-1.6-2-4.4-1.6-15.8  c0.1-4.2,0.5-10,1.5-17c-8.6,4.3-14,9.6-17,13.1c-3.6,4.2-6.8,8-7.7,13.9c-1.2,7.7,2.4,13.9,3.9,16.2c-2.2-1.9-11.3-9.1-23.1-7.7  c-7.4,0.9-12.3,4.7-16.2,7.7c-10.8,8.5-15.1,19.5-17,24.7c-6.5,17.6-3.7,33.2-2.3,40.1c1.6,8.4,5.6,28.5,22.4,41.6  c6.3,4.9,12.5,9.8,21.6,10.8c6.5,0.7,11.5-0.9,14.7,2.3c3.1,3.1,2.6,8.6,1.5,13.1C103.3,337.1,111.5,334.4,119.1,327.3z"
   style="fill:#aaeeff" />
</svg>
