<?xml version="1.0" encoding="UTF-8" standalone="no"?>
<!-- Generator: Adobe Illustrator 22.1.0, SVG Export Plug-In . SVG Version: 6.00 Build 0)  -->

<svg
   version="1.1"
   id="Марсоход"
   x="0px"
   y="0px"
   viewBox="0 0 842.1 842.2"
   style="enable-background:new 0 0 842.1 842.2;"
   xml:space="preserve"
   sodipodi:docname="rover.svg"
   inkscape:version="1.2.1 (9c6d41e410, 2022-07-14)"
   xmlns:inkscape="http://www.inkscape.org/namespaces/inkscape"
   xmlns:sodipodi="http://sodipodi.sourceforge.net/DTD/sodipodi-0.dtd"
   xmlns="http://www.w3.org/2000/svg"
   xmlns:svg="http://www.w3.org/2000/svg"><defs
   id="defs30" /><sodipodi:namedview
   id="namedview28"
   pagecolor="#ffffff"
   bordercolor="#111111"
   borderopacity="1"
   inkscape:showpageshadow="0"
   inkscape:pageopacity="0"
   inkscape:pagecheckerboard="1"
   inkscape:deskcolor="#d1d1d1"
   showgrid="false"
   inkscape:zoom="0.69698408"
   inkscape:cx="420.38263"
   inkscape:cy="422.53476"
   inkscape:window-width="1600"
   inkscape:window-height="829"
   inkscape:window-x="0"
   inkscape:window-y="0"
   inkscape:window-maximized="1"
   inkscape:current-layer="Марсоход" />
<style
   type="text/css"
   id="style2">
	.st0{fill:none;stroke:#231F20;stroke-width:10;stroke-miterlimit:10;}
</style>
<path
   id="Корпус"
   class="st0"
   d="M565.3,486.1c61.6-1.3,123.2-2.5,184.8-3.8c0.4,18,0.8,36,1.3,54.1c-8.4,13-16.8,26-25.1,39  c-60.8,1.3-121.5,2.5-182.3,3.8c7.1-13,14.2-26,21.4-39C565.3,522.2,565.3,504.2,565.3,486.1z M176.9,538.9c7.5,13,15.1,26,22.6,39  c114.8,0.4,229.6,0.8,344.4,1.3c7.1-13,14.2-26,21.4-39c0-18,0-36,0-54.1c-129.9-0.4-259.8-0.8-389.7-1.3  C176,502.9,176.5,520.9,176.9,538.9z M480.5,681c2.5-2,5-3.8,7.7-5.5l-55.7-25.6c-3.3,2.8-7.2,4.4-11.4,4.4c-5,0.9-10,1.8-15,2.8  c0.1,0,0.2,0.2,0.1,0.2c-12.6,6.1-25.2,12.2-37.8,18.2c2.6,1.7,5.2,3.5,7.5,5.4c0.5,0.4,1,0.9,1.4,1.4c33.6,0.6,67.1,1.2,100.7,1.8  C478.6,683,479.4,681.9,480.5,681z M290.8,669.3c0.2-2.3,0.3-4,0.5-4l33.8-17.6H199.5c0,10.5,0,21,0,31.4  c24.2,0.4,48.3,0.9,72.5,1.3C277.8,675.9,284.1,672.2,290.8,669.3z M427.9,599.8c-1.1,0.9-2.1,1.8-3.2,2.7c0,0,0,0,0,0  c4.7,1.1,8.8,4.2,11.8,8.5c0,0,0-0.1-0.1-0.1c-1.7-3-4.2-7-7.4-11.7c0-0.1,0-0.2,0.1-0.1c38.4,18.3,76.9,36.7,115.3,55  c-0.2-25-0.3-49.9-0.5-74.9c-114.8-0.4-229.6-0.8-344.4-1.3c0,7,0,14,0,21h228.1C428.1,598.9,428.3,599.5,427.9,599.8z M726.2,575.4  c-0.1,32.5-0.1,65-0.2,97.4c-20.3,1.4-40.7,2.8-61,4.2l0,0c-26.1,1.8-52.3,3.6-78.4,5.4c-0.4-0.5-0.9-1.1-1.5-1.5  c-2.9-2.4-6-4.5-9.4-6.5c-3.6-2.2-7.3-4-11.1-5.6c-0.1-3-0.2-5.3-0.2-5.3c-6.6-3.2-13.3-6.3-19.9-9.5c-0.2-25-0.3-49.9-0.5-74.9  C604.7,577.9,665.5,576.6,726.2,575.4z M599.9,612.9c0-6-3.4-10.9-7.6-10.9s-7.6,4.9-7.6,10.9s3.4,10.9,7.6,10.9  S599.9,618.9,599.9,612.9z M662.5,659.6c12.3,0,22.3-14.4,22.3-32.1c0-17.7-10-32.1-22.3-32.1c-12.3,0-22.3,14.4-22.3,32.1  C640.2,645.3,650.2,659.6,662.5,659.6z"
   style="fill:#ffffff" />
<path
   id="Ножки"
   class="st0"
   d="M107.1,683.8c-34.5,0-62.4,27.9-62.4,62.4s27.9,62.4,62.4,62.4c34.5,0,62.4-27.9,62.4-62.4  S141.6,683.8,107.1,683.8z M107.1,781.6c-19.5,0-35.3-15.8-35.3-35.3s15.8-35.3,35.3-35.3c19.5,0,35.3,15.8,35.3,35.3  S126.6,781.6,107.1,781.6z M323.6,683.8c-34.5,0-62.4,27.9-62.4,62.4s27.9,62.4,62.4,62.4c34.5,0,62.4-27.9,62.4-62.4  S358.1,683.8,323.6,683.8z M323.6,781.6c-19.5,0-35.3-15.8-35.3-35.3s15.8-35.3,35.3-35.3c19.5,0,35.3,15.8,35.3,35.3  S343.1,781.6,323.6,781.6z M532.8,683.8c-34.5,0-62.4,27.9-62.4,62.4s27.9,62.4,62.4,62.4s62.4-27.9,62.4-62.4  S567.3,683.8,532.8,683.8z M532.8,781.6c-19.5,0-35.3-15.8-35.3-35.3s15.8-35.3,35.3-35.3c19.5,0,35.3,15.8,35.3,35.3  S552.3,781.6,532.8,781.6z M731,683.8c-34.5,0-62.4,27.9-62.4,62.4s27.9,62.4,62.4,62.4c34.5,0,62.4-27.9,62.4-62.4  S765.5,683.8,731,683.8z M731,781.6c-19.5,0-35.3-15.8-35.3-35.3s15.8-35.3,35.3-35.3c19.5,0,35.3,15.8,35.3,35.3  S750.5,781.6,731,781.6z M427.9,599.8c-1.1,0.9-2.1,1.8-3.2,2.7c-1.2-0.3-2.4-0.4-3.7-0.4v0c0,0,0,0,0,0c-2,0-4,0.4-5.8,1.1  c-17.6,3.2-35.3,6.5-52.9,9.7c-11.4,0-20.6,11.7-20.6,26.2l-16.7,8.7H143L100,600c-0.1-0.1,0-0.2,0.1-0.2l327.5-0.9  C428.1,598.9,428.3,599.5,427.9,599.8z M124.7,674.6c0.2-0.4,0.5-0.8,0.7-1.2c2.5-4.6,8.1-6.8,13-4.8c1.5,0.6,3,1.3,4.6,2v-23  l-42.4-47.1c-0.5-0.5-1.4-0.2-1.4,0.5L99,680.6C107.7,685.8,119.2,683.2,124.7,674.6z M437.5,643.9c-1.7,2.8-3.6,4.8-5,6.1  l55.7,25.6c5.2-3.3,10.7-6,16.5-8.1c5-1.8,10.4,0.5,12.8,5.3c0.7,1.4,1.6,2.7,2.6,4c14.7-4.3,29.5-8.5,44.2-12.8  c0.2-0.1,0.2-0.3,0-0.4c-45.1-21.5-90.1-43-135.2-64.5c-0.1,0-0.1,0.1-0.1,0.1c3.2,4.7,5.6,8.7,7.4,11.7c1.7,3,2.6,4.6,3.3,6.5  c0.5,1.4,2.3,6.6,1.7,13.5C441.3,633.3,440.8,638.4,437.5,643.9z M524.3,680.3c8.7,5.5,20.6,3,26.2-5.7c0.2-0.4,0.5-0.8,0.7-1.2  c2.6-4.6,8.1-6.8,13-4.8c0.3,0.1,0.5,0.2,0.8,0.3v-2.8c0-1.2-1.2-2.1-2.4-1.8c-14.1,4.1-28.3,8.2-42.4,12.3  C521.3,678.1,522.7,679.3,524.3,680.3z M334.5,680.8c0.1-0.1,0.1-0.3,0-0.3c-9-3-17.9-5.9-26.9-8.9c0.2,0.4,4.4,6.8,7.5,8.7  C321.1,684.2,328.6,684.1,334.5,680.8z M307.4,671.4c9.4,3,18.7,5.9,28.1,8.9c2.2-1.4,4.2-3.3,5.7-5.6c0.2-0.4,0.5-0.8,0.7-1.2  c2.6-4.6,8.1-6.8,13-4.8c3.9,1.6,7.8,3.5,11.6,5.8c0.6,0.4,1.2,0.7,1.8,1.1c12.6-6.1,25.2-12.2,37.8-18.2c0.1-0.1,0.1-0.3-0.1-0.2  c-12.6,2.3-25.3,4.6-37.9,7c-1.9,0.7-3.8,1.1-5.8,1.1c-11.4,0-20.6-11.7-20.6-26.2l-49.8,25.9c-0.2,0.1-0.2,0.5,0.1,0.5  C294.9,666,305.2,668.1,307.4,671.4z M761.6,656.8c-11.8-5.7-23.7-11.3-35.5-17c0,11-0.1,22-0.1,33c-3.3,0.2-6.6,0.5-9.9,0.7  c1.5,2.7,3.6,5.1,6.4,6.8c8.7,5.5,20.6,3,26.2-5.7c0.2-0.4,0.5-0.8,0.7-1.2c2.6-4.6,8.1-6.8,13-4.8c0.1,0,0.2,0.1,0.3,0.1  C762.2,664.8,761.9,660.8,761.6,656.8z"
   style="fill:#ffffff" />
<path
   id="Колеса"
   class="st0"
   d="M441.6,628.2c0,14.4-9.2,26.2-20.6,26.2c-17.6,3.2-35.3,6.5-52.9,9.7  c8.5-3.2,14.7-13.2,14.7-25.1c0-14.4-9.2-26.2-20.6-26.2c17.6-3.2,35.3-6.5,52.9-9.7c1.9-0.7,3.8-1.1,5.8-1.1c0,0,0,0,0,0v0  C432.4,602.1,441.6,613.8,441.6,628.2z M362.3,612.9c-11.4,0-20.6,11.7-20.6,26.2s9.2,26.2,20.6,26.2c11.4,0,20.6-11.7,20.6-26.2  S373.7,612.9,362.3,612.9z M189.5,733.1c-0.8-5.3-5.6-9-11-8.7c-3.7,0.2-7.6-0.7-11.1-2.8c-2-1.2-3.7-2.9-5.1-4.7  c4.6,8.7,7.3,18.7,7.3,29.2c0,34.5-27.9,62.4-62.4,62.4c-34.5,0-62.4-27.9-62.4-62.4s27.9-62.4,62.4-62.4  c22.3,0,41.8,11.7,52.9,29.2c-2.3-5.3-2.2-11.6,0.8-17c0.2-0.4,0.4-0.7,0.6-1c3-4.6,2.2-10.6-2.1-14.1c-2.9-2.4-6-4.5-9.4-6.5  c-3.8-2.3-7.6-4.2-11.6-5.8c-4.9-2-10.4,0.2-13,4.8c-0.2,0.4-0.4,0.8-0.7,1.2c-5.6,8.7-17.4,11.3-26.2,5.7c-3-1.9-5.3-4.6-6.8-7.6  c-2.3-4.7-7.8-7.1-12.8-5.3c-8.7,3.1-16.8,7.6-24.2,13.5c-3.9,3.2-4.8,8.6-2.4,13.1c3,5.7,3.1,12.8-0.5,18.7  c-3.6,5.9-9.8,9.2-16.3,9.2c-5,0-9.5,3.4-10.4,8.3c-1.9,9.8-1.9,19.8-0.3,29.5c0.8,5,5.1,8.7,10.1,8.7c3.9,0,7.9,1.3,11.4,3.9  c7.1,5.4,9.5,15.2,5.6,23.3c-0.2,0.4-0.4,0.8-0.6,1.1c-2.5,4.4-1.6,9.9,2.3,13.2c3.3,2.7,6.8,5.2,10.5,7.5  c5.4,3.3,11.1,5.8,16.8,7.7c5,1.6,10.2-0.8,12.6-5.4c0.6-1.2,1.3-2.3,2.1-3.4c5.4-6.9,15.1-9.1,23-5.3c3.5,1.7,6.3,4.3,8.1,7.3  c2.7,4.4,8.1,6.4,12.9,4.4c7-3,13.6-6.9,19.6-11.7c3.9-3.2,4.8-8.7,2.5-13.1c-3-5.7-3.1-12.8,0.5-18.7c3.6-5.9,9.8-9.2,16.3-9.2  c5,0,9.5-3.4,10.4-8.3C190.8,752,190.9,742.4,189.5,733.1z M142.5,746.2c0,19.5-15.8,35.3-35.3,35.3s-35.3-15.8-35.3-35.3  s15.8-35.3,35.3-35.3S142.5,726.7,142.5,746.2z M405.5,761.5c-0.9,4.9-5.4,8.3-10.4,8.3c-6.4,0-12.7,3.3-16.3,9.2  c-3.6,5.9-3.5,13-0.5,18.7c2.4,4.5,1.5,10-2.5,13.1c-6,4.8-12.6,8.8-19.6,11.7c-4.8,2-10.2,0.1-12.9-4.4c-1.8-3-4.6-5.6-8.1-7.3  c-7.9-3.8-17.5-1.5-23,5.3c-0.9,1.1-1.6,2.2-2.1,3.4c-2.3,4.7-7.6,7.1-12.6,5.4c-5.8-1.9-11.4-4.5-16.8-7.7  c-3.7-2.2-7.2-4.8-10.5-7.5c-3.9-3.2-4.7-8.8-2.3-13.2c0.2-0.4,0.4-0.7,0.6-1.1c3.8-8,1.5-17.9-5.6-23.3c-3.5-2.6-7.4-3.9-11.4-3.9  c-5,0-9.2-3.7-10.1-8.7c-1.6-9.7-1.6-19.6,0.3-29.5c0.9-4.9,5.4-8.3,10.4-8.3c6.4,0,12.7-3.3,16.3-9.2c3.6-5.9,3.5-13,0.5-18.7  c-2.4-4.4-1.5-9.9,2.4-13.1c7.3-5.9,15.5-10.4,24.2-13.5c5-1.8,10.4,0.5,12.8,5.3c1.5,3,3.8,5.7,6.8,7.6c8.7,5.5,20.6,3,26.2-5.7  c0.2-0.4,0.5-0.8,0.7-1.2c2.6-4.6,8.1-6.8,13-4.8c3.9,1.6,7.8,3.5,11.6,5.8c3.3,2,6.4,4.2,9.4,6.5c4.3,3.4,5.1,9.5,2.1,14.1  c-0.2,0.3-0.4,0.7-0.6,1c-3,5.3-3.1,11.6-0.8,17c-11-17.6-30.6-29.2-52.9-29.2c-34.5,0-62.4,27.9-62.4,62.4s27.9,62.4,62.4,62.4  c34.5,0,62.4-27.9,62.4-62.4c0-10.6-2.6-20.5-7.3-29.2c1.4,1.8,3.1,3.4,5.1,4.7c3.5,2.1,7.3,3,11.1,2.8c5.4-0.3,10.2,3.3,11,8.7  C407.4,742.4,407.3,752,405.5,761.5z M358.9,746.2c0,19.5-15.8,35.3-35.3,35.3c-19.5,0-35.3-15.8-35.3-35.3s15.8-35.3,35.3-35.3  C343.1,710.9,358.9,726.7,358.9,746.2z M614.7,761.5c-0.9,4.9-5.4,8.3-10.4,8.3c-6.4,0-12.7,3.3-16.3,9.2c-3.6,5.9-3.5,13-0.5,18.7  c2.4,4.5,1.5,10-2.5,13.1c-6,4.8-12.6,8.8-19.6,11.7c-4.8,2-10.2,0.1-12.9-4.4c-1.8-3-4.6-5.6-8.1-7.3c-7.9-3.8-17.5-1.5-23,5.3  c-0.9,1.1-1.6,2.2-2.1,3.4c-2.3,4.7-7.6,7.1-12.6,5.4c-5.8-1.9-11.4-4.5-16.8-7.7c-3.7-2.2-7.2-4.8-10.5-7.5  c-3.9-3.2-4.7-8.8-2.3-13.2c0.2-0.4,0.4-0.7,0.6-1.1c3.8-8,1.5-17.9-5.6-23.3c-3.5-2.6-7.4-3.9-11.4-3.9c-5,0-9.2-3.7-10.1-8.7  c-1.6-9.7-1.6-19.6,0.3-29.5c0.9-4.9,5.4-8.3,10.4-8.3c6.4,0,12.7-3.3,16.3-9.2c3.6-5.9,3.5-13,0.5-18.7c-2.4-4.4-1.5-9.9,2.4-13.1  c7.3-5.9,15.5-10.4,24.2-13.5c5-1.8,10.4,0.5,12.8,5.3c1.5,3,3.8,5.7,6.8,7.6c8.7,5.5,20.6,3,26.2-5.7c0.2-0.4,0.5-0.8,0.7-1.2  c2.6-4.6,8.1-6.8,13-4.8c3.9,1.6,7.8,3.5,11.6,5.8c3.3,2,6.4,4.2,9.4,6.5c4.3,3.4,5.1,9.5,2.1,14.1c-0.2,0.3-0.4,0.7-0.6,1  c-3,5.3-3.1,11.6-0.8,17c-11-17.6-30.6-29.2-52.9-29.2c-34.5,0-62.4,27.9-62.4,62.4s27.9,62.4,62.4,62.4s62.4-27.9,62.4-62.4  c0-10.6-2.6-20.5-7.3-29.2c1.4,1.8,3.1,3.4,5.1,4.7c3.5,2.1,7.3,3,11.1,2.8c5.4-0.3,10.2,3.3,11,8.7  C616.6,742.4,616.5,752,614.7,761.5z M568.2,746.2c0,19.5-15.8,35.3-35.3,35.3s-35.3-15.8-35.3-35.3s15.8-35.3,35.3-35.3  S568.2,726.7,568.2,746.2z M766.3,746.2c0,19.5-15.8,35.3-35.3,35.3c-19.5,0-35.3-15.8-35.3-35.3s15.8-35.3,35.3-35.3  C750.5,710.9,766.3,726.7,766.3,746.2z M812.9,761.5c-0.9,4.9-5.4,8.3-10.4,8.3c-6.4,0-12.7,3.3-16.3,9.2c-3.6,5.9-3.5,13-0.5,18.7  c2.4,4.5,1.5,10-2.5,13.1c-6,4.8-12.6,8.8-19.6,11.7c-4.8,2-10.2,0.1-12.9-4.4c-1.8-3-4.6-5.6-8.1-7.3c-7.9-3.8-17.5-1.5-23,5.3  c-0.9,1.1-1.6,2.2-2.1,3.4c-2.3,4.7-7.6,7.1-12.6,5.4c-5.8-1.9-11.4-4.5-16.8-7.7c-3.7-2.2-7.2-4.8-10.5-7.5  c-3.9-3.2-4.7-8.8-2.3-13.2c0.2-0.4,0.4-0.7,0.6-1.1c3.8-8,1.5-17.9-5.6-23.3c-3.5-2.6-7.4-3.9-11.4-3.9c-5,0-9.2-3.7-10.1-8.7  c-1.6-9.7-1.6-19.6,0.3-29.5c0.9-4.9,5.4-8.3,10.4-8.3c6.4,0,12.7-3.3,16.3-9.2c3.6-5.9,3.5-13,0.5-18.7c-2.4-4.4-1.5-9.9,2.4-13.1  c2.4-2,5-3.8,7.6-5.4c9.9-0.7,19.8-1.4,29.8-2.1c1.5,2.7,3.6,5.1,6.4,6.8c8.7,5.5,20.6,3,26.2-5.7c0.2-0.4,0.5-0.8,0.7-1.2  c2.6-4.6,8.1-6.8,13-4.8c3.9,1.6,7.8,3.5,11.6,5.8c3.3,2,6.4,4.2,9.4,6.5c4.3,3.4,5.1,9.5,2.1,14.1c-0.2,0.3-0.4,0.7-0.6,1  c-3,5.3-3.1,11.6-0.8,17c-11-17.6-30.6-29.2-52.9-29.2c-34.5,0-62.4,27.9-62.4,62.4s27.9,62.4,62.4,62.4c34.5,0,62.4-27.9,62.4-62.4  c0-10.6-2.6-20.5-7.3-29.2c1.4,1.8,3.1,3.4,5.1,4.7c3.5,2.1,7.3,3,11.1,2.8c5.4-0.3,10.2,3.3,11,8.7  C814.8,742.4,814.7,752,812.9,761.5z"
   style="fill:#aaeeff" />
<path
   id="Элементы_1_"
   class="st0"
   d="M299.1,485.3c-11.6-13.2-23.2-26.5-34.8-39.7c12.8-6.5,24-15.5,32.3-26.1  c17.7,22,35.4,44,53.2,66C333,485.4,316.1,485.3,299.1,485.3z M219.3,377.4c53.8-41.8,90.6-90.9,87-116.1c-1.3-2-2.6-4-4.1-6  c-2.1-2.8-4.3-5.4-6.7-7.9c-23.6-10-81.1,12.5-134.9,54.4c-56.4,43.8-91.5,94.5-83.2,118.3c0.5,0.7,0.9,1.3,1.4,2  c1.9,2.5,3.9,5,6.1,7.2C106.4,442.3,163.5,420.8,219.3,377.4z M467.3,485.8c0-34.8,0-69.7,0-104.5c-8.1,0-16.3,0-24.4,0  c0,34.8,0,69.6,0,104.4C451,485.8,459.2,485.8,467.3,485.8z M528.6,176.5c-0.8,9.2-0.1,16.8,0.7,22.1c1.1,6.9,1.9,12,5.6,17.4  c0,0.1,0.1,0.1,0.1,0.2c4.1,6.1,11.1,9.6,18.4,9.6c0,0,147.4,0,151.6-0.7c8.1-1.3,14-2.2,18.8-7c5.7-5.7,6.7-12.5,7-14.6v-23  c-67.3-1.4-134.7-2.8-202-4.2C528.7,176.3,528.6,176.4,528.6,176.5z M528.3,176.3c-8.3,0.5-16.5,0.9-24.8,1.4v25  c0,6.9,3.2,13.5,8.9,17.5c0,0,0.1,0.1,0.1,0.1c2.1,1.4,5.9,3.5,19.5,4.9c5.2,0.5,12.2,1,20.7,0.7c0.1,0,0.1-0.1,0-0.1  c-4.9-0.8-12.6-3-17.8-9.5c-4.6-5.8-5.3-12.4-6.3-22.4c-0.7-7.1-0.5-13.1-0.1-17.2C528.6,176.4,528.5,176.3,528.3,176.3z   M669.9,119.4c-1.5,16.4-12.6,29.1-26.1,29.1c-14.5,0-26.3-14.7-26.3-32.8c0,20.8,0,41.6,0,62.5c17.6,0.4,35.2,0.7,52.8,1.1  C670.1,159.3,670,139.3,669.9,119.4z"
   style="fill:#e6e6e6" />
<path
   id="Элементы"
   class="st0"
   d="M662.5,595.4c-12.3,0-22.3,14.4-22.3,32.1c0,17.7,10,32.1,22.3,32.1  c12.3,0,22.3-14.4,22.3-32.1C684.9,609.8,674.9,595.4,662.5,595.4z M662.5,638.4c-4.2,0-7.6-4.9-7.6-10.9s3.4-10.9,7.6-10.9  c4.2,0,7.6,4.9,7.6,10.9S666.7,638.4,662.5,638.4z M670.1,627.5c0,6-3.4,10.9-7.6,10.9c-4.2,0-7.6-4.9-7.6-10.9s3.4-10.9,7.6-10.9  C666.7,616.7,670.1,621.5,670.1,627.5z M599.9,612.9c0,6-3.4,10.9-7.6,10.9s-7.6-4.9-7.6-10.9s3.4-10.9,7.6-10.9  S599.9,606.9,599.9,612.9z M596.1,649.9c0,3-1.7,5.4-3.8,5.4c-2.1,0-3.8-2.4-3.8-5.4s1.7-5.4,3.8-5.4  C594.4,644.5,596.1,646.9,596.1,649.9z M311,369c7.5,47.2-42.8,88.3-94.8,88.3c-5.1,0-10.1-0.8-14.9-2.3  c20.7-5.1,41.3-14.5,59.8-28.3c22.9-17.1,39.4-38.6,49.2-61.3C310.6,366.6,310.9,367.8,311,369z M261.2,426.7  c-58,43.3-136.6,43.4-175.5,3.6c-0.1-0.1,0-0.4,0.2-0.3c22.3,11.6,78.5-9.9,133.3-52.6c53.3-41.4,89.9-89.9,87.1-115.3  c0-0.2,0.2-0.3,0.3-0.1C336.3,310.1,320.1,382.7,261.2,426.7z M141.4,245.2c0,14.1-11.4,25.5-25.5,25.5s-25.5-11.4-25.5-25.5  c0-14.1,11.4-25.5,25.5-25.5S141.4,231.1,141.4,245.2z M479.4,311.4c0,14.2-11.5,25.7-25.7,25.7s-25.7-11.5-25.7-25.7  s11.5-25.7,25.7-25.7S479.4,297.3,479.4,311.4z M617.6,456.9c10.9,0,20.5-3.1,26.2-7.8c0,11.8,0,23.6,0,35.4  c-17.4,0.4-34.9,0.7-52.3,1.1c0-12.2,0-24.3,0-36.5C597,453.8,606.7,456.9,617.6,456.9z M617.6,276c-10.9,0-20.5-3.1-26.2-7.8  c0,13.7,0,27.4,0,41c0,6.4,0,12.9,0,19.3c5.6,4.7,15.3,7.8,26.2,7.8s20.5-3.1,26.2-7.8c0-6.4,0-12.9,0-19.3c0-13.7,0-27.4,0-41  C638.1,272.9,628.5,276,617.6,276z M617.6,336.3c-10.9,0-20.5-3.1-26.2-7.8c0,13.6,0,27.2,0,40.8c0,6.5,0,13,0,19.6  c5.7,4.6,15.2,7.7,26,7.7c11,0,20.7-3.1,26.3-7.9c0-6.4,0-12.7,0-19.1c0-13.7,0-27.4,0-41.1C638.1,333.2,628.5,336.3,617.6,336.3z   M617.4,396.6c-10.8,0-20.4-3-26-7.7c0,13.6,0,27.2,0,40.9c0,6.4,0,12.9,0,19.3c5.6,4.7,15.3,7.8,26.2,7.8s20.5-3.1,26.2-7.8  c0-6.4,0-12.9,0-19.3c0-13.7,0-27.4,0-41.1C638.1,393.5,628.4,396.6,617.4,396.6z M591.4,225.8c0,7.7,0,15.4,0,23.1  c0,6.4,0,12.9,0,19.3c5.6,4.7,15.3,7.8,26.2,7.8s20.5-3.1,26.2-7.8c0-6.4,0-12.9,0-19.3c0-7.7,0-15.5,0-23.2  C626,225.7,607.2,225.8,591.4,225.8z M643.7,82.9c-14.5,0-26.3,14.7-26.3,32.8c0,18.1,11.8,32.8,26.3,32.8s26.3-14.7,26.3-32.8  C670.1,97.6,658.3,82.9,643.7,82.9z M643.7,131.2c-6.9,0-12.4-6.9-12.4-15.5s5.6-15.5,12.4-15.5s12.4,6.9,12.4,15.5  S650.6,131.2,643.7,131.2z M656.2,115.7c0,8.6-5.6,15.5-12.4,15.5s-12.4-6.9-12.4-15.5s5.6-15.5,12.4-15.5S656.2,107.1,656.2,115.7z  "
   style="fill:#f2f2f2" />
<path
   id="Камера"
   class="st0"
   d="M694.6,71c-5.6-5.5-11.5-8.3-15.3-9.8c-29.1-2.1-58.1-4.2-87.2-6.3c-2.2-0.1-13.3-0.6-23,7.7  c-7.3,6.3-9.7,15-11.2,22.3c-0.2,30.7-0.5,61.3-0.7,92c50,1,100,2.1,150,3.1c0-27.7,0-55.5,0-83.2C706.6,92.6,704.5,80.8,694.6,71z   M643.7,148.5c-14.5,0-26.3-14.7-26.3-32.8c0-18.1,11.8-32.8,26.3-32.8s26.3,14.7,26.3,32.8C670.1,133.8,658.3,148.5,643.7,148.5z   M557,176.9c-8-0.2-16.1-0.3-24.1-0.5c-0.1,0-0.1-0.1-0.1-0.1v-85c0-3.4,0.5-12.7,7-21.6c1.6-2.2,7.5-10,18.1-13.3  c0.9-0.3,3-0.9,9.1-1.4c4.9-0.4,11.8-0.7,20.2-0.2c0.2,0,0.2,0.3,0,0.3c-4.2,0.4-11.6,1.9-18.1,7.6c-9,7.8-10.6,18.4-11.2,22.3  c-0.8,5.6-0.2,10-0.1,11.2c0,0,0,0,0,0l-0.6,80.6C557.2,176.8,557.1,176.9,557,176.9z"
   style="fill:#afe9dd" />
<g
   id="Детали">
	<path
   class="st0"
   d="M123.1,269.6c15.4,46.9,30.9,93.8,46.3,140.8"
   id="path10" />
	<path
   class="st0"
   d="M131.2,265.6c31.6,35.5,63.1,71,94.7,106.6"
   id="path12" />
	<path
   class="st0"
   d="M137.6,258.5c46.2,21.6,92.4,43.1,138.7,64.7"
   id="path14" />
	<path
   class="st0"
   d="M454.7,381.3c0-16.5,0-33,0-49.5"
   id="path16" />
	<path
   class="st0"
   d="M592.1,54.9c0-14.4,0-28.9,0-43.3"
   id="path18" />
	<path
   class="st0"
   d="M563.7,55.3c-1.3-2.7-7.2-14.8-21.1-19.9c-3.1-1.1-11.9-4.2-22.3-0.7c-9.6,3.2-14.8,10.3-17.4,13.9   c-20,27.4-1.1,74.6,0,77.4c2.5,6.2,6.2,13.7,8.4,25.8c1.9,10.6,1.7,19.5,1.3,25.3"
   id="path20" />
	<path
   class="st0"
   d="M556.5,225.8c-1.5,22.7-2,41.4-2.1,54.4c-0.3,32.1,1.1,41.1-2.1,60c-2.9,17.1-5.5,32-16,48.1   c-16.6,25.5-41.5,36.4-49.5,39.8c-7.7,3.3-14.5,5.1-19.5,6.3"
   id="path22" />
	<path
   class="st0"
   d="M442.9,439.2c-14.8,3-26.5,7.1-34.9,10.5c-14.7,5.9-18.5,9.6-20.9,13.3c-5.8,8.8-4.4,19.1-3.5,23.7"
   id="path24" />
</g>
</svg>
