<?xml version="1.0" encoding="UTF-8" standalone="no"?>
<svg
   xmlns:dc="http://purl.org/dc/elements/1.1/"
   xmlns:cc="http://creativecommons.org/ns#"
   xmlns:rdf="http://www.w3.org/1999/02/22-rdf-syntax-ns#"
   xmlns:svg="http://www.w3.org/2000/svg"
   xmlns="http://www.w3.org/2000/svg"
   xmlns:sodipodi="http://sodipodi.sourceforge.net/DTD/sodipodi-0.dtd"
   xmlns:inkscape="http://www.inkscape.org/namespaces/inkscape"
   style="height: 512px; width: 512px;"
   viewBox="0 0 512 512"
   version="1.1"
   id="svg6"
   sodipodi:docname="snow-sphere.svg"
   inkscape:version="0.92.3 (2405546, 2018-03-11)">
  <metadata
     id="metadata12">
    <rdf:RDF>
      <cc:Work
         rdf:about="">
        <dc:format>image/svg+xml</dc:format>
        <dc:type
           rdf:resource="http://purl.org/dc/dcmitype/StillImage" />
      </cc:Work>
    </rdf:RDF>
  </metadata>
  <defs
     id="defs10">
    <inkscape:path-effect
       effect="roughen"
       id="path-effect816"
       is_visible="true"
       method="segments"
       max_segment_size="10"
       segments="18"
       displace_x="10;1"
       displace_y="10;1"
       global_randomize="0.8;1154582269"
       handles="along"
       shift_nodes="true"
       fixed_displacement="false"
       spray_tool_friendly="false" />
  </defs>
  <sodipodi:namedview
     pagecolor="#ffffff"
     bordercolor="#666666"
     borderopacity="1"
     objecttolerance="10"
     gridtolerance="10"
     guidetolerance="10"
     inkscape:pageopacity="0"
     inkscape:pageshadow="2"
     inkscape:window-width="1920"
     inkscape:window-height="1043"
     id="namedview8"
     showgrid="false"
     inkscape:zoom="0.4609375"
     inkscape:cx="248.40678"
     inkscape:cy="233.22034"
     inkscape:window-x="0"
     inkscape:window-y="0"
     inkscape:window-maximized="1"
     inkscape:current-layer="svg6" />
  <g
     class=""
     style="fill:#f0f0f0;fill-opacity:1;stroke:#000000;stroke-width:8.07393169;stroke-miterlimit:4;stroke-dasharray:none;stroke-opacity:1"
     transform="matrix(0.89962433,0,0,0.89962433,25.303027,26.820443)"
     id="g4"
     inkscape:path-effect="#path-effect816">
    <path
       d="m 251.52734,20.953442 c -7.13889,0 -7.95733,2.622792 -14.93398,3.253759 -5.77149,0.886232 -16.40646,5.461052 -23.74164,6.846289 -7.4065,4.868238 -12.30556,6.772717 -18.1293,8.331356 -6.32438,5.877543 -10.73907,4.619758 -16.46674,6.601939 -5.32902,3.443149 -12.95594,6.103306 -19.04409,8.75799 -6.04424,3.9453 -17.11396,5.272343 -22.52417,8.10995 -10.15885,2.375903 -6.02562,8.446155 -10.06813,10.895553 -3.15499,7.225472 -15.03144,7.803126 -20.19014,11.4987 -8.405835,3.975533 -10.089715,5.596664 -14.029982,8.864236 -6.591727,3.416487 -9.819424,8.989006 -14.157811,13.358736 -4.880229,5.30754 -6.315566,7.00382 -10.260035,11.89223 -2.418395,3.74137 -10.276511,13.54656 -14.388249,20.16999 -4.222056,6.49184 -7.351154,13.93594 -10.092898,19.50565 -3.595655,8.36373 -7.596469,16.51651 -9.610994,21.70251 -4.551887,10.72055 -7.023872,11.40363 -8.245224,15.59177 -5.644348,8.84598 -3.427143,10.11364 -3.836425,15.86681 -1.234519,5.21188 0.673366,14.02835 1.164709,22.37312 0.381676,6.48222 0.173218,13.90085 0.173218,21.50483 0,7.13889 0.915832,18.65627 1.546242,25.63217 1.088374,9.92645 0.111386,9.57027 0.976573,14.91007 0.123582,6.03192 3.830597,13.54166 5.701091,20.61843 2.904167,5.79868 3.472043,13.51097 5.86485,20.06254 1.902609,6.40052 4.014382,13.39511 6.892241,19.51355 1.898792,6.75905 5.877293,11.95417 9.222509,17.67726 3.331166,5.83678 8.818603,9.29865 12.701153,14.75412 5.752432,3.43957 4.702378,8.65304 9.124521,13.87535 1.642365,3.70376 13.348717,13.88224 19.114504,19.45304 6.722027,5.83122 8.471107,7.87079 12.647187,11.40072 5.37621,4.53873 13.73259,11.61117 18.9347,15.34233 7.84,6.43973 8.3126,5.70758 12.47942,8.2884 5.84998,3.58451 8.44188,3.07571 14.36593,5.99351 4.06398,-0.16932 10.18875,8.97171 17.96253,11.93043 2.68787,4.88209 14.88673,3.85013 23.0031,5.69604 6.59321,0.36691 13.42402,2.57111 20.38883,3.70636 6.78094,0.82688 16.64485,0.57742 23.57085,1.28182 7.167,0.72892 13.37598,1.02667 20.25467,1.02667 7.13889,0 12.65506,1.58134 19.62036,0.96033 6.04714,1.22177 15.13821,-1.79814 22.50104,-3.19398 6.82619,-1.35824 14.02443,-3.29963 20.56656,-5.1586 6.91894,-2.23492 17.35735,-7.03701 23.43832,-9.34061 9.33689,-4.89177 7.2628,-1.25305 11.59896,-3.20908 5.20387,-0.81098 14.92623,-5.97787 21.37506,-9.70589 6.92275,-2.65337 14.75613,-1.8678 19.93669,-5.50418 9.40263,0.86742 11.18281,-11.43563 16.23747,-15.86301 4.81726,-7.29222 15.42708,-7.6267 19.50178,-11.86771 10.50677,-3.60258 10.15081,-10.52102 13.51125,-14.75515 6.37861,-7.00569 7.04709,-9.04223 10.10719,-13.82482 3.93785,-5.80042 6.50317,-12.99737 9.53628,-19.32384 2.18919,-6.943 5.53419,-12.24834 7.82084,-18.56677 2.36775,-6.40736 3.89257,-12.77823 5.62434,-19.43575 1.29029,-6.46695 3.87747,-11.69997 5.11778,-18.56651 1.96119,-5.40507 5.38302,-17.78102 6.06444,-25.3434 3.74355,-9.66119 -2.10249,-9.55599 -2.571,-15.21595 -0.55312,-6.6822 -0.8929,-13.75657 -0.8929,-21.37265 0,-7.13889 0.0841,-14.68321 -0.53548,-21.67125 -0.20743,-7.32937 0.50828,-9.57638 -0.67335,-16.25639 0.55142,-4.23175 0.92897,-20.58158 -1.39782,-28.59373 2.60777,-9.97218 -5.71665,-10.35396 -7.87552,-15.99371 -4.59442,-5.31876 -5.10903,-11.10715 -8.18476,-17.3712 -3.04999,-4.75769 -9.621,-15.57619 -13.46695,-21.86025 -5.69161,-7.2 -6.601,-9.85487 -9.76609,-14.32551 -4.39918,-5.79077 -7.77888,-12.22719 -11.84228,-17.10991 -4.14179,-6.687877 -5.17638,-8.068615 -9.44576,-12.439451 -2.48252,-4.259239 -10.90541,-9.550595 -16.83098,-14.46851 -5.20948,-3.267063 -15.8145,-14.76212 -21.55324,-18.725503 -8.44009,-8.554643 -6.02771,-2.999761 -9.58456,-5.13798 -5.33787,-2.118259 -8.66901,-1.203363 -15.27748,-4.277257 -3.53213,2.472158 -10.53746,-4.786962 -18.97589,-7.974994 -2.31246,-0.61165 -11.73789,-6.178998 -20.37297,-8.744389 -3.19097,-2.658821 -15.66321,-4.428319 -23.8943,-5.977378 -7.12005,-1.642528 -10.35898,-4.601901 -16.94561,-5.255413 -7.46743,-0.740903 -22.33765,-0.817833 -28.84044,-0.817833 z"
       id="path2"
       style="fill:#f0f0f0;fill-opacity:1;stroke:#000000;stroke-width:8.07393169;stroke-miterlimit:4;stroke-dasharray:none;stroke-opacity:1"
       inkscape:connector-curvature="0"
       inkscape:original-d="M 256,23.05 C 127.5,23.05 23.05,127.5 23.05,256 23.05,384.5 127.5,488.9 256,488.9 384.5,488.9 488.9,384.5 488.9,256 488.9,127.5 384.5,23.05 256,23.05 Z" />
  </g>
</svg>
