<?xml version="1.0" encoding="UTF-8" standalone="no"?>
<svg
   xmlns:dc="http://purl.org/dc/elements/1.1/"
   xmlns:cc="http://creativecommons.org/ns#"
   xmlns:rdf="http://www.w3.org/1999/02/22-rdf-syntax-ns#"
   xmlns:svg="http://www.w3.org/2000/svg"
   xmlns="http://www.w3.org/2000/svg"
   xmlns:sodipodi="http://sodipodi.sourceforge.net/DTD/sodipodi-0.dtd"
   xmlns:inkscape="http://www.inkscape.org/namespaces/inkscape"
   style="height: 512px; width: 512px;"
   viewBox="0 0 512 512"
   version="1.1"
   id="svg6"
   sodipodi:docname="snow-block.svg"
   inkscape:version="0.92.3 (2405546, 2018-03-11)">
  <metadata
     id="metadata12">
    <rdf:RDF>
      <cc:Work
         rdf:about="">
        <dc:format>image/svg+xml</dc:format>
        <dc:type
           rdf:resource="http://purl.org/dc/dcmitype/StillImage" />
      </cc:Work>
    </rdf:RDF>
  </metadata>
  <defs
     id="defs10" />
  <sodipodi:namedview
     pagecolor="#ffffff"
     bordercolor="#666666"
     borderopacity="1"
     objecttolerance="10"
     gridtolerance="10"
     guidetolerance="10"
     inkscape:pageopacity="0"
     inkscape:pageshadow="2"
     inkscape:window-width="1920"
     inkscape:window-height="1043"
     id="namedview8"
     showgrid="false"
     inkscape:zoom="0.4609375"
     inkscape:cx="260.33898"
     inkscape:cy="256"
     inkscape:window-x="0"
     inkscape:window-y="0"
     inkscape:window-maximized="1"
     inkscape:current-layer="svg6" />
  <path
     style="fill:#dcdcdc;fill-opacity:1;stroke:#000000;stroke-width:8;stroke-opacity:1"
     d="m 238.406,26.844 c -9.653,0.12 -18.926,2.69 -30.437,7.062 l -157.282,57 C 29.703,98.556 29.1,102.74 28.343,124.186 L 20.937,358.22 c -1.207,27.514 -0.654,33.187 23.25,43.56 l 185.783,81.41 c 19.34,8.29 31.906,7.655 45.186,3.218 l 181.938,-56.53 c 21.95,-7.295 25.04,-9.627 25.875,-36.845 l 7.686,-250.155 c 0.662,-17.37 -5.667,-24.695 -18.78,-29.625 L 271.062,34.375 c -12.977,-5.344 -23.003,-7.653 -32.657,-7.53 z"
     id="path837" />
  <path
     style="fill:#f0f0f0;fill-opacity:1;stroke:#000000;stroke-width:8;stroke-opacity:1"
     d="m 239.219,51.719 c 23.637,-0.053 45.564,8.434 87.874,24.874 95.545,37.123 131.71,53.8 69.687,77.937 -74.002,28.802 -128.175,45.115 -172.28,25.814 L 113.47,131.75 C 78.9,116.623 68.78,104.29 131.313,81.656 186.953,61.516 214.055,51.774 239.219,51.719 Z"
     id="path835" />
  <path
     style="fill:#ffffff;fill-opacity:1;stroke:#000000;stroke-width:8;stroke-opacity:1"
     d="m 283.937,95.469 c -38.284,0.402 -55.285,21.205 -56.813,38.936 -0.873,10.132 2.95,19.6 12.406,26.25 9.456,6.65 25.355,10.56 48.97,5.938 35.817,-7.01 61.536,-15.056 77.5,-22.844 7.982,-3.894 13.464,-7.737 16.5,-10.844 3.036,-3.107 3.453,-4.942 3.438,-6 -0.016,-1.057 -0.44,-2.675 -3.313,-5.406 -2.873,-2.73 -8.03,-6.04 -15.22,-9.156 -14.378,-6.233 -36.757,-11.877 -65.717,-15.72 -6.355,-0.842 -12.28,-1.213 -17.75,-1.155 z"
     id="path833" />
  <path
     style="fill:#f0f0f0;fill-opacity:1;stroke:#000000;stroke-width:8;stroke-opacity:1"
     d="m 59.25,134 c 10.372,-0.29 29.217,7.2 63.906,22.656 140.925,62.786 140.52,65.876 130.97,200.656 -7.783,109.81 -8.797,109.85 -128.47,59.282 -73.15,-30.91 -86.806,-40.853 -85.187,-88.97 L 45.937,164.687 C 46.611,144.653 47.494,134.329 59.249,134 Z"
     id="path831" />
  <path
     style="fill:#f0f0f0;fill-opacity:1;stroke:#000000;stroke-width:8;stroke-opacity:1"
     d="m 441.188,164.906 c 29.172,-0.384 29.1,28.075 26.75,105.25 -4.118,135.132 -9.05,140.184 -120.375,173.72 -70.42,21.21 -81.49,25.614 -78.97,-12.032 l 11,-164.156 c 3.217,-48.034 7.588,-51.508 94.813,-83.907 31.323,-11.633 52.534,-18.686 66.78,-18.874 z"
     id="path829" />
  <path
     style="fill:#ffffff;fill-opacity:1;stroke:#000000;stroke-width:8;stroke-opacity:1"
     d="m 420.75,205.594 c -0.332,-0.002 -0.674,0.015 -1,0.03 -5.22,0.263 -10.226,2.77 -14.188,8.407 -3.96,5.638 -6.81,14.71 -5.687,27.907 1.448,17.033 -4.507,38.11 -15.156,56.938 -10.65,18.827 -26.502,35.91 -47.814,38.813 -29.127,3.968 -42.41,23.58 -43.5,42.062 -0.545,9.24 2.108,18.03 7.688,24.594 5.58,6.564 14.088,11.335 27.187,12.03 41.146,2.185 71.336,-10.766 91.595,-39.155 20.26,-28.39 30.396,-73.76 25.875,-136.595 -1.876,-26.076 -14.708,-34.977 -25,-35.03 z"
     id="path827" />
  <path
     style="fill:#ffffff;fill-opacity:1;stroke:#000000;stroke-width:8;stroke-opacity:1"
     d="m 174.5,214.438 c -0.644,0 -1.218,0.063 -1.72,0.187 -2.003,0.494 -3.685,1.53 -5.655,4.813 -1.913,3.186 -3.688,8.618 -4.406,16.343 l -0.064,0.657 c -1.388,16.732 -8.098,28.602 -17.844,35.063 -9.745,6.46 -20.794,7.808 -31.125,9.094 -10.33,1.286 -20.177,2.39 -28.156,5.75 -7.977,3.36 -14.36,8.38 -19.468,19.78 -7.2,16.076 -7.143,28.027 -3.124,38.563 4.018,10.537 12.688,20.106 24.687,28.75 23.998,17.29 60.27,29.956 88.906,41.844 11.386,4.727 20.496,6.484 27.282,6.126 6.787,-0.358 11.278,-2.423 15.375,-6.562 8.195,-8.28 14.057,-27.692 15,-57.344 2.024,-63.623 -18.84,-110.284 -38.656,-130.875 -8.668,-9.008 -16.52,-12.193 -21.03,-12.188 z"
     id="path825" />
  <path
     style="fill:#ffffff;fill-opacity:1;stroke:#000000;stroke-width:8;stroke-opacity:1"
     d="m 358.72,221.25 c -0.95,-0.003 -1.927,0.035 -2.97,0.094 -35.464,1.99 -48.477,12.867 -52.5,24.062 -4.023,11.196 0.826,27.07 10.844,39.78 11.488,14.58 20.59,15.736 30.437,12.283 9.848,-3.455 20.542,-14.108 27.376,-26.908 6.834,-12.8 9.512,-27.397 7.188,-36.28 -1.163,-4.443 -3.144,-7.422 -6.47,-9.626 -2.908,-1.928 -7.274,-3.388 -13.905,-3.406 z"
     id="path2" />
</svg>
