<?xml version="1.0" encoding="UTF-8" standalone="no"?>
<svg
   xmlns:dc="http://purl.org/dc/elements/1.1/"
   xmlns:cc="http://creativecommons.org/ns#"
   xmlns:rdf="http://www.w3.org/1999/02/22-rdf-syntax-ns#"
   xmlns:svg="http://www.w3.org/2000/svg"
   xmlns="http://www.w3.org/2000/svg"
   xmlns:sodipodi="http://sodipodi.sourceforge.net/DTD/sodipodi-0.dtd"
   xmlns:inkscape="http://www.inkscape.org/namespaces/inkscape"
   style="height: 512px; width: 512px;"
   viewBox="0 0 512 512"
   version="1.1"
   id="svg6"
   sodipodi:docname="snow-converter.svg"
   inkscape:version="0.92.3 (2405546, 2018-03-11)">
  <metadata
     id="metadata12">
    <rdf:RDF>
      <cc:Work
         rdf:about="">
        <dc:format>image/svg+xml</dc:format>
        <dc:type
           rdf:resource="http://purl.org/dc/dcmitype/StillImage" />
      </cc:Work>
    </rdf:RDF>
  </metadata>
  <defs
     id="defs10" />
  <sodipodi:namedview
     pagecolor="#ffffff"
     bordercolor="#666666"
     borderopacity="1"
     objecttolerance="10"
     gridtolerance="10"
     guidetolerance="10"
     inkscape:pageopacity="0"
     inkscape:pageshadow="2"
     inkscape:window-width="1920"
     inkscape:window-height="1043"
     id="namedview8"
     showgrid="false"
     inkscape:zoom="0.4609375"
     inkscape:cx="260.33898"
     inkscape:cy="256"
     inkscape:window-x="0"
     inkscape:window-y="0"
     inkscape:window-maximized="1"
     inkscape:current-layer="svg6" />
  <path
     style="fill:#c8c8c8;fill-opacity:1;stroke:#000000;stroke-width:8;stroke-opacity:1"
     d="M 256,21 21,140.5562 c 35.3919,5.4586 74.4386,9.6712 116.0312,12.4842 L 244.3971,40.975 154.0687,154.0687 c 12.7498,0.7295 25.7697,1.2935 38.9221,1.7625 9.8475,-25.2169 34.3058,-43.1813 63.0091,-43.1813 28.7033,0 53.1622,17.9643 63.0096,43.1813 13.1647,-0.4699 26.1602,-1.0316 38.9217,-1.7625 L 267.6033,40.975 374.9687,153.0404 c 41.587,-2.8144 80.6158,-7.0246 116.0312,-12.4842 L 255.9999,21 Z"
     id="path831" />
  <path
     style="fill:#7affff;fill-opacity:1;stroke:#000000;stroke-width:8;stroke-opacity:1"
     d="m 256,128.8063 c -28.4594,0 -51.5528,23.0934 -51.5528,51.5529 0,28.4595 23.0934,51.5533 51.5528,51.5533 28.4594,0 51.5534,-23.0939 51.5534,-51.5533 0,-28.4594 -23.0935,-51.5529 -51.5534,-51.5529 z"
     id="path829" />
  <path
     style="fill:#dcdcdc;fill-opacity:1;stroke:#000000;stroke-width:8;stroke-opacity:1"
     d="m 21.2938,146.1375 38.4812,56.5466 c 1.5407,-0.8526 3.1509,-1.5942 4.8471,-2.0562 1.6319,-0.4468 3.3022,-0.8225 4.9938,-0.8813 25.372,-0.8779 56.6476,40.8863 72.1154,97.6722 3.3699,12.3708 5.6611,24.4513 7.05,35.9841 L 256,491 363.3659,333.2562 c 1.3916,-11.4877 3.6951,-23.5207 7.05,-35.8374 15.4677,-56.7859 46.8905,-98.5501 72.2625,-97.6722 1.6916,0.0577 3.3614,0.4367 4.9937,0.8813 1.6319,0.4468 3.0663,1.1026 4.553,1.9096 l 38.4812,-56.4 c -33.7423,8.1079 -72.561,14.4308 -114.7092,18.6529 L 267.6034,444.1467 357.4909,166.553 c -11.3745,0.9461 -23.0314,1.723 -34.8096,2.35 0.6378,3.7318 1.0284,7.5426 1.0284,11.4563 0,37.388 -30.3216,67.7096 -67.7097,67.7096 -37.3881,0 -67.7091,-30.3215 -67.7091,-67.7096 0,-3.9137 0.3899,-7.7245 1.0279,-11.4563 -11.7928,-0.6263 -23.422,-1.4034 -34.8091,-2.35 L 244.3972,444.1467 136.0035,164.7904 C 93.8482,160.5703 55.015,154.2441 21.2939,146.1375 Z"
     id="path827" />
  <path
     style="fill:#c8c8ff;fill-opacity:1;stroke:#000000;stroke-width:8;stroke-opacity:1"
     d="m 73.8751,217.225 c -0.8775,0.0987 -1.6304,0.263 -2.4967,0.4418 -2.7251,0.5628 -5.3491,1.7202 -7.7846,3.3779 19.5365,17.5766 33.2093,78.7508 32.1658,152.0158 -0.5354,37.6014 -4.7916,72.2766 -11.6033,99.7279 9.3986,10.5595 19.2169,15.8992 28.6408,13.9534 27.7145,-5.7233 41.0052,-70.5024 29.5217,-144.8188 -10.7654,-69.6719 -39.4306,-123.0314 -65.8,-124.6971 -0.8789,-0.0577 -1.7658,-0.0987 -2.6437,0 z"
     id="path825" />
  <path
     style="fill:#c8c8ff;fill-opacity:1;stroke:#000000;stroke-width:8;stroke-opacity:1"
     d="m 435.6284,217.225 c -26.3689,1.6657 -55.0342,55.0248 -65.8,124.6967 -11.4835,74.3168 1.8076,139.096 29.5217,144.8187 9.4244,1.9463 19.2422,-3.3934 28.6409,-13.9528 -6.8112,-27.4518 -11.0676,-62.1265 -11.6034,-99.7284 -1.0434,-73.2646 12.6294,-134.4388 32.1659,-152.0154 -2.4351,-1.6582 -5.0596,-2.8153 -7.7846,-3.3783 -0.8657,-0.1787 -1.6191,-0.343 -2.4966,-0.4418 -0.8775,-0.0988 -1.7648,-0.0577 -2.6438,0 z"
     id="path2" />
</svg>
