<?xml version="1.0" encoding="UTF-8" standalone="no"?>
<svg
   xmlns:dc="http://purl.org/dc/elements/1.1/"
   xmlns:cc="http://creativecommons.org/ns#"
   xmlns:rdf="http://www.w3.org/1999/02/22-rdf-syntax-ns#"
   xmlns:svg="http://www.w3.org/2000/svg"
   xmlns="http://www.w3.org/2000/svg"
   xmlns:sodipodi="http://sodipodi.sourceforge.net/DTD/sodipodi-0.dtd"
   xmlns:inkscape="http://www.inkscape.org/namespaces/inkscape"
   style="height: 200px; width: 200px;"
   viewBox="0 0 512 512"
   version="1.1"
   id="svg6"
   sodipodi:docname="snow-pile.svg"
   inkscape:version="0.92.3 (2405546, 2018-03-11)">
  <metadata
     id="metadata8">
    <rdf:RDF>
      <cc:Work
         rdf:about="">
        <dc:format>image/svg+xml</dc:format>
        <dc:type
           rdf:resource="http://purl.org/dc/dcmitype/StillImage" />
      </cc:Work>
    </rdf:RDF>
  </metadata>
  <defs
     id="defs10" />
  <sodipodi:namedview
     id="namedview8"
     pagecolor="#ffffff"
     bordercolor="#111111"
     borderopacity="1"
     inkscape:showpageshadow="0"
     inkscape:pageopacity="0"
     inkscape:pagecheckerboard="1"
     inkscape:deskcolor="#d1d1d1"
     showgrid="false"
     inkscape:zoom="0.81068689"
     inkscape:cx="150.3404"
     inkscape:cy="190.98833"
     inkscape:window-width="1920"
     inkscape:window-height="1043"
     inkscape:window-x="0"
     inkscape:window-y="0"
     inkscape:window-maximized="1"
     inkscape:current-layer="svg6" />
  <g
     id="g836"
     transform="translate(0.86655223,-24.750869)">
    <path
       sodipodi:nodetypes="ssssssssssssssssssssssssssssss"
       inkscape:connector-curvature="0"
       id="path822"
       d="m 294.2553,110.16608 c -14.94662,-2.03022 -24.98971,6.34865 -33.79847,16.62251 -5.93574,6.923 -10.50792,16.21979 -18.90608,19.77393 -7.9593,3.36842 -19.21148,-6.02016 -26.20159,-1.64774 -16.56543,10.36192 -25.07138,32.98415 -43.33174,39.59625 -15.65404,5.66835 -36.90838,3.73473 -46.96212,17.00505 -7.15009,9.43767 -1.73488,23.61703 -2.60232,35.42554 -1.07113,14.5814 -29.48302,10.6656 -37.357682,22.98446 -9.275001,14.50951 -1.495803,35.78954 -9.260833,50.95625 -9.031123,17.63966 -48.318235,30.22856 -37.026167,46.51375 l 20.224301,29.16708 c 9.826729,14.17191 34.949088,3.51398 51.798091,0.27067 17.7502,-3.41678 33.15088,-18.43152 51.21659,-17.82007 23.22436,0.78605 44.74618,12.6824 65.7585,22.99489 7.34226,3.60346 14.90561,10.03476 22.92304,9.42962 14.96629,-1.12963 30.7248,-1.42443 44.63047,-6.74718 14.77685,-5.65622 40.02401,-6.19083 55.75475,-4.49016 62.94985,6.80555 17.5241,1.42495 32.82844,4.93446 l 26.95282,6.18069 c 13.04978,2.99251 30.98621,7.75314 40.11355,-2.04193 7.38882,-7.92936 21.08408,-13.00392 22.16645,-23.78807 1.97154,-19.64343 -16.45311,-37.09965 -30.96,-50.49 -7.68989,-7.09803 -28.79587,-5.23182 -27.99,-14.22 0.80587,-8.98818 5.1553,-18.36561 2.4176,-26.96455 -2.74029,-8.60709 -16.30205,-11.82751 -18.29209,-20.32815 -3.36993,-14.39498 4.30913,-30.73031 -1.49551,-44.3273 -5.25956,-12.32018 -23.39905,-15.53075 -29.21082,-27.60026 -7.22657,-15.00766 -0.59274,-34.27693 -7.26122,-49.49566 -8.79455,-20.07082 -32.92036,-26.56766 -52.99077,-31.13471 -4.27972,-0.97386 -8.78861,-0.1687 -13.13719,-0.75937 z"
       style="fill:#f0f0f0;fill-opacity:1;stroke:#000000;stroke-width:8;stroke-miterlimit:4;stroke-dasharray:none;stroke-opacity:1" />
    <path
       inkscape:connector-curvature="0"
       id="path822-4"
       d="m 211.83389,291.61122 c -10.42063,-0.48047 -20.77367,4.07482 -30.02589,8.32696 -7.07249,7.52593 -19.51251,11.50306 -21.22101,22.77988 -2.63595,9.37948 -18.02739,9.75512 -16.61404,22.39865 -10.37051,13.72722 -18.75152,-10.81434 -29.15365,-9.5168 -8.55806,7.79271 -3.77566,22.78759 -13.57667,29.39224 -6.713149,4.81906 -11.451348,12.99054 -20.634686,6.35018 -7.992769,5.52162 -9.525364,17.5823 -13.070734,26.39635 -3.077401,9.44151 -3.534693,20.58313 3.976661,28.1197 5.519823,7.75818 10.78496,19.82636 22.62763,16.26516 13.031089,-4.01035 27.052929,-6.32991 38.619949,2.93412 15.18477,7.17104 33.19002,-2.1917 48.21504,6.35352 11.11488,-2.28464 22.63955,-5.8485 34.651,-6.14774 11.70698,-6.41671 22.6632,1.49361 34.30613,3.17958 11.08615,3.37121 20.22731,-13.10469 29.71073,-3.63082 11.99051,-2.17225 21.54852,10.09251 33.66188,4.45032 8.28377,-6.07093 20.23228,-11.92985 19.72648,-23.98751 1.62267,-10.70001 6.95756,-23.64422 -1.03438,-32.97541 -10.20481,-5.8047 -16.88962,-13.92125 -20.72782,-24.58499 -4.17712,-11.95145 -15.24401,-11.56488 -25.71989,-13.48322 -4.21766,-6.31056 7.43096,-22.98633 -7.4885,-21.15638 -5.18182,-4.85386 -10.96603,-9.13982 -19.0843,-6.0452 -9.68715,-3.80952 -9.4801,-21.24071 -23.44634,-20.56449 -9.55742,-2.00115 -16.65787,-8.73726 -23.69759,-14.8541 z"
       style="fill:#e6e6f0;fill-opacity:1;stroke:#000000;stroke-width:8;stroke-miterlimit:4;stroke-dasharray:none;stroke-opacity:1" />
  </g>
</svg>
