<?xml version="1.0" encoding="UTF-8" standalone="no"?>
<!-- Generator: Adobe Illustrator 22.1.0, SVG Export Plug-In . SVG Version: 6.00 Build 0)  -->

<svg
   version="1.1"
   id="Солнечная_панель"
   x="0px"
   y="0px"
   viewBox="0 0 842.1 842.2"
   style="enable-background:new 0 0 842.1 842.2;"
   xml:space="preserve"
   sodipodi:docname="solar-panel.svg"
   inkscape:version="1.2.1 (9c6d41e410, 2022-07-14)"
   xmlns:inkscape="http://www.inkscape.org/namespaces/inkscape"
   xmlns:sodipodi="http://sodipodi.sourceforge.net/DTD/sodipodi-0.dtd"
   xmlns="http://www.w3.org/2000/svg"
   xmlns:svg="http://www.w3.org/2000/svg"><defs
   id="defs10" /><sodipodi:namedview
   id="namedview8"
   pagecolor="#ffffff"
   bordercolor="#111111"
   borderopacity="1"
   inkscape:showpageshadow="0"
   inkscape:pageopacity="0"
   inkscape:pagecheckerboard="1"
   inkscape:deskcolor="#d1d1d1"
   showgrid="false"
   inkscape:zoom="0.69698408"
   inkscape:cx="420.38263"
   inkscape:cy="422.53476"
   inkscape:window-width="1600"
   inkscape:window-height="829"
   inkscape:window-x="0"
   inkscape:window-y="0"
   inkscape:window-maximized="1"
   inkscape:current-layer="Солнечная_панель" />
<style
   type="text/css"
   id="style2">
	.st0{fill:none;stroke:#231F20;stroke-width:10;stroke-miterlimit:10;}
</style>
<path
   id="Балка"
   class="st0"
   d="M360.9,694.8c24.7,0,49.4,0,74.2,0c-9.3,36.6-18.5,73.3-27.8,109.9c-24.7,0-49.5,0-74.2,0  C342.3,768.1,351.6,731.4,360.9,694.8z M412.3,95.6c-8.1,23.9-16.2,47.8-24.2,71.7c0,0,0,0.1,0,0.1c0.8,3.9,57.4,272.1,93.3,442.5  c0,0.1,0,0.2,0,0.2c-6.3,11.6-12.7,23.2-19,34.8c0,0,0,0.1,0,0.1c3.2,16.9,6.5,33.7,9.7,50.6c0,0.2,0.3,0.2,0.3,0.1  c15.8-28.5,31.6-57.1,47.4-85.6c0,0,0-0.1,0-0.1c-35.7-171.5-71.4-342.9-107.1-514.4C412.6,95.4,412.4,95.4,412.3,95.6z"
   style="fill:#cccccc" />
<path
   id="Корпус"
   class="st0"
   d="M72.5,96.6c31.7,171.2,63.4,342.3,95,513.5c-11.3,27.9-22.7,55.8-34,83.7  c-0.1,0.3-0.6,0.3-0.6-0.1L47.1,212.8c8.3-38.7,16.5-77.5,24.8-116.2C72,96.2,72.5,96.2,72.5,96.6z M481,610.1H167.6  c-11.4,28-22.8,56.1-34.2,84.1c-0.1,0.3,0.1,0.6,0.4,0.6h301.3l46.2-84.4C481.3,610.3,481.2,610.1,481,610.1z M481.3,609.8  c0,0.2-0.1,0.3-0.2,0.3H167.6C135.9,438.7,104.1,267.3,72.4,96c-0.1-0.5,0.3-1,0.8-1h299.6C409,266.6,445.2,438.2,481.3,609.8z   M451,584.9c-15.9-76-25.2-120.2-25.2-120.2c-8.3-39.4-16.5-78.8-24.8-118.2c-8.2-38.7-16.3-77.3-24.5-116c0,0-7.5-36.7-23.6-113.1  c-26.5,0-53,0-79.4,0c-28.2,0-56.5,0-84.7,0c-28.7,0-57.4,0-86.1,0c14.3,76.3,21.1,113.1,21.1,113.1c7.6,38.7,15.1,77.3,22.7,116  c7.2,39.4,14.5,78.8,21.7,118.2c-0.2,0-0.4,0-0.6,0c7.5,40.1,15,80.1,22.5,120.2c31.3,0,62.7,0,94,0c29.1,0,58.3,0,87.4,0  C398,584.9,424.5,584.9,451,584.9z M473.1,696.1c89.3-0.4,178.5-0.9,267.8-1.3c20.4-27.8,40.9-55.6,61.3-83.5c0.4-0.5,0-1.3-0.6-1.3  H519.8c-15.7,28.4-31.5,56.8-47.2,85.2C472.4,695.7,472.7,696.1,473.1,696.1z M803,609.4c0.1,0.3-0.2,0.6-0.5,0.6H519.8  c-35.7-171.5-71.4-343-107.1-514.5c-0.1-0.3,0.2-0.6,0.5-0.6h277.4C728.1,266.5,765.6,437.9,803,609.4z M774,584.9  c-8.7-40.4-17.4-80.9-26.1-121.3c-8.5-39.5-17-78.9-25.5-118.4c-8.3-38.3-16.5-76.6-24.8-114.9c0,0-4.5-20.9-24.3-112.8  c-23.8,0-47.7,0-71.5,0c-27.4,0-54.7,0-82.1,0c-26.5,0-53,0-79.4,0c8,37.6,16,75.2,24,112.8c8.4,38.3,16.8,76.6,25.2,114.9  c8.1,39.5,16.2,78.9,24.3,118.4c0,0,0,0,0.1,0c8.6,40.4,17.2,80.9,25.8,121.3c26.9,0,53.8,0,80.8,0c27.4,0,54.7,0,82.1,0  C726.4,584.9,750.2,584.9,774,584.9z"
   style="fill:#ffffff" />
<path
   id="Стекла"
   class="st0"
   d="M697.7,230.3c-23.8,0-47.7,0-71.5,0c-8.1-37.6-16.2-75.2-24.3-112.8c23.8,0,47.7,0,71.5,0  C693.2,209.4,697.7,230.3,697.7,230.3z M747.9,463.6c-23.8,0-47.7,0-71.5,0c8.7,40.4,17.4,80.9,26.1,121.3c23.8,0,47.7,0,71.5,0  C765.3,544.5,756.6,504,747.9,463.6z M722.4,345.2c-8.3-38.3-16.5-76.6-24.8-114.9c-23.8,0-47.7,0-71.5,0  c8.2,38.3,16.5,76.6,24.7,114.9C674.8,345.2,698.6,345.2,722.4,345.2z M544.1,230.3c-26.6,0-53.2,0-79.8,0  c8.4,38.3,16.8,76.6,25.2,114.9c26.4,0,52.9,0,79.3,0C560.6,306.9,552.3,268.6,544.1,230.3z M676.4,463.6c23.8,0,47.7,0,71.5,0  c-8.5-39.5-17-78.9-25.5-118.4c-23.8,0-47.7,0-71.5,0C659.4,384.7,667.9,424.1,676.4,463.6z M489.5,345.2  c8.1,39.5,16.2,78.9,24.3,118.4c26.8,0,53.7,0,80.5,0c-8.5-39.5-17-78.9-25.5-118.4C542.4,345.2,515.9,345.2,489.5,345.2z   M594.3,463.6c8.7,40.4,17.4,80.9,26.1,121.3c27.4,0,54.7,0,82.1,0c-8.7-40.4-17.4-80.9-26.1-121.3  C649.1,463.6,621.7,463.6,594.3,463.6z M601.9,117.5c-27.4,0-54.7,0-82.1,0c8.1,37.6,16.2,75.2,24.3,112.8c27.4,0,54.7,0,82.1,0  C618.1,192.7,610,155.1,601.9,117.5z M650.9,345.2c-8.2-38.3-16.5-76.6-24.7-114.9c-27.4,0-54.7,0-82.1,0  c8.2,38.3,16.5,76.6,24.7,114.9C596.2,345.2,623.6,345.2,650.9,345.2z M650.9,345.2c-27.4,0-54.7,0-82.1,0  c8.5,39.5,17,78.9,25.5,118.4c27.4,0,54.7,0,82.1,0C667.9,424.1,659.4,384.7,650.9,345.2z M544.1,230.3  c-8.1-37.6-16.2-75.2-24.3-112.8c-26.5,0-53,0-79.4,0c8,37.6,16,75.2,24,112.8C490.9,230.3,517.5,230.3,544.1,230.3z M513.9,463.6  c8.6,40.4,17.2,80.9,25.8,121.3c26.9,0,53.8,0,80.8,0c-8.7-40.4-17.4-80.9-26.1-121.3C567.5,463.6,540.7,463.6,513.9,463.6z   M297.2,230.5c-7.9-37.7-15.8-75.4-23.7-113.1c26.5,0,53,0,79.4,0c16,76.3,23.6,113.1,23.6,113.1  C350.1,230.5,323.6,230.5,297.2,230.5z M425.8,464.7c-26.5,0-53,0-79.4,0c8.4,40.1,16.8,80.1,25.2,120.2c26.5,0,53,0,79.4,0  C435,508.9,425.8,464.7,425.8,464.7z M211.8,230.5c-29.3,0-58.7,0-88,0c7.6,38.7,15.1,77.3,22.7,116c29.7,0,59.3,0,89,0  C227.6,307.8,219.7,269.2,211.8,230.5z M401,346.5c-8.2-38.7-16.3-77.3-24.5-116c-26.4,0-52.9,0-79.3,0c8.1,38.7,16.2,77.3,24.3,116  C348,346.5,374.5,346.5,401,346.5z M146.5,346.5c7.2,39.4,14.5,78.8,21.7,118.2c30.5,0,60.9,0,91.4,0c-8-39.4-16.1-78.8-24.1-118.2  C205.8,346.5,176.2,346.5,146.5,346.5z M346.3,464.7c26.5,0,53,0,79.4,0c-8.3-39.4-16.5-78.8-24.8-118.2c-26.5,0-53,0-79.4,0  C329.8,385.9,338,425.3,346.3,464.7z M273.5,117.5c-28.2,0-56.5,0-84.7,0c7.7,37.7,15.4,75.4,23.1,113.1c28.5,0,56.9,0,85.4,0  C289.3,192.9,281.4,155.2,273.5,117.5z M259.6,464.7c8.2,40.1,16.3,80.1,24.5,120.2c29.1,0,58.3,0,87.4,0  c-8.4-40.1-16.8-80.1-25.2-120.2C317.4,464.7,288.5,464.7,259.6,464.7z M321.5,346.5c-8.1-38.7-16.2-77.3-24.3-116  c-28.5,0-56.9,0-85.4,0c7.9,38.7,15.8,77.3,23.6,116C264.2,346.5,292.8,346.5,321.5,346.5z M321.5,346.5c-28.7,0-57.4,0-86,0  c8,39.4,16.1,78.8,24.1,118.2c28.9,0,57.8,0,86.7,0C338,425.3,329.8,385.9,321.5,346.5z M211.8,230.5  c-7.7-37.7-15.4-75.4-23.1-113.1c-28.7,0-57.4,0-86.1,0c14.3,76.3,21.1,113.1,21.1,113.1C153.2,230.5,182.5,230.5,211.8,230.5z   M167.6,464.7c7.5,40.1,15,80.1,22.5,120.2c31.3,0,62.7,0,94,0c-8.2-40.1-16.3-80.1-24.5-120.2C228.9,464.7,198.3,464.7,167.6,464.7  z"
   style="fill:#aaccff" />
</svg>
