<?xml version="1.0" encoding="UTF-8" standalone="no"?>
<svg
   style="height: 512px; width: 512px;"
   viewBox="0 0 512 512"
   version="1.1"
   id="svg6"
   sodipodi:docname="space-mouse.svg"
   inkscape:version="1.3 (0e150ed6c4, 2023-07-21)"
   xmlns:inkscape="http://www.inkscape.org/namespaces/inkscape"
   xmlns:sodipodi="http://sodipodi.sourceforge.net/DTD/sodipodi-0.dtd"
   xmlns="http://www.w3.org/2000/svg"
   xmlns:svg="http://www.w3.org/2000/svg"
   xmlns:rdf="http://www.w3.org/1999/02/22-rdf-syntax-ns#"
   xmlns:cc="http://creativecommons.org/ns#"
   xmlns:dc="http://purl.org/dc/elements/1.1/">
  <metadata
     id="metadata12">
    <rdf:RDF>
      <cc:Work
         rdf:about="">
        <dc:format>image/svg+xml</dc:format>
        <dc:type
           rdf:resource="http://purl.org/dc/dcmitype/StillImage" />
        <dc:title />
      </cc:Work>
    </rdf:RDF>
  </metadata>
  <defs
     id="defs10" />
  <sodipodi:namedview
     pagecolor="#ffffff"
     bordercolor="#666666"
     borderopacity="1"
     objecttolerance="10"
     gridtolerance="10"
     guidetolerance="10"
     inkscape:pageopacity="0"
     inkscape:pageshadow="2"
     inkscape:window-width="1920"
     inkscape:window-height="1043"
     id="namedview8"
     showgrid="false"
     inkscape:zoom="0.46093749"
     inkscape:cx="54.237289"
     inkscape:cy="246.23729"
     inkscape:window-x="0"
     inkscape:window-y="0"
     inkscape:window-maximized="1"
     inkscape:current-layer="svg6"
     inkscape:showpageshadow="2"
     inkscape:pagecheckerboard="0"
     inkscape:deskcolor="#d1d1d1" />
  <g
     id="g1"
     transform="matrix(-1,0,0,1,496.57094,0)">
    <g
       id="g1063"
       transform="matrix(0.2274042,0,0,0.2274042,217.75297,320.06891)"
       style="fill:#969696;fill-opacity:1;stroke-width:21.9873;stroke-miterlimit:4;stroke-dasharray:none">
      <path
         inkscape:connector-curvature="0"
         id="Стопа-7"
         class="st0"
         d="m -499.46441,552.83447 c -16.7,18.8 -33.4,37.6 -50.1,56.5 31.6,4.9 63.1,9.7 94.7,14.6 38.9,-19.7 77.7,-39.4 116.6,-59.1 20.6,-29.3 41.2,-58.6 61.8,-87.9 -37.6,-20.5 -75.2,-41 -112.9,-61.6 -71.3,46.7 -142.7,93.5 -214,140.2 34.7,-0.9 69.3,-1.8 103.9,-2.7 z m 310.5,-207.6 c -1.2,-4.1 -4.7,-7.3 -9.1,-8.2 -12.3,-3.1 -25.4,1.2 -25.4,1.2 3.7,-2.4 6.7,-4.3 9,-5.7 3.2,-2 10.9,-6.7 20.9,-6.4 1.8,0.1 16.2,0.7 25.5,12.7 4.4,5.6 5.8,11.4 6.4,14.6 2.1,49.5 4.2,98.9 6.4,148.4 -3.7,2 -67.4,36.8 -124.7,64.7 -9,4.4 -25.1,12 -45.5,10 -7.5,-0.7 -13.7,-2.5 -18.1,-4.2 50.9,-72.4 101.8,-144.7 152.7,-217.1 0.4,-0.5 3.4,-4.8 1.9,-10 z"
         style="fill:#969696;fill-opacity:1;stroke:#000000;stroke-width:21.9873;stroke-miterlimit:4;stroke-dasharray:none" />
      <path
         inkscape:connector-curvature="0"
         id="Задник-7"
         class="st0"
         d="m -257.26441,449.53447 c 12.8,-18.2 25.6,-36.4 38.4,-54.6 -12.9,-11.5 -25.8,-23.1 -38.8,-34.6 14.4,-9.5 25.9,-17 34.1,-22.2 0,0 13.2,-4.2 25.4,-1.2 4.4,0.9 7.9,4 9.1,8.2 1.5,5.2 -1.4,9.5 -1.8,10 -28.5,40.6 -57.1,81.1 -85.6,121.7 -28.6,-15.6 -57.3,-31.2 -85.9,-46.8 16.8,-11.2 32.5,-21.8 47.1,-31.5 19.4,17 38.7,34 58,51 z"
         style="fill:#969696;fill-opacity:1;stroke:#000000;stroke-width:21.9873;stroke-miterlimit:4;stroke-dasharray:none" />
    </g>
    <path
       sodipodi:nodetypes="cccccccccccccccccccc"
       inkscape:connector-curvature="0"
       id="path1484"
       d="m 262.92574,46.418482 c -29.09093,-0.822841 -49.50773,28.488771 -50.31011,55.363048 -18.83844,16.36577 -45.91625,21.20228 -61.16779,42.14516 -19.70008,19.67961 -35.04039,43.62413 -45.07269,69.57923 30.19212,11.28854 62.94805,16.30158 95.08545,12.8973 -31.06865,52.48896 -52.75402,116.7126 -34.84173,177.43187 13.17606,41.66142 61.33711,66.04943 103.11224,56.04179 25.84903,-0.95553 44.42936,9.4744 70.27345,9.58389 37.47452,-3.77058 52.39137,-13.33116 74.51834,-29.46475 9.91229,-11.5238 27.41424,-48.33813 22.59632,-76.81762 -6.72923,-7.01055 -5.03046,10.70631 -10.94523,30.98211 -3.8738,15.06679 -10.98587,28.26583 -26.60576,40.41206 -28.16987,18.9149 -48.24844,22.10969 -79.97022,14.62858 -1.11,-12.26801 15.77767,-12.89041 22.30905,-29.6384 12.60627,-25.81596 6.05945,-101.69722 -12.26213,-148.16874 -10.57447,-25.81612 -24.56232,-50.15304 -40.71145,-72.87067 30.6805,15.89755 73.74032,-9.28418 71.49665,-44.74904 -0.39238,-23.19601 -18.53756,-46.67378 -42.63058,-47.99363 -9.64937,-20.157404 -7.82696,-49.664242 -35.45501,-55.810248 -6.1411,-2.484154 -12.79032,-3.750004 -19.4188,-3.55194 z"
       style="fill:#c8c8c8;fill-opacity:1;stroke:#000000;stroke-width:8;stroke-miterlimit:4;stroke-dasharray:none;stroke-opacity:1" />
    <path
       id="Пальцы-9"
       class="st0"
       d="m 124.44002,332.03505 c 0.0662,0.23063 1.0351,3.70476 4.42698,4.80104 1.92724,0.59919 4.27203,0.35139 5.84542,-0.99659 0.88016,-0.7449 1.25397,-1.66742 1.98702,-3.53767 0.31682,-0.78864 0.98889,-2.58996 1.65175,-6.67245 0.34204,-2.081 0.7066,-3.36804 0.67483,-5.1654 0,0 0,0 -0.0145,-0.0252 -0.0159,-0.89868 -0.82837,-1.60519 -1.73369,-1.4846 -0.62032,0.0901 -1.29501,0.14444 -1.98425,0.17358 -2.74244,0.14174 -5.13759,-0.22019 -7.0317,-0.70405 -0.75551,-0.2015 -1.51106,0.23589 -1.79208,0.9702 -0.64027,1.68202 -1.12279,3.17186 -1.50192,4.43371 -0.9107,3.01546 -1.11221,4.40987 -0.98103,5.91429 0.10994,0.94508 0.27697,1.75629 0.45324,2.29312 z m -1.79411,-19.94334 c -1.24455,-2.44026 -2.60972,-5.14694 -1.5307,-7.75547 0.1246,-0.30751 0.88285,-2.19233 2.74517,-2.86694 0.25583,-0.0809 1.41563,-0.51691 3.14405,0.0293 3.78556,1.13739 3.31093,4.67377 8.28137,9.19384 1.06302,0.96498 2.50245,2.11554 3.39179,4.29069 0.44666,1.12006 0.61098,2.10093 0.67592,2.73583 -0.39501,0.36318 -1.08163,0.86154 -1.98561,1.21675 -1.13463,0.42146 -2.20298,0.43469 -4.6591,0.14168 -2.56083,-0.29964 -3.82136,-0.44416 -4.39662,-0.68276 -3.05654,-1.15592 -4.52376,-4.0389 -5.66627,-6.30287 z m -24.751984,38.27004 c -1.013976,-0.58987 -1.977579,-1.20891 -2.876245,-1.83191 -0.750214,-0.54082 -0.597751,-1.67147 0.255873,-1.9975 l 0.02519,-0.0145 c 0.622991,-0.25977 1.997541,-1.02189 4.606186,-3.77617 1.38517,-1.44077 2.36608,-2.88287 3.08851,-4.07446 0.26112,-0.42016 0.71843,-0.61766 1.2062,-0.53016 2.62711,0.53028 8.13446,1.67964 11.8776,2.97609 0.46657,0.16702 1.28041,0.46926 2.14328,1.14661 2.47993,1.96046 2.74228,4.96933 2.75552,5.39879 0.0344,0.34992 0.23846,4.53582 -3.08064,6.75989 -2.25469,1.50701 -4.6896,1.13447 -5.28209,1.04035 -3.9486,-0.60587 -9.23328,-1.95141 -14.71938,-5.09694 z m 0.352766,-5.95408 c -0.706505,0.8125 -1.204911,1.40365 -2.102271,1.65414 -0.140509,0.0477 -1.358639,0.38303 -2.531674,-0.24926 -1.078926,-0.58591 -1.485823,-1.69535 -1.705835,-2.30773 -1.214039,-3.43305 -1.709673,-6.84486 -2.002565,-8.22205 -0.838899,-4.12098 -1.016455,-6.17018 -1.04957,-6.92438 -0.09675,-1.1545 -0.1206,-2.18308 -0.111272,-3.09634 0.004,-1.21283 0.585931,-2.3567 1.59996,-3.0446 1.064388,-0.71706 2.489311,-1.50833 4.298609,-1.98413 0.937125,-0.23988 1.802676,-0.37107 2.607246,-0.43334 1.544191,-0.12061 2.96774,0.77018 3.58936,2.19246 0.33267,0.7489 0.55665,1.42624 0.75812,1.94848 1.2339,3.7578 0.26626,4.99047 1.72549,9.66021 0.32735,1.08823 0.33794,1.68735 0.35516,2.18176 0.0424,1.75759 -0.80201,3.08704 -1.77894,4.59409 -0.84836,1.26449 -0.66807,0.58849 -3.651845,4.03069 z m -2.743025,-24.37049 c -2.271884,0.37371 -3.804188,1.32803 -4.156767,1.53214 -0.917255,0.56462 -1.570736,1.1783 -2.037319,1.65016 -0.280993,-0.54345 -0.64282,-1.34273 -0.811128,-2.38855 -0.182886,-1.071 0.01866,-1.82652 0.03851,-2.77954 0.04651,-2.01076 0.106075,-2.95319 0.184392,-5.08324 0.173772,-4.40458 0.03851,-4.05732 0.155222,-4.49472 0.123265,-0.54213 1.174527,-4.88306 4.159539,-5.53511 2.08368,-0.46651 3.98041,1.12546 4.295864,1.37997 1.961681,1.58799 0.905222,3.07383 3.00327,9.66023 0.59906,1.90608 0.7117,2.68149 0.29149,3.69812 -0.49842,1.23004 -1.61715,1.91131 -2.366071,2.24398 -1.101474,-0.10208 -2.086306,-0.003 -2.757017,0.1166 z m -0.204927,26.48058 c 0,0 -1.04188,1.51102 -0.281059,2.01208 0.898666,0.623 1.847691,1.21685 2.876245,1.83191 5.500684,3.17073 10.770784,4.49108 14.719384,5.09695 0.0796,0.0212 0.18425,0.0279 0.28896,0.0345 -0.20946,0.62563 -0.54879,1.2592 -1.0472,1.85036 -1.38385,1.67537 -3.35884,2.21346 -4.88318,2.65877 -1.42357,0.387 -2.61784,0.47312 -3.38663,0.48105 -5.233026,0.13769 -14.765863,-1.80841 -16.258349,-2.12128 -0.03971,-0.0107 -0.104742,-0.007 -0.144481,-0.0172 -0.418849,-0.0265 -1.195582,-0.14849 -1.956403,-0.64955 -0.652122,-0.42947 -1.048437,-0.9398 -1.28568,-1.4077 -0.24785,-0.42814 -0.149744,-0.95568 0.180314,-1.31488 0.775427,-0.75153 1.57604,-1.51763 2.441604,-2.28772 2.682871,-2.39375 4.037526,-2.84171 5.641417,-4.54359 0.502377,-0.5262 1.097543,-1.24062 1.666204,-2.17508 1.070984,0.456 1.619736,0.47458 1.428854,0.55145 z M 79.887936,325.64749 c 3.218336,-1.52686 6.545293,-1.06549 8.815831,-0.39605 0,0 0.04371,1.99221 0.125798,3.12153 0.05837,0.73962 0.225249,2.82859 1.049582,6.92437 0.292879,1.37719 0.788513,4.78901 2.002552,8.22206 0.234591,0.63757 0.641487,1.74701 1.705835,2.30773 0.09408,0.0464 0.188217,0.0927 0.282325,0.13917 -0.368504,0.58322 -0.827145,1.18497 -1.340116,1.75093 -1.137308,1.23002 -2.033349,1.71513 -4.070681,3.3653 -0.844349,0.69055 -1.86103,1.54811 -3.035437,2.59785 -0.703853,0.64285 -1.716536,0.92646 -2.631113,0.68256 -0.437413,-0.1166 -0.853611,-0.31284 -1.2128,-0.6429 -0.84167,-0.75688 -0.963577,-1.89681 -1.00598,-2.37664 -0.495581,-4.68958 -1.856726,-9.24797 -2.337728,-13.91238 -0.239854,-2.2149 -0.50756,-3.60666 -0.646671,-5.87988 -0.05304,-1.07894 -0.112604,-2.05318 -0.124464,-2.88691 -0.01986,-0.96363 0.458681,-1.87952 1.260613,-2.41103 0.377765,-0.21869 0.755544,-0.43739 1.162467,-0.60571 z m 1.145237,-0.46124 c -0.983526,0.33401 -1.753636,0.74621 -2.26794,1.07756 -0.413546,-0.36584 -0.968907,-0.91859 -1.511009,-1.68076 -0.571259,-0.81254 -0.9079,-1.6264 -1.312145,-2.90551 -0.561944,-1.72581 -0.763393,-2.88693 -1.040374,-4.00433 -1.080137,-4.65381 -2.196154,-6.05887 -1.599612,-8.45533 0.169682,-0.63623 0.408287,-1.21149 0.904032,-1.63297 1.128022,-0.95565 2.863068,-0.5142 3.260716,-0.40815 0.556694,0.14846 1.952419,0.5846 4.446887,3.84801 0.650789,0.83376 1.778729,2.43365 3.479233,5.71959 1.317449,2.56619 2.127297,3.44236 2.381744,5.04355 0.22397,1.31622 0.111272,2.45746 -0.03984,3.18382 -1.218117,-0.30357 -2.305012,-0.38048 -3.048617,-0.38713 -0.714433,0.0437 -2.057148,0.0477 -3.653057,0.60165 z m 0.571752,28.51921 c -0.06356,0.23858 -0.372489,0.51825 -3.853228,0.9529 -1.655542,0.21866 -1.879539,0.18021 -2.143314,0.13113 -1.228719,-0.2638 -2.023986,-1.11479 -2.823227,-2.03072 -1.30026,-1.43289 -1.85692,-2.85914 -1.875474,-2.94927 -0.789935,-1.8292 -2.52225,-4.99584 -6.145958,-10.73266 -0.389674,-0.61504 -0.477133,-1.40503 -0.192133,-2.07439 0.14979,-0.32209 0.324765,-0.65876 0.579268,-0.97421 0.870878,-1.10941 1.959113,-1.43677 3.226297,-2.03586 2.836584,-1.37312 2.869756,-2.53556 3.969915,-2.66808 1.230056,-0.14047 3.109569,0.95709 5.877007,6.55073 0.09142,0.21606 0.182912,0.43211 0.223996,0.67734 0.217334,1.42092 0.404191,2.55687 0.531415,3.35747 0.972745,5.45573 1.313397,5.05677 1.31998,6.86872 -0.01466,1.25257 -0.171065,2.31827 0.514171,3.50195 0.412213,0.77011 0.897333,1.02728 0.791285,1.42492 z M 66.350456,334.96393 c -0.736987,0.52752 -1.210202,1.1041 -1.536286,1.52824 -0.47717,-0.12727 -1.157138,-0.37249 -1.77745,-0.92127 -1.059036,-0.90004 -1.30024,-2.07178 -1.623627,-3.09506 -1.013902,-3.14541 -2.23601,-2.87504 -3.621032,-6.54537 -1.044399,-2.7915 -0.605635,-3.71801 -0.451871,-3.97515 0.703873,-1.28172 2.370018,-1.54014 2.745132,-1.58918 0.310165,-0.045 1.525642,-0.21069 4.04801,0.95183 1.5561,0.71316 3.841199,2.04667 5.894304,4.48961 1.631615,1.94719 1.8145,3.01819 1.87148,3.52319 0.0742,0.99943 -0.213458,1.83846 -0.416273,2.35936 -1.173096,1.28436 -2.306408,1.94045 -3.145452,2.29167 -0.597802,0.2452 -1.239342,0.41484 -1.986935,0.98213 z m 6.4347,17.79486 c 0.824426,0.90136 1.594508,1.76693 2.823227,2.03073 0.238589,0.0637 0.473193,0.0624 2.143314,-0.13113 2.665561,-0.33262 3.472797,-0.56456 3.735253,-0.75011 0.08622,-0.0836 0.24124,-0.10607 0.33932,0.005 0.300874,0.22933 0.662729,0.38972 1.020612,0.48516 0.397634,0.10608 0.816497,0.1326 1.227391,0.0292 0.245225,-0.041 0.405604,0.23595 0.208099,0.41754 -0.466597,0.47186 -0.552762,1.19424 -0.206833,1.73373 0.258458,0.38837 0.621632,0.78338 1.125301,1.13067 0.760822,0.50106 1.537555,0.62303 1.931218,0.66413 0.0649,-0.004 0.144481,0.0172 0.184246,0.0279 0.07956,0.0212 0.223996,0.0384 0.368477,0.0557 0.30354,0.0597 0.291599,0.5037 0.0067,0.53417 -3.028748,0.5765 -5.426576,1.02311 -7.013183,1.30274 -0.941109,0.17493 -2.823314,0.5248 -5.260866,0.32193 -0.707815,-0.061 -1.300305,-0.15512 -1.668789,-0.2108 -0.07953,-0.0212 -0.133872,-0.057 -0.177611,-0.1326 -0.502337,-0.75156 -1.268425,-2.19106 -1.477793,-4.12097 -0.141782,-1.46468 0.06768,-2.72918 0.38318,-3.75244 0.112658,0.13652 0.210745,0.24786 0.308827,0.35921 z m 0.03427,6.09989 c 0.380387,0.88942 -0.209485,1.90339 -1.154561,2.01339 -0.310165,0.045 -0.584541,0.0357 -0.793967,0.0225 -0.823127,-0.0279 -1.524304,-0.19358 -2.710603,-0.61644 -2.130036,-0.71715 -3.345493,-1.19038 -4.104989,-1.45684 -3.023405,-1.0406 -3.964524,-0.22678 -4.659053,-1.13608 -0.865508,-1.14657 -0.34452,-3.4993 0.984976,-4.57158 0.793987,-0.66138 1.642299,-0.64811 3.186495,-0.76868 3.828016,-0.29944 4.415232,-1.14376 6.217885,-0.87596 0.552727,0.0836 1.069663,0.22139 1.481885,0.35263 0.679968,0.24523 1.073617,0.92521 0.947674,1.63701 -0.07027,0.34329 -0.125944,0.71178 -0.127277,1.11605 -0.03316,0.52357 -0.05703,1.41164 0.190795,2.47867 0.108674,0.71046 0.314101,1.29766 0.540744,1.80532 z"
       style="fill:#969696;fill-opacity:1;stroke:#000000;stroke-width:5;stroke-miterlimit:4;stroke-dasharray:none"
       inkscape:connector-curvature="0" />
    <path
       id="Ладонь-2"
       class="st0"
       d="m 105.82213,335.24745 c -0.91462,1.03386 -1.9406,2.80467 -1.5973,2.87494 2.6271,0.53027 8.13446,1.67964 11.8776,2.97608 0.46657,0.16702 1.2804,0.46927 2.14328,1.14661 1.84901,1.45147 2.4706,3.51262 2.65745,4.64857 3.02621,-3.60126 5.29024,-7.2993 6.63571,-10.66732 -2.30365,-1.42365 -3.03258,-3.96065 -3.08427,-4.1661 -0.15109,-0.55141 -0.34327,-1.34803 -0.44264,-2.33287 -0.12726,-1.43948 0.0532,-2.75437 0.86438,-5.47689 -4.68956,-0.78218 -12.44378,3.53867 -19.05421,10.99698 z m 1.14976,24.75484 c 1.5641,-0.43471 3.53908,-0.9728 4.88318,-2.65878 0.49841,-0.59115 0.81257,-1.21014 1.0472,-1.85035 0.88144,0.12859 3.0009,0.24663 4.99313,-1.07481 3.3191,-2.22407 3.11509,-6.40997 3.08064,-6.7599 0.007,-0.10474 -0.0238,-0.38969 -0.0981,-0.75022 3.02621,-3.60126 5.29025,-7.2993 6.63571,-10.66732 0.40561,0.23595 0.83638,0.45732 1.36789,0.62036 1.92725,0.59918 4.27204,0.35139 5.84543,-0.99658 0.30885,-0.27968 0.57793,-0.56994 0.80328,-0.93577 4.78205,10.17723 1.16574,22.45909 -8.6311,28.13054 -8.2354,4.76754 -18.31702,3.44174 -25.16562,-2.58015 0.65346,0.0252 1.26717,0.0398 1.84109,0.0438 0.7794,-0.0477 1.97366,-0.13381 3.39724,-0.52081 z"
       style="fill:#969696;fill-opacity:1;stroke:#000000;stroke-width:5;stroke-miterlimit:4;stroke-dasharray:none"
       inkscape:connector-curvature="0" />
    <path
       id="Локоть-6"
       class="st0"
       d="m 124.8433,364.6195 c 7.36159,5.45593 14.70861,10.88668 22.07018,16.34261 2.22817,-0.44927 4.61408,-1.72962 6.66732,-3.75888 2.83928,-2.82056 4.28152,-6.31185 3.99133,-9.13647 -6.92419,-5.33926 -13.84837,-10.67854 -20.79774,-16.00324 -1.72459,4.62988 -5.00795,8.71626 -9.64193,11.39891 -0.71578,0.44799 -1.50048,0.835 -2.28916,1.15707 z m 62.35507,38.01157 c 2.69214,-2.66813 4.10653,-5.97518 3.95418,-8.67785 5.65175,4.36103 16.95524,13.08307 16.95524,13.08307 -0.0664,1.04714 -0.0425,2.07571 0.13643,3.08177 0.17891,1.00605 3.61019,14.25175 5.11179,20.04019 0.0147,0.0252 -0.0357,0.0544 -0.0504,0.0292 -10.76139,-7.95988 -21.53736,-15.94494 -32.27357,-23.9194 2.07971,-0.53145 4.28536,-1.7747 6.16628,-3.63694 z m -33.60299,-25.40265 c 2.83928,-2.82056 4.28152,-6.31185 3.99133,-9.13647 11.18022,8.62528 22.38562,17.23598 33.56584,25.86127 0.12713,2.71725 -1.26204,6.00972 -3.95418,8.67785 -1.90611,1.87682 -4.08658,3.10549 -6.18087,3.61176 -11.36314,-8.41852 -22.72629,-16.83703 -34.10402,-25.28072 2.22817,-0.44927 4.62866,-1.70444 6.6819,-3.73369 z"
       style="fill:#969696;fill-opacity:1;stroke:#000000;stroke-width:5;stroke-miterlimit:4;stroke-dasharray:none"
       inkscape:connector-curvature="0" />
    <path
       id="Сустав_1_-6"
       class="st0"
       d="m 222.77941,413.2705 c -8.63834,5.00081 -11.91792,15.54099 -7.28161,23.54971 4.63631,8.00873 15.40979,10.4135 24.04815,5.41269 8.63834,-5.00079 11.91793,-15.54097 7.28161,-23.5497 -4.6363,-8.00874 -15.38461,-10.42808 -24.04815,-5.4127 z m 9.36922,-22.0346 -1.76572,5.66242 c -0.53814,-0.0584 -0.66805,-0.0504 -1.2168,-0.069 -2.38986,-0.0624 -6.97078,1.14369 -6.97078,1.14369 0.39496,1.55348 0.94496,3.72331 1.53209,6.07342 0,0 2.49724,-0.73954 3.22228,-0.82303 0,0 1.40635,-0.24252 1.39574,-0.20275 5.87857,-0.88128 11.78753,1.07798 15.53322,5.39917 0.0212,-0.0795 0.54474,1.23141 0.77271,1.97368 1.08414,3.441 3.26303,10.28322 3.26303,10.28322 -1.29225,-3.21964 -3.68997,-5.96745 -6.65238,-7.71585 -2.74504,-1.60525 -5.96197,-2.39932 -9.15242,-2.33446 -3.55496,0.0741 -7.04632,1.18741 -10.0062,3.10265 -2.88431,1.87151 -5.29148,4.50915 -6.79733,7.60014 -1.37727,2.84844 -2.01624,6.04284 -1.70618,9.1922 0.0424,0.47983 -5.17278,-19.33238 -5.35964,-20.46833 -0.3618,-2.07706 -0.147,-4.31977 0.39386,-6.34775 1.02472,-3.92208 3.48493,-7.39743 6.74172,-9.78719 1.9949,-1.49111 4.30261,-2.55806 6.74285,-3.16374 3.31639,-0.77662 6.83291,-0.62673 10.02995,0.48147 z"
       style="fill:#969696;fill-opacity:1;stroke:#000000;stroke-width:5;stroke-miterlimit:4;stroke-dasharray:none"
       inkscape:connector-curvature="0" />
    <path
       id="Плече-4"
       class="st0"
       d="m 241.94691,381.96573 c -2.26257,-1.17842 -4.05458,-2.76376 -5.19047,-4.49355 -2.1329,6.48023 -4.25123,12.98567 -6.35895,19.45132 -0.39368,-0.041 -0.81253,-0.0676 -1.2168,-0.069 -2.38984,-0.0624 -4.7373,0.35509 -6.97076,1.1437 0.39494,1.55347 0.94494,3.72331 1.53207,6.07342 1.55613,-0.56461 4.62863,-1.06555 4.61802,-1.02579 5.87857,-0.88127 11.78753,1.07798 15.53322,5.39918 2.96141,-8.70836 5.92281,-17.41671 8.88422,-26.12508 -2.47341,1.76813 -6.79053,1.74546 -10.83055,-0.35424 z m 10.66847,-31.05849 c 3.98567,2.0639 8.22723,2.13031 10.74438,0.43775 -3.52611,10.34664 -7.04162,20.65352 -10.56772,31.00016 -2.51318,1.75753 -6.81969,1.69509 -10.84513,-0.37942 -2.26257,-1.17842 -4.05458,-2.76376 -5.19047,-4.49355 3.44924,-10.53753 6.88787,-21.03528 10.33711,-31.5728 1.13323,1.89946 3.03128,3.72604 5.52183,5.00786 z m 13.69517,-8.23086 c -0.98359,2.88954 -1.9672,5.77907 -2.95079,8.66861 -2.51715,1.69256 -6.77329,1.60097 -10.74438,-0.43775 -2.49055,-1.28182 -4.3886,-3.1084 -5.49665,-5.02244 1.11086,-3.36669 2.22173,-6.7334 3.3074,-10.08552 4.15659,4.21782 9.8442,6.60785 15.88442,6.8771 z"
       style="fill:#969696;fill-opacity:1;stroke:#000000;stroke-width:5;stroke-miterlimit:4;stroke-dasharray:none"
       inkscape:connector-curvature="0" />
    <path
       id="Сустав-9"
       class="st0"
       d="m 257.345,297.7991 c -12.31532,7.12941 -16.95233,22.12053 -10.36235,33.50402 6.58997,11.38348 21.89925,14.82756 34.21457,7.69815 12.31532,-7.12943 16.95232,-22.12054 10.36235,-33.50403 -6.58999,-11.38348 -21.89925,-14.82756 -34.21457,-7.69814 z m -3.63019,-10.74318 c 11.93755,-6.91073 26.23817,-5.03474 33.69509,3.89663 1.22729,3.8625 2.46915,7.75019 3.69644,11.6127 0.62821,1.95643 1.25644,3.91288 1.85947,5.88389 -1.80517,-4.57033 -5.14396,-8.42097 -9.39206,-10.9382 -3.89687,-2.31707 -8.45121,-3.44653 -12.98437,-3.37774 -4.87249,0.0634 -9.64694,1.51607 -13.78387,4.01183 -4.27345,2.60843 -7.85105,6.36077 -10.11777,10.86736 -2.14211,4.19908 -3.08601,9.01587 -2.56523,13.69088 0.0609,0.56997 0.16167,1.15053 0.24781,1.70592 -1.45389,-5.64795 -2.89319,-11.27071 -4.3219,-16.93324 -0.16964,-0.64154 -0.3247,-1.25789 -0.49434,-1.89943 1.68093,-7.26097 6.63051,-14.16131 14.16073,-18.5206 z m 12.74627,-12.65803 c 4.6498,0.13273 9.285,1.51797 13.16196,4.14919 2.17774,1.49653 4.09035,3.3483 5.64376,5.50889 -0.25712,-0.79265 -0.49965,-1.56012 -0.75678,-2.35276 0.97016,3.06986 1.95491,6.1649 2.92507,9.23476 -7.45692,-8.93137 -21.75754,-10.80736 -33.69509,-3.89663 -7.53022,4.35929 -12.47981,11.25963 -14.13556,18.50602 -0.2253,-0.91195 -0.46519,-1.84908 -0.71568,-2.74644 0.004,0.0649 0.0477,0.1405 0.0517,0.20545 -0.43597,-3.71534 0.0877,-7.5155 1.38546,-11.02403 1.35477,-3.6424 3.53794,-6.95737 6.29106,-9.69441 1.64763,-1.62634 3.5166,-3.04454 5.5062,-4.19634 4.34635,-2.4825 9.32359,-3.81711 14.3379,-3.6937 z m 15.76132,1.66927 c 0.6415,1.10813 1.07092,2.37266 1.54673,3.54308 0.57125,1.45143 1.00199,2.95056 1.48309,4.42054 -2.44808,-3.35753 -5.79086,-5.99535 -9.59364,-7.62714 -3.84254,-1.6424 -8.06552,-2.25756 -12.22889,-1.89847 -4.47354,0.40414 -8.79997,1.93361 -12.56177,4.38035 -3.86255,2.50506 -7.06635,5.97377 -9.21642,10.04294 -2.02149,3.82662 -3.04754,8.15298 -2.86077,12.48335 0.0318,0.51959 0.0782,1.06437 0.10994,1.58397 -0.77135,-3.01684 -1.52811,-6.00848 -2.29946,-9.02532 -0.27699,-1.1174 -0.33792,-2.32624 -0.35512,-3.45954 -0.0212,-1.19823 0.0478,-2.41503 0.22146,-3.62519 0.70133,-4.94537 3.01048,-9.61102 6.37203,-13.27191 3.53386,-3.8279 8.23943,-6.61923 13.30018,-7.86769 4.62465,-1.1305 9.54883,-0.98852 14.07664,0.55979 4.40854,1.51648 8.312,4.36773 10.95756,8.18256 0.42546,0.56069 0.74225,1.04981 1.04841,1.57868 z"
       style="fill:#969696;fill-opacity:1;stroke:#000000;stroke-width:5;stroke-miterlimit:4;stroke-dasharray:none"
       inkscape:connector-curvature="0" />
    <g
       id="g1980"
       transform="matrix(-0.6220139,0,0,0.6220139,428.19862,74.66404)"
       style="stroke-width:8.03841;stroke-miterlimit:4;stroke-dasharray:none">
      <g
         id="g1978"
         style="stroke-width:8.03841;stroke-miterlimit:4;stroke-dasharray:none">
        <path
           d="m 381.2,134.4 c -7,-9.4 -19.7,-0.3 -24.3,6.6 -3.8,5.7 -9.1,18.1 -3.4,24 7.4,7.8 20,-0.2 24.8,-7.1 4.7,-6.7 6.5,-14.9 4.3,-22.9 -2.6,-9.2 -21.9,-4 -19.3,5.2 0.8,2.8 1,5.6 0.1,8.4 -0.4,1.3 -1,2.6 -1.7,3.7 -1.1,1.7 -3.1,2.2 -0.2,1.3 1.7,-0.1 3.4,-0.2 5.1,-0.4 -0.3,0 -0.7,0 -1,-0.1 1.4,0.5 2.8,1 4.1,1.5 -0.3,-0.2 -0.5,-0.4 -0.8,-0.6 0.8,1 1.5,2.1 2.3,3.1 -1.8,-4.2 1.9,-12.2 5.5,-14.5 -1.5,0.7 -3.1,1.5 -4.6,2.2 0.3,-0.1 0.6,-0.2 0.9,-0.3 -1.7,0.1 -3.4,0.2 -5.1,0.4 0.3,0 0.5,0.1 0.8,0.1 -1.8,-1 -3.7,-2 -5.5,-2.9 0.1,0.2 0.3,0.4 0.4,0.6 5.3,7.6 23.7,-0.1 17.6,-8.3 z"
           id="path1976"
           inkscape:connector-curvature="0"
           style="stroke-width:8.03841;stroke-miterlimit:4;stroke-dasharray:none" />
      </g>
    </g>
    <g
       id="g1986"
       transform="matrix(-0.6220139,0,0,0.6220139,433.57419,67.662238)"
       style="stroke-width:8.03841;stroke-miterlimit:4;stroke-dasharray:none">
      <g
         id="g1984"
         style="stroke-width:8.03841;stroke-miterlimit:4;stroke-dasharray:none">
        <path
           class="st3"
           d="m 323.9,103.5 c 4.3,6.3 11.6,7.6 18.5,9.8 8.1,2.5 15.2,5 21.9,10.4 7.1,5.7 14.7,10.1 23.9,10.7 5.9,0.4 20.3,-0.4 21.5,-8 -0.6,0.8 -1.3,1.6 -1.9,2.5 0.5,-0.3 0.9,-0.6 1.4,-0.8 2.4,-1.5 2.3,-5.9 -0.8,-6.4 -0.5,-0.1 -1,-0.2 -1.5,-0.3 0.8,0.6 1.6,1.3 2.5,1.9 -1.7,-3.1 -5,-3.8 -8.2,-4 -3.8,-0.2 -7.5,-0.4 -11.2,-0.7 -7.8,-0.5 -14.2,-5.5 -21.1,-8.8 -7,-3.3 -14,-6.6 -21.9,-7.2 -7.2,-0.5 -13.9,0.4 -21.1,-1.5 -1.5,-0.2 -2.8,1.2 -2,2.4 z"
           id="path1982"
           inkscape:connector-curvature="0"
           style="fill:#040706;stroke-width:8.03841;stroke-miterlimit:4;stroke-dasharray:none" />
      </g>
    </g>
    <path
       class="st0"
       d="m 165.48941,179.64353 c 6.0401,9.99695 12.99836,19.73263 18.55311,23.6643 3.50411,2.48056 6.35869,1.53842 8.29358,0.36937 1.86323,-1.12575 3.12851,-2.91737 2.65665,-6.93649 -0.80336,-6.75354 -5.27433,-17.79636 -11.46596,-28.04415 -5.54217,-9.17283 -11.9316,-18.37177 -17.20717,-22.56997 -4.09533,-3.2972 -7.41798,-2.80594 -9.6037,-1.48534 -2.1857,1.32059 -4.39528,4.22075 -3.40309,9.34395 1.21243,6.70201 6.65607,16.52133 12.17658,25.65833 z m 22.1313,-3.44252 c 1.71991,-1.03915 3.40398,-2.05666 5.12389,-3.09582 m -9.23199,-4.35114 c -5.66137,3.42055 -11.32272,6.8411 -16.94825,10.24001 m -9.89844,-34.27368 c 11.88533,19.67143 23.77066,39.34286 35.65599,59.0143"
       id="path1988"
       inkscape:connector-curvature="0"
       style="fill:none;stroke:#000000;stroke-width:5;stroke-miterlimit:4;stroke-dasharray:none" />
    <g
       id="g1172"
       transform="matrix(0.46757422,-0.20573024,0.15017458,0.64054885,439.88286,133.63737)"
       style="fill:#969696;fill-opacity:1;stroke:#000000;stroke-width:8.69862;stroke-miterlimit:4;stroke-dasharray:none;stroke-opacity:1">
      <path
         class="cls-55"
         d="m -313.08911,58.197986 c -1.73,0.36 -2.82,0.62 -3.23,0.71 1.08,-0.34 2.16,-0.58 3.23,-0.71 z"
         id="path1004"
         inkscape:connector-curvature="0"
         style="fill:#969696;fill-opacity:1;stroke:#000000;stroke-width:8.69862;stroke-miterlimit:4;stroke-dasharray:none;stroke-opacity:1" />
      <path
         class="cls-13"
         d="m -182.21911,162.75799 c 0,56.1 -1.33,98.5 -12.37,107.34 -7.46,5.96 -21.37,15.56 -44.31,19.11 -11.02,1.72 -24.13,2.03 -39.62,-0.12 0,0 4.42,-142.23 1.33,-163.87 -3.1,-21.65 -10.61,-58.310004 -39.32,-66.260004 0.06,-0.02 0.13,-0.04 0.19,-0.05 0.41,-0.09 1.5,-0.35 3.23,-0.71 0.03,-0.01 0.05,-0.02 0.07,-0.01 9.2,-1.91 36.15,-6.65 74.7,-6.3 48.14,0.44 56.1,54.770004 56.1,110.870004 z"
         id="path1012"
         inkscape:connector-curvature="0"
         style="fill:#969696;fill-opacity:1;stroke:#000000;stroke-width:8.69862;stroke-miterlimit:4;stroke-dasharray:none;stroke-opacity:1" />
      <path
         class="cls-18"
         d="m -278.51911,289.08799 c 0,0 -48.15,-4.86 -50.8,-28.27 -2.65,-23.41 -23.41,-190.370004 12.81,-201.860004 28.71,7.95 36.22,44.610004 39.32,66.260004 3.09,21.64 -1.33,163.87 -1.33,163.87 z"
         id="path1014"
         inkscape:connector-curvature="0"
         style="fill:#969696;fill-opacity:1;stroke:#000000;stroke-width:8.69862;stroke-miterlimit:4;stroke-dasharray:none;stroke-opacity:1" />
      <path
         class="cls-26"
         d="m -293.53911,62.927986 c 0,0 17.23,6.18 23.41,51.240004 6.18,45.06 -3.53,161.23 4.86,166.53 8.39,5.3 64.93,-7.07 69.35,-22.09 4.38,-14.88 17.43,-179.450004 -27.05,-197.870004 -0.8,-0.33 -1.66,-0.47 -2.53,-0.47 -7.14,-0.04 -42,-0.1 -68.04,2.66 z"
         id="path1016"
         inkscape:connector-curvature="0"
         style="fill:#969696;fill-opacity:1;stroke:#000000;stroke-width:8.69862;stroke-miterlimit:4;stroke-dasharray:none;stroke-opacity:1" />
    </g>
  </g>
</svg>
