<?xml version="1.0" encoding="UTF-8" standalone="no"?>
<svg
   style="height: 512px; width: 512px;"
   width="512px"
   height="512px"
   viewBox="0 0 512 512"
   version="1.1"
   id="svg6"
   sodipodi:docname="teleport-bazaar.svg"
   inkscape:version="1.3 (0e150ed6c4, 2023-07-21)"
   xmlns:inkscape="http://www.inkscape.org/namespaces/inkscape"
   xmlns:sodipodi="http://sodipodi.sourceforge.net/DTD/sodipodi-0.dtd"
   xmlns="http://www.w3.org/2000/svg"
   xmlns:svg="http://www.w3.org/2000/svg">
  <defs
     id="defs10" />
  <sodipodi:namedview
     id="namedview8"
     pagecolor="#ffffff"
     bordercolor="#111111"
     borderopacity="1"
     inkscape:showpageshadow="0"
     inkscape:pageopacity="0"
     inkscape:pagecheckerboard="1"
     inkscape:deskcolor="#d1d1d1"
     showgrid="false"
     inkscape:zoom="1.1464844"
     inkscape:cx="234.63032"
     inkscape:cy="255.56388"
     inkscape:window-width="1920"
     inkscape:window-height="1043"
     inkscape:window-x="0"
     inkscape:window-y="0"
     inkscape:window-maximized="1"
     inkscape:current-layer="svg6" />
  <g
     class=""
     id="g4"
     transform="matrix(0.50231246,0,0,0.50231246,127.4106,127.39043)">
    <path
       d="m 197,88.84 c 0,20.36 7.1,38.46 17.6,50.96 l 10.2,12.3 -15.7,2.9 c -13.8,2.6 -24,9.9 -32.5,21.5 -3,4.1 -5.8,8.9 -8.3,14 26.9,5.2 56.3,8.2 87.2,8.2 28.2,0 55.3,-2.5 80.3,-6.9 -2.8,-6.2 -6,-11.7 -9.6,-16.5 -8.6,-11.5 -19.3,-18.8 -34.7,-21.1 l -16,-2.5 10.1,-12.6 c 10.1,-12.5 16.8,-30.4 16.8,-50.26 0,-39.31 -24.9,-68.97 -52.7,-68.97 -36.2,0.1 -52.2,47.31 -52.7,68.97 z M 315.2,53.96 c 3.8,10.78 5.9,22.58 5.9,34.88 0,8.6 -1,16.76 -2.9,24.56 50.3,6.2 94.6,19.8 127.7,39 7.1,-4.6 13.3,-9.3 18.7,-14.3 4.1,6 6.7,12.1 7.8,18.2 -44.3,38 -124.7,61.1 -216.9,61.1 -91.7,0 -171.66,-22.9 -216.16,-60.5 1.54,-7 4.09,-13.1 7.5,-18.4 5.3,4.8 11.5,9.4 18.3,13.9 30.7,-17.8 70.86,-30.7 116.56,-37.5 -2.1,-8.2 -3.3,-16.86 -3.3,-26.06 0,-11.8 1.9,-23.29 5.4,-33.78 -12.3,1.87 -24.3,3.52 -35.4,7 C 98.22,77.58 34.78,101.1 21.48,151.1 c -3.04,13.2 0.1,29.5 4.98,39.7 8.26,14.3 17.88,26 30.59,35.1 22.6,17 53.65,30.3 90.15,39.2 l 0.1,-0.2 c 25.4,6.3 53.7,10.5 83.6,11.9 7.5,0.4 15.8,0 24.5,0 38.3,0 74.5,-4.4 106.5,-12 v 0.3 c 37.4,-8.9 69.1,-22.2 92.1,-39.1 23,-17 37.8,-38.3 37.8,-62.3 0,-24.1 -15,-45.6 -38.2,-62.6 C 407.2,72.35 365.6,60.26 315.2,53.96 Z M 440,256.2 c -22.4,11.3 -48.3,20.3 -69.1,25.7 0.1,1.7 0.1,5.5 0.2,7.2 28.5,7.2 53.9,15 74.9,27.1 7,-4.5 13.2,-9.2 18.6,-14.1 4,5.9 6.7,12 7.9,18.1 -44.4,38 -124.8,61 -217,61 -91.7,0 -171.56,-22.8 -216.16,-60.4 1.1,-6.2 3.6,-12.3 7.6,-18.4 5.3,4.8 11.4,9.4 18.2,13.8 18.3,-10.6 40.06,-19.4 64.26,-26.3 l 0.6,-10.2 c -21.8,-6.2 -41.56,-14 -58.86,-23.2 -13.55,8.3 -28.66,19.9 -37.3,31.6 -10.63,13.1 -13.71,26.6 -13.75,39.6 1.46,27.5 16.35,46.4 37.05,62.3 22.6,16.9 53.66,30.3 90.16,39.1 l 0.1,-0.3 c 25.4,6.3 53.7,10.5 83.6,11.9 43,0.1 92.8,-1.6 130.9,-12 32.7,-9.2 67.6,-21 92.1,-38.7 23,-16.9 37.9,-38.3 37.9,-62.3 0,-24 -15,-45.5 -38.2,-62.5 -4.3,-3.1 -8.9,-6.1 -13.7,-9 z m -291.5,28.3 c -1.1,16.5 -1.4,33.1 -1.5,48.7 h 44.3 l 1.8,25.2 c 19.9,2.7 40.8,4.2 62.4,4.2 18.5,0 36.4,-1.1 53.6,-3.1 0.6,-8.8 1.2,-17.5 1.8,-26.3 H 353 c 0,-15 -0.1,-31.1 -0.7,-47.1 -29.8,6.1 -62.5,9.4 -96.8,9.4 -8.1,0 -16.6,0.4 -25.4,0 -28.9,-1.4 -56.4,-5.2 -81.6,-11 z m 52,172.6 2.7,35.1 h 97.1 l 2.3,-35 c -35.4,2.9 -68.3,3.4 -102.1,-0.1 z"
       fill="#ffffff"
       fill-opacity="1"
       stroke="#000000"
       stroke-opacity="1"
       stroke-width="8"
       id="path2" />
  </g>
  <path
     style="fill:#b6e0d6;stroke-width:6.62374;fill-opacity:1"
     d="m 236.28661,263.78852 c -42.89001,-3.72119 -76.75625,-17.31358 -90.0372,-36.13688 -4.62009,-6.54813 -6.29503,-11.50899 -6.26285,-18.54944 0.0173,-3.78994 0.20353,-4.87692 1.37958,-8.05299 2.0067,-5.41935 4.90279,-9.76582 9.67676,-14.52292 9.28067,-9.24786 23.62716,-16.72087 46.15535,-24.04203 7.64025,-2.48291 18.34778,-4.93797 18.94255,-4.34321 0.14169,0.14168 -0.0668,1.9886 -0.46318,4.10426 -0.84255,4.49637 -0.95168,14.02668 -0.20762,18.12997 0.27417,1.51195 0.43682,2.79324 0.36143,2.84731 -0.0754,0.0541 -2.70013,0.55148 -5.83279,1.10536 -15.62612,2.76284 -32.02048,8.01371 -44.59819,14.28412 -2.63088,1.31157 -4.99131,2.38468 -5.24543,2.38468 -0.56646,0 -4.37531,-2.85007 -7.4058,-5.54158 l -2.24567,-1.99446 -1.45716,2.34408 c -1.85458,2.98336 -3.63211,7.37468 -3.9352,9.72167 -0.23121,1.79052 -0.18971,1.85956 2.31391,3.84959 18.4579,14.67149 47.56767,24.62791 82.53283,28.2287 9.20914,0.94838 33.23021,1.32498 42.70731,0.66957 40.27749,-2.78551 71.95224,-13.04337 92.86605,-30.07466 l 1.6463,-1.34067 -0.50991,-2.38345 c -0.56686,-2.64955 -2.97925,-7.81152 -4.5919,-9.82557 l -1.0475,-1.30826 -2.12756,1.98469 c -2.45566,2.29076 -6.94229,5.67035 -7.52775,5.67035 -0.21949,0 -3.43175,-1.46273 -7.13837,-3.2505 -13.95845,-6.73243 -33.239,-12.37251 -50.4259,-14.75092 l -3.81651,-0.52815 0.31146,-2.01714 c 0.62049,-4.01876 0.33633,-15.84385 -0.46862,-19.50146 -0.41931,-1.90523 -0.69701,-3.52943 -0.61712,-3.60932 0.26615,-0.26614 10.95632,1.6099 16.95089,2.97473 12.85618,2.9271 23.27026,6.71788 35.57164,12.94829 9.2482,4.68403 14.33678,8.03619 18.68452,12.30861 6.22376,6.11596 9.91586,12.43617 11.27415,19.29932 2.99668,15.14158 -8.4401,30.87794 -30.4449,41.89046 -9.89305,4.95108 -19.62943,8.42686 -30.92314,11.03923 -13.34371,3.08656 -25.14657,4.89429 -38.11756,5.8381 -5.58038,0.40604 -31.71955,0.51556 -35.9269,0.15052 z"
     id="path377" />
  <path
     style="fill:#b6e0d6;stroke-width:6.62374;fill-opacity:1"
     d="m 236.94381,346.16527 c -28.71072,-2.83382 -49.31204,-8.01649 -66.3089,-16.68135 -22.23108,-11.33321 -33.25538,-26.94282 -30.35854,-42.98545 1.5873,-8.79044 8.36357,-17.64978 19.15114,-25.03832 l 3.87769,-2.65588 3.41168,1.71114 c 4.43762,2.22571 14.59009,6.2436 19.74019,7.81226 5.82443,1.77406 5.57946,2.29924 -2.30827,4.94846 -8.01664,2.69253 -11.05748,3.92032 -18.13825,7.32367 l -5.87054,2.82165 -2.23492,-1.54033 c -1.2292,-0.84718 -3.37828,-2.56 -4.77574,-3.80625 -2.40857,-2.14798 -2.57309,-2.22319 -3.16075,-1.44493 -1.45329,1.92463 -4.21944,8.02658 -4.70021,10.36833 l -0.5209,2.53722 1.29909,1.07019 c 16.85145,13.88236 44.34073,24.20535 75.14269,28.21816 13.31675,1.73489 17.86489,1.99032 35.03239,1.96744 17.5339,-0.0233 23.99808,-0.43745 37.24129,-2.38569 30.0953,-4.42739 55.25925,-14.15209 72.10235,-27.86423 l 1.68031,-1.36796 -0.54322,-2.35618 c -0.61345,-2.66079 -3.05545,-7.83605 -4.61877,-9.78845 l -1.03967,-1.29843 -2.3807,2.17469 c -1.30938,1.19609 -3.49568,2.94208 -4.85845,3.88001 l -2.47778,1.7053 -4.06799,-1.97394 c -6.01911,-2.92069 -13.81886,-5.76964 -22.96739,-8.38913 l -8.13189,-2.32839 7.16271,-2.30219 c 7.8196,-2.51331 17.96362,-6.40146 21.97793,-8.42401 1.5303,-0.77102 2.88262,-1.17716 3.38677,-1.01715 1.18594,0.3764 7.14273,4.70753 10.36511,7.5364 5.41559,4.75422 9.74897,11.02382 11.76298,17.01881 3.69394,10.99563 -0.1201,22.64122 -10.71841,32.72687 -8.831,8.40385 -20.85644,14.56301 -41.19614,21.09973 -16.68985,5.36374 -28.84974,7.42315 -50.63039,8.57483 -7.68675,0.40646 -27.76545,0.50458 -31.3265,0.1531 z"
     id="path379" />
</svg>
