<?xml version="1.0" encoding="UTF-8" standalone="no"?>
<!-- Generator: Adobe Illustrator 22.1.0, SVG Export Plug-In . SVG Version: 6.00 Build 0)  -->

<svg
   version="1.1"
   id="Надгробие"
   x="0px"
   y="0px"
   viewBox="0 0 842.1 842.2"
   style="enable-background:new 0 0 842.1 842.2;"
   xml:space="preserve"
   sodipodi:docname="tombstone.svg"
   inkscape:version="1.2.1 (9c6d41e410, 2022-07-14)"
   xmlns:inkscape="http://www.inkscape.org/namespaces/inkscape"
   xmlns:sodipodi="http://sodipodi.sourceforge.net/DTD/sodipodi-0.dtd"
   xmlns="http://www.w3.org/2000/svg"
   xmlns:svg="http://www.w3.org/2000/svg"><defs
   id="defs47" /><sodipodi:namedview
   id="namedview45"
   pagecolor="#ffffff"
   bordercolor="#111111"
   borderopacity="1"
   inkscape:showpageshadow="0"
   inkscape:pageopacity="0"
   inkscape:pagecheckerboard="1"
   inkscape:deskcolor="#d1d1d1"
   showgrid="false"
   inkscape:zoom="0.69698408"
   inkscape:cx="420.38263"
   inkscape:cy="422.53476"
   inkscape:window-width="1600"
   inkscape:window-height="829"
   inkscape:window-x="0"
   inkscape:window-y="0"
   inkscape:window-maximized="1"
   inkscape:current-layer="Надгробие" />
<style
   type="text/css"
   id="style2">
	.st0{fill:none;stroke:#231F20;stroke-width:10;stroke-miterlimit:10;}
	.st1{fill:none;stroke:#231F20;stroke-width:15;stroke-miterlimit:10;}
	.st2{fill:#231F20;}
</style>
<path
   id="Трубка"
   class="st0"
   d="M679.1,761.5c0,0-4.5-0.7-6.5-0.9c-3.7-0.4-9.7-0.6-16.9,1.3c-0.1,0-0.3-0.1-0.3-0.2v-24.3  c0-0.1,0.1-0.2,0.2-0.2c7.8-1.1,14.3-0.6,18.8,0c5.7,0.8,15.4,2.4,25,9.3c1.1,0.8,4.1,3.8,6.7,6.5c1.4,1.5-10.8,0.2-17.2,2.2  C685.1,756.2,681.8,758.4,679.1,761.5z M697.1,779c1.8,5.5,4.5,13.5,0.5,20.9c-2.9,5.4-8,8-11.1,9.2c-0.2,0.1-0.2,0.4,0.1,0.4  c4.5,0.1,14.6-0.6,22.1-7.9c8.4-8,9.6-20.1,7.4-30.5c-1.5-7-9.8-14.6-9.9-14.6c-1.9-0.7-10.9-3.4-17.3-1.5c-3.7,1.1-9.7,6.4-9.7,6.4  c3.9,0.9,7.9,2.4,11.4,5.8C694.4,771,695.8,775.1,697.1,779z M696.4,777.2c-1.2-3.2-2.5-6.7-5.8-9.9c-1.2-1.2-4-3.5-9.9-5.2  c-10-3-19.7-1.6-25.4-0.2c-8.2,2.9-14.2,12.1-14.2,22.9c0,10.8,6,20,14.2,22.9c5.1,1.8,14,4.1,24.8,2.7c5.4-0.7,9.9-2.1,13.4-3.5  c3.4-4.4,4.7-8.6,5.2-11.1C700.5,787.9,698,781.5,696.4,777.2z"
   style="fill:#e6e6e6" />
<path
   id="Центр"
   class="st0"
   d="M567.4,214.1c-1.7-7-4.2-12.7-6.4-17c-5.4-9.5-13.2-21.2-24.4-32.9  c-17.3-18-35.3-28.4-47.9-34.3c-11.6-1.5-24-2.6-37-3.4c-0.2,0-0.5,0-0.7,0c-16.9-0.9-34.1-1.2-50.6-0.6c-0.3,0-0.6,0-0.8,0  c-12.8,0.5-28.6,1.7-46.6,4.1c-13.7,4.9-37.1,15.5-56.4,38.5c-5.5,6.6-12.2,18-14.9,22.3c-4,6.6-6.4,11.1-8.5,17  c-0.7,2-2.2,6.6-3.2,12.7c-1,6.1-1.1,10.8-1.1,12.7c-0.1,9.5-0.5,120.6-1.1,273c100.5,0,201.1,0,301.6,0c0-90.6,0-181.3,0-271.9  C569.7,229.1,569.4,222.1,567.4,214.1z M535.1,421.2c0,26.9-22,48.9-48.9,48.9H351.4c-26.9,0-48.9-22-48.9-48.9V273.5  c0-26.9,22-48.9,48.9-48.9h134.8c26.9,0,48.9,22,48.9,48.9V421.2z M569.6,506.2H267.9c-20,25.5-40.1,51-60.1,76.5  c39.4,80.8,78.7,161.6,118.1,242.4c0.2,0.5,0.8,0.8,1.3,0.8c65.2,0.3,131.4-0.3,196.6,0c0.6,0,1.2-0.4,1.5-1  c37.3-81.2,73.6-161.4,110.9-242.7C614.1,556.9,591.8,531.5,569.6,506.2z M376.2,617.3h-27.8v-42h27.8V617.3z M436.1,617.3h-30.4  v-42h30.4V617.3z M495.3,617.3h-29.7v-42h29.7V617.3z"
   style="fill:#e6e6e6" />
<path
   id="Бока"
   class="st0"
   d="M655.3,807.7v18c0,0.1-0.1,0.2-0.2,0.2h-95.8c-0.1,0-0.2-0.1-0.1-0.2  c2.7-6.1,64.2-144,95.6-214.3c0.1-0.2,0.5-0.2,0.5,0.1v150.4c-8.2,2.9-14.2,12.1-14.2,22.9C641.1,795.6,647.1,804.8,655.3,807.7z   M185.1,825.9h104.6c0.8,0,1.4-0.9,1-1.6C256,753.1,221.2,682,186.4,610.9c-0.1-0.2-0.3-0.1-0.3,0.1  C185.8,682.6,185.4,754.2,185.1,825.9z M219,248.1c-12.7,14.8-19.6,28.5-21.2,31.9c-7.5,15.2-11,29.1-12.7,39.3c0,4.6,0,9.2,0,13.8  c0,17,0,34,0,51c0,50.6,0,101.3,0,151.9c7.6,15.6,15.2,31.2,22.8,46.7c20-25.5,40.1-51,60.1-76.5c0.5-152.4,1-263.4,1.1-273  c0-1.9,0.1-6.6,1.1-12.7c0.9-5.2,2.8-11.4,3.4-13.4c0.1-0.2-0.2-0.5-0.4-0.3C256.9,214.7,236.6,227.7,219,248.1z M655.3,312.8  c-1.5-8.5-4.4-20-10.3-32.9c-1.8-3.8-9.9-20.9-26.6-38.2c-18-18.8-38.1-29.6-53.5-35.9c0.9,2.5,1.8,5.3,2.5,8.3  c1.9,8,2.3,15,2.1,20.2c0,90.6,0,181.3,0,271.9c22.3,25.4,44.5,50.7,66.8,76.1c6.8-14.7,13.5-29.5,20.3-44.2c0-51.7,0-103.4,0-155.1  c-0.4-23.3-0.9-46.6-1.3-69.9C655.3,313,655.3,312.9,655.3,312.8z"
   style="fill:#f9f9f9" />
<path
   id="Элементы"
   class="st0"
   d="M292.1,825c-0.3,0.4-0.8,0.3-1-0.1l-104.6-214c-0.1-0.2,0-0.5,0.3-0.5l34.5-0.1  c0,0,0.1,0,0.1,0.1c34.6,71,69.2,142,103.8,213c0.1,0.3-0.2,0.5-0.4,0.3c-4-4.6-9.6-7.4-15.8-7.4C302.2,816.2,296.2,819.6,292.1,825  z M654.9,610.3h-31.3c-0.1,0-0.2,0.1-0.2,0.1C590.6,682,558.3,753.2,525.4,825c-0.1,0.2,0.1,0.3,0.3,0.2c2.1-2.1,8.7-7.9,16.3-8  c9.9-0.1,15.4,6,16.8,7.9c0.2,0.3,0.6,0.2,0.7-0.1c31.9-71.5,63.7-142.9,95.6-214.4C655.2,610.4,655.1,610.3,654.9,610.3z   M296.6,168.4c19.2-22.9,42.4-33.5,56.1-38.4c0,0,0,0,0,0c-3.8,0.7-43.2,8.7-64.6,18.3c-14.3,6.4-34.1,15.5-54.2,35.1  c-8.7,8.5-25.6,27-37.2,55.2c-8,19.6-10.8,37.3-11.7,49.9c0,10.3,0,20.5,0,30.8c1.8-10.2,5.3-24.1,12.7-39.3  c1.7-3.4,8.5-17.1,21.2-31.9c17.7-20.7,38.4-33.7,54.6-41.7c2-5.3,4.3-9.6,8-15.7C284.3,186.4,291.1,175,296.6,168.4z M618.4,241.7  c16.7,17.4,24.8,34.4,26.6,38.2c5.9,12.8,8.8,24.4,10.3,32.9c-0.2-3.5-0.5-7-0.8-10.6c-1.7-20.7-4.3-39.9-7.4-57.4  c-5.7-17-18-45-44.6-69c-26.3-23.8-53.7-32.8-73.3-38.2c-17.6-4.9-34.7-7.1-39.3-7.7c-0.2,0-0.3,0.3-0.1,0.4  c12.5,6,30,16.4,46.8,33.8c11.3,11.7,19.1,23.4,24.4,32.9c1.3,2.4,2.6,5.4,3.8,8.7C580.3,212.1,600.4,222.9,618.4,241.7z"
   style="fill:#e6e6e6" />
<path
   id="Экран"
   class="st0"
   d="M535.1,273.5v147.6c0,26.9-22,48.9-48.9,48.9H351.4c-26.9,0-48.9-22-48.9-48.9V273.5  c0-26.9,22-48.9,48.9-48.9h134.8C513,224.6,535.1,246.6,535.1,273.5z M348.4,575.2v42h27.8v-42H348.4z M495.3,575.2h-29.7v42h29.7  V575.2z M405.7,575.2v42h30.4v-42H405.7z"
   style="fill:#d5f6ff" />
<g
   id="Детали">
	<path
   class="st1"
   d="M358.3,129.2c0-29.6,0-59.2,0-88.8"
   id="path9" />
	<path
   class="st1"
   d="M309.4,140.6c0-44.9,0-89.8,0-134.7"
   id="path11" />
	<g
   id="g17">
		<g
   id="g15">
			<path
   class="st2"
   d="M334.8,299.5c5.3,4.2,10.4,6.1,17,7c5.6,0.7,11.2,1.1,16.8,1.5c11.5,0.8,23.1,1,34.7,1.3     c11.2,0.3,22.5,0.1,33.7,0.1c5.6,0,11.2,0.1,16.8-0.1c7.2-0.3,13.6-2.1,20-5.4c7.9-4.1,7.9-16.8,0-21c-6.1-3.2-12.1-5.1-19-5.4     c-5.6-0.3-11.2-0.2-16.8-0.2c-11.6,0-23.1-0.2-34.7,0.1c-11.2,0.3-22.5,0.5-33.7,1.2c-5.6,0.4-11.2,0.7-16.8,1.4     c-7.1,0.9-12.4,2.6-18,7.1C331.4,289.9,331.4,296.8,334.8,299.5L334.8,299.5z"
   id="path13" />
		</g>
	</g>
	<g
   id="g23">
		<g
   id="g21">
			<path
   class="st2"
   d="M394,358.3c6.7,7,19.2,7.8,28.2,8.5c8.6,0.7,17.1,1.2,25.7,1.4c8.6,0.2,17.2,0.5,25.7,0.5     c11.4,0,23.2-0.7,30.5-10.6c2.3-3.2,2.3-9.2,0-12.5c-7.2-9.9-19.1-10.6-30.5-10.6c-8.6,0-17.2,0.3-25.7,0.5     c-8.6,0.2-17.1,0.7-25.7,1.4c-9.1,0.8-21.5,1.5-28.2,8.5C390.6,349,390.6,354.7,394,358.3L394,358.3z"
   id="path19" />
		</g>
	</g>
	<g
   id="g29">
		<g
   id="g27">
			<path
   class="st2"
   d="M363.7,340c-6.7-7-21.9-6.7-30.5-3.9c-11,3.6-11,18.8,0,22.4c8.6,2.8,23.8,3.1,30.5-3.9     C367.6,350.5,367.6,344.1,363.7,340L363.7,340z"
   id="path25" />
		</g>
	</g>
	<g
   id="g35">
		<g
   id="g33">
			<path
   class="st2"
   d="M333.2,414.3c7.3,5.8,15.6,6.4,24.6,7.5c7.6,0.9,15.2,1.8,22.8,2.1c16.4,0.7,32.6,1.7,48.8-1.1     c15.1-2.6,15.1-27.8,0-30.4c-16.2-2.8-32.5-1.8-48.8-1.1c-7.7,0.3-15.2,1.2-22.8,2.1c-9,1.1-17.2,1.7-24.6,7.5     C329.5,403.8,329.6,411.4,333.2,414.3L333.2,414.3z"
   id="path31" />
		</g>
	</g>
	<g
   id="g41">
		<g
   id="g39">
			<path
   class="st2"
   d="M501.8,398.2c-9.6-5.5-22.4-6.5-30.9,1.7c-4.7,4.5-4.7,12.8,0,17.3c8.5,8.2,21.2,7.2,30.9,1.7     C509.5,414.4,509.5,402.6,501.8,398.2L501.8,398.2z"
   id="path37" />
		</g>
	</g>
</g>
</svg>
