<?xml version="1.0" encoding="UTF-8" standalone="no"?>
<!-- Generator: Adobe Illustrator 22.1.0, SVG Export Plug-In . SVG Version: 6.00 Build 0)  -->

<svg
   version="1.1"
   id="Тренировочная_x5F_Ловкость"
   x="0px"
   y="0px"
   viewBox="0 0 842.1 842.2"
   style="enable-background:new 0 0 842.1 842.2;"
   xml:space="preserve"
   sodipodi:docname="train-st.svg"
   inkscape:version="1.4 (e7c3feb100, 2024-10-09)"
   xmlns:inkscape="http://www.inkscape.org/namespaces/inkscape"
   xmlns:sodipodi="http://sodipodi.sourceforge.net/DTD/sodipodi-0.dtd"
   xmlns="http://www.w3.org/2000/svg"
   xmlns:svg="http://www.w3.org/2000/svg"><defs
   id="defs31" /><sodipodi:namedview
   id="namedview29"
   pagecolor="#ffffff"
   bordercolor="#111111"
   borderopacity="1"
   inkscape:showpageshadow="0"
   inkscape:pageopacity="0"
   inkscape:pagecheckerboard="1"
   inkscape:deskcolor="#d1d1d1"
   showgrid="false"
   inkscape:zoom="0.69698408"
   inkscape:cx="358.68825"
   inkscape:cy="425.40426"
   inkscape:window-width="1920"
   inkscape:window-height="1043"
   inkscape:window-x="0"
   inkscape:window-y="0"
   inkscape:window-maximized="1"
   inkscape:current-layer="Тренировочная_x5F_Ловкость" />
<style
   type="text/css"
   id="style2">
	.st0{fill:none;stroke:#000000;stroke-width:10;stroke-miterlimit:10;}
	.st1{fill:none;stroke:#000000;stroke-width:20;stroke-miterlimit:10;}
</style>




<circle
   style="fill:#ffe680;stroke:#000000;stroke-width:28.3725;stroke-dasharray:none;stroke-opacity:1"
   id="path1"
   cx="421.04999"
   cy="421.10001"
   r="350.82593" /><g
   id="text1"><path
     style="-inkscape-font-specification:'BigNoodleTitling, Normal'"
     d="m 447.18331,332.5667 v -33.59998 q 0,-22.93332 -22.39999,-22.93332 h -7.99999 q -21.86666,0 -21.86666,22.93332 v 63.46663 q 0,10.66666 4.26667,14.39999 4.26666,3.73333 13.86666,9.59999 l 48.5333,26.13332 q 15.99999,9.06666 22.39999,14.39999 6.93332,4.8 10.66666,12.26666 3.73333,6.93333 3.73333,27.19998 v 81.59995 q 0,64.5333 -61.86663,64.5333 H 405.05 q -61.3333,0 -61.3333,-70.39996 v -19.19999 h 51.19997 v 20.79999 q 0,22.39999 22.93332,22.39999 h 9.06666 q 20.26666,0 20.26666,-22.39999 v -65.06663 q 0,-10.66666 -4.26667,-14.39999 -4.26666,-3.73333 -13.86665,-9.59999 l -48.53331,-27.19999 q -15.99999,-8.53332 -23.46665,-14.39999 -6.93333,-5.86666 -10.13333,-14.93332 -3.2,-9.59999 -3.2,-24.53332 v -78.39995 q 0,-65.59996 61.3333,-65.59996 h 31.99998 q 61.3333,0 61.3333,65.59996 v 37.33331 z"
     id="path2" /><path
     style="-inkscape-font-specification:'BigNoodleTitling, Normal'"
     d="m 405.05078,228.97266 c -20.56234,0 -36.11193,5.51536 -46.48437,16.60937 -10.37245,11.09401 -15.51172,27.68067 -15.51172,49.65039 v 78.40039 c 0,10.0028 1.0685,18.24459 3.23437,24.74219 l 0.002,0.006 0.002,0.006 c 2.16833,6.14359 5.6179,11.23153 10.33008,15.21875 l 0.01,0.008 0.008,0.006 c 5.03575,3.95666 12.87996,8.76645 23.56446,14.46484 l 48.51953,27.19141 0.002,0.002 c 6.37102,3.89439 10.96889,7.08264 13.75391,9.51953 2.60951,2.28332 4.04101,6.87943 4.04101,13.90235 v 65.0664 c 0,7.36693 -1.66393,12.78677 -4.89453,16.35743 -3.23059,3.57066 -8.07722,5.38281 -14.71093,5.38281 h -9.06641 c -7.53677,0 -13.07374,-1.83279 -16.73828,-5.41211 -3.66455,-3.57932 -5.5332,-8.97432 -5.53321,-16.32813 v -21.46093 h -52.52343 v 19.86133 c 0,23.56269 5.13042,41.33638 15.49609,53.23437 10.36568,11.89799 25.92904,17.82813 46.5,17.82813 h 31.4668 c 20.7372,0 36.41341,-5.42334 46.87695,-16.3379 10.46354,-10.91455 15.65039,-27.24064 15.65039,-48.85742 v -81.59961 c 0,-13.55041 -1.19659,-22.65229 -3.8125,-27.51172 -2.52745,-5.04814 -6.14698,-9.21175 -10.82617,-12.46289 -4.3333,-3.61108 -11.81395,-8.41553 -22.49609,-14.46875 l -0.008,-0.002 -48.50781,-26.11914 -0.008,-0.004 c -6.37953,-3.89893 -10.98017,-7.09031 -13.76758,-9.52929 -2.60951,-2.28332 -4.04101,-6.87943 -4.04102,-13.90235 V 298.9668 c 0,-7.53933 1.79073,-13.08131 5.28321,-16.74414 3.49247,-3.66284 8.7486,-5.52735 15.92187,-5.52735 h 8 c 7.35381,0 12.74685,1.86866 16.32617,5.53321 3.57933,3.66454 5.41211,9.20151 5.41211,16.73828 v 34.26172 h 52.52344 v -37.9961 c 0,-21.96972 -5.13927,-38.55638 -15.51172,-49.65039 -10.37245,-11.09401 -25.92008,-16.60937 -46.48242,-16.60937 z m 0,1.32226 h 32 c 20.32653,0 35.44364,5.41681 45.51563,16.18945 10.07198,10.77265 15.15625,26.98446 15.15625,48.74805 v 36.67383 H 447.84375 V 298.9668 c 0,-7.75212 -1.89977,-13.68222 -5.78711,-17.66211 -3.88734,-3.9799 -9.69391,-5.9336 -17.27344,-5.9336 h -8 c -7.4045,0 -13.08249,1.95785 -16.8789,5.93946 -3.79642,3.9816 -5.64844,9.9067 -5.64844,17.65625 v 63.46679 c 0,7.1993 1.41281,12.20399 4.49219,14.89844 2.90023,2.53771 7.54096,5.74509 13.95703,9.66602 l 0.0156,0.01 48.54883,26.14063 c 10.64413,6.03215 18.09272,10.82759 22.29102,14.32617 l 0.0215,0.0195 0.0254,0.0156 c 4.53593,3.14026 8.01017,7.13753 10.45117,12.01953 l 0.004,0.008 0.006,0.01 c 2.36135,4.38536 3.6543,13.41624 3.6543,26.88672 v 81.59961 c 0,21.40542 -5.12454,37.34487 -15.28321,47.94141 -10.15866,10.59654 -25.41465,15.92969 -45.92187,15.92969 h -31.4668 c -20.3179,0 -35.42319,-5.80439 -45.50195,-17.37305 -10.07876,-11.56866 -15.16992,-28.99462 -15.16992,-52.36523 v -18.53711 h 49.87695 v 20.13671 c 0,7.57953 1.95174,13.3861 5.93164,17.27344 3.9799,3.88734 9.91,5.78907 17.66211,5.78906 h 9.06641 c 6.87739,0 12.16645,-1.92235 15.6914,-5.81835 3.52496,-3.89601 5.23633,-9.67774 5.23633,-17.24415 v -65.0664 c 0,-7.1993 -1.41281,-12.20203 -4.49219,-14.89649 -2.90023,-2.5377 -7.54097,-5.74704 -13.95703,-9.66796 l -0.01,-0.006 -48.55079,-27.20899 -0.006,-0.004 c -10.64557,-5.67764 -18.44322,-10.46708 -23.36328,-14.33204 -0.001,-0.001 -0.004,-0.003 -0.006,-0.004 -4.52039,-3.83045 -7.81834,-8.69028 -9.91406,-14.62305 v -0.002 c -9.9e-4,-0.003 -0.003,-0.005 -0.004,-0.008 -2.09873,-6.30106 -3.16211,-14.41108 -3.16211,-24.31446 v -78.40039 c 0,-21.76359 5.08231,-37.9754 15.15429,-48.74805 10.07199,-10.77264 25.19105,-16.18945 45.51758,-16.18945 z"
     id="path3" /></g></svg>
