<?xml version="1.0" encoding="UTF-8" standalone="no"?>
<!-- Generator: Adobe Illustrator 22.1.0, SVG Export Plug-In . SVG Version: 6.00 Build 0)  -->

<svg
   version="1.1"
   id="Тренировочная_x5F_Ловкость"
   x="0px"
   y="0px"
   viewBox="0 0 842.1 842.2"
   style="enable-background:new 0 0 842.1 842.2;"
   xml:space="preserve"
   sodipodi:docname="train-pe.svg"
   inkscape:version="1.4 (e7c3feb100, 2024-10-09)"
   xmlns:inkscape="http://www.inkscape.org/namespaces/inkscape"
   xmlns:sodipodi="http://sodipodi.sourceforge.net/DTD/sodipodi-0.dtd"
   xmlns="http://www.w3.org/2000/svg"
   xmlns:svg="http://www.w3.org/2000/svg"><defs
   id="defs31" /><sodipodi:namedview
   id="namedview29"
   pagecolor="#ffffff"
   bordercolor="#111111"
   borderopacity="1"
   inkscape:showpageshadow="0"
   inkscape:pageopacity="0"
   inkscape:pagecheckerboard="1"
   inkscape:deskcolor="#d1d1d1"
   showgrid="false"
   inkscape:zoom="0.69698408"
   inkscape:cx="358.68825"
   inkscape:cy="425.40426"
   inkscape:window-width="1920"
   inkscape:window-height="1043"
   inkscape:window-x="0"
   inkscape:window-y="0"
   inkscape:window-maximized="1"
   inkscape:current-layer="Тренировочная_x5F_Ловкость" />
<style
   type="text/css"
   id="style2">
	.st0{fill:none;stroke:#000000;stroke-width:10;stroke-miterlimit:10;}
	.st1{fill:none;stroke:#000000;stroke-width:20;stroke-miterlimit:10;}
</style>




<circle
   style="fill:#ffe680;stroke:#000000;stroke-width:28.3725;stroke-dasharray:none;stroke-opacity:1"
   id="path1"
   cx="421.04999"
   cy="421.10001"
   r="350.82593" /><g
   id="text1"><path
     style="-inkscape-font-specification:'BigNoodleTitling, Normal'"
     d="m 343.45003,229.63343 h 93.33327 q 61.86663,0 61.86663,65.59996 v 113.59993 q 0,65.06663 -61.33329,65.06663 H 394.65 V 612.56653 H 343.45003 Z M 394.65,427.49997 h 32.53331 q 20.26665,0 20.26665,-22.39998 v -106.6666 q 0,-22.39999 -22.93331,-22.39999 H 394.65 Z"
     id="path2" /><path
     style="-inkscape-font-specification:'BigNoodleTitling, Normal'"
     d="m 342.78906,228.97266 v 384.25586 h 52.52149 V 474.56055 h 42.00586 c 20.56137,0 36.10924,-5.46807 46.48242,-16.47266 10.37318,-11.00459 15.51172,-27.46112 15.51172,-49.25391 V 295.23242 c 0,-21.97061 -5.18438,-38.5589 -15.64649,-49.65234 -10.46211,-11.09345 -26.14176,-16.60742 -46.88086,-16.60742 z m 1.32227,1.32226 h 92.67187 c 20.50533,0 35.75787,5.4182 45.91797,16.19141 10.1601,10.77321 15.28711,26.9834 15.28711,48.74609 v 113.60156 c 0,21.58497 -5.08109,37.66142 -15.15234,48.34571 -10.07125,10.68428 -25.19205,16.05859 -45.51953,16.05859 H 393.98828 V 611.9043 h -49.87695 z m 49.87695,45.07617 v 152.79102 h 33.19531 c 6.87739,0 12.1645,-1.92236 15.68946,-5.81836 3.52495,-3.896 5.23828,-9.67774 5.23828,-17.24414 V 298.43359 c 0,-7.57952 -1.95175,-13.38609 -5.93164,-17.27343 -3.9799,-3.88735 -9.91,-5.78907 -17.66211,-5.78907 z m 1.32227,1.32422 h 29.20703 c 7.53676,0 13.07178,1.83279 16.73633,5.41211 3.66454,3.57932 5.53515,8.97237 5.53515,16.32617 v 106.66602 c 0,7.36692 -1.66589,12.78676 -4.89648,16.35742 -3.2306,3.57066 -8.07528,5.38086 -14.70899,5.38086 h -31.87304 z"
     id="path3" /></g></svg>
