<?xml version="1.0" encoding="UTF-8" standalone="no"?>
<!-- Generator: Adobe Illustrator 22.1.0, SVG Export Plug-In . SVG Version: 6.00 Build 0)  -->

<svg
   version="1.1"
   id="Тренировочная_x5F_Ловкость"
   x="0px"
   y="0px"
   viewBox="0 0 842.1 842.2"
   style="enable-background:new 0 0 842.1 842.2;"
   xml:space="preserve"
   sodipodi:docname="train-ag.svg"
   inkscape:version="1.4 (e7c3feb100, 2024-10-09)"
   xmlns:inkscape="http://www.inkscape.org/namespaces/inkscape"
   xmlns:sodipodi="http://sodipodi.sourceforge.net/DTD/sodipodi-0.dtd"
   xmlns="http://www.w3.org/2000/svg"
   xmlns:svg="http://www.w3.org/2000/svg"><defs
   id="defs31" /><sodipodi:namedview
   id="namedview29"
   pagecolor="#ffffff"
   bordercolor="#111111"
   borderopacity="1"
   inkscape:showpageshadow="0"
   inkscape:pageopacity="0"
   inkscape:pagecheckerboard="1"
   inkscape:deskcolor="#d1d1d1"
   showgrid="false"
   inkscape:zoom="0.69698408"
   inkscape:cx="358.68825"
   inkscape:cy="425.40426"
   inkscape:window-width="1920"
   inkscape:window-height="1043"
   inkscape:window-x="0"
   inkscape:window-y="0"
   inkscape:window-maximized="1"
   inkscape:current-layer="Тренировочная_x5F_Ловкость" />
<style
   type="text/css"
   id="style2">
	.st0{fill:none;stroke:#000000;stroke-width:10;stroke-miterlimit:10;}
	.st1{fill:none;stroke:#000000;stroke-width:20;stroke-miterlimit:10;}
</style>




<circle
   style="fill:#ffe680;stroke:#000000;stroke-width:28.3725;stroke-dasharray:none;stroke-opacity:1"
   id="path1"
   cx="421.04999"
   cy="421.10001"
   r="350.82593" /><g
   id="text1"><path
     style="-inkscape-font-specification:'BigNoodleTitling, Normal'"
     d="M 391.71667,612.56653 H 340.5167 V 295.23339 q 0,-65.59996 61.3333,-65.59996 h 38.39997 q 61.3333,0 61.3333,65.59996 V 612.56653 H 450.3833 V 472.29995 H 391.71667 Z M 450.3833,425.89998 V 298.43339 q 0,-22.39999 -22.39999,-22.39999 h -13.86665 q -22.39999,0 -22.39999,22.39999 v 127.46659 z"
     id="path2" /><path
     style="-inkscape-font-specification:'BigNoodleTitling, Normal'"
     d="m 401.84961,228.97266 c -20.56234,0 -36.10997,5.51536 -46.48242,16.60937 -10.37245,11.09401 -15.51172,27.68067 -15.51172,49.65039 v 317.9961 h 52.52344 V 472.96094 h 57.34375 v 140.26758 h 52.52148 v -317.9961 c 0,-21.96972 -5.13927,-38.55638 -15.51172,-49.65039 C 476.35997,234.48802 460.81234,228.97266 440.25,228.97266 Z m 0,1.32226 H 440.25 c 20.32653,0 35.44559,5.41681 45.51758,16.18945 10.07198,10.77265 15.1543,26.98446 15.15429,48.74805 V 611.9043 H 451.04492 V 471.63867 H 391.05469 V 611.9043 H 341.17773 V 295.23242 c 0,-21.76359 5.08427,-37.9754 15.15625,-48.74805 10.07199,-10.77264 25.1891,-16.18945 45.51563,-16.18945 z m 12.26758,45.07617 c -7.5769,0 -13.37835,1.9057 -17.26758,5.79493 -3.88923,3.88922 -5.79492,9.69067 -5.79492,17.26757 v 128.12696 h 59.99023 V 298.43359 c 0,-7.5769 -1.90374,-13.37835 -5.79297,-17.26757 -3.88923,-3.88923 -9.69263,-5.79493 -17.26953,-5.79493 z m 0,1.32422 h 13.86523 c 7.35643,0 12.75655,1.82882 16.33399,5.40625 3.57743,3.57744 5.40625,8.97561 5.40625,16.33203 V 425.23828 H 392.37891 V 298.43359 c 0,-7.35642 1.82881,-12.75459 5.40625,-16.33203 3.57743,-3.57743 8.9756,-5.40625 16.33203,-5.40625 z"
     id="path3" /></g></svg>
