<?xml version="1.0" encoding="UTF-8" standalone="no"?>
<!-- Generator: Adobe Illustrator 22.1.0, SVG Export Plug-In . SVG Version: 6.00 Build 0)  -->

<svg
   version="1.1"
   id="Унобтаний"
   x="0px"
   y="0px"
   viewBox="0 0 842.1 842.2"
   style="enable-background:new 0 0 842.1 842.2;"
   xml:space="preserve"
   sodipodi:docname="unobtainium.svg"
   inkscape:version="1.2.1 (9c6d41e410, 2022-07-14)"
   xmlns:inkscape="http://www.inkscape.org/namespaces/inkscape"
   xmlns:sodipodi="http://sodipodi.sourceforge.net/DTD/sodipodi-0.dtd"
   xmlns="http://www.w3.org/2000/svg"
   xmlns:svg="http://www.w3.org/2000/svg"><defs
   id="defs4796" /><sodipodi:namedview
   id="namedview4794"
   pagecolor="#ffffff"
   bordercolor="#111111"
   borderopacity="1"
   inkscape:showpageshadow="0"
   inkscape:pageopacity="0"
   inkscape:pagecheckerboard="1"
   inkscape:deskcolor="#d1d1d1"
   showgrid="false"
   inkscape:zoom="0.69698408"
   inkscape:cx="416.07837"
   inkscape:cy="514.35895"
   inkscape:window-width="1600"
   inkscape:window-height="829"
   inkscape:window-x="0"
   inkscape:window-y="0"
   inkscape:window-maximized="1"
   inkscape:current-layer="Унобтаний" />
<style
   type="text/css"
   id="style4787">
	.st0{fill:none;stroke:#000000;stroke-width:10;stroke-miterlimit:10;}
</style>



<g
   id="g4919"
   transform="matrix(0.69731018,0,0,0.69731018,127.52082,128.76734)"><path
     id="Аура"
     class="st0"
     d="m 811,95.5 c -27.9,-0.4 -27.8,70.6 -67.1,77.7 -25.5,4.6 -65.7,-9.7 -80.4,-32.5 C 649.4,118.8 663.5,82.6 641,66 618.2,49.1 580.3,70.7 553.3,67 532.7,64.2 499.9,56.6 481.5,45.7 461.4,33.8 464.7,19.8 439.9,21 c -13.1,0.6 -28.4,7.3 -37.4,16.7 -3.4,3.5 -4.3,20.7 -5.7,21.8 -3.5,2.6 -18.7,2.8 -21.3,3.6 -12.3,3.7 -27.3,4.8 -41.5,5.2 -1.6,27.6 -3.1,55.2 -4.7,82.7 C 317.1,123.2 305,95.4 292.8,67.6 238.7,62.1 192.5,37 145,88.1 c -57.9,62.2 60,104.7 26.3,177.4 -3.3,7.2 -7.7,13.6 -12.8,19.1 14.6,17.7 29.1,35.4 43.7,53.1 -22.2,-11.9 -44.4,-23.9 -66.6,-35.8 -6.3,3.3 -13,5.9 -19.9,8 -36.9,10.8 -79.3,-7 -92.6,40.5 -13.3,47.3 29.5,50.6 55.3,73 40.5,35.1 -16.1,33.9 -26.1,60.9 -14.1,38.1 32.9,49 50.3,69 33,38 -14.8,50.1 -39.6,67 -45.2,30.7 -89.7,141.9 -7.7,161.4 33.9,8.1 36.3,-30.7 41.2,-55.9 3.1,-16.2 11.5,-111.8 54.3,-73.3 18.2,16.3 2.4,58 0.9,88.9 16.1,-15.1 32.2,-30.3 48.3,-45.4 -7.5,30.6 -15,61.2 -22.5,91.8 26.2,18 66.5,30.6 88.9,34.9 13.2,2.5 40.2,5.8 48.1,-8.8 20.3,-37.6 -52.7,-21.5 -61.8,-27.5 -24.5,-16.1 -4.4,-38.7 16.5,-46.3 26.9,-9.8 64.4,-4.9 92.3,-5.2 -18.9,61.9 82.2,14.6 100.7,2.3 5.7,-3.8 11.6,-7.5 17.7,-10.7 2.5,-12.8 5,-25.7 7.5,-38.5 4.1,10.3 8.2,20.5 12.3,30.8 11.8,-2.8 24,-2 36.4,5.5 23,13.9 30.4,44.2 50.8,61.2 43.6,36.2 187.1,68.6 194.6,-19.9 6.4,-74.7 -86.4,-93.4 -141.8,-97 -33.6,-2.2 -60.3,-6.4 -60.8,-47.2 -0.2,-19 7.5,-68.8 23,-81.1 52.3,-41.2 113.7,98.8 173,44.5 17.2,-15.8 13.3,-37.6 11.8,-58.2 -2.5,-34.8 -7.2,-39.6 -29.7,-66 -16.1,-18.8 -25.1,-37.5 -28.4,-55.9 -15.2,-4.8 -30.3,-9.5 -45.5,-14.3 14.8,-3.7 29.6,-7.5 44.4,-11.2 2.8,-31.9 20.9,-62.9 46.2,-92.7 29.7,-35 39.7,-74.8 51.7,-119.2 C 830.2,149 843.9,96 811,95.5 Z"
     style="fill:#ffaaaa" /><path
     id="Внутренность"
     class="st0"
     d="m 619.9,375 c -17.9,31.1 -42.4,55 -68.9,70 -1.8,-6.6 -3.5,-11.7 -4.4,-14.2 -3.2,-9 -6.4,-15.6 -7.5,-18 -1,-2 -2.1,-4.2 -3.4,-6.6 17.2,-14.1 32.8,-32.2 45.2,-53.7 37.3,-64.7 33.9,-138.5 -5,-177.1 0,0 0,-0.1 0,0 7.2,2 14.2,4.9 20.8,8.7 55.4,31.8 65.7,117.3 23.2,190.9 z M 461,447.4 c -0.3,-2.8 -0.8,-5.4 -1.2,-7.9 -8.9,0.8 -24,-1.2 -30.9,-2.2 -1.2,-0.2 -1.9,1.3 -1,2.1 4.6,4.2 9.7,7.9 15.1,11 6,3.5 12.4,6.2 18.9,8.1 -0.2,-5.6 -0.7,-9.6 -0.9,-11.1 z M 327.7,403.6 c -1.3,-1.9 -2.7,-3.9 -4,-6.1 -2,-3.2 -8.4,-13.8 -13.7,-29.1 -29.3,15.5 -56.3,42.3 -74.9,77.6 -39.6,75.2 -26,160.2 30.4,189.9 6.8,3.6 13.9,6.2 21.2,7.9 v 0 C 246.4,606.7 240.1,533 274.9,467 c 13.8,-26.2 32.2,-47.7 52.8,-63.4 z M 409,363.8 c -4.9,-2.6 -10,-4.7 -15.2,-6.3 0.2,6.5 0.7,11.1 0.9,12.6 0.2,1.7 0.4,3.4 0.7,4.9 10.4,-1.1 20.8,-0.6 30.7,1.5 0.3,0.1 0.5,-0.3 0.3,-0.6 -3,-2.4 -11.9,-9.2 -17.4,-12.1 z"
     style="fill:#ff0066" /><path
     id="Элементы"
     class="st0"
     d="m 388.7,461.6 c -9.1,-8 -18.2,-16.1 -27.3,-24.1 v 0 c -0.9,-0.6 -1.8,-1.2 -2.7,-1.9 C 287.9,383.7 281.5,272.2 344.4,186.5 403.3,106.2 502,77.1 572.4,116.4 v 0 0 c 4,2.2 7.9,4.7 11.7,7.4 8.5,5.3 16.9,10.7 25.4,16 0.3,0.2 0.1,0.7 -0.3,0.5 -70,-33.2 -165,-2.2 -223,76.9 -61.1,83.3 -59,189.7 2.5,244.4 z M 285.1,687.8 c 11.7,3.4 23.3,6.9 35,10.3 v 0 c 1,0.4 2,0.8 3,1.3 81.6,32.2 179.4,-21.8 218.4,-120.6 36.6,-92.6 7.8,-192 -63,-230.6 0,0 -7.4,-3.9 -11.7,-5.7 -9,-4.3 -18,-8.6 -27,-12.9 -0.3,-0.2 -0.6,0.3 -0.3,0.5 65.4,41.5 89.7,138.5 53.7,229.7 -37.9,95.9 -129,150.9 -208.1,128 z"
     style="fill:#c83771" /><path
     id="Основа"
     class="st0"
     d="m 487.3,687.9 c 18.7,46.9 37.5,93.9 56.2,140.8 -27.9,0 -55.8,0 -83.7,0 9.1,-46.9 18.3,-93.8 27.5,-140.8 z M 199.9,696 c -32.1,30.1 -64.1,60.3 -96.2,90.4 21.4,13.4 42.7,26.7 64.1,40.1 10.7,-43.5 21.4,-87 32.1,-130.5 z M 79.7,188.8 C 64.4,208.3 49.2,227.7 33.9,247.2 90,277.3 146.1,307.5 202.2,337.6 161.4,288 120.5,238.4 79.7,188.8 Z M 329.3,151 c 2.7,-46.9 5.3,-93.9 8,-140.8 -21.4,4.2 -42.7,8.4 -64.1,12.6 18.7,42.7 37.4,85.5 56.1,128.2 z m 376.6,-18.3 c 29,-28.6 58,-57.2 87,-85.9 C 776.1,35.4 759.3,23.9 742.5,12.5 730.3,52.6 718.1,92.6 705.9,132.7 Z M 683,390.3 c 47.3,14.9 94.6,29.8 142,44.6 -0.4,-26.7 -0.8,-53.4 -1.1,-80.1 -47,11.8 -93.9,23.7 -140.9,35.5 z M 630.3,152.9 C 559.5,101 450.2,129.8 386.2,217.2 c -64,87.4 -58.7,200.3 12.1,252.2 18.4,13.5 39.4,21.5 61.5,24.5 1.7,-10.2 2.1,-17.8 2.2,-20.8 0.2,-5.5 0.2,-10.4 0,-14.4 -6.5,-2 -12.9,-4.7 -18.9,-8.1 -55.2,-31.9 -65.6,-117.4 -23.1,-191 42.5,-73.6 121.7,-107.4 176.9,-75.5 55.2,31.9 65.6,117.4 23.1,191 -17.9,31.1 -42.4,55 -68.9,70 0.2,0.7 0.4,1.5 0.6,2.3 0.6,2.5 2,8.2 3.2,15.6 0.4,2.5 1.2,7.5 1.8,14.2 31.9,-15.2 62,-39.5 85.7,-71.9 64.1,-87.6 58.7,-200.5 -12.1,-252.4 z M 417.5,318.8 c -6.3,-2.5 -12.6,-4.4 -19,-5.9 -2,8.5 -2.9,15.1 -3.3,17.7 -1.4,10.3 -1.5,18.2 -1.5,20.8 0,2.1 0,4.1 0.1,6 5.2,1.6 10.3,3.7 15.2,6.3 56.4,29.7 70,114.8 30.4,189.9 -39.6,75.2 -117.5,112 -173.9,82.2 -56.4,-29.7 -70,-114.8 -30.4,-189.9 18.6,-35.3 45.6,-62.1 74.9,-77.6 0,0 -5.5,-16.1 -7.7,-33.9 -0.2,-1.6 -0.5,-4.5 -0.8,-8.5 -43.8,21.4 -82.4,62.6 -103.9,117 -39.8,100.8 -5.9,208.6 75.7,240.8 81.6,32.2 180,-23.4 219.8,-124.2 39.8,-100.8 6,-208.4 -75.6,-240.7 z"
     style="fill:#ffd5e5" /></g>
</svg>
