<?xml version="1.0" encoding="UTF-8" standalone="no"?>
<!-- Generator: Adobe Illustrator 22.1.0, SVG Export Plug-In . SVG Version: 6.00 Build 0)  -->

<svg
   version="1.1"
   id="Пулемет"
   x="0px"
   y="0px"
   viewBox="0 0 842.1 842.2"
   style="enable-background:new 0 0 842.1 842.2;"
   xml:space="preserve"
   sodipodi:docname="minigun.svg"
   inkscape:version="1.2.1 (9c6d41e410, 2022-07-14)"
   xmlns:inkscape="http://www.inkscape.org/namespaces/inkscape"
   xmlns:sodipodi="http://sodipodi.sourceforge.net/DTD/sodipodi-0.dtd"
   xmlns="http://www.w3.org/2000/svg"
   xmlns:svg="http://www.w3.org/2000/svg"><defs
   id="defs268" /><sodipodi:namedview
   id="namedview266"
   pagecolor="#ffffff"
   bordercolor="#111111"
   borderopacity="1"
   inkscape:showpageshadow="0"
   inkscape:pageopacity="0"
   inkscape:pagecheckerboard="1"
   inkscape:deskcolor="#d1d1d1"
   showgrid="false"
   inkscape:zoom="0.69698408"
   inkscape:cx="420.38263"
   inkscape:cy="422.53476"
   inkscape:window-width="1600"
   inkscape:window-height="829"
   inkscape:window-x="0"
   inkscape:window-y="0"
   inkscape:window-maximized="1"
   inkscape:current-layer="Пулемет" />
<style
   type="text/css"
   id="style246">
	.st0{fill:none;stroke:#000000;stroke-width:10;stroke-miterlimit:10;}
</style>
<path
   id="Дуло_1_"
   class="st0"
   d="M640.3,423.1c-2.4,2.1-5.1,3.8-8.1,5.1c-30.4,12.7-76.4-28.2-102.9-91.4  s-23.3-124.7,7.1-137.4c3-1.2,6.1-2,9.3-2.2c-22.6,19.7-22.8,75.3,1,132.4S610.5,425.4,640.3,423.1z M765.1,231  c-31.6-75.6-96.4-120.4-144.8-100.2c-14.4,6-25.7,17.1-33.6,31.7l0,0c-15.5,13.6-31,27.2-46.5,40.8c-16.9,23.5-15.1,74.3,6.6,126.2  c20.6,49.2,53,84.8,80.7,92.3c24.2-4.4,48.4-8.8,72.6-13.1l0,0c12.1,1.7,23.8,0.5,34.8-4.1C783.2,384.3,796.7,306.6,765.1,231z   M620.3,130.8c-48.3,20.2-61.9,97.9-30.2,173.5s96.4,120.4,144.8,100.2c48.3-20.2,61.9-97.9,30.2-173.5  C733.4,155.5,668.6,110.6,620.3,130.8z"
   style="fill:#cccccc" />
<path
   id="Внутренность"
   class="st0"
   d="M722.6,261.7c0.4-0.2,0.8-0.3,1.2-0.4c-1.6-4.5-3.3-9-5.1-13.4  c-4.2-10.1-9-19.5-14.2-28.3c-1.4,1.7-3,3.1-5,3.9c-9.7,4.1-22.9-5.4-29.5-21.1c-4.2-10-4.7-20.2-1.9-27.3  c-21.6-18.4-44.7-25.9-63.5-18c-35.8,15-42.7,79.9-15.5,145.1c27.3,65.1,78.4,105.8,114.2,90.8c22.4-9.4,33.5-38.4,32-74.8  c-7-3-14-10.5-18.2-20.6C710.3,281.8,712.8,265.7,722.6,261.7z"
   style="fill:#e6e6e6" />
<path
   id="Рукоять"
   class="st0"
   d="M764.2,517.8c-16.6-36.2-33.2-72.4-49.8-108.6c-7,0.2-14,0.4-21.1,0.6  c-18.1,4.3-38.5,9.3-43.5,10.3c-0.3,0.1-0.4,0.4-0.3,0.6c28.7,64.3,49.9,112.5,53.4,119.1c0.4,0.8,2.1,3.9,2.7,8.3  c0.3,2,0.8,6.1-1,10.8c-1.3,3.5-7.5,8.8-10.6,11.3c-0.2,0.2,0,0.6,0.3,0.5c10.3-4.7,56.1-25.6,62.1-29.1c2.4-1.4,5.3-3.5,7.3-7.1  c2.1-3.7,2.2-7.4,2.2-8.9C765.9,522,764.9,519.3,764.2,517.8z M704.6,558.9c-1.8,4.7-5,7.3-7.2,9.2s-4.3,3.1-5.9,3.8  c-31.8,16-63.5,32-95.3,47.9C566.9,634.7,431.8,702.3,398,719c-2.6,1.2-12.1,4.9-23.1,1.4c-9.9-3.1-16.2-13.3-21.7-21.7  c-3.4-5.2-5.7-9.8-7.2-13c-20.1-41.7-41.7-91.5-61.7-132.1c11.8-6.6,17.6-9.8,29.1-16.3c0.4-0.2,0.9-0.1,1.1,0.4  c22,47.7,44.1,95.3,66.1,143c0.7,0.9,4.3,5.5,10.8,6.5c1.4,0.2,4,0.3,13-3.6c3.4-1.5,7.9-3.6,13-6.5c17.4-8.8,49.9-25.2,75.1-37.9  l0,0c6.6-3.3,14.4-7.2,23-11.6c11.7-5.9,54.2-27.3,65.7-33.1l0,0c44.5-22.4,86.1-43.4,87.8-44.4c1.4-0.8,2.6-2,2.6-2  c0.5-0.6,1.5-1.6,2.1-3.2c0.5-1.3,0.6-2.5,0.7-3.8c0.1-0.8,0.1-1.3,0-2.1c-0.2-1.4-0.7-2.4-1.1-3c-15.8-35.4-31.5-70.8-47.3-106.2  c7.8-2.6,15.7-5.1,23.5-7.7c28.8,64.5,49.7,111,53.1,117.6c0.4,0.8,2.1,3.9,2.7,8.3C705.9,550.2,706.4,554.3,704.6,558.9z   M399.9,525.3c20.3,43.4,40.6,86.8,60.9,130c-16.6,8.4-32.7,16.5-43.2,21.8c-5.1,2.9-9.6,5.1-13,6.5c-9,3.9-11.6,3.8-13,3.6  c-6.6-1-10.1-5.6-10.8-6.5c-20.6-44.6-45.1-97.5-65.8-142.3c-0.1-0.3,0.2-0.5,0.4-0.4c15,7.6,29.8,9.5,42.7,4.2h0.1  c0.1,0,0.2-0.1,0.2-0.1l0,0c2.3-1,27.5-14.8,38-20.4c0,0,0,0,0,0l0,0C397.9,522.5,399.2,523.7,399.9,525.3z M650.1,559.8  c-17.3-37.4-34.5-74.8-51.8-112.2c-0.4-0.9,0-1.9,0.8-2.3c9.2-4.8,18.4-9.6,27.6-14.3c15.6,35,31.2,70.1,46.8,105.1  c0.4,0.6,1.2,4.2,1.1,5.1c-0.1,1.3-0.2,2.5-0.7,3.8c-0.6,1.6-3.2,4.4-4.7,5.2C668.5,550.5,661.3,554.1,650.1,559.8z"
   style="fill:#eeaaff" />
<path
   id="Корпус"
   class="st0"
   d="M508.7,474.4c-31.6,17-63.2,34-94.8,51c-7.5-0.7-19.6-2.9-32.5-10.1  c-19.8-11.1-29.5-27.5-33.2-34.7c17.2-9.4,34.5-18.8,51.7-28.2c25.1-13.7,50.3-27.5,75.4-41.2c7-3.9,14-7.7,21-11.6  c12.3,19.6,23.4,32.9,37.3,42.9l6.1,4.2c0.5,0.3,6.8,4,9.1,5.4c0.4,0.2,0.4,0.8,0,1C537.3,459.2,524.1,466.2,508.7,474.4z   M542.6,366c0.5-0.3,0.8-1,0.5-1.5c-2.1-4-10-18.9-13.7-27.7c-19.7-47-23-93-10.9-118.7c0-0.1-24.6,13.4-36.8,20.3  c-0.8,0.5-0.7,1.7,0.1,2c4,1.6,8.1,3.2,12.1,4.8c0.3,0.1,0.5,0.4,0.6,0.7c0.7,2,1.4,4.8,1.2,8.2c-0.6,11-9.8,17.7-11.7,19.1  c-9.8,7.2-20.9,5.8-24.3,5.1c-0.4-0.1-0.7-0.4-0.8-0.7c-2.5-7.1-5-14.1-7.4-21.1c-0.2-0.7-1-1-1.6-0.6c-8.8,4.9-17.5,9.7-26.3,14.6  c-52.1,28.5-104.2,57-156.2,85.7c-5.3,2.9-10.4,5.8-15.7,8.6c-0.1,0-0.1,0.1-0.2,0.1c-11.9,9.5-19.3,24.2-19.3,40.5  c0,5,0.7,9.6,2,14.2c0,0.1,0,0.1,0.1,0.2c2.6,5.4,5.3,10.8,7.9,16.2c0.1,0.2,0.1,0.3,0.2,0.5c0.3,0.5,0.1,1.2-0.4,1.5  c-24.4,15-48.8,29.9-73.2,44.9c-0.6,0.4-0.7,1.3-0.2,1.8c1.3,1.2,2.2,2.2,2.8,2.8c4.9,5.1,8.9,10.6,22.8,27.2  c13.6,16.2,20.5,24.5,26.7,30.3c7.6,7.1,16.5,15.3,30.3,22.4c6.4,3.2,14.9,7.5,26.7,9.4c5.7,0.9,11.1,1.1,16,0.7  c0.8-0.1,1.3-0.9,0.9-1.6c-3.4-7.3-6.8-14.4-10.2-21.2c-0.3-0.5-0.1-1.2,0.4-1.5c10.8-6,25.8-14,28.7-15.3c0.3-0.1,0.7-0.1,0.9,0  c14.6,7.5,29.1,9.5,41.8,4.8c0.1,0,0.1,0,0.2-0.1c12.3-6.6,24.6-13.2,37-19.8c0.9-0.5,0.8-1.7-0.1-2c-3.9-1.4-8.1-3.3-12.3-5.6  c-19-10.6-28.6-26.1-32.7-33.7c-0.3-0.5-0.1-1.2,0.5-1.5c16.9-9.2,33.8-18.4,50.7-27.7c42.1-23,76.6-41.9,79.1-43.3l0,0  c5.7-3.2,11.5-6.3,17.2-9.5c0.1,0,0.1-0.1,0-0.2c-1.2-1.9-2.3-3.8-3.5-5.8c0.2-0.7,0.3-1,0.5-1.7C509.8,383.4,526.2,374.8,542.6,366  z"
   style="fill:#ab37c8" />
<path
   id="Элемент"
   class="st0"
   d="M187.1,322.6c18.6,38.2,37.2,76.5,55.8,114.7c-25.1,15.4-50.2,30.8-75.3,46.2  c-3.8-3.6-8.1-7.3-12.8-11c-4.6-3.6-11.6-8.6-26.1-16.7c-9.9-5.5-21.3-11.8-35.5-17.7c-14.7-6.1-37.5-13.9-67.9-17.7l160.3-98.2  C186.1,321.8,186.8,322,187.1,322.6z M273.9,314.4c-28.2,14-59.1,16.2-86.2,8.4c-0.2-0.1-0.4,0.1-0.3,0.3  c16.6,34.2,45.9,94.2,46.9,96.4c-1.3-4.5-2-9.3-2-14.3c0-16.4,7.6-31,19.4-40.6c5.3-2.9,10.5-5.8,15.8-8.7  c11.4-6.3,22.8-12.5,34.1-18.8c-4.8-10.1-9.6-20.3-14.5-30.4C282.9,309.5,278.5,312.1,273.9,314.4z"
   style="fill:#e580ff" />
<path
   id="Дуло"
   class="st0"
   d="M543.6,365.5c-17.1,9.1-34.3,18.2-51.4,27.3c26.7,46,63,72.9,88.4,62.3c1.4-0.6,2.7-1.3,4-2.1  c15.9-8.3,31.8-16.5,47.7-24.8C606.8,438.8,570.3,411.8,543.6,365.5z M484.1,273c1.9-1.4,11.2-8.1,11.7-19.1  c0.2-3.7-0.7-6.8-1.4-8.7c-18.1-7.1-36.1-14.3-54.2-21.4c6.3,18.1,12.7,36.2,19,54.3C461.5,278.5,473.6,280.7,484.1,273z   M647.6,277.8c-5.3-12.7-4.7-25.6,0.9-32.2c0.3-0.3-0.1-0.8-0.5-0.6c-15.8,9-40.8,23.2-41.2,23.3c-9.7,4.1-12.3,20.1-5.7,35.8  c6.6,15.7,19.8,25.2,29.5,21.1c0.8-0.3,34.6-19.6,43.5-24.8c0.4-0.2,0.2-0.8-0.3-0.7C664.6,300.8,653.4,291.8,647.6,277.8z   M653.3,242c-9.7,4.1-12.3,20.1-5.7,35.8c6.6,15.7,19.8,25.2,29.5,21.1s12.3-20.1,5.7-35.8S663,237.9,653.3,242z M696,224.2  c-9.2,1.1-20.3-8-26.2-21.9c-5.3-12.7-4.7-25.6,0.9-32.2c0.3-0.3-0.1-0.8-0.5-0.6c-15.8,9-40.8,23.2-41.2,23.3  c-9.7,4.1-12.3,20.1-5.7,35.8c5.1,12.1,14.1,20.5,22.4,21.8c1.5-4,4.1-7,7.6-8.5c3.7-1.5,7.8-1.1,11.9,0.8  c10.8-6.2,25.6-14.6,31.1-17.8C696.7,224.7,696.5,224.2,696,224.2z M675.5,166.5c-9.7,4.1-12.3,20.1-5.7,35.8s19.8,25.2,29.5,21.1  s12.3-20.1,5.7-35.8C698.4,171.8,685.2,162.4,675.5,166.5z M743.1,319.4c-9.2,1.1-20.3-8-26.2-21.9c-5.3-12.7-4.7-25.6,0.9-32.2  c0.3-0.3-0.1-0.8-0.5-0.6c-9.4,5.3-22.1,12.5-30.9,17.5c-0.4,8-3.7,14.3-9.3,16.7c-2.9,1.2-6.2,1.2-9.5,0.2  c-1.8,6.9-1,15.9,2.7,24.8c6.6,15.7,19.8,25.2,29.5,21.1c0.8-0.3,34.6-19.6,43.5-24.8C743.7,319.9,743.5,319.4,743.1,319.4z   M722.6,261.7c-9.7,4.1-12.3,20.1-5.7,35.8c6.6,15.7,19.8,25.2,29.5,21.1s12.3-20.1,5.7-35.8C745.5,267,732.3,257.6,722.6,261.7z   M287.9,236.9c-9.7,4.1-12.3,20.1-5.7,35.8c6.6,15.7,19.8,25.2,29.5,21.1s12.3-20.1,5.7-35.8C310.8,242.2,297.6,232.8,287.9,236.9z   M497,304.7c-3.9-2.4-8.6-2.9-8.6-2.9c-2.6-0.3-4.8,0-6.3,0.3c-8.4,5.4-16.7,10.8-25.1,16.2c6.3,7.8,12.7,15.6,19,23.4  c1.9,0.6,9,2.8,16.9-0.6c2.2-1,10.4-4.9,12.8-14C508.2,318,503.3,308.6,497,304.7z M484.1,273c1.9-1.4,11.2-8.1,11.7-19.1  c0.2-3.7-0.7-6.8-1.4-8.7c-18.1-7.1-36.1-14.3-54.2-21.4c6.3,18.1,12.7,36.2,19,54.3C461.5,278.5,473.6,280.7,484.1,273z   M514.2,221.7c4-3.7,7.9-7.4,11.9-11.2c-8.4-7.4-16.7-14.7-25.1-22.1c-0.7,13.6-1.4,27.3-2.1,40.9  C504,226.8,509.1,224.2,514.2,221.7z M256.9,321.3c-4.5,1.5-10,3-16.4,4.1c-6.7,1.2-12.2,1.6-15.3,1.7c-7.3,0.3-13.5,0-18-0.5  c-4.4-0.5-7.9-1.1-10-1.5c-3.6-0.7-6.8-1.5-9.6-2.3c-32.7,19.4-65.4,38.7-98.1,58.1c-1.6-2.1-5.6-8.3-5.6-17  c0.1-11.9,7.8-19.5,9.3-20.8c64.2-35,128.4-70.1,192.6-105.1c-8,5.4-9.7,20.2-3.6,34.7c6.6,15.7,19.8,25.1,29.5,21.1  C311.7,293.8,275.2,312.2,256.9,321.3z"
   style="fill:#ff0066" />
<g
   id="Детали">
	<path
   class="st0"
   d="M232.1,266c-9.3-18.8-18.5-37.6-27.8-56.3"
   id="path254" />
	<ellipse
   transform="matrix(0.9225 -0.3861 0.3861 0.9225 -79.1763 136.4096)"
   class="st0"
   cx="300"
   cy="265.3"
   rx="1.7"
   ry="4.5"
   id="ellipse256"
   style="fill:#ff0000" />
	
		<ellipse
   transform="matrix(0.9225 -0.3861 0.3861 0.9225 -55.0371 306.1689)"
   class="st0"
   cx="734.7"
   cy="290.1"
   rx="1.7"
   ry="4.5"
   id="ellipse258"
   style="fill:#ff0000" />
	
		<ellipse
   transform="matrix(0.9225 -0.3861 0.3861 0.9225 -52.8225 277.7985)"
   class="st0"
   cx="665.2"
   cy="270.4"
   rx="1.7"
   ry="4.5"
   id="ellipse260"
   style="fill:#ff0000" />
	
		<ellipse
   transform="matrix(0.9225 -0.3861 0.3861 0.9225 -21.9561 280.5184)"
   class="st0"
   cx="687.4"
   cy="194.9"
   rx="1.7"
   ry="4.5"
   id="ellipse262"
   style="fill:#ff0000" />
</g>
</svg>
