<?xml version="1.0" encoding="UTF-8" standalone="no"?>
<!-- Generator: Adobe Illustrator 22.1.0, SVG Export Plug-In . SVG Version: 6.00 Build 0)  -->

<svg
   version="1.1"
   id="Автомат"
   x="0px"
   y="0px"
   viewBox="0 0 842.1 842.2"
   style="enable-background:new 0 0 842.1 842.2;"
   xml:space="preserve"
   sodipodi:docname="weapon-bolter-heavy.svg"
   inkscape:version="1.4 (e7c3feb100, 2024-10-09)"
   xmlns:inkscape="http://www.inkscape.org/namespaces/inkscape"
   xmlns:sodipodi="http://sodipodi.sourceforge.net/DTD/sodipodi-0.dtd"
   xmlns="http://www.w3.org/2000/svg"
   xmlns:svg="http://www.w3.org/2000/svg"><defs
   id="defs10" /><sodipodi:namedview
   id="namedview8"
   pagecolor="#ffffff"
   bordercolor="#111111"
   borderopacity="1"
   inkscape:showpageshadow="0"
   inkscape:pageopacity="0"
   inkscape:pagecheckerboard="1"
   inkscape:deskcolor="#d1d1d1"
   showgrid="false"
   inkscape:zoom="0.69698408"
   inkscape:cx="420.38263"
   inkscape:cy="423.96951"
   inkscape:window-width="1920"
   inkscape:window-height="1043"
   inkscape:window-x="0"
   inkscape:window-y="0"
   inkscape:window-maximized="1"
   inkscape:current-layer="Автомат" />
<style
   type="text/css"
   id="style2">
	.st0{fill:none;stroke:#000000;stroke-width:10;stroke-miterlimit:10;}
</style>
<path
   id="Дуло"
   class="st0"
   d="M555.7,244.2c4.5,0.7,8.4,2.1,11.6,3.7c-13.6,7.3-27.3,14.6-40.9,21.9c-1.1,0.6,0,1.3,0,0  c0.1-5.8-1.3-12.6,0.9-17.2c5-2.6,10-5.3,15.1-7.9C545.6,243.9,550.3,243.4,555.7,244.2z M687.4,327.6c-4.2-2.3-7.7-6.1-7.7-6.1  c-3-3.2-4.7-6.5-5.7-8.7c0,0-29.3-55.5-32.7-63c-0.6-1.3-2.1-4.7-3-9.5c-3.3-16.7,3.9-26.9,3.9-26.9c4-5.7,9.5-7.9,16-10.6  c-4.1,0.9-7.1,2.1-7.2,2.1l0,0c-5.2,2-10.5,4.3-16.1,6.9c-36.7,19.6-73.3,39.2-110,58.9c-0.9,9.9,1.8,21.3,6.6,32.3  c22.8-12.8,45.5-25.5,68.3-38.3c5,10.5,9.9,21,14.9,31.5c-22.6,12.6-45.2,25.2-67.7,37.8c8.5,16.2,13.2,25.8,15.8,31.8  c2.5,5.6,4.1,8.4,7.3,13.9c2.8,4.9,4.1,6.5,5.4,7.8c5.4,5.7,10.7,6.1,11.6,7.4v0c70.3-38.5,116.1-63.4,124.4-67.2  C697.2,331.8,690.5,329.3,687.4,327.6z M728,188.4c-7,3.6-8.8,13.7-4.1,22.6c4.7,8.9,14.1,13.1,21.1,9.5c7-3.6,8.8-13.7,4.1-22.6  C744.4,189,735,184.8,728,188.4z M723.9,211c-4.7-8.9-2.9-19,4.1-22.6c-21.4,12-42.9,24-64.3,36c-7,3.6-8.8,13.7-4.1,22.6  c4.4,8.3,13,12.6,19.8,10.1c0,0,44.8-25,65.6-36.6C738.1,224.1,728.6,219.8,723.9,211z M707.2,241.6c-8.3,4.6-27.8,15.5-27.8,15.5  c-6.8,2.5-15.4-1.8-19.8-10.1c-4.7-8.9-2.9-19,4.1-22.6c8.3-4.7,16.6-9.3,24.9-14c-0.9-0.8-1.8-1.6-2.8-2.3c-2-1.5-9.1-6.5-18.5-6.6  c-3.1,0-6.4,0.5-9.1,1.1c-6.5,2.7-12,4.9-16,10.6c0,0-7.2,10.2-3.9,26.9c0.9,4.8,2.5,8.2,3,9.5c3.4,7.5,32.7,63,32.7,63  c1,2.2,2.7,5.5,5.7,8.7c0,0,3.6,3.9,7.7,6.1c3.1,1.7,9.8,4.2,24.1,0.1c1.7-0.8,10-4.3,16.2-12.7c2.1-2.8,4.8-6.6,5.7-12.3  c1.2-7.7-2-14.1-3.5-17C725.1,276.3,717.3,261,707.2,241.6z"
   style="fill:#c6afe9" />
<path
   id="Корпус"
   class="st0"
   d="M642.8,208.1c-11.4-16.3-22.9-32.7-34.3-49c-5.1,6.2-10.7,14.2-15.5,23.9  c-11.5,23.2-13.2,44.9-13,58.1C600.9,230.2,621.8,219.2,642.8,208.1z M642.8,208.1c-10.4-14.8-20.7-29.6-31.1-44.4  c-0.8-1.1-2.6-0.4-2.3,0.9c2.9,18.7,5.9,37.4,8.8,56.1C626.3,216.5,634.6,212.3,642.8,208.1z M228.2,506  c-46.6,21.6-94.7,41.4-135.3,29.1c-14.2-4.3-65.3-27.6-54.9-38.9c9.2-9.9,32.4-19,44.2-24.7c6.9-3.4,81.1-34.3,147.9-49.7  c51.7-11.9,88-8.8,67.7-8.8c-29.4,0-75.7,25.6-75.7,37s30.4,17.1,59.9,17.1C309.4,467.1,276.6,483.6,228.2,506z M387.3,325.3  l-212,109.6c-0.8,0.4-1.6,0.6-2.5,0.6l-26.2,2.1c-21.1,1.7-42.2,1.4-63.3-0.9l-1.2-0.1c-5.9,0.1-7.9-7.9-2.6-10.6  c76.9-39.3,153.7-78.7,230.6-118c0.1-0.1,0.3-0.1,0.4-0.2c6-2.5,14.7-5.7,25.4-8.5c11.3-2.9,32.4-8.1,59.2-5.3  c5.4,0.6,12.3,1.6,20.2,3.5c1.8,0.5,3.5,1.3,5,2.6c0.7,0.6,0.7,0.6,0.7,0.6c5.9,4,0,0.5-0.2,0.4c-4.9-1.4-25.1-7.1-40.2-7.1  c-27.3,0-52.4,12.3-58.1,24.5c-3.9,8.2,28.6,16.4,58.1,8.4C382.9,326.3,385.1,325.8,387.3,325.3z M587.1,394.9L587.1,394.9  c-21.2,11.6-44.6,24.5-69.9,38.4c-18.2,10.1-36.5,20.2-54.7,30.3c0,0-0.1,0-0.2,0c-2.3,0.9-8,2.6-14.7,0.6  c-7.1-2.1-11.1-7.2-12.8-10c-0.4-0.7-1.4-0.6-1.8,0.1c-0.2,0.3-0.3,0.6-0.5,0.9c0.4-0.8-0.5-1.6-1.3-1.2c-29.8,16-59.7,32-89.5,48  c3.8,7.4,7.6,14.8,11.3,22.1c-13.2,7.3-26.4,14.6-39.6,21.9c-23.5-3.7-51.4-10.1-81.6-21.7c-8.1-3.1-15.7-6.3-23-9.7  c6.4-2.8,12.7-5.7,19.1-8.6c49.2-22.7,123.7-58.6,122.4-70.4c-3.2-28.2-58.3-28.1-120.4-13.8c-18.5,4.3-37.6,9.7-55.6,15.5  c-0.4-1-0.3-0.6-0.7-1.6c99.4-50.8,198.5-102.2,297.4-154.1c15.9-8.3,31.8-16.7,47.7-25.1l0,0c6.3-3.3,12.7-6.7,19-10  c0.3-0.2,0.6,0.3,0.3,0.5c-2.2,1.8-5.8,4.8-7.8,7.6c-9.8,13.7-6.1,35,4,54.5c-17.7,9.8-35.4,19.6-53.1,29.4c0,0,0,0,0,0  c-6.5,3.6-12.9,7.2-19.4,10.8c0,0,0-0.1,0-0.1c-20.9,11.5-41.9,22.9-62.8,34.4c3.3,6.4,6.6,12.7,9.9,19.1  c23.5-12.9,46.9-25.9,70.4-38.8c0,0.1,0.1,0.1,0.1,0.2c21.6-11.7,43.1-23.5,64.7-35.2c10.2,19.4,15.7,30.4,18.6,37  c2.5,5.6,4.1,8.4,7.3,13.9c2.8,4.9,4.1,6.5,5.4,7.8C581,393.1,586.3,393.5,587.1,394.9z"
   style="fill:#d400aa" />
<path
   id="Рукоять"
   class="st0"
   d="M565.3,370.8c0.7,1.5,2.6,2.1,4.1,1.2c3.8-2.3,7.7-4.7,11.5-7c-6.9-12.3-3.9-7-10.8-19.2  c-4.5,2.2-9.1,4.5-13.6,6.7C559.4,358.6,562.4,364.7,565.3,370.8z M693.1,279.8c-6.4,3.3-8,12.5-3.7,20.6c4.3,8.1,12.9,12,19.3,8.7  c6.4-3.3,8-12.5,3.7-20.6C708.1,280.4,699.5,276.5,693.1,279.8z M686.2,476.8c0.7,1.4,2.5,1.9,3.9,1.1c6.3-3.7,14.5-9.5,22.3-18.4  c5.3-6,10.1-11.7,13.4-20.8c5.3-14.8,1.8-28.4,0.3-34.2c-1.7-6.4-3.9-10.9-5.1-13.5c-10.2-20.8-21.5-42-27.9-53.8  c-6.7,3.6-13.3,7.2-20,10.8c9.5,19,18.9,38.1,28.4,57.1c1.3,2.6,5,10.9,2.8,21.3c-2.1,9.8-10.5,16.7-16.3,21.7  c-4.7,4.1-9.2,7-12.4,8.8C679,463.6,682.6,470.2,686.2,476.8z M703.1,468.2c-1,0.8,0.2,2.3,1.2,1.6c9.6-6.4,21.9-17.1,28.9-32.7  c2-4.6,7.2-15.4,5.1-29.3c-0.9-5.7-6.3-19-7.9-22.1c-8.4-16.9-16.7-33.8-25.1-50.8l-11.2,2.1c-0.6,0.1-0.9,0.8-0.6,1.3  c4.4,8.3,7.9,14.8,10.1,18.8c5.5,10.3,10.6,20.7,15.9,31.1c1.2,2.3,4.3,8.3,6.5,16.2c1,3.5,1.5,6.3,1.8,8.3  c0.8,5.4,0.7,9.4,0.7,10.4c-0.1,2.7-0.3,4.8-0.4,5.4c-0.2,1.9-1,6.6-3.1,12c-2.4,6-5.6,10.4-8.2,13.6  C712.3,459.8,707.4,464.5,703.1,468.2z M614.7,296.1c-22.6,12.6-45.2,25.2-67.7,37.8c-0.9-1.7-1.8-3.4-2.7-5.2  c-1.5,0.8-3,1.6-4.5,2.5c-43.6,23.8-87.1,47.6-130.7,71.4c-3.3-6.4-6.6-12.7-9.9-19.1c43.6-24,87.2-48,130.8-72  c1.5-0.8,3-1.7,4.5-2.5c-1-2-2-4.1-2.9-6.1c22.8-12.8,45.5-25.5,68.3-38.3C604.8,275.1,609.8,285.6,614.7,296.1z M341.9,501.9  c29.9-16,59.9-32.1,89.8-48.1c0.7-0.4,1.4,0.4,1.1,1.1c-6.4,12.7-13.6,31.6-14.6,55c-0.2,4.8-0.6,20.1,3.9,38.8  c3,12.5,7.1,21.6,13.8,36.8c5.3,11.9,10.2,21.7,13.9,28.6c0.3,0.6,0.1,1.2-0.5,1.5c-12.8,7.1-25.7,14.1-38.5,21.2L341.9,501.9z   M351.2,433.5c0,11.3-39.6,33.6-69.1,33.6s-59.9-5.8-59.9-17.1c0-11.3,46.2-37,75.7-37S351.2,422.2,351.2,433.5z M322.5,318.5  c5.7-12.1,30.9-24.5,58.1-24.5c21.2,0,39.3,4.5,46.3,10.7c-12.9,6.8-25.9,13.5-38.8,20.3c-2.4,0.6-4.9,1.2-7.4,1.9  C351.2,335,318.6,326.7,322.5,318.5z M433.2,454.3c0.4-0.7,1.3-0.7,1.8-0.1c1.7,2.7,5.7,7.8,12.8,10c6.7,2,12.4,0.3,14.7-0.6  c0.2-0.1,0.4,0.1,0.3,0.3c-3.3,6.8-7.4,16.6-9.6,28.9c-3.4,18-1.3,32.1,0.5,44c2.2,14.1,7,35.1,19.1,58.9  c-6.8,6-13.6,11.9-20.5,17.9c-0.9,0.8-2.2,0.5-2.8-0.5c-3.8-7.3-8.4-16.6-13.4-27.6c-5.5-12-8.2-18.2-10.8-26.5  c-5.3-16.9-6.4-30.2-6.6-33.3c-1.1-15.6,0.6-27.6,1.5-32.6c0.7-3.9,2.7-14.3,7.7-27C429.7,461.5,431.5,457.5,433.2,454.3z   M745.4,589.6c-10.3,5.8-20.6,11.6-30.8,17.3c-8.2-15.2-16.3-30.4-24.5-45.6c-17.1-31.9-34.3-63.7-51.4-95.6h0  c-13.7-25.5-27.5-51.1-41.2-76.6c10.7-5.9,21.4-11.7,32.1-17.6c19.5,36.2,39,72.4,58.4,108.7h0c9,16.8,18,33.5,27.1,50.3  c10.3,19.1,20.5,38.2,30.8,57.3C746.2,588.5,746,589.3,745.4,589.6z M760.7,575.8c-4.3,4-8.7,8.1-13,12.1c-0.6,0.6-1.6,0.4-2-0.3  l-28.5-53.1c-8.9-16.6-17.8-33.2-26.8-49.8c5.2-3.7,10.4-7.3,15.6-11C713.1,487,751.4,558.4,760.7,575.8z M706,473.7l0.5,2.7  c-6.2,1.3-12.3,2.6-18.5,3.9l-58.4-108.7c5.6-3.1,11.2-6.1,16.8-9.2c14.8,27.7,29.7,55.4,44.5,83c-1.1,0.9-2.1,1.8-3,2.7  c-4.7,4.1-9.2,7-12.4,8.8c4,7.5,8,14.9,12,22.4c4.3-2.3,9.8-5.8,15.7-10.8C704.1,470.2,705.1,472,706,473.7z"
   style="fill:#aa87de" />
</svg>
