<?xml version="1.0" encoding="UTF-8" standalone="no"?>
<!-- Generator: Adobe Illustrator 22.1.0, SVG Export Plug-In . SVG Version: 6.00 Build 0)  -->

<svg
   version="1.1"
   id="Бластер"
   x="0px"
   y="0px"
   viewBox="0 0 842.1 842.2"
   style="enable-background:new 0 0 842.1 842.2;"
   xml:space="preserve"
   sodipodi:docname="blaster.svg"
   inkscape:version="1.2.1 (9c6d41e410, 2022-07-14)"
   xmlns:inkscape="http://www.inkscape.org/namespaces/inkscape"
   xmlns:sodipodi="http://sodipodi.sourceforge.net/DTD/sodipodi-0.dtd"
   xmlns="http://www.w3.org/2000/svg"
   xmlns:svg="http://www.w3.org/2000/svg"><defs
   id="defs14" /><sodipodi:namedview
   id="namedview12"
   pagecolor="#ffffff"
   bordercolor="#111111"
   borderopacity="1"
   inkscape:showpageshadow="0"
   inkscape:pageopacity="0"
   inkscape:pagecheckerboard="1"
   inkscape:deskcolor="#d1d1d1"
   showgrid="false"
   inkscape:zoom="0.69698408"
   inkscape:cx="420.38263"
   inkscape:cy="422.53476"
   inkscape:window-width="1600"
   inkscape:window-height="829"
   inkscape:window-x="0"
   inkscape:window-y="0"
   inkscape:window-maximized="1"
   inkscape:current-layer="Бластер" />
<style
   type="text/css"
   id="style2">
	.st0{fill:none;stroke:#000000;stroke-width:10;stroke-miterlimit:10;}
</style>
<path
   id="Ркоять"
   class="st0"
   d="M411.3,449.4c-1.4-3.8,0.5-13.9,7.7-17.1c13.1,6.8,26.3,13.6,39.4,20.3  c-4.2,4.9-8.4,9.8-12.6,14.7C434.3,461.4,422.8,455.4,411.3,449.4z M289.2,508.6c4.8-2.5,9.6-5,14.5-7.5c2.1-1.1,10.8-6.2,14-16.9  c1.3-4.4,1.5-9,0.6-13.4c24.8-7.7,56.4-19.2,88.7-33.2c5.8,17.7,12.6,32,18.4,42.9c0.9,1.7,2.3,4.2,3.7,6.7  c2.4,4.3,7.4,6.6,12.2,5.5c19.4-4.3,35.2-15.5,42.4-31c2-4.4,8.5-17.7,3.7-33.7c-3.6-11.9-11.5-18.9-14.9-21.6c3.8-2,7.7-4,11.6-6.1  c2.5-1.3,5-2.6,7.4-4c17.4,21.3,21.9,50.4,10.9,74.7c-10.2,22.5-32.3,37.9-57.6,40.7c-1.2-1.6,15,18.8,35.9,39  c20.9,20.1,46.5,40,51.8,44.9c-4.4,6.8-56.9,86.8-106,75.9c-3.6-0.8-23.1-10.1-33.4-26.4c-14.3-22.6-21.2-55.9-33.2-75.1  c-16.5-26.2-39.5-48.1-42.3-50.2c-8.3-6.4-18.6-7.9-27.5-7.6C288.1,512.3,287.4,509.5,289.2,508.6z"
   style="fill:#ff8080" />
<path
   id="Корпус"
   class="st0"
   d="M271.6,481.7c-6-0.4-24.3-1.8-33.2-14.2c-11.8-16.5,3.7-43.9,12.7-60.1  c7.7-13.9,58.5-65.3,118-124.5c56.8,13.2,99.2,64.1,99.2,125c0,0.3,0,0.6,0,0.9c-14.3,7.3-29.2,14.6-44.2,21.5  C355.3,461.4,285.1,482.6,271.6,481.7z"
   style="fill:#aaffaa" />
<path
   id="Корпус_1_"
   class="st0"
   d="M369,282.8c12.4-12.4,25.3-25.2,38.2-38c60.7,17.9,105,74,105,140.4  c-13.5,7.4-28.3,15.4-43.9,23.4c0-0.3,0-0.6,0-0.9C468.2,346.9,425.9,295.9,369,282.8z"
   style="fill:#00d400" />
<path
   id="Корпус_2_"
   class="st0"
   d="M407.2,244.8c4.4-4.3,52.4-52.3,54.4-54.3c12.3,3.8,27.3,10,42.7,20.6  c11.2,7.7,48,34.8,63.3,85.4c3.5,11.7,7.6,30.2,6.3,53.8c-0.2,0.1-61.7,34.7-61.7,34.7C512.1,318.7,467.9,262.6,407.2,244.8z"
   style="fill:#aaffaa" />
<path
   id="Дуло"
   class="st0"
   d="M541.9,246.9c8.9-5.4,17.7-10.8,26.6-16.2c-5-7.9-10-15.9-15.1-23.7c-2.6-3.9-1.4-9.2,2.6-11.7  l0.1-0.1c3.9-2.4,9-1.2,11.4,2.6c5.1,8,10.2,16,15.4,24c7.7-4.7,15.4-9.4,23.2-14.1c-3.1-6.6-5.6-15.4-3.8-25  c3.4-18.3,19.5-31.4,36.4-33.2c23.6-2.5,45.9,17.6,47.5,41.1c1,16.2-11.4,37.8-30.4,41.3c-18.3,3.4-32.3-4.8-38.6-9.6  c-8.2,4.9-16.3,9.8-24.5,14.7c4.6,7.2,9.2,14.4,13.8,21.6c0.1,0.2,0.3,0.4,0.4,0.7c2.7,5.2,0.4,9.7-2.2,11.5  c-3.1,2.2-8.9,1.3-12.6-3c-4.8-7.3-9.4-14.6-14-22c-8.7,5.2-17.4,10.5-26.1,15.7C548.7,256.2,545.3,251.3,541.9,246.9z"
   style="fill:#b3b3b3" />
<path
   id="Элемент"
   class="st0"
   d="M357.2,295.1c-8.5-11-34-46.8-33.3-98.2c0.5-37.3,14.5-64.8,22.2-77.5  c25.1,35,50.2,70.1,75.3,105.1c1.6,2.2,1.3,5.2-0.6,7.1C399.5,252.7,378.4,273.9,357.2,295.1z"
   style="fill:#e9afaf" />
<path
   id="Элемент_1_"
   class="st0"
   d="M379,273.3c-76.1,46.5-152.2,93-228.4,139.5c9.1,4,24.9,9.5,45.1,9.5  c26.6-0.1,46.3-9.8,55.4-15c7.5-11,42.4-49.5,71.2-77.6c5.2-5,13.2-13.1,29.4-29.1C362.8,289.5,372.2,280.1,379,273.3z"
   style="fill:#e9afaf" />
</svg>
