<?xml version="1.0" encoding="UTF-8" standalone="no"?>
<!-- Generator: Adobe Illustrator 22.1.0, SVG Export Plug-In . SVG Version: 6.00 Build 0)  -->

<svg
   version="1.1"
   id="Wishalloy"
   x="0px"
   y="0px"
   viewBox="0 0 842.1 842.2"
   style="enable-background:new 0 0 842.1 842.2;"
   xml:space="preserve"
   sodipodi:docname="wishalloy.svg"
   inkscape:version="1.4 (e7c3feb100, 2024-10-09)"
   xmlns:inkscape="http://www.inkscape.org/namespaces/inkscape"
   xmlns:sodipodi="http://sodipodi.sourceforge.net/DTD/sodipodi-0.dtd"
   xmlns="http://www.w3.org/2000/svg"
   xmlns:svg="http://www.w3.org/2000/svg"><defs
   id="defs4940" /><sodipodi:namedview
   id="namedview4938"
   pagecolor="#ffffff"
   bordercolor="#111111"
   borderopacity="1"
   inkscape:showpageshadow="0"
   inkscape:pageopacity="0"
   inkscape:pagecheckerboard="1"
   inkscape:deskcolor="#d1d1d1"
   showgrid="false"
   inkscape:zoom="0.69698408"
   inkscape:cx="437.59967"
   inkscape:cy="472.75111"
   inkscape:window-width="1920"
   inkscape:window-height="1043"
   inkscape:window-x="0"
   inkscape:window-y="0"
   inkscape:window-maximized="1"
   inkscape:current-layer="Wishalloy" />
<style
   type="text/css"
   id="style4930">
	.st0{fill:none;stroke:#000000;stroke-width:10;stroke-miterlimit:10;}
</style>




<g
   id="g5073"
   transform="matrix(0.8409385,0,0,0.8409385,76.241814,65.147291)"
   style="stroke:#ffffff;stroke-opacity:1"><path
     id="Основа-3"
     class="st0"
     d="m 492.2,410.4 c -149.5,-48 -299.1,-96 -448.6,-144 -0.5,-0.2 -0.4,-0.9 0.1,-0.9 92.4,0.4 184.9,0.8 277.3,1.1 0.1,0 0.2,0 0.3,0.1 l 171.3,142.9 c 0.5,0.4 0.1,1 -0.4,0.8 z m 203.4,46.4 42.1,296.7 c 0,0.3 0.5,0.3 0.5,0 13.5,-141.5 27.1,-282.9 40.6,-424.4 0,-0.3 -0.3,-0.4 -0.4,-0.2 -27.6,42.6 -55.1,85.1 -82.7,127.7 -0.1,0.1 -0.1,0.1 -0.1,0.2 z m -0.1,0 -113,99.1 c -0.2,0.1 -0.4,0 -0.4,-0.2 5.9,-50.9 11.8,-101.8 17.7,-152.7 v -0.1 c 22.3,-39.5 44.5,-79 66.8,-118.5 0.1,-0.2 0.4,-0.1 0.4,0.1 9.5,57.4 19,114.7 28.5,172.1 0.1,0 0.1,0.1 0,0.2 z M 254.9,676.3 c 12.2,-28.5 24.3,-56.9 36.5,-85.4 0.1,-0.3 0.5,-0.2 0.5,0.1 5.8,29.9 11.7,59.9 17.5,89.8 0,0.1 0.1,0.2 0.3,0.2 27.8,-0.9 55.6,-1.7 83.3,-2.6 0.1,0 0.3,0.1 0.3,0.2 8.3,48.6 16.7,97.2 25,145.8 0,0.3 -0.3,0.4 -0.5,0.3 C 363.6,775.4 309.3,726 255,676.6 c -0.1,0 -0.1,-0.2 -0.1,-0.3 z"
     style="fill:#bc5fd3;stroke:#ffffff;stroke-opacity:1" /><path
     id="Основа-2"
     class="st0"
     d="M 309.2,680.3 C 412.5,530.3 515.7,380.4 619,230.4 c 0.3,-0.4 0.9,-0.2 0.8,0.3 -17.1,147.4 -34.2,294.9 -51.3,442.3 -86.3,2.7 -172.6,5.3 -259,8 -0.3,0.1 -0.5,-0.4 -0.3,-0.7 z m 12.4,-413.4 172.6,143.9 c 0.2,0.2 0.5,0.1 0.7,-0.1 41.7,-60.5 83.4,-121.1 125,-181.6 0.1,-0.2 0.1,-0.4 0,-0.6 C 564.4,159.8 508.9,91 453.4,22.2 c -0.2,-0.3 -0.6,-0.2 -0.8,0.1 -43.7,81.3 -87.5,162.7 -131.2,244 -0.1,0.2 0,0.5 0.2,0.6 z m 345.5,17.3 c 9.5,57.3 19,114.6 28.4,171.8 0,0.2 0.3,0.3 0.4,0.1 27.7,-43.6 55.4,-87.2 83.1,-130.9 0.1,-0.1 0,-0.3 -0.1,-0.4 -37.2,-13.7 -74.3,-27.3 -111.5,-41 -0.2,0.1 -0.4,0.3 -0.3,0.4 z M 80.6,732.8 c 112.3,30.7 224.5,61.4 336.8,92.2 0.3,0.1 0.5,-0.3 0.3,-0.5 C 363.5,775.2 309.2,725.9 255,676.6 c -0.1,-0.1 -0.2,-0.1 -0.3,-0.1 L 80.6,732.3 c -0.3,0.1 -0.2,0.5 0,0.5 z"
     style="fill:#ff55dd;stroke:#ffffff;stroke-opacity:1" /><path
     id="Основа-1"
     class="st0"
     d="m 172.4,21.7 h 279.7 c 0.4,0 0.6,0.4 0.4,0.7 -43.7,81.4 -87.5,162.7 -131.2,244.1 -0.1,0.2 -0.2,0.2 -0.4,0.2 -93.1,-0.4 -186.3,-0.8 -279.4,-1.1 -0.4,0 -0.6,-0.4 -0.4,-0.7 43.8,-81.1 87.6,-162.2 131.3,-243.2 z m 71.5,309.8 c 21.5,116.2 43,232.3 64.5,348.5 0.1,0.4 0.6,0.5 0.8,0.2 61.6,-89.5 123.2,-179 184.9,-268.5 0.2,-0.3 0.1,-0.6 -0.2,-0.7 -83.1,-26.7 -166.3,-53.4 -249.4,-80.1 -0.3,-0.1 -0.6,0.2 -0.6,0.6 z m 338.2,224.9 c -3.7,32 -7.4,64 -11.1,96 0,0.1 0,0.2 0.1,0.2 55.5,34.2 111,68.4 166.5,102.7 0.2,0.1 0.4,0 0.4,-0.2 L 695.8,457.3 c 0,-0.2 -0.3,-0.3 -0.4,-0.1 l -113.1,99.2 c -0.2,-0.1 -0.2,-0.1 -0.2,0 z m -301,-22 -200.5,197.4 c -0.2,0.2 0,0.6 0.3,0.5 l 173.9,-55.7 c 0.1,0 0.1,-0.1 0.2,-0.2 12.3,-28.7 24.6,-57.5 36.9,-86.2 0,-0.1 0,-0.1 0,-0.2 l -10.3,-55.4 c -0.1,-0.2 -0.4,-0.3 -0.5,-0.2 z"
     style="fill:#d400aa;stroke:#ffffff;stroke-opacity:1" /><path
     id="Блики-2"
     class="st0"
     d="m 522,107.2 c -15.2,96.2 -30.5,192.5 -45.7,288.7 -9.7,-8.1 -19.4,-16.1 -29,-24.2 15.6,-99.7 31.3,-199.3 46.9,-299 9.2,11.5 18.5,23 27.8,34.5 z m 38,47.2 c -10.5,69.1 -21,138.3 -31.5,207.4 10.3,-15 20.7,-30 31,-45 7.2,-45.4 14.5,-90.7 21.7,-136.1 -7.1,-8.7 -14.1,-17.5 -21.2,-26.3 z m -11.1,177.8 c 18.1,13.8 36.2,27.5 54.4,41.3 1.1,-9.6 2.2,-19.3 3.4,-28.9 -14.4,-11.1 -28.9,-22.2 -43.3,-33.3 -4.9,6.9 -9.7,13.9 -14.5,20.9 z M 395.5,555 c 58.5,32.5 117.1,65 175.6,97.5 3.5,-30.4 7,-60.8 10.4,-91.2 -44.5,-27.6 -88.9,-55.1 -133.4,-82.7 -17.6,25.5 -35.1,51 -52.6,76.4 z m -48.6,70.6 c 30,17.2 60,34.3 90,51.5 21.8,-0.7 43.5,-1.3 65.3,-2 -44.9,-26.5 -89.7,-53 -134.6,-79.6 -6.9,10.1 -13.8,20.1 -20.7,30.1 z"
     style="fill:#ff6600;stroke:#ffffff;stroke-opacity:1" /><path
     id="Блики-1"
     class="st0"
     d="M 138.6,84.4 C 172,63.5 205.4,42.6 238.9,21.7 c 14.5,0 29,0 43.5,0 -56.8,37.4 -113.7,74.8 -170.5,112.2 8.9,-16.5 17.8,-33 26.7,-49.5 z m -97.2,180 c -0.1,0.2 0,0.4 0.2,0.4 17.6,0.3 35.3,0.6 52.9,0.9 0.1,0 0.1,0 0.1,0 118.9,-81.2 237.9,-162.4 356.8,-243.6 0.2,-0.1 0.1,-0.5 -0.1,-0.5 h -71.6 c -0.1,0 -0.1,0 -0.1,0 L 54.9,239.4 c 0,0 -9,16.7 -13.5,25 z m 132.2,1.7 c 78.3,-54 156.7,-107.9 235,-161.9 7.8,-14.6 15.7,-29.1 23.5,-43.7 -100.3,68.5 -200.6,136.9 -300.9,205.4 14.1,0 28.3,0.1 42.4,0.2 z m 205.7,108.1 c -38.4,21.8 -76.9,43.6 -115.3,65.4 3.2,17.1 6.3,34.2 9.5,51.2 56.1,-32.2 112.1,-64.4 168.2,-96.6 -20.9,-6.7 -41.6,-13.4 -62.4,-20 z m -86.2,222.5 c 38.6,-20.4 77.1,-40.7 115.7,-61.1 13.1,-19 26.2,-38 39.3,-57 -53.7,28.6 -107.4,57.1 -161,85.7 2,10.8 4,21.6 6,32.4 z m 344.8,97.1 c 25.6,-34.1 51.2,-68.2 76.8,-102.3 -2.3,-16 -4.5,-32 -6.8,-47.9 -33.8,43.6 -67.6,87.3 -101.3,130.9 10.4,6.4 20.9,12.8 31.3,19.3 z m 86.7,-32.4 c -14.8,19.5 -29.7,38.9 -44.5,58.4 5.9,3.6 11.8,7.3 17.7,10.9 10.3,-13.6 20.5,-27.1 30.8,-40.7 -1.3,-9.5 -2.6,-19 -4,-28.6 z m -591.8,19 c 30,2.1 60,4.3 90,6.4 10.7,-3.5 21.5,-7 32.2,-10.5 3.6,-8.5 7.2,-16.9 10.9,-25.4 -32.8,-1.5 -65.6,-3.1 -98.4,-4.6 -11.6,11.3 -23.2,22.7 -34.7,34.1 z m 67.5,-66.5 c 26.6,1.2 53.2,2.4 79.8,3.6 2.6,-6.1 5.2,-12.3 7.9,-18.4 -23.4,-0.7 -46.9,-1.5 -70.3,-2.2 -5.9,5.7 -11.6,11.3 -17.4,17 z"
     style="fill:#ffcc00;stroke:#ffffff;stroke-opacity:1" /></g>
</svg>
