<?xml version="1.0" encoding="UTF-8" standalone="no"?>
<svg
   version="1.1"
   viewBox="-5 -10 110 110"
   id="svg2"
   sodipodi:docname="noun-work-bench-6650302.svg"
   width="110"
   height="110"
   inkscape:version="1.4 (e7c3feb100, 2024-10-09)"
   xmlns:inkscape="http://www.inkscape.org/namespaces/inkscape"
   xmlns:sodipodi="http://sodipodi.sourceforge.net/DTD/sodipodi-0.dtd"
   xmlns="http://www.w3.org/2000/svg"
   xmlns:svg="http://www.w3.org/2000/svg">
  <defs
     id="defs2" />
  <sodipodi:namedview
     id="namedview2"
     pagecolor="#ffffff"
     bordercolor="#000000"
     borderopacity="0.25"
     inkscape:showpageshadow="2"
     inkscape:pageopacity="0.0"
     inkscape:pagecheckerboard="0"
     inkscape:deskcolor="#d1d1d1"
     inkscape:zoom="6.0074074"
     inkscape:cx="41.365598"
     inkscape:cy="50.27127"
     inkscape:window-width="1920"
     inkscape:window-height="1043"
     inkscape:window-x="0"
     inkscape:window-y="0"
     inkscape:window-maximized="1"
     inkscape:current-layer="svg2" />
  <g
     id="g2"
     transform="matrix(0.93847828,0,0,0.93847828,2.3550961,5.4991556)">
    <path
       d="m 82.426,47.988 h -6.4492 l 3.6289,40.902 h 2.8242 z M 17.063,25.652 V 15.566 h -4.4102 c -1.2109,0 -2.3125,0.49609 -3.1133,1.2969 -0.80078,0.80078 -1.2969,1.9023 -1.2969,3.1133 v 11.59 h 8.8203 z M 6.348,32.5114 v -12.535 c 0,-1.7344 0.71094,-3.3125 1.8516,-4.457 1.1445,-1.1445 2.7188,-1.8516 4.457,-1.8516 h 4.4102 v -2.4375 c 0,-0.55859 0.22656,-1.0625 0.59375,-1.4297 0.36719,-0.36719 0.87109,-0.59375 1.4297,-0.59375 h 3.9297 c 0.55469,0 1.0586,0.22656 1.4258,0.59375 l 0.0078,0.00781 c 0.36328,0.36719 0.58984,0.87109 0.58984,1.4219 l -0.0078,7.207 c 0,0.55859 -0.22656,1.0625 -0.59375,1.4297 -0.36719,0.36719 -0.87109,0.59375 -1.4297,0.59375 h -4.0547 v 4.2422 h 15.051 v -4.2422 h -4.0508 c -0.55469,0 -1.0586,-0.22656 -1.4258,-0.59375 l -0.0039,-0.0039 c -0.36719,-0.36719 -0.59375,-0.87109 -0.59375,-1.4258 v -7.207 c 0,-0.55859 0.22656,-1.0625 0.59375,-1.4297 0.36719,-0.36719 0.87109,-0.59375 1.4297,-0.59375 h 3.9297 c 0.55078,0 1.0547,0.22656 1.4219,0.58984 l 0.0078,0.00781 c 0.36719,0.36719 0.59375,0.87109 0.59375,1.4258 v 2.4375 h 4.4102 c 1.7344,0 3.3125,0.71094 4.457,1.8516 1.1445,1.1445 1.8516,2.7188 1.8516,4.457 v 11.59 h 46.078 c 0.52344,0 0.94922,0.42578 0.94922,0.94922 v 8.293 c 0,1.9766 -0.80859,3.7734 -2.1094,5.0742 -1.3008,1.3008 -3.0977,2.1094 -5.0742,2.1094 h -2.1445 v 41.852 c 0,0.52344 -0.42578,0.94922 -0.94922,0.94922 l -4.6367,-0.0039 c -0.48438,0 -0.89844,-0.37109 -0.94141,-0.86328 l -3.7227,-41.938 h -31.395 v 7.0898 c 0,1.3203 -0.53906,2.5195 -1.4062,3.3867 -0.86719,0.86719 -2.0664,1.4062 -3.3867,1.4062 v -0.0039 h -13.02 l -2.6641,30.055 c -0.04297,0.49219 -0.45703,0.86328 -0.94141,0.86328 l -4.6406,0.0078 c -0.52344,0 -0.94922,-0.42578 -0.94922,-0.94922 v -41.855 h -2.1445 c -1.9766,0 -3.7734,-0.80859 -5.0742,-2.1094 -1.3008,-1.3008 -2.1094,-3.0977 -2.1094,-5.0742 z m 16.668,-21.406 h -3.9297 c -0.03516,0 -0.0625,0.01563 -0.08594,0.03906 -0.02344,0.02344 -0.03906,0.05469 -0.03906,0.08594 v 7.332 h 4.0547 c 0.03516,0 0.06641,-0.01563 0.08594,-0.03906 C 23.12538,18.4999 23.141,18.46865 23.141,18.4374 v -7.207 c 0,-0.03516 -0.01172,-0.06641 -0.03516,-0.08594 l -0.0039,-0.0039 C 23.082406,11.121025 23.051156,11.1054 23.016,11.1054 Z m 10.871,0 h -3.9297 c -0.03516,0 -0.06641,0.01563 -0.08594,0.03906 -0.02344,0.02344 -0.03906,0.05469 -0.03906,0.08594 v 7.207 c 0,0.03516 0.01172,0.06641 0.03516,0.08984 0.02344,0.02344 0.05469,0.03516 0.08984,0.03516 h 4.0547 v -7.332 c 0,-0.03516 -0.01172,-0.06641 -0.03516,-0.08594 l -0.0039,-0.0039 C 33.953406,11.121025 33.926062,11.1054 33.887,11.1054 Z m 10.84,20.461 v -11.59 c 0,-1.2109 -0.49609,-2.3125 -1.2969,-3.1133 -0.80078,-0.80078 -1.9023,-1.2969 -3.1133,-1.2969 h -4.4102 v 16 z M 34.012,26.6016 H 18.961 v 4.9648 h 15.051 z m -1.1445,22.633 c -1.0352,0 -1.9727,0.41797 -2.6484,1.0977 -0.67969,0.67969 -1.0977,1.6133 -1.0977,2.6484 0,1.0352 0.41797,1.9727 1.0977,2.6484 0.67969,0.67969 1.6133,1.0977 2.6484,1.0977 1.0352,0 1.9727,-0.41797 2.6484,-1.0977 0.67969,-0.67969 1.0977,-1.6133 1.0977,-2.6484 0,-1.0352 -0.41797,-1.9727 -1.0977,-2.6484 -0.67578,-0.67969 -1.6133,-1.0977 -2.6484,-1.0977 z m 1.3086,2.4414 c -0.33594,-0.33594 -0.79688,-0.54297 -1.3086,-0.54297 -0.51172,0 -0.97266,0.20703 -1.3086,0.54297 -0.33594,0.33594 -0.54297,0.79688 -0.54297,1.3086 0,0.51172 0.20703,0.97266 0.54297,1.3086 0.33594,0.33594 0.79688,0.54297 1.3086,0.54297 0.51172,0 0.97266,-0.20703 1.3086,-0.54297 0.33594,-0.33594 0.54297,-0.79688 0.54297,-1.3086 -0.0039,-0.51172 -0.20703,-0.97656 -0.54297,-1.3086 z m -8.2539,-3.6875 -0.88672,9.9883 h 12.852 v -0.0039 c 0.79688,0 1.5195,-0.32422 2.043,-0.85156 0.52344,-0.52344 0.85156,-1.25 0.85156,-2.043 l 0.0039,-7.0898 z m -8.3477,0 v 40.902 h 2.8242 l 2.6641,-30.039 c 0,-0.01172 0.0039,-0.02344 0.0039,-0.03516 l 0.96094,-10.832 h -0.01953 z m 74.18,-14.523 H 8.2465 v 7.3438 c 0,1.4531 0.59375,2.7734 1.5547,3.7305 0.95703,0.95703 2.2773,1.5547 3.7305,1.5547 h 72.938 c 1.4531,0 2.7734,-0.59375 3.7305,-1.5547 0.95703,-0.95703 1.5547,-2.2773 1.5547,-3.7305 z"
       fill-rule="evenodd"
       id="path1" />
    <g
       id="g3"
       transform="matrix(-1,0,0,1,97.185332,-19.612819)">
      <path
         d="m 57,19 a 4.988,4.988 0 0 0 -4.074,2.121 4.416,4.416 0 0 0 -2.768,-1.509 L 48,19.325 V 18 a 3,3 0 0 0 -6,0 v 0.525 L 38,17.991 V 13 H 13 a 10.993,10.993 0 0 0 -1.772,21.844 l 5.824,17.472 A 1,1 0 0 0 18,53 h 10 a 1,1 0 0 0 0.948,-1.316 L 23.387,35 h 2.936 l 1.748,4.371 A 1,1 0 0 0 29,40 h 5 a 1,1 0 0 0 0.929,-1.371 L 33.477,35 H 38 v -4.991 l 4,-0.534 V 30 a 3,3 0 0 0 6,0 v -1.325 l 2.158,-0.287 A 4.416,4.416 0 0 0 52.926,26.879 5,5 0 1 0 57,19 Z M 26.612,51 H 18.721 L 13.388,35 h 7.891 z m 5.911,-13 h -2.846 l -1.2,-3 h 2.846 z M 36,33 H 13 a 9,9 0 0 1 0,-18 h 23 z m 2,-5.01 v -7.981 l 4,0.533 v 6.915 z M 46,30 a 1,1 0 0 1 -2,0 V 18 a 1,1 0 0 1 2,0 z m 3.9,-3.595 -1.9,0.253 v -5.316 l 1.9,0.253 a 2.426,2.426 0 0 1 0,4.81 z M 57,27 a 3,3 0 1 1 3,-3 3,3 0 0 1 -3,3 z"
         id="path1-3" />
      <path
         d="m 15,18 a 6,6 0 1 0 6,6 6.006,6.006 0 0 0 -6,-6 z m 0,10 a 4,4 0 1 1 4,-4 4,4 0 0 1 -4,4 z"
         id="path2" />
      <polygon
         points="23.8,19.4 22.2,20.6 24.75,24 22.2,27.4 23.8,28.6 27.25,24 "
         id="polygon2" />
      <polygon
         points="29.8,19.4 28.2,20.6 30.75,24 28.2,27.4 29.8,28.6 33.25,24 "
         id="polygon3" />
    </g>
  </g>
  <path
     style="fill:#55ddff;stroke-width:0.166461"
     d="m 83.319074,23.086602 c -0.883966,-0.281677 -2.100069,-1.553102 -2.337367,-2.443696 -0.616586,-2.314093 1.144998,-4.662635 3.497331,-4.662635 1.167495,0 2.44106,0.713603 3.05987,1.714504 0.97407,1.575522 0.719106,3.374469 -0.648933,4.578665 -1.090899,0.960248 -2.268067,1.228311 -3.570901,0.813162 z"
     id="path3"
     transform="translate(-5,-10)" />
  <path
     style="fill:#55ddff;stroke-width:0.166461"
     d="m 43.683017,21.927296 c -2.083786,-1.404263 -1.637406,-4.306961 0.764308,-4.970106 1.273506,-0.351632 2.834449,0.587459 3.242987,1.951037 0.232931,0.777454 0.03163,1.770181 -0.49461,2.439186 -0.768702,0.977245 -2.499141,1.262911 -3.512685,0.579883 z"
     id="path4"
     transform="translate(-5,-10)" />
  <path
     style="fill:#d5f6ff;stroke-width:0.166461;fill-opacity:1"
     d="m 15.231196,39.196256 c 0,-6.475666 0.002,-6.491233 1.003798,-7.632164 1.008385,-1.148487 1.579447,-1.32872 4.447805,-1.403773 l 2.538533,-0.06642 v 7.508539 7.508539 h -3.995068 -3.995068 z"
     id="path5"
     transform="translate(-5,-10)" />
  <path
     style="fill:#d5f6ff;fill-opacity:1;stroke-width:0.166461"
     d="m 41.199137,37.602435 v -7.508539 l 2.538533,0.06642 c 2.868358,0.07505 3.43942,0.255286 4.447804,1.403773 1.001751,1.140931 1.003799,1.156498 1.003799,7.632164 v 5.914718 h -3.995068 -3.995068 z"
     id="path6"
     transform="translate(-5,-10)" />
  <path
     style="fill:#d5f6ff;fill-opacity:1;stroke-width:0.166461"
     d="m 25.218866,29.380395 v -3.412454 h 1.914303 1.914303 v 3.412454 3.412453 h -1.914303 -1.914303 z"
     id="path7"
     transform="translate(-5,-10)" />
  <path
     style="fill:#d5f6ff;fill-opacity:1;stroke-width:0.166461"
     d="m 35.372996,29.380395 v -3.412454 h 1.914304 1.914303 v 3.412454 3.412453 H 37.2873 35.372996 Z"
     id="path8"
     transform="translate(-5,-10)" />
  <path
     style="fill:#d5f6ff;fill-opacity:1;stroke-width:0.166461"
     d="m 25.218866,42.780518 v -2.330456 h 6.991368 6.991369 v 2.330456 2.330456 h -6.991369 -6.991368 z"
     id="path9"
     transform="translate(-5,-10)" />
  <path
     style="fill:#000000;fill-opacity:0;stroke:#000000;stroke-width:0.166461;stroke-opacity:1"
     d="m 30.960694,69.298559 c 0.09489,-0.675268 0.750157,-8.074957 0.750157,-8.47121 0,-0.199231 1.064944,-0.235487 6.916837,-0.235487 h 6.916838 l -0.05031,3.786991 c -0.04861,3.65836 -0.06348,3.805453 -0.437976,4.330502 -0.80068,1.122574 -0.754278,1.115615 -7.813973,1.171818 l -6.370562,0.05072 z m 9.265021,-1.139274 c 2.158236,-1.516865 1.959214,-4.886126 -0.358267,-6.065158 -1.347001,-0.685294 -2.788196,-0.554011 -3.890224,0.354374 -1.980912,1.632834 -1.663691,4.808076 0.594911,5.954796 1.067543,0.542005 2.689327,0.433691 3.65358,-0.244012 z"
     id="path10"
     transform="translate(-5,-10)" />
  <path
     style="fill:#ffffff;fill-opacity:0;stroke:none;stroke-width:0.166461;stroke-opacity:1"
     d="m 19.180093,58.589053 c -1.588952,-0.26952 -3.175267,-1.61216 -3.69017,-3.123317 -0.204894,-0.601329 -0.258727,-1.567088 -0.258727,-4.641505 V 46.942047 H 54.36688 93.502565 l -0.06634,3.953452 c -0.06151,3.665758 -0.09375,4.015217 -0.443138,4.802209 -0.467957,1.054081 -1.512002,2.095187 -2.604683,2.597349 l -0.832305,0.382502 -34.790383,0.02319 c -19.13471,0.01276 -35.148243,-0.03751 -35.585628,-0.111698 z"
     id="path11"
     transform="translate(-5,-10)" />
  <path
     style="fill:#ffffff;fill-opacity:0;stroke:#000000;stroke-width:0.166461;stroke-opacity:1"
     d="M 23.887176,79.734895 V 60.591862 h 2.99214 2.992139 l -0.07642,0.457768 c -0.04203,0.251773 -0.793583,8.697596 -1.670118,18.768496 -0.876535,10.0709 -1.628231,18.479269 -1.670435,18.685265 -0.07134,0.348193 -0.164323,0.374537 -1.322021,0.374537 h -1.245288 z"
     id="path12"
     transform="translate(-5,-10)" />
  <path
     style="fill:#000000;fill-opacity:0;stroke:#000000;stroke-width:0.166461;stroke-opacity:1"
     d="M 82.075395,98.170469 C 81.926757,97.046841 78.819359,61.672554 78.819359,61.1041 v -0.512238 h 2.91307 2.91307 V 79.734895 98.877928 H 83.40724 82.168981 Z"
     id="path13"
     transform="translate(-5,-10)" />
  <path
     style="fill:#000000;fill-opacity:0;stroke:none;stroke-width:0.166461;stroke-opacity:1"
     d="m 76.183496,37.453761 2.497593,-7.490752 h 3.56482 c 1.96065,0 3.564818,0.05525 3.564818,0.122788 0,0.06753 -1.104254,3.438372 -2.453899,7.490752 l -2.4539,7.367964 h -3.608513 -3.608512 z"
     id="path14"
     transform="translate(-5,-10)" />
  <path
     style="fill:#000000;fill-opacity:0;stroke:none;stroke-width:0.166461;stroke-opacity:1"
     d="m 64.836621,19.642417 v -8.323058 h 11.468286 c 10.969602,0 11.51481,0.01437 12.538208,0.330465 0.588459,0.181757 1.514589,0.617867 2.05807,0.969135 5.359087,3.463745 4.956822,11.535816 -0.718056,14.408876 -1.858567,0.940949 -1.808926,0.93764 -14.062122,0.93764 H 64.836621 Z m 21.989574,5.128936 c 1.254766,-0.574452 1.993603,-1.268694 2.661976,-2.501311 0.532214,-0.98151 0.567316,-1.144088 0.567316,-2.627625 0,-1.395078 -0.05492,-1.693214 -0.466151,-2.530645 -1.67656,-3.414117 -6.30171,-4.223586 -8.995782,-1.574393 -1.158748,1.139445 -1.638963,2.184762 -1.732896,3.772115 -0.155023,2.619715 1.307208,4.789018 3.837219,5.692733 1.194997,0.42685 2.899925,0.331503 4.128318,-0.230874 z M 71.387883,23.438914 c 0.379389,-0.29232 0.719094,-0.55258 0.754898,-0.578354 0.0358,-0.02577 -0.475089,-0.765535 -1.135319,-1.643912 l -1.200419,-1.59705 1.176935,-1.565807 c 0.647314,-0.861193 1.176934,-1.592436 1.176934,-1.624983 0,-0.08168 -1.447368,-1.114381 -1.561851,-1.114381 -0.08444,0 -2.86623,3.626795 -3.164547,4.125815 -0.08241,0.137858 0.445792,0.981693 1.484816,2.372071 0.887004,1.186952 1.650088,2.158094 1.695744,2.158094 0.04565,0 0.393419,-0.239172 0.772809,-0.531493 z m 6.083771,-0.326869 0.378588,-0.275749 -1.180053,-1.569955 c -0.649029,-0.863476 -1.180053,-1.60657 -1.180053,-1.65132 0,-0.04475 0.525726,-0.783332 1.168281,-1.641293 l 1.168281,-1.559929 -0.460821,-0.373 c -0.560423,-0.453621 -1.188937,-0.807387 -1.266299,-0.712751 -1.235306,1.511118 -3.110815,4.22912 -3.04199,4.408473 0.05029,0.131062 0.773325,1.141291 1.606737,2.244953 l 1.515295,2.006659 0.456722,-0.30017 c 0.251198,-0.165094 0.627088,-0.424257 0.835312,-0.575918 z"
     id="path15"
     transform="translate(-5,-10)" />
  <path
     style="fill:#000000;fill-opacity:0;stroke:none;stroke-width:0.166461;stroke-opacity:1"
     d="m 68.517072,31.759474 c 0.193542,-0.484511 0.425742,-1.086925 0.516001,-1.338697 0.158947,-0.443375 0.202848,-0.457768 1.396281,-0.457768 0.677696,0 1.232175,0.06352 1.232175,0.14116 0,0.07764 -0.211648,0.658171 -0.470329,1.290074 l -0.470329,1.148914 -1.277846,0.04862 -1.277847,0.04862 z"
     id="path16"
     transform="translate(-5,-10)" />
  <path
     style="fill:#000000;fill-opacity:0;stroke:#000000;stroke-width:0.166461;stroke-opacity:1"
     d="m 61.507398,23.122654 c -0.503545,-0.07864 -1.233893,-0.186838 -1.622996,-0.240432 l -0.70746,-0.09744 v -3.149391 c 0,-3.130574 0.0022,-3.149885 0.374538,-3.232037 0.402688,-0.08886 2.87783,-0.423081 3.133191,-0.423081 0.09023,0 0.154417,1.52213 0.154417,3.662146 0,2.829121 -0.04733,3.657719 -0.208077,3.642685 -0.114442,-0.0107 -0.620068,-0.0838 -1.123613,-0.162448 z"
     id="path17"
     transform="translate(-5,-10)" />
  <path
     style="fill:#000000;fill-opacity:0;stroke:none;stroke-width:0.166461;stroke-opacity:1"
     d="m 55.776378,25.87282 c -0.228174,-0.228174 -0.261581,-1.031771 -0.261581,-6.292232 0,-6.369811 0.0072,-6.430156 0.770477,-6.430156 0.889126,0 0.894134,0.03628 0.894134,6.478075 0,5.557618 -0.02031,5.973293 -0.304414,6.230404 -0.382308,0.345984 -0.761737,0.350788 -1.098616,0.01391 z"
     id="path18"
     transform="translate(-5,-10)" />
  <path
     style="fill:#000000;fill-opacity:0;stroke:none;stroke-width:0.166;stroke-opacity:1;stroke-dasharray:none"
     d="m 51.825364,21.815802 c -1.347528,-0.262447 -2.067636,-1.194097 -1.921957,-2.486559 0.120216,-1.066554 0.899568,-1.770296 2.13439,-1.927319 0.493268,-0.06273 1.02794,-0.151128 1.188159,-0.196452 0.267875,-0.07578 0.291307,0.112645 0.291307,2.342497 v 2.424904 l -0.540999,-0.01914 c -0.297549,-0.01053 -0.815454,-0.0726 -1.1509,-0.137928 z"
     id="path19"
     transform="translate(-5,-10)" />
  <path
     style="fill:#ffffff;fill-opacity:0;stroke:none;stroke-width:0.0276326;stroke-dasharray:none;stroke-opacity:1"
     d="m 19.180093,58.589053 c -1.588952,-0.26952 -3.175267,-1.61216 -3.69017,-3.123317 -0.204894,-0.601329 -0.258727,-1.567088 -0.258727,-4.641505 V 46.942047 H 54.36688 93.502565 l -0.06634,3.953452 c -0.06151,3.665758 -0.09375,4.015217 -0.443138,4.802209 -0.467957,1.054081 -1.512002,2.095187 -2.604683,2.597349 l -0.832305,0.382502 -34.790383,0.02319 c -19.13471,0.01276 -35.148243,-0.03751 -35.585628,-0.111698 z"
     id="path20"
     transform="translate(-5,-10)" />
  <path
     style="fill:#ffffff;fill-opacity:0;stroke:none;stroke-width:0.0276326;stroke-dasharray:none;stroke-opacity:1"
     d="M 82.241678,98.170469 C 82.125488,97.459806 79.859366,71.818595 79.056633,62.131628 l -0.113802,-1.373305 h 2.768104 2.768103 v 18.976572 18.976572 h -1.074454 -1.074455 z"
     id="path21"
     transform="translate(-5,-10)" />
  <path
     style="fill:#ffffff;fill-opacity:0;stroke:none;stroke-width:0.0276326;stroke-dasharray:none;stroke-opacity:1"
     d="m 76.183496,37.453761 2.497593,-7.490752 h 3.56482 c 1.96065,0 3.564818,0.05525 3.564818,0.122788 0,0.06753 -1.104254,3.438372 -2.453899,7.490752 l -2.4539,7.367964 h -3.608513 -3.608512 z"
     id="path22"
     transform="translate(-5,-10)" />
  <path
     style="fill:#ffffff;fill-opacity:0;stroke:none;stroke-width:0.0276326;stroke-dasharray:none;stroke-opacity:1"
     d="m 64.836621,19.642417 v -8.323058 h 11.468286 c 10.969602,0 11.51481,0.01437 12.538208,0.330465 0.588459,0.181757 1.514589,0.617867 2.05807,0.969135 5.359087,3.463745 4.956822,11.535816 -0.718056,14.408876 -1.858567,0.940949 -1.808926,0.93764 -14.062122,0.93764 H 64.836621 Z m 21.989574,5.128936 c 1.254766,-0.574452 1.993603,-1.268694 2.661976,-2.501311 0.532214,-0.98151 0.567316,-1.144088 0.567316,-2.627625 0,-1.395078 -0.05492,-1.693214 -0.466151,-2.530645 -1.67656,-3.414117 -6.30171,-4.223586 -8.995782,-1.574393 -1.158748,1.139445 -1.638963,2.184762 -1.732896,3.772115 -0.155023,2.619715 1.307208,4.789018 3.837219,5.692733 1.194997,0.42685 2.899925,0.331503 4.128318,-0.230874 z M 71.387883,23.438914 c 0.379389,-0.29232 0.719094,-0.55258 0.754898,-0.578354 0.0358,-0.02577 -0.475089,-0.765535 -1.135319,-1.643912 l -1.200419,-1.59705 1.176935,-1.565807 c 0.647314,-0.861193 1.176934,-1.592436 1.176934,-1.624983 0,-0.08168 -1.447368,-1.114381 -1.561851,-1.114381 -0.08444,0 -2.86623,3.626795 -3.164547,4.125815 -0.08241,0.137858 0.445792,0.981693 1.484816,2.372071 0.887004,1.186952 1.650088,2.158094 1.695744,2.158094 0.04565,0 0.393419,-0.239172 0.772809,-0.531493 z m 6.083771,-0.326869 0.378588,-0.275749 -1.180053,-1.569955 c -0.649029,-0.863476 -1.180053,-1.60657 -1.180053,-1.65132 0,-0.04475 0.525726,-0.783332 1.168281,-1.641293 l 1.168281,-1.559929 -0.460821,-0.373 c -0.560423,-0.453621 -1.188937,-0.807387 -1.266299,-0.712751 -1.235306,1.511118 -3.110815,4.22912 -3.04199,4.408473 0.05029,0.131062 0.773325,1.141291 1.606737,2.244953 l 1.515295,2.006659 0.456722,-0.30017 c 0.251198,-0.165094 0.627088,-0.424257 0.835312,-0.575918 z"
     id="path23"
     transform="translate(-5,-10)" />
  <path
     style="fill:#ffffff;fill-opacity:0;stroke:none;stroke-width:0.0276326;stroke-dasharray:none;stroke-opacity:1"
     d="m 61.340937,22.95414 c -0.503545,-0.07863 -1.160661,-0.185481 -1.460258,-0.237438 l -0.544722,-0.09447 0.04534,-3.026746 0.04534,-3.026746 1.41492,-0.206559 c 0.778206,-0.113608 1.51011,-0.172861 1.626455,-0.131672 0.266251,0.09426 0.222168,6.775747 -0.04507,6.831729 -0.09155,0.01918 -0.578453,-0.02947 -1.081998,-0.108101 z"
     id="path24"
     transform="translate(-5,-10)" />
  <path
     style="fill:#ffffff;fill-opacity:0;stroke:none;stroke-width:0.0276326;stroke-dasharray:none;stroke-opacity:1"
     d="m 55.776378,25.87282 c -0.228174,-0.228174 -0.261581,-1.031771 -0.261581,-6.292232 0,-6.369811 0.0072,-6.430156 0.770477,-6.430156 0.889126,0 0.894134,0.03628 0.894134,6.478075 0,5.557618 -0.02031,5.973293 -0.304414,6.230404 -0.382308,0.345984 -0.761737,0.350788 -1.098616,0.01391 z"
     id="path25"
     transform="translate(-5,-10)" />
  <path
     style="fill:#ffffff;fill-opacity:0;stroke:none;stroke-width:0.0276326;stroke-dasharray:none;stroke-opacity:1"
     d="m 51.825364,21.815802 c -1.347528,-0.262447 -2.067636,-1.194097 -1.921957,-2.486559 0.120216,-1.066554 0.899568,-1.770296 2.13439,-1.927319 0.493268,-0.06273 1.02794,-0.151128 1.188159,-0.196452 0.267875,-0.07578 0.291307,0.112645 0.291307,2.342497 v 2.424904 l -0.540999,-0.01914 c -0.297549,-0.01053 -0.815454,-0.0726 -1.1509,-0.137928 z"
     id="path26"
     transform="translate(-5,-10)" />
  <path
     style="fill:#ffffff;fill-opacity:0;stroke:none;stroke-width:0.0276326;stroke-dasharray:none;stroke-opacity:1"
     d="m 68.517072,31.759474 c 0.193542,-0.484511 0.425742,-1.086925 0.516001,-1.338697 0.158947,-0.443375 0.202848,-0.457768 1.396281,-0.457768 0.677696,0 1.232175,0.06352 1.232175,0.14116 0,0.07764 -0.211648,0.658171 -0.470329,1.290074 l -0.470329,1.148914 -1.277846,0.04862 -1.277847,0.04862 z"
     id="path27"
     transform="translate(-5,-10)" />
  <path
     style="fill:#ffffff;fill-opacity:0;stroke:none;stroke-width:0.0276326;stroke-dasharray:none;stroke-opacity:1"
     d="m 76.183496,37.453761 2.497593,-7.490752 h 3.56482 c 1.96065,0 3.564818,0.05525 3.564818,0.122788 0,0.06753 -1.104254,3.438372 -2.453899,7.490752 l -2.4539,7.367964 h -3.608513 -3.608512 z"
     id="path28"
     transform="translate(-5,-10)" />
  <path
     style="fill:#ffffff;fill-opacity:0;stroke-width:0.0276326"
     d="M 19.180074,58.58515 C 18.098933,58.370322 16.833745,57.603311 16.207366,56.782967 15.272345,55.558408 15.147965,54.839208 15.147965,50.65721 v -3.715163 h 39.128923 39.128923 l -0.05217,4.119914 -0.05217,4.119913 -0.515827,0.915537 c -0.551597,0.979022 -1.685292,1.963693 -2.701203,2.346129 -0.512672,0.192993 -6.237859,0.2345 -35.401959,0.25666 -19.13471,0.01454 -35.110798,-0.03723 -35.502417,-0.11505 z"
     id="path29"
     transform="translate(-5,-10)" />
  <path
     style="fill:#ffffff;fill-opacity:0;stroke-width:0.0276326"
     d="M 23.970407,79.734895 V 60.758323 h 2.852827 2.852827 l -0.104727,1.040382 c -0.0576,0.572211 -0.781459,8.718404 -1.608576,18.102651 -0.827117,9.384248 -1.549723,17.455534 -1.60579,17.93619 l -0.101942,0.873921 h -1.14231 -1.142309 z"
     id="path30"
     transform="translate(-5,-10)" />
  <path
     style="fill:#ffffff;fill-opacity:0;stroke-width:0.0276326"
     d="M 82.174017,97.671085 C 81.946869,95.393743 80.373313,77.526608 79.744086,70.080148 79.376612,65.73135 79.038379,61.854886 78.992455,61.465783 l -0.0835,-0.70746 h 2.826656 2.826655 v 18.976572 18.976572 h -1.142241 -1.14224 z"
     id="path31"
     transform="translate(-5,-10)" />
  <path
     style="fill:#ffffff;fill-opacity:0;stroke-width:0.0276326"
     d="m 73.742294,44.824971 c 0,-0.06932 1.104255,-3.441619 2.4539,-7.493999 l 2.453899,-7.367963 h 3.63315 c 3.384676,0 3.626776,0.01992 3.539944,0.291307 -0.05126,0.160219 -1.1675,3.51233 -2.480526,7.449137 l -2.387321,7.157829 -3.606523,0.04486 c -1.983588,0.02467 -3.606523,-0.01185 -3.606523,-0.08117 z"
     id="path32"
     transform="translate(-5,-10)" />
  <path
     style="fill:#ffffff;fill-opacity:0;stroke-width:0.0276326"
     d="m 64.919852,19.642417 v -8.323058 l 11.527435,0.0035 11.527436,0.0035 1.099737,0.388218 c 6.697283,2.364207 7.629156,11.394708 1.555679,15.075621 -1.955419,1.185108 -1.834455,1.175255 -14.428941,1.175255 H 64.919852 Z m 21.842983,5.190046 c 1.733274,-0.764478 3.142671,-2.683214 3.382823,-4.605336 0.209997,-1.680754 -0.766804,-4.076257 -2.04857,-5.023907 -1.289509,-0.953376 -1.874579,-1.137258 -3.61805,-1.137124 -1.482423,1.14e-4 -1.755705,0.04858 -2.496917,0.442807 -2.787759,1.482725 -3.919368,4.610039 -2.673446,7.388335 1.008647,2.249193 2.99314,3.474775 5.420055,3.347312 0.77531,-0.04072 1.546208,-0.196895 2.034105,-0.412087 z m -15.383791,-1.37584 c 0.384251,-0.282581 0.698638,-0.584838 0.698638,-0.671682 0,-0.08684 -0.486899,-0.803407 -1.081998,-1.592365 -0.595098,-0.788957 -1.081997,-1.500579 -1.081997,-1.581381 0,-0.0808 0.486899,-0.792423 1.081997,-1.581381 0.595099,-0.788957 1.081998,-1.491658 1.081998,-1.561556 0,-0.196302 -1.311352,-1.188788 -1.487922,-1.126122 -0.08604,0.03054 -0.868295,1.002992 -1.738341,2.161013 l -1.581902,2.105491 1.613392,2.174393 c 0.887365,1.195916 1.654816,2.177314 1.705444,2.180884 0.05063,0.0036 0.40644,-0.224713 0.790691,-0.507294 z m 5.623645,-0.01382 c 0.40407,-0.290181 0.734672,-0.576828 0.734672,-0.636994 0,-0.06016 -0.520185,-0.803961 -1.155967,-1.652879 l -1.155967,-1.543486 1.155967,-1.537912 c 0.635782,-0.845851 1.155967,-1.581028 1.155967,-1.633725 0,-0.118505 -1.35345,-1.123382 -1.513062,-1.123382 -0.06368,0 -0.839783,0.968822 -1.724667,2.152938 l -1.608881,2.152938 1.630317,2.175052 c 0.896674,1.196278 1.656559,2.175052 1.688633,2.175052 0.03207,0 0.388918,-0.237421 0.792988,-0.527602 z"
     id="path33"
     transform="translate(-5,-10)" />
  <path
     style="fill:#ffffff;fill-opacity:0;stroke-width:0.0276326"
     d="m 68.249075,32.485227 c 0,-0.07764 0.211648,-0.658171 0.470329,-1.290074 l 0.470329,-1.148914 1.277847,-0.04862 1.277846,-0.04862 -0.351894,0.880929 c -0.193542,0.484511 -0.425742,1.086925 -0.516001,1.338697 -0.158947,0.443375 -0.202848,0.457768 -1.396281,0.457768 -0.677696,0 -1.232175,-0.06352 -1.232175,-0.14116 z"
     id="path34"
     transform="translate(-5,-10)" />
  <path
     style="fill:#ffffff;fill-opacity:0;stroke-width:0.0276326"
     d="m 61.257707,22.955175 c -0.503545,-0.0792 -1.158986,-0.186201 -1.456536,-0.237774 l -0.540998,-0.09377 0.0096,-2.364529 c 0.0053,-1.300491 0.06242,-2.662249 0.12698,-3.02613 0.128574,-0.724655 0.08317,-0.705204 2.298579,-0.984664 l 0.853771,-0.107697 0.119399,1.910916 c 0.141555,2.265525 -0.0299,5.09575 -0.306971,5.067113 -0.103555,-0.0107 -0.600272,-0.08426 -1.103817,-0.163466 z"
     id="path35"
     transform="translate(-5,-10)" />
  <path
     style="fill:#ffffff;fill-opacity:0;stroke-width:0.0276326"
     d="m 55.690697,25.764441 c -0.222593,-0.317795 -0.259131,-1.194337 -0.259131,-6.216494 0,-5.452622 0.02051,-5.865094 0.304414,-6.122024 0.423899,-0.383624 0.96068,-0.343617 1.267528,0.09447 0.222474,0.317626 0.259131,1.188885 0.259131,6.159062 0,5.567154 -0.01276,5.801866 -0.332923,6.122025 -0.436578,0.436578 -0.917351,0.422206 -1.239019,-0.03704 z"
     id="path36"
     transform="translate(-5,-10)" />
  <path
     style="fill:#ffffff;fill-opacity:0;stroke-width:0.0276326"
     d="m 51.784582,21.792338 c -1.675694,-0.328919 -2.455884,-2.063497 -1.549993,-3.446062 0.353553,-0.53959 1.026007,-0.848439 2.195538,-1.008383 l 1.003905,-0.137292 v 2.386136 2.386136 l -0.457768,-0.01824 c -0.251773,-0.01003 -0.78803,-0.08307 -1.191682,-0.162297 z"
     id="path37"
     transform="translate(-5,-10)" />
  <path
     style="fill:#ffffff;fill-opacity:0;stroke-width:0.0276326"
     d="m 31.125204,69.539149 c -0.01525,-1.04643 0.774067,-8.559535 0.909123,-8.653431 0.09675,-0.06726 3.150789,-0.123444 6.786755,-0.124846 l 6.610848,-0.0025 -0.100264,3.62053 c -0.103518,3.738007 -0.177426,4.144023 -0.868134,4.769104 -0.501414,0.453774 -2.214232,0.576513 -8.216615,0.588795 -3.988023,0.0082 -5.11935,-0.03549 -5.121713,-0.197603 z m 8.205795,-0.800699 c 1.420714,-0.394536 2.502509,-1.913488 2.504854,-3.517075 0.0029,-1.994732 -1.365971,-3.452594 -3.378574,-3.598172 -1.26759,-0.09169 -2.059882,0.18779 -2.854986,1.007091 -1.397992,1.440535 -1.43749,3.570664 -0.09348,5.041153 1.021781,1.117934 2.326854,1.482259 3.822182,1.067003 z"
     id="path38"
     transform="translate(-5,-10)" />
  <path
     style="fill:#ffffff;fill-opacity:1;stroke-width:0.0276326"
     d="M 19.180074,58.58515 C 18.098933,58.370322 16.833745,57.603311 16.207366,56.782967 15.272345,55.558408 15.147965,54.839208 15.147965,50.65721 v -3.715163 h 39.128923 39.128923 l -0.05217,4.119914 -0.05217,4.119913 -0.515827,0.915537 c -0.551597,0.979022 -1.685292,1.963693 -2.701203,2.346129 -0.512672,0.192993 -6.237859,0.2345 -35.401959,0.25666 -19.13471,0.01454 -35.110798,-0.03723 -35.502417,-0.11505 z"
     id="path39"
     transform="translate(-5,-10)" />
  <path
     style="fill:#ffffff;fill-opacity:1;stroke-width:0.0276326"
     d="M 23.970407,79.734895 V 60.758323 h 2.852827 2.852827 l -0.104727,1.040382 c -0.0576,0.572211 -0.781459,8.718404 -1.608576,18.102651 -0.827117,9.384248 -1.549723,17.455534 -1.60579,17.93619 l -0.101942,0.873921 h -1.14231 -1.142309 z"
     id="path40"
     transform="translate(-5,-10)" />
  <path
     style="fill:#ffffff;fill-opacity:1;stroke-width:0.0276326"
     d="M 82.174017,97.671085 C 81.946869,95.393743 80.373313,77.526608 79.744086,70.080148 79.376612,65.73135 79.038379,61.854886 78.992455,61.465783 l -0.0835,-0.70746 h 2.826656 2.826655 v 18.976572 18.976572 h -1.142241 -1.14224 z"
     id="path41"
     transform="translate(-5,-10)" />
  <path
     style="fill:#ffffff;fill-opacity:1;stroke-width:0.0276326"
     d="m 73.742294,44.824971 c 0,-0.06932 1.104255,-3.441619 2.4539,-7.493999 l 2.453899,-7.367963 h 3.63315 c 3.384676,0 3.626776,0.01992 3.539944,0.291307 -0.05126,0.160219 -1.1675,3.51233 -2.480526,7.449137 l -2.387321,7.157829 -3.606523,0.04486 c -1.983588,0.02467 -3.606523,-0.01185 -3.606523,-0.08117 z"
     id="path42"
     transform="translate(-5,-10)" />
  <path
     style="fill:#ffffff;fill-opacity:1;stroke-width:0.0276326"
     d="m 64.919852,19.642417 v -8.323058 l 11.527435,0.0035 11.527436,0.0035 1.099737,0.388218 c 6.697283,2.364207 7.629156,11.394708 1.555679,15.075621 -1.955419,1.185108 -1.834455,1.175255 -14.428941,1.175255 H 64.919852 Z m 21.842983,5.190046 c 1.733274,-0.764478 3.142671,-2.683214 3.382823,-4.605336 0.209997,-1.680754 -0.766804,-4.076257 -2.04857,-5.023907 -1.289509,-0.953376 -1.874579,-1.137258 -3.61805,-1.137124 -1.482423,1.14e-4 -1.755705,0.04858 -2.496917,0.442807 -2.787759,1.482725 -3.919368,4.610039 -2.673446,7.388335 1.008647,2.249193 2.99314,3.474775 5.420055,3.347312 0.77531,-0.04072 1.546208,-0.196895 2.034105,-0.412087 z m -15.383791,-1.37584 c 0.384251,-0.282581 0.698638,-0.584838 0.698638,-0.671682 0,-0.08684 -0.486899,-0.803407 -1.081998,-1.592365 -0.595098,-0.788957 -1.081997,-1.500579 -1.081997,-1.581381 0,-0.0808 0.486899,-0.792423 1.081997,-1.581381 0.595099,-0.788957 1.081998,-1.491658 1.081998,-1.561556 0,-0.196302 -1.311352,-1.188788 -1.487922,-1.126122 -0.08604,0.03054 -0.868295,1.002992 -1.738341,2.161013 l -1.581902,2.105491 1.613392,2.174393 c 0.887365,1.195916 1.654816,2.177314 1.705444,2.180884 0.05063,0.0036 0.40644,-0.224713 0.790691,-0.507294 z m 5.623645,-0.01382 c 0.40407,-0.290181 0.734672,-0.576828 0.734672,-0.636994 0,-0.06016 -0.520185,-0.803961 -1.155967,-1.652879 l -1.155967,-1.543486 1.155967,-1.537912 c 0.635782,-0.845851 1.155967,-1.581028 1.155967,-1.633725 0,-0.118505 -1.35345,-1.123382 -1.513062,-1.123382 -0.06368,0 -0.839783,0.968822 -1.724667,2.152938 l -1.608881,2.152938 1.630317,2.175052 c 0.896674,1.196278 1.656559,2.175052 1.688633,2.175052 0.03207,0 0.388918,-0.237421 0.792988,-0.527602 z"
     id="path43"
     transform="translate(-5,-10)" />
  <path
     style="fill:#ffffff;fill-opacity:1;stroke-width:0.0276326"
     d="m 68.249075,32.485227 c 0,-0.07764 0.211648,-0.658171 0.470329,-1.290074 l 0.470329,-1.148914 1.277847,-0.04862 1.277846,-0.04862 -0.351894,0.880929 c -0.193542,0.484511 -0.425742,1.086925 -0.516001,1.338697 -0.158947,0.443375 -0.202848,0.457768 -1.396281,0.457768 -0.677696,0 -1.232175,-0.06352 -1.232175,-0.14116 z"
     id="path44"
     transform="translate(-5,-10)" />
  <path
     style="fill:#ffffff;fill-opacity:1;stroke-width:0.0276326"
     d="m 61.257707,22.955175 c -0.503545,-0.0792 -1.158986,-0.186201 -1.456536,-0.237774 l -0.540998,-0.09377 0.0096,-2.364529 c 0.0053,-1.300491 0.06242,-2.662249 0.12698,-3.02613 0.128574,-0.724655 0.08317,-0.705204 2.298579,-0.984664 l 0.853771,-0.107697 0.119399,1.910916 c 0.141555,2.265525 -0.0299,5.09575 -0.306971,5.067113 -0.103555,-0.0107 -0.600272,-0.08426 -1.103817,-0.163466 z"
     id="path45"
     transform="translate(-5,-10)" />
  <path
     style="fill:#ffffff;fill-opacity:1;stroke-width:0.0276326"
     d="m 55.690697,25.764441 c -0.222593,-0.317795 -0.259131,-1.194337 -0.259131,-6.216494 0,-5.452622 0.02051,-5.865094 0.304414,-6.122024 0.423899,-0.383624 0.96068,-0.343617 1.267528,0.09447 0.222474,0.317626 0.259131,1.188885 0.259131,6.159062 0,5.567154 -0.01276,5.801866 -0.332923,6.122025 -0.436578,0.436578 -0.917351,0.422206 -1.239019,-0.03704 z"
     id="path46"
     transform="translate(-5,-10)" />
  <path
     style="fill:#ffffff;fill-opacity:1;stroke-width:0.0276326"
     d="m 51.784582,21.792338 c -1.675694,-0.328919 -2.455884,-2.063497 -1.549993,-3.446062 0.353553,-0.53959 1.026007,-0.848439 2.195538,-1.008383 l 1.003905,-0.137292 v 2.386136 2.386136 l -0.457768,-0.01824 c -0.251773,-0.01003 -0.78803,-0.08307 -1.191682,-0.162297 z"
     id="path47"
     transform="translate(-5,-10)" />
  <path
     style="fill:#d5f6ff;fill-opacity:1;stroke-width:0.0276326"
     d="m 31.125204,69.539149 c -0.01525,-1.04643 0.774067,-8.559535 0.909123,-8.653431 0.09675,-0.06726 3.150789,-0.123444 6.786755,-0.124846 l 6.610848,-0.0025 -0.100264,3.62053 c -0.103518,3.738007 -0.177426,4.144023 -0.868134,4.769104 -0.501414,0.453774 -2.214232,0.576513 -8.216615,0.588795 -3.988023,0.0082 -5.11935,-0.03549 -5.121713,-0.197603 z m 8.205795,-0.800699 c 1.420714,-0.394536 2.502509,-1.913488 2.504854,-3.517075 0.0029,-1.994732 -1.365971,-3.452594 -3.378574,-3.598172 -1.26759,-0.09169 -2.059882,0.18779 -2.854986,1.007091 -1.397992,1.440535 -1.43749,3.570664 -0.09348,5.041153 1.021781,1.117934 2.326854,1.482259 3.822182,1.067003 z"
     id="path48"
     transform="translate(-5,-10)" />
</svg>
