<svg xmlns="http://www.w3.org/2000/svg" viewBox="0 0 60 60">
  <path fill="#ffffff" d="m 38.885,18.28 v 26.375 c 0,3.227 -2.639,5.865 -5.865,5.865 H 17.005 c -3.227,0 -5.865,-2.638 -5.865,-5.865 V 18.28 c 0,-3.24 2.638,-5.878 5.865,-5.878 H 33.02 c 3.226,0 5.865,2.638 5.865,5.878 z"/>
  <path d="M 47.364,9.332 32.367,3.558 C 28.056,1.912 23.17,2.839 19.761,5.831 H 17.018 C 10.16,5.831 4.569,11.422 4.569,18.293 v 26.375 c 0,6.858 5.578,12.449 12.449,12.449 h 11.77 l 0.261,0.105 c 1.437,0.548 2.952,0.823 4.442,0.823 1.724,0 3.435,-0.366 5.068,-1.084 3.031,-1.372 5.343,-3.814 6.545,-6.924 l 9.418,-24.611 C 56.952,19.024 53.751,11.814 47.364,9.358 Z M 38.885,44.655 c 0,3.227 -2.639,5.865 -5.865,5.865 H 17.005 c -3.227,0 -5.865,-2.638 -5.865,-5.865 V 18.28 c 0,-3.24 2.638,-5.878 5.865,-5.878 H 33.02 c 3.226,0 5.865,2.638 5.865,5.878 z"/>
</svg>
